<svg xmlns="http://www.w3.org/2000/svg" enable-background="new 0 0 2500 2500" viewBox="0 0 2500 2500"><path fill="#f2f2f2" fill-rule="evenodd" d="M1244.9,1808.4c201,0,386,3,532.8,8c359.2-205.3,234.8-605.6,105.9-832c-179.5-315.1-603.7-428.3-779.1-176.9
			c-238.1,341.2-467.9,222.2-591.9,481.3c-124.1,259.1,64.3,507.6,199.7,527.6C858.9,1811.4,1043.9,1808.4,1244.9,1808.4
			L1244.9,1808.4z M930.1,934.7c-91.9,70-244,124.2-294.5,49.8c-37.7-55.6,8.7-159.9,99.8-238.9c91-79,212.8-126.8,279.3-68.7
			C1093.4,745.9,1000.9,880.8,930.1,934.7z" class="colore9eef8 svgShape" clip-rule="evenodd"/><path fill="#dfdfdf" fill-rule="evenodd" d="M1244.9,1808.4c477.2,0,864.1,16.9,864.1,37.8c0,20.9-386.9,37.8-864.1,37.8c-477.2,0-864.1-16.9-864.1-37.8
			C380.8,1825.4,767.6,1808.4,1244.9,1808.4z" class="colord2deec svgShape" clip-rule="evenodd"/><path fill="#fff" fill-rule="evenodd" d="M1523.5,763.7c215.8,48.1,353.2,246.6,366.6,342.4c5.5,39.3-4.7-52.7-114.8-136.5
			c-98.4-74.9-175-88.8-292.1-97.8c-82.7-6.4-169.3-16.6-163.2-65.9C1325,767,1384.2,732.7,1523.5,763.7L1523.5,763.7z M959.2,683.4
			c37.2,2.2,59.8,32.7,61.3,67.9c0.7,15-11.1-24.2-52.3-29.6c-25.5-3.4-29.4,4.1-38.5-6.4C920.5,704.8,929.2,681.6,959.2,683.4z" class="colorffffff svgShape" clip-rule="evenodd"/><path fill="#dfdfdf" fill-rule="evenodd" d="M688.2,1721.2c-9.9-12.3-23.7-22.5-27.8-37.8c-4.8-18,5.8-37,3.2-55.4c-3.3-23.2-25.7-38.3-37.8-58.3
			c-11.9-19.7-6.3-26.3-7.4-49.2c-1.6-34.6-30-78.2-67.8-66.5c-38.4,11.9-32.1,47.6-25.3,74.4c4.8,19.1,1.7,21.8-3,41
			c-5.6,23.1-23.8,45.5-16.2,68c4.7,13.9,18.4,23.4,23.3,37.2c5.6,15.7-1.2,32.7-3.8,49.2c-5.5,34.7,2.4,63.5,27.6,92.1
			c2.7,2.6,5.5,5,8.4,7.2c35.3-2,75-3.8,118.5-5.5l0.3-0.3C703.5,1792.1,710.4,1748.9,688.2,1721.2z" class="colord2deec svgShape" clip-rule="evenodd"/><path fill="#fff" fill-rule="evenodd" d="M568.1,1485.2c-0.6-1.6-2.3-2.3-3.9-1.7c-1.6,0.6-2.3,2.3-1.7,3.9c3,7.8,5.5,16,7.7,24.6
			c-0.9-0.8-1.8-1.6-2.7-2.3c-4.1-3.3-8.8-6.2-14-8.7c-1.5-0.7-3.3-0.1-4,1.4c-0.7,1.5-0.1,3.3,1.5,4c4.8,2.3,9.1,4.9,12.8,7.9
			c3.5,2.8,6.6,6,9.2,9.6c3.9,18.5,6.4,38.4,8.7,59.4c-3.5-5.5-7.3-10.4-11.2-14.7c-6.9-7.5-14.6-13.4-23-17.5
			c-1.5-0.7-3.3-0.1-4.1,1.4c-0.7,1.5-0.1,3.3,1.4,4.1c7.7,3.8,14.8,9.2,21.2,16.2c6.4,7,12.2,15.5,17.3,25.5l0.6,5.7
			c1.3,12.5,2.6,25.3,4.2,38.4c0,0.1,0,0.3,0,0.4c1.6,13.7,3.5,27.7,6,41.9c-6.5-10.1-13.6-19.1-21.1-26.8
			c-11.1-11.4-23.2-20.3-36.4-26.6c-1.5-0.7-3.3-0.1-4,1.4c-0.7,1.5-0.1,3.3,1.4,4c12.6,6,24.1,14.5,34.7,25.4
			c10.5,10.8,20.1,24.1,28.6,39.7c3.7,18.8,8.5,38,14.8,57.4l0,0l0,0.1v0c3.1,9.5,6.6,19.1,10.5,28.7c-9.2-7.9-18.9-14.7-29.2-20.4
			c-14.4-8-29.8-13.9-46.2-17.7c-1.6-0.4-3.3,0.6-3.6,2.3c-0.4,1.6,0.6,3.3,2.3,3.6c16,3.7,30.8,9.4,44.7,17.1
			c13.7,7.6,26.3,17.2,38,28.8c2.7,6,5.6,11.9,8.6,17.9l6.7-0.3c-10.7-20.6-19.1-41.2-25.8-61.5c-1.1-14.8,0.6-29.6,5.3-44.3
			c4.7-15,12.4-30,23.1-45c1-1.4,0.6-3.3-0.7-4.2c-1.4-1-3.3-0.6-4.2,0.7c-11,15.5-19,31.1-23.9,46.7c-2.8,8.9-4.6,17.7-5.4,26.6
			c-9.1-32.8-14.1-64.9-17.8-95.6c3.6-13,7.5-24,11.9-33c4.4-8.9,9.1-15.8,14.2-20.7c1.2-1.1,1.3-3.1,0.1-4.3
			c-1.1-1.2-3.1-1.3-4.3-0.1c-5.7,5.4-10.8,12.8-15.5,22.4c-2.9,6-5.6,12.8-8.2,20.4c-0.9-8.1-1.7-16.1-2.5-23.9l-0.6-6.1
			c0-0.1,0-0.2,0-0.3C584.7,1555.2,580.4,1517.4,568.1,1485.2z" class="colorffffff svgShape" clip-rule="evenodd"/><path fill="#d8b2ff" fill-rule="evenodd" d="M586.8,1737.5c-10.5-5.7-23.2-8.7-30.6-18.1c-8.7-11.1-6.9-27.5-14.2-39.5c-9.2-15.2-29.2-19.1-43.6-29.4
			c-14.1-10.2-12.2-16.4-19.7-32.1c-11.4-23.6-44.1-45.6-66.9-26.3c-23.2,19.7-8.3,42.6,4.4,59.3c9,11.9,7.6,14.7,10.1,29.4
			c2.9,17.8-3.1,38.7,8.8,52.2c7.4,8.3,19.7,10.8,27.3,19c8.6,9.3,8.9,23.2,11.9,35.4c4.1,16.3,11.1,29.3,22.3,39.9
			c30.2-2.3,65.8-4.4,105.9-6.4c3.1-4.4,5.6-9.2,7.4-14.3C618.4,1782.3,610.4,1750.2,586.8,1737.5z" class="colorc4def3 svgShape" clip-rule="evenodd"/><path fill="#fff" fill-rule="evenodd" d="M433.1,1608.7c-0.9-0.9-2.3-0.9-3.2-0.1c-0.9,0.9-0.9,2.3-0.1,3.2c4.4,4.6,8.6,9.5,12.6,14.8
			c-0.8-0.3-1.7-0.6-2.6-0.8c-3.8-1.1-8-1.7-12.3-1.9c-1.3-0.1-2.3,0.9-2.4,2.2c0,1.3,0.9,2.3,2.2,2.4c4,0.2,7.8,0.7,11.3,1.7
			c3.3,0.9,6.4,2.2,9.3,3.9c8.2,11.7,15.8,24.8,23.6,38.8c-4.1-2.8-8.1-5.1-12.2-6.9c-7.1-3.2-14.1-5-21.2-5.4
			c-1.3-0.1-2.3,0.9-2.4,2.2c-0.1,1.3,0.9,2.3,2.2,2.4c6.5,0.4,13,2.1,19.6,5c6.5,2.9,13.1,7.2,19.6,12.7l2.1,3.8
			c4.6,8.3,9.3,16.9,14.3,25.5c0,0.1,0.1,0.2,0.1,0.2c5.2,9,10.7,18.2,16.5,27.4c-7.6-5.1-15.1-9.2-22.7-12.4
			c-11.1-4.7-22.2-7.2-33.2-7.8c-1.3-0.1-2.3,0.9-2.4,2.2c-0.1,1.3,0.9,2.3,2.2,2.4c10.5,0.5,21.1,3,31.7,7.4
			c10.5,4.4,21.1,10.8,31.7,19.2c8.2,12,17.2,23.9,27.3,35.6l0,0l0,0l0,0c5,5.7,10.2,11.3,15.8,16.9c-8.7-2.8-17.5-4.6-26.4-5.6
			c-12.4-1.3-24.9-0.9-37.5,1.4c-1.3,0.2-2.1,1.4-1.9,2.7c0.2,1.2,1.4,2.1,2.7,1.9c12.2-2.2,24.3-2.6,36.2-1.3
			c11.8,1.3,23.5,4.2,35,8.8c4,3.7,8.1,7.3,12.4,10.9l6.8-0.4c-15-12-28-24.8-39.6-38c-5.2-10-8.3-20.8-9.5-32.4
			c-1.2-11.8-0.3-24.6,2.7-38.2c0.3-1.2-0.5-2.5-1.7-2.7c-1.2-0.3-2.5,0.5-2.7,1.7c-3.1,14.1-4,27.3-2.8,39.6
			c0.7,7,2.1,13.7,4.1,20.1c-16.1-20.2-29.1-41-40.7-61.3c-1.4-10.1-1.9-18.9-1.5-26.5c0.4-7.5,1.7-13.7,3.8-18.6
			c0.5-1.2,0-2.5-1.2-3c-1.2-0.5-2.5,0-3,1.2c-2.4,5.4-3.7,12.2-4.2,20.2c-0.3,5-0.1,10.6,0.3,16.7c-3-5.4-6-10.7-8.8-15.9l-2.2-4.1
			c0-0.1-0.1-0.2-0.1-0.2C465.5,1652.5,451.2,1627.4,433.1,1608.7z" class="colorffffff svgShape" clip-rule="evenodd"/><path fill="#dfdfdf" fill-rule="evenodd" d="M1763.4,1709.5c10.8-13.5,25.9-24.6,30.3-41.2c5.2-19.6-6.3-40.3-3.4-60.5c3.6-25.3,28-41.8,41.2-63.7
			c13-21.4,6.9-28.7,8.1-53.7c1.8-37.7,32.7-85.3,73.9-72.6c41.9,13,35,51.9,27.7,81.2c-5.3,20.8-1.8,23.8,3.3,44.7
			c6.2,25.2,26,49.6,17.7,74.2c-5.1,15.2-20.1,25.5-25.5,40.6c-6.1,17.1,1.3,35.7,4.1,53.7c6,37.8-2.6,69.3-30.1,100.6
			c-3.3,3.2-6.8,6.1-10.4,8.7c-38-1.9-80.5-3.7-126.6-5.3c-0.6-0.7-1.3-1.3-1.9-2C1746.7,1786.9,1739.2,1739.7,1763.4,1709.5z" class="colord2deec svgShape" clip-rule="evenodd"/><path fill="#fff" fill-rule="evenodd" d="M1894.5,1452c0.7-1.7,2.6-2.6,4.3-1.9c1.7,0.7,2.6,2.6,1.9,4.3c-3.3,8.5-6,17.5-8.4,26.8
			c0.9-0.9,1.9-1.7,2.9-2.5c4.5-3.6,9.6-6.8,15.3-9.5c1.7-0.8,3.6-0.1,4.4,1.6c0.8,1.6,0.1,3.6-1.6,4.4c-5.2,2.5-9.9,5.4-14,8.6
			c-3.9,3.1-7.2,6.6-10.1,10.4c-4.2,20.2-7,41.9-9.5,64.8c3.8-6,7.9-11.3,12.3-16c7.6-8.2,15.9-14.6,25.1-19.1
			c1.6-0.8,3.6-0.1,4.4,1.5c0.8,1.6,0.1,3.6-1.5,4.4c-8.4,4.2-16.1,10.1-23.2,17.7c-7,7.6-13.3,16.9-18.9,27.9l-0.6,6.2
			c-1.4,13.6-2.9,27.6-4.6,41.9c0,0.1,0,0.3,0,0.4c-1.8,14.9-3.9,30.2-6.5,45.7c7.1-11,14.8-20.8,23.1-29.3
			c12.1-12.4,25.3-22.1,39.7-29c1.6-0.8,3.6-0.1,4.4,1.5c0.8,1.6,0.1,3.6-1.5,4.4c-13.7,6.6-26.3,15.8-37.8,27.7
			c-11.5,11.8-21.9,26.3-31.2,43.3c-4.1,20.5-9.3,41.5-16.1,62.6l0,0l0,0.1l0,0c-3.4,10.4-7.2,20.8-11.4,31.3
			c10-8.6,20.6-16,31.9-22.3c15.7-8.7,32.5-15.2,50.5-19.3c1.8-0.4,3.6,0.7,4,2.5c0.4,1.8-0.7,3.6-2.5,4
			c-17.4,4-33.7,10.3-48.7,18.6c-14.9,8.3-28.8,18.8-41.5,31.4c-3.1,7-6.5,13.9-10.1,20.9l-7.3-0.3c12.1-23,21.4-45.9,28.8-68.5
			c1.2-16.1-0.7-32.3-5.7-48.4c-5.1-16.3-13.5-32.7-25.2-49.1c-1.1-1.5-0.7-3.6,0.8-4.6c1.5-1.1,3.5-0.7,4.6,0.8
			c12,17,20.7,33.9,26.1,51c3,9.7,5,19.3,5.9,29c9.9-35.8,15.4-70.9,19.4-104.3c-3.9-14.2-8.2-26.2-13-36
			c-4.8-9.8-9.9-17.3-15.5-22.6c-1.3-1.3-1.4-3.3-0.1-4.7c1.3-1.3,3.3-1.4,4.7-0.1c6.2,5.9,11.8,14,16.9,24.5
			c3.2,6.5,6.2,13.9,8.9,22.3c1-8.8,1.9-17.5,2.8-26.1l0.7-6.7c0-0.1,0-0.2,0-0.4C1876.3,1528.4,1881.1,1487.1,1894.5,1452z" class="colorffffff svgShape" clip-rule="evenodd"/><path fill="#d8b2ff" fill-rule="evenodd" d="M1874.1,1727.3c11.5-6.2,25.3-9.5,33.3-19.7c9.5-12.1,7.6-30,15.5-43.1c10-16.6,31.9-20.8,47.6-32.1
			c15.4-11.1,13.3-17.9,21.5-35c12.4-25.7,48.1-49.8,73-28.6c25.3,21.4,9,46.5-4.8,64.7c-9.8,13-8.3,16.1-11,32.1
			c-3.2,19.4,3.4,42.3-9.6,56.9c-8.1,9.1-21.5,11.8-29.8,20.7c-9.3,10.1-9.7,25.3-13,38.6c-4.5,18-12.4,32.4-24.9,44
			c-33-2.2-71.3-4.3-114.1-6.2c-3.8-5.1-6.8-10.8-8.9-16.8C1839.6,1776.2,1848.3,1741.2,1874.1,1727.3z" class="colorc4def3 svgShape" clip-rule="evenodd"/><path fill="#fff" fill-rule="evenodd" d="M2041.7,1586.7c1-1,2.5-1,3.5-0.1c1,1,1,2.5,0.1,3.5c-4.8,5-9.4,10.4-13.8,16.2c0.9-0.3,1.8-0.6,2.8-0.9
			c4.2-1.2,8.7-1.9,13.5-2.1c1.4-0.1,2.5,1,2.6,2.4c0.1,1.4-1,2.5-2.4,2.6c-4.4,0.2-8.5,0.8-12.3,1.9c-3.6,1-7,2.4-10.1,4.3
			c-8.9,12.8-17.3,27.1-25.8,42.3c4.4-3,8.9-5.5,13.3-7.5c7.7-3.5,15.4-5.5,23.1-5.9c1.4-0.1,2.6,1,2.6,2.4c0.1,1.4-1,2.6-2.4,2.6
			c-7.1,0.4-14.2,2.2-21.4,5.5c-7.1,3.2-14.2,7.8-21.4,13.8l-2.3,4.1c-5,9.1-10.2,18.4-15.6,27.8c0,0.1-0.1,0.2-0.2,0.3
			c-5.7,9.9-11.6,19.9-18.1,29.9c8.2-5.6,16.5-10.1,24.7-13.5c12.1-5.1,24.2-7.9,36.3-8.5c1.4-0.1,2.6,1,2.6,2.4
			c0.1,1.4-1,2.6-2.4,2.6c-11.5,0.5-23,3.2-34.6,8.1c-11.5,4.8-23,11.8-34.6,20.9c-8.9,13.1-18.7,26.1-29.8,38.8l0,0l0,0l0,0
			c-5.4,6.2-11.2,12.4-17.2,18.4c9.5-3,19.1-5,28.8-6.1c13.5-1.4,27.1-0.9,40.9,1.5c1.4,0.2,2.3,1.5,2,2.9c-0.2,1.4-1.5,2.3-2.9,2
			c-13.3-2.4-26.5-2.8-39.5-1.5c-12.9,1.4-25.6,4.6-38.2,9.6c-4.7,4.4-9.7,8.7-14.8,12.9l-7.5-0.4c16.9-13.4,31.6-27.7,44.5-42.5
			c5.6-10.9,9.1-22.7,10.3-35.4c1.3-12.9,0.3-26.8-3-41.7c-0.3-1.3,0.6-2.7,1.9-3c1.3-0.3,2.7,0.6,3,1.9c3.4,15.4,4.4,29.8,3.1,43.2
			c-0.8,7.6-2.2,14.9-4.5,21.9c17.5-22,31.7-44.8,44.4-66.9c1.5-11,2-20.7,1.6-28.9c-0.4-8.2-1.8-15-4.1-20.3
			c-0.5-1.3,0-2.7,1.3-3.3c1.3-0.5,2.7,0,3.3,1.3c2.6,5.9,4.1,13.3,4.5,22.1c0.3,5.5,0.2,11.5-0.4,18.2c3.3-5.9,6.5-11.7,9.6-17.4
			l2.5-4.4c0-0.1,0.1-0.2,0.1-0.2C2006.4,1634.6,2022,1607.2,2041.7,1586.7z" class="colorffffff svgShape" clip-rule="evenodd"/><path fill="#fff" fill-rule="evenodd" d="M1182.1,902c-3.1,42.4-9.4,48.3-49.8,51.6c40.5,3.3,46.7,9.1,49.8,51.6c3.1-42.4,9.4-48.3,49.8-51.6
			C1191.5,950.4,1185.2,944.5,1182.1,902L1182.1,902z M1346.6,1014c-1.7,22.7-5,25.8-26.6,27.5c21.6,1.7,24.9,4.9,26.6,27.5
			c1.7-22.7,5-25.8,26.6-27.5C1351.6,1039.8,1348.3,1036.7,1346.6,1014L1346.6,1014z M1274.6,839.6c-1.7,23-5.1,26.1-26.9,27.9
			c21.9,1.8,25.3,4.9,26.9,27.9c1.7-23,5.1-26.1,26.9-27.9C1279.7,865.7,1276.3,862.5,1274.6,839.6z" class="colorffffff svgShape" clip-rule="evenodd"/><path fill="#fff" fill-rule="evenodd" d="M1122.5,1598c2.5,34.4,7.6,39.1,40.4,41.8c-32.8,2.6-37.9,7.4-40.4,41.8c-2.5-34.4-7.6-39.1-40.4-41.8
			C1114.9,1637.1,1120,1632.4,1122.5,1598L1122.5,1598z M989.2,1688.7c1.3,18.4,4,20.9,21.5,22.3c-17.5,1.4-20.2,3.9-21.5,22.3
			c-1.3-18.4-4-20.9-21.5-22.3C985.2,1709.6,987.9,1707,989.2,1688.7L989.2,1688.7z M1047.6,1547.4c1.4,18.6,4.1,21.2,21.8,22.6
			c-17.7,1.4-20.5,4-21.8,22.6c-1.4-18.6-4.1-21.2-21.8-22.6C1043.5,1568.5,1046.2,1566,1047.6,1547.4z" class="colorffffff svgShape" clip-rule="evenodd"/><path fill="#fff" fill-rule="evenodd" d="M1646.2,1513.2c-1.9,26.3-5.8,30-30.9,32c25.1,2,29,5.7,30.9,32c1.9-26.3,5.8-30,30.9-32
			C1652,1543.2,1648.2,1539.5,1646.2,1513.2L1646.2,1513.2z M1748.3,1582.7c-1,14.1-3.1,16-16.5,17.1c13.4,1.1,15.5,3,16.5,17.1
			c1-14.1,3.1-16,16.5-17.1C1751.4,1598.7,1749.3,1596.7,1748.3,1582.7L1748.3,1582.7z M1703.6,1474.5c-1,14.2-3.1,16.2-16.7,17.3
			c13.6,1.1,15.7,3.1,16.7,17.3c1-14.2,3.1-16.2,16.7-17.3C1706.7,1490.7,1704.6,1488.7,1703.6,1474.5z" class="colorffffff svgShape" clip-rule="evenodd"/><g class="color000000 svgShape"><path fill="#be97e7" fill-rule="evenodd" d="M1429.4,1643.4H821.2c-9.4,0-17.1-7.7-17.1-17.1V702.3c0-9.4,7.7-17.1,17.1-17.1h608.2
			c9.4,0,17.1,7.7,17.1,17.1v923.9C1446.6,1635.7,1438.9,1643.4,1429.4,1643.4L1429.4,1643.4z M821.2,1572.2h608.2
			c2.8,0,5.1-2.3,5.1-5.1V702.3c0-2.8-2.3-5.1-5.1-5.1H821.2c-2.8,0-5.1,2.3-5.1,5.1v864.8C816.1,1569.9,818.4,1572.2,821.2,1572.2z
			" class="color97c1e7 svgShape" clip-rule="evenodd"/><path fill="#fff" fill-rule="evenodd" d="M1429.4,1572.2H821.2c-2.8,0-5.1-2.3-5.1-5.1V702.3c0-2.8,2.3-5.1,5.1-5.1h608.2c2.8,0,5.1,2.3,5.1,5.1v864.8
			C1434.5,1569.9,1432.2,1572.2,1429.4,1572.2z" class="colorffffff svgShape" clip-rule="evenodd"/><path fill="#c8a4ec" fill-rule="evenodd" d="M1429.4,1572.2H821.2c-2.8,0-5.1-2.3-5.1-5.1V702.3c0-2.8,2.3-5.1,5.1-5.1h608.2c2.8,0,5.1,2.3,5.1,5.1v864.8
			C1434.5,1569.9,1432.2,1572.2,1429.4,1572.2z" class="colora4ccec svgShape" clip-rule="evenodd"/><rect width="607.9" height="864.4" x="821.4" y="702.5" fill="#f5f5f5" fill-rule="evenodd" class="coloreef8fd svgShape" clip-rule="evenodd"/><rect width="607.9" height="46.1" x="821.4" y="702.5" fill="#d7bcf3" fill-rule="evenodd" class="colorbcdbf3 svgShape" clip-rule="evenodd"/><path fill="#fff" fill-rule="evenodd" d="M929.5,718.9c-4.7,0-8.5,3.8-8.5,8.5c0,4.7,3.8,8.5,8.5,8.5c4.7,0,8.5-3.8,8.5-8.5
			C938,722.7,934.2,718.9,929.5,718.9L929.5,718.9z M850.9,718.9c-4.7,0-8.5,3.8-8.5,8.5c0,4.7,3.8,8.5,8.5,8.5
			c4.7,0,8.5-3.8,8.5-8.5C859.4,722.7,855.6,718.9,850.9,718.9L850.9,718.9z M890.2,718.9c-4.7,0-8.5,3.8-8.5,8.5
			c0,4.7,3.8,8.5,8.5,8.5c4.7,0,8.5-3.8,8.5-8.5C898.7,722.7,894.9,718.9,890.2,718.9z" class="colorffffff svgShape" clip-rule="evenodd"/><circle cx="1126.1" cy="1605.5" r="28.1" fill="#949297" fill-rule="evenodd" class="color929497 svgShape" clip-rule="evenodd"/><circle cx="1125.3" cy="1605.5" r="27.6" fill="#eaeaea" fill-rule="evenodd" class="colore0e8f5 svgShape" clip-rule="evenodd"/><path fill="#be97e7" fill-rule="evenodd" d="M799.5,767.7v139.7c0,1.8,1.5,3.2,3.2,3.2h0c1.8,0,3.2-1.5,3.2-3.2V767.7c0-1.8-1.5-3.2-3.2-3.2h0
			C800.9,764.4,799.5,765.9,799.5,767.7z" class="color97c1e7 svgShape" clip-rule="evenodd"/><path fill="#be97e7" fill-rule="evenodd" d="M799.5,918.7v139.7c0,1.8,1.5,3.2,3.2,3.2h0c1.8,0,3.2-1.5,3.2-3.2V918.7c0-1.8-1.5-3.2-3.2-3.2h0
			C800.9,915.4,799.5,916.9,799.5,918.7z" class="color97c1e7 svgShape" clip-rule="evenodd"/><path fill="#be97e7" fill-rule="evenodd" d="M1445.8,890.1v139.7c0,1.8,1.5,3.2,3.2,3.2h0c1.8,0,3.2-1.5,3.2-3.2V890.1c0-1.8-1.5-3.2-3.2-3.2h0
			C1447.2,886.8,1445.8,888.3,1445.8,890.1z" class="color97c1e7 svgShape" clip-rule="evenodd"/></g><g class="color000000 svgShape"><path fill="#e3e3e3" fill-rule="evenodd" d="M908.9,1144.7l51-0.4l0.4,51l-51,0.4L908.9,1144.7L908.9,1144.7z M909.5,1227.5l51-0.4l0.4,51l-51,0.4
			L909.5,1227.5z" class="colord4e4f2 svgShape" clip-rule="evenodd"/><path fill="#e3e3e3" fill-rule="evenodd" d="M994,1146.4l340.3-0.3c4.7,0,8.5,3.8,8.5,8.5l0,0c0,4.7-3.8,8.5-8.5,8.5l-340.3,0.3c-4.7,0-8.5-3.8-8.5-8.5
			v0C985.5,1150.2,989.3,1146.4,994,1146.4L994,1146.4z M994.1,1229.2l340.3-0.3c4.7,0,8.5,3.8,8.5,8.5l0,0c0,4.7-3.8,8.5-8.5,8.5
			l-340.3,0.3c-4.7,0-8.5-3.8-8.5-8.5l0,0C985.6,1233,989.4,1229.2,994.1,1229.2L994.1,1229.2z M994.1,1259.4l229.7-0.2
			c4.7,0,8.5,3.8,8.5,8.5l0,0c0,4.7-3.8,8.5-8.5,8.5l-229.7,0.2c-4.7,0-8.5-3.8-8.5-8.5l0,0C985.6,1263.3,989.4,1259.4,994.1,1259.4
			L994.1,1259.4z M994,1176.6l229.7-0.2c4.7,0,8.5,3.8,8.5,8.5l0,0c0,4.7-3.8,8.5-8.5,8.5l-229.7,0.2c-4.7,0-8.5-3.8-8.5-8.5l0,0
			C985.5,1180.5,989.3,1176.6,994,1176.6z" class="colord4e4f2 svgShape" clip-rule="evenodd"/></g><g class="color000000 svgShape"><path fill="#fae3a5" fill-rule="evenodd" d="M1011.7,1025.5h228.4c19.6,0,35.7,16.1,35.7,35.7v0c0,19.6-16.1,35.7-35.7,35.7h-228.4
			c-19.6,0-35.7-16.1-35.7-35.7v0C976,1041.5,992,1025.5,1011.7,1025.5z" class="colorfabda5 svgShape" clip-rule="evenodd"/><path fill="#fff" fill-rule="evenodd" d="M1011.7,1023.1h228.4c10.5,0,20,4.3,26.9,11.2l0,0c6.9,6.9,11.2,16.4,11.2,26.9v0c0,10.5-4.3,20-11.2,26.9v0
			c-6.9,6.9-16.4,11.2-26.9,11.2h-228.4c-10.5,0-20-4.3-26.9-11.2c-6.9-6.9-11.2-16.4-11.2-26.9v0c0-10.5,4.3-20,11.2-26.9h0
			C991.7,1027.4,1001.2,1023.1,1011.7,1023.1L1011.7,1023.1z M1240.1,1027.9h-228.4c-9.2,0-17.5,3.7-23.5,9.8l0,0
			c-6,6-9.8,14.4-9.8,23.5v0c0,9.2,3.7,17.5,9.8,23.5c6,6,14.4,9.8,23.5,9.8h228.4c9.2,0,17.5-3.7,23.5-9.8l0,0
			c6-6,9.8-14.4,9.8-23.5v0c0-9.2-3.7-17.5-9.8-23.5C1257.5,1031.6,1249.2,1027.9,1240.1,1027.9z" class="colorffffff svgShape" clip-rule="evenodd"/><path fill="#fff" fill-rule="evenodd" d="M1027.3,1059l-3.8-9.7l-5.3,3l6.7,8.2l-0.1,0.1l-9.9-1.8v6l10-1.8l0.1,0.1l-6.8,8.2l5,3.1l3.9-9.9l0.1-0.1
			l3.8,9.9l5.4-3l-6.9-8l0.1-0.2l10.2,1.6v-6l-10.2,1.8v-0.2l6.8-8.3l-5.3-3l-3.8,9.8H1027.3L1027.3,1059z M1062.7,1059l-3.8-9.7
			l-5.3,3l6.7,8.2l-0.1,0.1l-9.9-1.8v6l10-1.8l0.1,0.1l-6.8,8.2l5,3.1l3.9-9.9l0.1-0.1l3.8,9.9l5.4-3l-6.9-8l0.1-0.2l10.2,1.6v-6
			l-10.2,1.8v-0.2l6.8-8.3l-5.3-3l-3.8,9.8H1062.7L1062.7,1059z M1098,1059l-3.8-9.7l-5.3,3l6.7,8.2l-0.1,0.1l-9.9-1.8v6l10-1.8
			l0.1,0.1l-6.8,8.2l5,3.1l3.9-9.9l0.1-0.1l3.8,9.9l5.4-3l-6.9-8l0.1-0.2l10.2,1.6v-6l-10.2,1.8v-0.2l6.8-8.3l-5.3-3l-3.8,9.8H1098
			L1098,1059z M1133.3,1059l-3.8-9.7l-5.3,3l6.7,8.2l-0.1,0.1l-9.9-1.8v6l10-1.8l0.1,0.1l-6.8,8.2l5,3.1l3.9-9.9l0.1-0.1l3.8,9.9
			l5.4-3l-6.9-8l0.1-0.2l10.2,1.6v-6l-10.2,1.8v-0.2l6.8-8.3l-5.3-3l-3.8,9.8H1133.3L1133.3,1059z M1168.7,1059l-3.8-9.7l-5.3,3
			l6.7,8.2l-0.1,0.1l-9.9-1.8v6l10-1.8l0.1,0.1l-6.8,8.2l5,3.1l3.9-9.9l0.1-0.1l3.8,9.9l5.4-3l-6.9-8l0.1-0.2l10.2,1.6v-6l-10.2,1.8
			v-0.2l6.8-8.3l-5.3-3l-3.8,9.8H1168.7L1168.7,1059z M1204,1059l-3.8-9.7l-5.3,3l6.7,8.2l-0.1,0.1l-9.9-1.8v6l10-1.8l0.1,0.1
			l-6.8,8.2l5,3.1l3.9-9.9l0.1-0.1l3.8,9.9l5.4-3l-6.9-8l0.1-0.2l10.2,1.6v-6l-10.2,1.8v-0.2l6.8-8.3l-5.3-3l-3.8,9.8H1204
			L1204,1059z M1239.3,1059l-3.8-9.7l-5.3,3l6.7,8.2l-0.1,0.1l-9.9-1.8v6l10-1.8l0.1,0.1l-6.8,8.2l5,3.1l3.9-9.9l0.1-0.1l3.8,9.9
			l5.4-3l-6.9-8l0.1-0.2l10.2,1.6v-6l-10.2,1.8v-0.2l6.8-8.3l-5.3-3l-3.8,9.8H1239.3z" class="colorffffff svgShape" clip-rule="evenodd"/></g><g class="color000000 svgShape"><path fill="#fae3a5" fill-rule="evenodd" d="M1213.1,914.5c0.3,48.2-38.4,87.5-86.6,87.9c-48.2,0.3-87.5-38.5-87.9-86.6c-0.3-48.2,38.4-87.5,86.6-87.9
			C1173.4,827.5,1212.8,866.3,1213.1,914.5z" class="colorfabda5 svgShape" clip-rule="evenodd"/><path fill="#fff" fill-rule="evenodd" d="M1150.4,873.8c0.1,13.7-10.9,24.9-24.7,25c-13.7,0.1-24.9-10.9-25-24.7c-0.1-13.7,11-24.9,24.7-25
			C1139.1,849,1150.3,860,1150.4,873.8z" class="colorffffff svgShape" clip-rule="evenodd"/><path fill="#fff" fill-rule="evenodd" d="M1125.8,907.3L1125.8,907.3c-25.5,0.2-46,21-45.8,46.4l0,0c0,6.7,5.5,12.1,12.2,12l68-0.5
			c6.7,0,12.1-5.5,12-12.2l0,0C1172.1,927.6,1151.3,907.1,1125.8,907.3z" class="colorffffff svgShape" clip-rule="evenodd"/></g><g class="color000000 svgShape"><path fill="#985ed3" fill-rule="evenodd" d="M1417.4,1015.6c11.7,2.2,7.4,19.3-3.5,16.8c-7.4-1.7-9.7-11.7-2.6-16C1414,1014.8,1414.4,1015,1417.4,1015.6
		L1417.4,1015.6z M1350.2,1016.1l-68.4,13.1c-11.6,2.1-22.6,4.5-34.2,6.6c-11.4,2.2-10.8,0.7-16,7c-18.2,22.1-19.7,17.3-0.3,28
		c15.9,8.8,11.6,9.1,26.1-8.2c18.4,12.2,13.2,12.8,25.3-4.6c6.6,4.1,10.3,8.3,15.1,8.6c0.1,0,0.2,0,0.3,0l9.6-13.4
		c18.2,10.7,11.9,13.7,24.7-4.6c4.2,1.6,9.9,7.4,13.4,8.3c2.3,0.6,9-1.6,11.9-1.8c1.5,0.5,20.8,30.6,58,16.6
		c31.9-12,40.4-56.6,14.3-80.1c-16.8-15.1-41.4-17-59.4-4.6c-4.5,3.1-9,7.2-12.5,12.1C1353.2,1006.3,1353.2,1010.6,1350.2,1016.1z" class="color5e9bd3 svgShape" clip-rule="evenodd"/></g><g class="color000000 svgShape"><path fill="#ffd666" fill-rule="evenodd" d="M1721.9,1130c0,0-26.9,31.9-61.2,18.6c0,0-7.4-17.8-7.5-31c0-1.6,0-3.2-0.1-4.7c-0.2-14.8-0.7-23.1-0.7-23.1
			s0,0,0,0c1.6-0.6,52.4-21.5,52.4-19.8C1704,1110.1,1721.9,1130,1721.9,1130z" class="colorf9af79 svgShape" clip-rule="evenodd"/><path fill="#edc557" fill-rule="evenodd" d="M1699.8,1079.6c-4.9,9.1-21.7,26.9-46.6,33.4c-0.2-14.8-0.7-23.1-0.7-23.1s0,0,0,0
			C1653.9,1089.4,1701.3,1076.9,1699.8,1079.6z" class="colored7d57 svgShape" clip-rule="evenodd"/><path fill="#502684" fill-rule="evenodd" d="M1649.3,1064.7c34,12.3,55.8,13.5,65.5,3.6c9.8-2.3,16.2-11,19.1-26c10.1-23,1.5-59.7-12.8-41.5
			c-11.8-30.1-59-12.7-85.7-29.4c-16.2,10.6-10,36.7,1.6,45.5C1636.5,1046.9,1638.2,1063,1649.3,1064.7z" class="color263c84 svgShape" clip-rule="evenodd"/><path fill="#ffd666" fill-rule="evenodd" d="M1646.5,1093.8c0,0,52.5,7.9,60.3-27.8c7.8-35.7,20.5-58.1-15.7-68.2c-36.2-10.1-46.3,2-51.8,13.3
			C1633.8,1022.4,1631.9,1089.4,1646.5,1093.8z" class="colorf9af79 svgShape" clip-rule="evenodd"/><path fill="#502684" fill-rule="evenodd" d="M1728.8,1004c-3.7-2.8-4.9-5.9-3.6-9.3c5.6-3.2,11-3.3,16.1-0.3C1738.2,994.6,1734,997.8,1728.8,1004z" class="color263c84 svgShape" clip-rule="evenodd"/><path fill="#502684" fill-rule="evenodd" d="M1722.4,997.6c2.6,2.9,5,3.6,7.2,1.9c1.4-5.5,0.6-10.4-2.4-14.5C1727.6,987.8,1726,992,1722.4,997.6z" class="color263c84 svgShape" clip-rule="evenodd"/><path fill="#502684" fill-rule="evenodd" d="M1703.8,1008.7c6.4-2.5,11.3-1.7,14.6,2.5c-0.3,9.6-5.2,28.9-12.9,33.2
			C1704.1,1043.5,1704.4,1023.1,1703.8,1008.7z" class="color263c84 svgShape" clip-rule="evenodd"/><path fill="#502684" fill-rule="evenodd" d="M1701.4,999.4c10.8,5.3,14.4,10,10.7,14.2c-16.4,2.4-32,0.6-47-5.3
			C1674.1,1009.2,1686.2,1006.2,1701.4,999.4z" class="color263c84 svgShape" clip-rule="evenodd"/><path fill="#ffd666" fill-rule="evenodd" d="M1833.6,1756.7c0,0,20,21.6,25,24.3c5,2.7-2.2,34.1-15.8,36.2c-7.7,1.2-11.9-6.2-11.9-6.2l2.2-9.1
			l-28.6-25.7L1833.6,1756.7z" class="colorf9af79 svgShape" clip-rule="evenodd"/><path fill="#ffd666" fill-rule="evenodd" d="M1546.5,1768.1c0,0-2.5,28.9-1,34.2c1.4,5.4-27.2,21.1-38.1,12.6c-6.1-4.8-3.5-12.8-3.5-12.8l8.3-4.4
			l-0.4-37.8L1546.5,1768.1z" class="colorf9af79 svgShape" clip-rule="evenodd"/><path fill="#502684" fill-rule="evenodd" d="M1545.3,1801c0,0-14.2,2-21,1.9c-8.7-0.2-18.8-1.6-18.8-1.6s-17.5,5.5-23,7.9c-12.3,5.4-26.1,11.3-29.7,17.1
			c-1.1,1.8,1.7,7.2,6,9.3c18.2,8.5,81.5,10.2,93.1,6.1C1565.3,1837,1545.3,1801,1545.3,1801z" class="color263c84 svgShape" clip-rule="evenodd"/><path fill="#6531a5" fill-rule="evenodd" d="M1681.4,1433.8c4.5-2.2,8.7-4.2,12.7-6c14.2,16.2,30.3,34.5,46.8,53.4l-35.9,75.2
			c4.1-4.5-113.2,66.7-113.2,66.7s-26.6,95.2-36.6,155.6c-20.5,2.5-24.7,1.8-46.8-3c-4.9-71.2,6.2-181.4,14.8-195.1
			C1528,1572.7,1627.5,1460.2,1681.4,1433.8z" class="color3155a5 svgShape" clip-rule="evenodd"/><path fill="#7808d0" fill-rule="evenodd" d="M1800.2,1473.6c-4.1,61.6-27,149.3-26.1,157.9c3.5,11.4,63.2,116.8,74.4,132.1c-8.9,11.7-22,22.6-36.8,26.1
			c-2.9,0.7-103.7-125.1-109.3-135.1c-6.3-11.5-16.9-73.7-17.1-150.9l-2.9-76.4c24.9-24.5,65.4-40.7,79.4-38.1
			C1785.8,1393.9,1801.2,1458,1800.2,1473.6z" class="color4361ac svgShape" clip-rule="evenodd"/><path fill="#502684" fill-rule="evenodd" d="M1857.5,1780.2c0,0-8,11.7-12.5,16.4c-5.9,6.2-13.7,12.5-13.7,12.5s-7.5,16.5-9.3,22.2
			c-4.1,12.6-8.8,27.8-6.9,34.4c0.6,2.1,6,6.2,10.4,3.7c17-9.6,62.3-54.8,67-66C1897.8,1790.3,1857.5,1780.2,1857.5,1780.2z" class="color263c84 svgShape" clip-rule="evenodd"/><path fill="#ffd666" fill-rule="evenodd" d="M1446.5,1041c0,0-5.9-28.9-8.2-33.1c-2.3-4.3-15.7-16.7-17.1-16.4c-1.3,0.4-2,1.6-1,4.3
			c1,2.7,6.1,11,4.8,10.9c-1.3-0.1-17.7-23-22.9-21c-5.2,2-8.4,20.1-3.7,32.1c4.7,12,28.6,28.7,29.7,30.6
			C1437.2,1064.5,1446.5,1041,1446.5,1041z" class="colorf9af79 svgShape" clip-rule="evenodd"/><path fill="#ffd666" fill-rule="evenodd" d="M1852.6,1397.9c0,0,2.3,27.7,4,31.9c1.7,4.2,12.8,17.4,14.1,17.2c1.3-0.2,2.1-1.2,1.4-3.9
			c-0.7-2.7-4.5-11-3.3-10.7c1.2,0.2,14,23.5,19.1,22.2c5.1-1.3,10.1-17.9,7-29.6c-3-11.7-23.6-30.1-24.4-32
			C1864,1377,1852.6,1397.9,1852.6,1397.9z" class="colorf9af79 svgShape" clip-rule="evenodd"/><path fill="#8d41c9" fill-rule="evenodd" d="M1862.1,1404.9c-9.8,3.1-11.3,2.4-11.3,2.4s-47.6-86.7-52.4-94.6c-4.8-7.9-101.1-97.2-101.1-97.2l24.7-92.2
			c0,0,109.5,141.8,121.3,162.1c19.5,33.6,31,111.7,31,111.7S1869.8,1402.5,1862.1,1404.9z" class="color4189c9 svgShape" clip-rule="evenodd"/><path fill="#b588e3" fill-rule="evenodd" d="M1616.3,1253.9c0.3,18.9,1.4,41.9,2.9,63.6c0.1,1.3,0.8,8.9,0.9,10.2c1,14.9,3.7,40,5.8,57.6
			c0,1.9,2.7,54.2,7.6,71.5c35.9,12.6,118.8-2.7,154.9-24.1c3.2-1.9,10.5-6.9,9.9-10.7c-0.6-4.1-1.7-10.1-3-17.6
			c-4.8-26.1-13-71-15.8-123.5c-0.5-9.8-1.3-19.5-2.4-29c-2.7-24.7-7-48.2-12.8-69.1c-10.8-38.8-36-70-55.9-81.6
			c-1.3,1.9-7.1,8.9-19.9,17.1c-11.8,7.6-24.3,9.7-36.4,8.6l-10.7,11.8C1605.8,1177,1617.7,1196.9,1616.3,1253.9z" class="color88b9e3 svgShape" clip-rule="evenodd"/><path fill="#985ed3" fill-rule="evenodd" d="M1616.3,1251.8c0.3,18.9,1.3,40.2,2.7,61.9c0.1,1.3,0.2,2.6,0.3,3.8c67.6-46,78.1-130.1,78.1-130.1
			c-33.3,1.6-59.7,9.9-80.1,21.8C1616.3,1220.7,1616,1235.4,1616.3,1251.8z" class="color5e9bd3 svgShape" clip-rule="evenodd"/><path fill="#8d41c9" fill-rule="evenodd" d="M1432.5,1037c8.2-7.3,13-3.9,13-3.9s83.7,75.3,91.8,80.9c8.1,5.6,123.6,18.1,123.6,18.1s46.4,3.1,55.8,27.8
			c8.2,21.5-0.1,38.7-11.3,51c-13.2,14.7-34.2,19.5-52.7,12.5c-41.5-15.7-123.9-47.6-139-58.5c-33.5-24.2-90.2-115.1-90.2-115.1
			S1426.1,1042.7,1432.5,1037z" class="color4189c9 svgShape" clip-rule="evenodd"/><path fill="#502684" fill-rule="evenodd" d="M1637.8,1015.6c12.3-12.4,35.4-13.9,67.3-2.2c20.2-5,24.7-14.3,16.2-29.5c-12-21.4-38.1-4.5-70-24.7
			C1652.4,974.9,1604.9,988.3,1637.8,1015.6z" class="color263c84 svgShape" clip-rule="evenodd"/><path fill="#ffd666" fill-rule="evenodd" d="M1714.5,1026.2c-8.5-1.8-7.7,15.6-7,24.2C1708.7,1067.3,1727.8,1029,1714.5,1026.2z" class="colorf9af79 svgShape" clip-rule="evenodd"/><path fill="#985ed3" fill-rule="evenodd" d="M1630.8,1442.2c40,1.8,73.3-0.8,100.9-7.5c27.9-6.8,48-16.6,63.3-32.1l-1-5.6
			c-14.5,14.8-36.9,25.7-63.7,32.2c-27.1,6.6-60.8,8.9-100.3,7.2L1630.8,1442.2z" class="color5e9bd3 svgShape" clip-rule="evenodd"/><path fill="#8d41c9" fill-rule="evenodd" d="M1649.3,1130.3c12.4,1.3,26.2-0.1,36-4.6c9.8-4.5,21.2-10.7,28.4-20.9l-5.4-3.7
			c-6.6,9.3-16.6,14.8-25.5,18.9c-8.9,4.1-18.2,5.6-29.5,4.4L1649.3,1130.3z" class="color4189c9 svgShape" clip-rule="evenodd"/></g><g class="color000000 svgShape"><path fill="#fae3a5" fill-rule="evenodd" d="M1395.5,1382c-12.6,184.9-57.1,389.9-260.9,442.9l-5.1,1.3l-5.1-1.3c-203.8-53-248.3-258-260.9-442.9
				l-1.2-17.8l17.6-3.3c85-15.9,162.9-47.8,241.2-83.7l8.4-3.8l8.4,3.8c78.3,35.9,156.2,67.8,241.2,83.7l17.6,3.3L1395.5,1382z" class="colorfabda5 svgShape" clip-rule="evenodd"/><path fill="#ebcc78" fill-rule="evenodd" d="M1375.5,1379.9c-84-15.7-158.9-45.3-245.9-85.2c-87,39.9-161.9,69.5-245.9,85.2
				c17.1,252.6,92.1,384.8,245.9,424.8C1283.4,1764.7,1358.3,1632.5,1375.5,1379.9z" class="coloreb9378 svgShape" clip-rule="evenodd"/><path fill="#ebebeb" fill-rule="evenodd" d="M1336.4,1409.2c-71.9-16.8-139.3-43.6-206.8-74.1c-67.5,30.5-134.9,57.3-206.8,74.1
				c10.1,112.3,37.5,251.3,129.8,320c23.3,17.4,49.3,29.5,77,37.6c27.7-8.2,53.7-20.3,77-37.6
				C1298.9,1660.4,1326.3,1521.5,1336.4,1409.2z" class="colorfce0da svgShape" clip-rule="evenodd"/><path fill="#fae3a5" fill-rule="evenodd" d="M1336.4,1409.2c-71.9-16.8-139.3-43.6-206.8-74.1v431.7c27.7-8.2,53.7-20.3,77-37.6
				C1298.9,1660.4,1326.3,1521.5,1336.4,1409.2z" class="colorfabda5 svgShape" clip-rule="evenodd"/><g class="color000000 svgShape"><polygon fill="#2e1a47" fill-rule="evenodd" points="1053.1 1498.8 1126.2 1589.6 1218.3 1429 1261.3 1444.5 1139 1614.8 1131.3 1628.3 1120.4 1617.2 1027.8 1523.7" class="color231f20 svgShape" clip-rule="evenodd"/><polygon fill="#f3c137" fill-rule="evenodd" points="1054 1495.4 1127.1 1586.1 1219.2 1425.5 1262.2 1441 1139.9 1611.3 1132.1 1624.8 1121.2 1613.8 1028.7 1520.3" class="colorf37637 svgShape" clip-rule="evenodd"/></g></g><g class="color000000 svgShape"><path fill="#985ed3" fill-rule="evenodd" d="M1300.2,1609.5c0-13.2-9.2-24.4-21.4-27.6c14.5,1.3,25.9,13.5,25.9,28.3v32.1l-4.5,0.1V1609.5L1300.2,1609.5
			z M1216.6,1644.8v-34.5c0-32.8,26.8-59.6,59.6-59.6c2.6,0,5.2,0.2,7.7,0.5c-3.9-0.8-8-1.3-12.2-1.3c-32.8,0-59.6,26.8-59.6,59.6
			v35.4L1216.6,1644.8z" class="color5e9bd3 svgShape" clip-rule="evenodd"/><path fill="#be97e7" fill-rule="evenodd" d="M1304.7,1610.3c0-15.6-12.8-28.4-28.4-28.4c-15.6,0-28.4,12.8-28.4,28.4v34.5l-31.2,0.9v-35.4
			c0-32.8,26.8-59.6,59.6-59.6c32.8,0,59.6,26.8,59.6,59.6v32.1l-31.2,0.9V1610.3z" class="color97c1e7 svgShape" clip-rule="evenodd"/><polygon fill="#e7e7e7" fill-rule="evenodd" points="1209 1637.7 1360.7 1641.8 1365 1821.2 1209 1821.2" class="colore6e7e8 svgShape" clip-rule="evenodd"/><path fill="#c8a4ec" d="M1365.7,1821.9h-157.3V1637l0.7,0l152.3,4.2l0,0.6L1365.7,1821.9z M1209.7,1820.6h154.7l-4.3-178.1
			l-150.4-4.1V1820.6z" class="colora4ccec svgShape"/><polygon fill="#e7e7e7" fill-rule="evenodd" points="1209 1637.7 1183.5 1638.4 1181.4 1821.2 1209 1821.2" class="colore6e7e8 svgShape" clip-rule="evenodd"/><path fill="#c8a4ec" d="M1209.7,1821.9h-29l2.1-184.1l26.9-0.7V1821.9z M1182,1820.6h26.3v-182.2l-24.3,0.7L1182,1820.6z" class="colora4ccec svgShape"/><polygon fill="#f5f5f5" fill-rule="evenodd" points="1297.1 1640.1 1240.2 1638.5 1209 1637.7 1209 1821.2 1365 1821.2 1360.7 1641.8 1328.3 1641" class="coloreef8fd svgShape" clip-rule="evenodd"/><path fill="#8d41c9" fill-rule="evenodd" d="M1297.1,1640.6l-56.9-1.6l-30.7-0.8v182.6h155l-4.3-178.4l-31.9-0.9L1297.1,1640.6L1297.1,1640.6z
			 M1240.2,1638.1l56.9,1.6l31.2,0.9l32.4,0.9l0.5,0l0,0.5l4.3,179.4l0,0.5h-0.5h-156h-0.5v-0.5v-183.5v-0.5l0.5,0L1240.2,1638.1z" class="color4189c9 svgShape" clip-rule="evenodd"/><polygon fill="#be97e7" fill-rule="evenodd" points="1209 1821.2 1209 1637.7 1183.5 1638.4 1176.3 1821.2" class="color97c1e7 svgShape" clip-rule="evenodd"/><path fill="#8d41c9" fill-rule="evenodd" d="M1208.5,1820.7v-182.4l-24.5,0.7l-7.1,181.8H1208.5L1208.5,1820.7z M1209.6,1637.7v183.5v0.5h-0.5h-32.7
			h-0.6l0-0.6l7.1-182.8l0-0.5l0.5,0l25.6-0.7l0.6,0V1637.7z" class="color4189c9 svgShape" clip-rule="evenodd"/><path fill="#fff" fill-rule="evenodd" d="M1247.8,1721h69c5.9,0,10.8,4.9,10.8,10.8v0c0,5.9-4.9,10.8-10.8,10.8h-69c-5.9,0-10.8-4.9-10.8-10.8v0
			C1237,1725.8,1241.9,1721,1247.8,1721z" class="colorffffff svgShape" clip-rule="evenodd"/><path fill="#be97e7" fill-rule="evenodd" d="M1247.8,1720.3h69c3.2,0,6,1.3,8.1,3.4l0,0c2.1,2.1,3.4,5,3.4,8.1v0c0,3.2-1.3,6-3.4,8.1v0
			c-2.1,2.1-5,3.4-8.1,3.4h-69c-3.2,0-6-1.3-8.1-3.4c-2.1-2.1-3.4-5-3.4-8.1v0c0-3.2,1.3-6,3.4-8.1h0
			C1241.8,1721.6,1244.7,1720.3,1247.8,1720.3L1247.8,1720.3z M1316.8,1721.7h-69c-2.8,0-5.3,1.1-7.1,3l0,0c-1.8,1.8-3,4.3-3,7.1v0
			c0,2.8,1.1,5.3,3,7.1c1.8,1.8,4.3,3,7.1,3h69c2.8,0,5.3-1.1,7.1-3l0,0c1.8-1.8,3-4.3,3-7.1v0c0-2.8-1.1-5.3-3-7.1
			C1322.1,1722.9,1319.6,1721.7,1316.8,1721.7z" class="color97c1e7 svgShape" clip-rule="evenodd"/><path fill="#be97e7" fill-rule="evenodd" d="M1252.6,1731.1l-1.1-2.9l-1.6,0.9l2,2.5l0,0l-3-0.5v1.8l3-0.5l0,0l-2.1,2.5l1.5,0.9l1.2-3l0,0l1.2,3l1.6-0.9
			l-2.1-2.4l0-0.1l3.1,0.5v-1.8l-3.1,0.6v-0.1l2.1-2.5l-1.6-0.9L1252.6,1731.1L1252.6,1731.1L1252.6,1731.1z M1263.2,1731.1
			l-1.1-2.9l-1.6,0.9l2,2.5l0,0l-3-0.5v1.8l3-0.5l0,0l-2.1,2.5l1.5,0.9l1.2-3l0,0l1.2,3l1.6-0.9l-2.1-2.4l0-0.1l3.1,0.5v-1.8
			l-3.1,0.6v-0.1l2.1-2.5l-1.6-0.9L1263.2,1731.1L1263.2,1731.1L1263.2,1731.1z M1273.9,1731.1l-1.1-2.9l-1.6,0.9l2,2.5l0,0l-3-0.5
			v1.8l3-0.5l0,0l-2.1,2.5l1.5,0.9l1.2-3l0,0l1.2,3l1.6-0.9l-2.1-2.4l0-0.1l3.1,0.5v-1.8l-3.1,0.6v-0.1l2.1-2.5l-1.6-0.9
			L1273.9,1731.1L1273.9,1731.1L1273.9,1731.1z M1284.6,1731.1l-1.1-2.9l-1.6,0.9l2,2.5l0,0l-3-0.5v1.8l3-0.5l0,0l-2.1,2.5l1.5,0.9
			l1.2-3l0,0l1.2,3l1.6-0.9l-2.1-2.4l0-0.1l3.1,0.5v-1.8l-3.1,0.6v-0.1l2.1-2.5l-1.6-0.9L1284.6,1731.1L1284.6,1731.1L1284.6,1731.1
			z M1295.2,1731.1l-1.1-2.9l-1.6,0.9l2,2.5l0,0l-3-0.5v1.8l3-0.5l0,0l-2.1,2.5l1.5,0.9l1.2-3l0,0l1.2,3l1.6-0.9l-2.1-2.4l0-0.1
			l3.1,0.5v-1.8l-3.1,0.6v-0.1l2.1-2.5l-1.6-0.9L1295.2,1731.1L1295.2,1731.1L1295.2,1731.1z M1305.9,1731.1l-1.1-2.9l-1.6,0.9
			l2,2.5l0,0l-3-0.5v1.8l3-0.5l0,0l-2.1,2.5l1.5,0.9l1.2-3l0,0l1.2,3l1.6-0.9l-2.1-2.4l0-0.1l3.1,0.5v-1.8l-3.1,0.6v-0.1l2.1-2.5
			l-1.6-0.9L1305.9,1731.1L1305.9,1731.1L1305.9,1731.1z M1316.6,1731.1l-1.1-2.9l-1.6,0.9l2,2.5l0,0l-3-0.5v1.8l3-0.5l0,0l-2.1,2.5
			l1.5,0.9l1.2-3l0,0l1.2,3l1.6-0.9l-2.1-2.4l0-0.1l3.1,0.5v-1.8l-3.1,0.6v-0.1l2.1-2.5l-1.6-0.9L1316.6,1731.1L1316.6,1731.1z" class="color97c1e7 svgShape" clip-rule="evenodd"/><path fill="#8d41c9" fill-rule="evenodd" d="M1355.3,1656.1c0-0.3,0.2-0.5,0.5-0.6c0.3,0,0.5,0.2,0.6,0.5l1.5,63.3c0,0.3-0.2,0.5-0.5,0.6
				c-0.3,0-0.5-0.2-0.6-0.5L1355.3,1656.1z" class="color4189c9 svgShape" clip-rule="evenodd"/><path fill="#8d41c9" fill-rule="evenodd" d="M1219.2,1812.6c-0.3,0-0.5-0.2-0.5-0.5s0.2-0.5,0.5-0.5h63.3c0.3,0,0.5,0.2,0.5,0.5s-0.2,0.5-0.5,0.5
				H1219.2z" class="color4189c9 svgShape" clip-rule="evenodd"/><path fill="#8d41c9" fill-rule="evenodd" d="M1212.9,1643.9c0-0.3,0.2-0.5,0.5-0.5c0.3,0,0.5,0.2,0.5,0.5l-0.1,52.2c0,0.3-0.2,0.5-0.5,0.5
				c-0.3,0-0.5-0.2-0.5-0.5L1212.9,1643.9z" class="color4189c9 svgShape" clip-rule="evenodd"/><polygon fill="#8d41c9" fill-rule="evenodd" points="1200.4 1759.8 1200.3 1812 1199.4 1812 1199.5 1759.8" class="color4189c9 svgShape" clip-rule="evenodd"/><g class="color000000 svgShape"><path fill="#be97e7" fill-rule="evenodd" d="M1327.9,1658.1l2.1-18.7c14.1,1.9,24.4,3.9,31.1,6.1c-4.6-14.6-7.6-24.7-8.9-30.3l18.1-3.7
			c1.4,8.2,2.6,18.6,3.4,31.3c7.6-6,16.6-12,26.8-17.9l9.3,16.4c-9.8,5.6-19.5,10.1-29.4,13.3c5.9,3.3,14.6,9.7,26.1,19.1
			l-12.7,13.6c-6.1-5.5-13.7-13.3-22.5-23.2c-3.7,12.9-7.3,22.9-10.7,30l-16.8-7.6c7.1-13.8,12.4-23,15.7-27.7
			C1348.6,1658.9,1338,1658.6,1327.9,1658.1z" class="color97c1e7 svgShape" clip-rule="evenodd"/></g><g class="color000000 svgShape"><path fill="#985ed3" fill-rule="evenodd" d="M1328.3,1656.8l2.1-18.7c14.1,1.9,24.4,3.9,31.1,6.1c-4.6-14.6-7.6-24.7-8.9-30.3l18.1-3.7
			c1.4,8.2,2.6,18.6,3.4,31.3c7.6-6,16.6-12,26.8-17.9l9.3,16.4c-9.8,5.6-19.5,10.1-29.4,13.3c5.9,3.3,14.6,9.7,26.1,19.1
			l-12.7,13.6c-6.1-5.5-13.7-13.3-22.5-23.2c-3.7,12.9-7.3,22.9-10.7,30l-16.8-7.6c7.1-13.8,12.4-23,15.7-27.7
			C1349,1657.6,1338.4,1657.4,1328.3,1656.8z" class="color5e9bd3 svgShape" clip-rule="evenodd"/></g></g><g class="color000000 svgShape"><path fill="#fff" fill-rule="evenodd" d="M604.5,1363.5c0-19.8,16.1-35.9,35.9-35.9c19.8,0,35.9,16.1,35.9,35.9c0,19.8-16.1,35.9-35.9,35.9
			C620.6,1399.4,604.5,1383.4,604.5,1363.5L604.5,1363.5z M640.4,1405.6c23.3,0,42.1-18.9,42.1-42.1c0-23.3-18.9-42.1-42.1-42.1
			c-23.3,0-42.1,18.9-42.1,42.1C598.3,1386.8,617.2,1405.6,640.4,1405.6z" class="colorffffff svgShape" clip-rule="evenodd"/><path fill="#fff" fill-rule="evenodd" d="M640.4,1344.1c-10.7,0-19.4,8.7-19.4,19.4s8.7,19.4,19.4,19.4s19.4-8.7,19.4-19.4S651.2,1344.1,640.4,1344.1z
			" class="colorffffff svgShape" clip-rule="evenodd"/></g><g class="color000000 svgShape"><path fill="#fff" fill-rule="evenodd" d="M747.8,1744c0-13.9,11.3-25.2,25.2-25.2c13.9,0,25.2,11.3,25.2,25.2c0,13.9-11.3,25.2-25.2,25.2
			C759,1769.2,747.8,1757.9,747.8,1744L747.8,1744z M772.9,1773.6c16.3,0,29.5-13.2,29.5-29.5c0-16.3-13.2-29.5-29.5-29.5
			c-16.3,0-29.5,13.2-29.5,29.5C743.4,1760.3,756.6,1773.6,772.9,1773.6z" class="colorffffff svgShape" clip-rule="evenodd"/><path fill="#fff" fill-rule="evenodd" d="M772.9,1730.4c-7.5,0-13.6,6.1-13.6,13.6c0,7.5,6.1,13.6,13.6,13.6c7.5,0,13.6-6.1,13.6-13.6
			C786.6,1736.5,780.5,1730.4,772.9,1730.4z" class="colorffffff svgShape" clip-rule="evenodd"/></g><g class="color000000 svgShape"><path fill="#fff" fill-rule="evenodd" d="M1473.1,1393.1c0-13.9,11.3-25.2,25.2-25.2c13.9,0,25.2,11.3,25.2,25.2c0,13.9-11.3,25.2-25.2,25.2
			C1484.3,1418.3,1473.1,1407,1473.1,1393.1L1473.1,1393.1z M1498.2,1422.6c16.3,0,29.5-13.2,29.5-29.5c0-16.3-13.2-29.5-29.5-29.5
			c-16.3,0-29.5,13.2-29.5,29.5C1468.7,1409.4,1481.9,1422.6,1498.2,1422.6z" class="colorffffff svgShape" clip-rule="evenodd"/><path fill="#fff" fill-rule="evenodd" d="M1498.2,1379.5c-7.5,0-13.6,6.1-13.6,13.6c0,7.5,6.1,13.6,13.6,13.6c7.5,0,13.6-6.1,13.6-13.6
			C1511.9,1385.5,1505.8,1379.5,1498.2,1379.5z" class="colorffffff svgShape" clip-rule="evenodd"/></g><g class="color000000 svgShape"><path fill="#fff" fill-rule="evenodd" d="M1881.9,1240c0-24,19.5-43.5,43.5-43.5c24,0,43.5,19.5,43.5,43.5c0,24-19.5,43.5-43.5,43.5
			C1901.4,1283.5,1881.9,1264,1881.9,1240L1881.9,1240z M1925.4,1291c28.2,0,51-22.8,51-51c0-28.2-22.8-51-51-51
			c-28.2,0-51,22.8-51,51C1874.4,1268.2,1897.2,1291,1925.4,1291z" class="colorffffff svgShape" clip-rule="evenodd"/><path fill="#fff" fill-rule="evenodd" d="M1925.4,1216.4c-13,0-23.5,10.5-23.5,23.5c0,13,10.5,23.5,23.5,23.5c13,0,23.5-10.5,23.5-23.5
			C1948.9,1227,1938.4,1216.4,1925.4,1216.4z" class="colorffffff svgShape" clip-rule="evenodd"/></g></svg>