<svg xmlns="http://www.w3.org/2000/svg" enable-background="new 0 0 2500 2500" viewBox="0 0 2500 2500"><path fill="#f2f2f2" fill-rule="evenodd" d="M1244.9,1768.2c186.3,0,357.8,2.8,493.9,7.5c333-190.4,217.7-561.4,98.1-771.3
			c-166.4-292.1-559.7-397.1-722.3-164c-220.8,316.3-433.8,206-548.8,446.2c-115,240.3,59.6,470.6,185.1,489.1
			C887,1771,1058.5,1768.2,1244.9,1768.2L1244.9,1768.2z M953.1,958.2c-85.2,64.9-226.2,115.2-273.1,46.2
			c-35-51.5,8.1-148.2,92.5-221.5c84.3-73.3,197.3-117.6,258.9-63.7C1104.5,783.2,1018.7,908.2,953.1,958.2z" class="colore9eef8 svgShape" clip-rule="evenodd"/><path fill="#dfdfdf" fill-rule="evenodd" d="M1244.9,1768.2c442.5,0,801.1,15.7,801.1,35.1c0,19.4-358.7,35.1-801.1,35.1c-442.4,0-801.1-15.7-801.1-35.1
			C443.8,1783.9,802.4,1768.2,1244.9,1768.2z" class="colord2deec svgShape" clip-rule="evenodd"/><path fill="#fff" fill-rule="evenodd" d="M1503.2,799.7c200.1,44.6,327.4,228.6,339.9,317.4c5.1,36.5-4.4-48.9-106.4-126.5
			c-91.2-69.4-162.2-82.3-270.8-90.7c-76.7-5.9-157-15.4-151.3-61.1C1319.1,802.7,1374,770.9,1503.2,799.7L1503.2,799.7z M980,725.3
			c34.4,2.1,55.4,30.4,56.9,63c0.6,13.9-10.3-22.4-48.5-27.5c-23.7-3.1-27.2,3.8-35.7-5.9C944.2,745.1,952.3,723.6,980,725.3z" class="colorffffff svgShape" clip-rule="evenodd"/><path fill="#dfdfdf" fill-rule="evenodd" d="M728.8,1687.4c-9.1-11.4-22-20.9-25.8-35c-4.5-16.7,5.4-34.3,2.9-51.4c-3.1-21.5-23.8-35.5-35-54.1
			c-11-18.2-5.9-24.3-6.9-45.6c-1.5-32-27.8-72.5-62.8-61.7c-35.6,11-29.8,44.1-23.5,69c4.5,17.7,1.5,20.3-2.8,38
			c-5.2,21.4-22.1,42.1-15.1,63c4.4,12.9,17,21.7,21.6,34.5c5.2,14.6-1.1,30.3-3.5,45.6c-5.1,32.1,2.2,58.9,25.6,85.4
			c2.5,2.4,5.1,4.6,7.8,6.7c32.7-1.8,69.5-3.6,109.9-5.1l0.3-0.3C743,1753.1,749.3,1713.1,728.8,1687.4z" class="colord2deec svgShape" clip-rule="evenodd"/><path fill="#fff" fill-rule="evenodd" d="M617.4,1468.6c-0.6-1.4-2.2-2.2-3.6-1.6c-1.5,0.6-2.2,2.2-1.6,3.6c2.8,7.3,5.1,14.9,7.1,22.8
			c-0.8-0.7-1.6-1.4-2.5-2.1c-3.8-3.1-8.1-5.7-13-8c-1.4-0.7-3.1-0.1-3.7,1.3c-0.7,1.4-0.1,3.1,1.3,3.7c4.5,2.1,8.4,4.6,11.9,7.3
			c3.3,2.6,6.1,5.6,8.6,8.9c3.6,17.1,5.9,35.6,8.1,55c-3.3-5.1-6.7-9.6-10.4-13.6c-6.4-7-13.5-12.4-21.3-16.3
			c-1.4-0.7-3.1-0.1-3.8,1.3c-0.7,1.4-0.1,3.1,1.3,3.8c7.1,3.5,13.7,8.6,19.7,15c5.9,6.4,11.3,14.3,16,23.7l0.5,5.3
			c1.2,11.6,2.4,23.5,3.9,35.6c0,0.1,0,0.2,0,0.3c1.5,12.7,3.3,25.6,5.5,38.8c-6.1-9.4-12.6-17.7-19.6-24.9
			c-10.3-10.6-21.5-18.8-33.7-24.7c-1.4-0.7-3.1-0.1-3.7,1.3c-0.7,1.4-0.1,3.1,1.3,3.8c11.6,5.6,22.3,13.4,32.1,23.5
			c9.8,10,18.6,22.3,26.5,36.8c3.5,17.4,7.9,35.2,13.7,53.2l0,0l0,0.1v0c2.9,8.8,6.1,17.7,9.7,26.6c-8.5-7.3-17.5-13.6-27.1-18.9
			c-13.3-7.4-27.6-12.9-42.9-16.4c-1.5-0.4-3,0.6-3.4,2.1c-0.4,1.5,0.6,3,2.1,3.4c14.8,3.4,28.6,8.7,41.4,15.8
			c12.7,7.1,24.4,16,35.2,26.7c2.5,5.5,5.2,11.1,8,16.6l6.2-0.3c-10-19.1-17.7-38.2-23.9-57.1c-1.1-13.7,0.6-27.4,4.9-41.1
			c4.4-13.9,11.5-27.8,21.4-41.7c0.9-1.3,0.6-3-0.7-3.9c-1.3-0.9-3-0.6-3.9,0.7c-10.2,14.4-17.6,28.8-22.1,43.3
			c-2.6,8.2-4.2,16.4-5,24.6c-8.4-30.4-13.1-60.2-16.5-88.6c3.3-12,7-22.2,11.1-30.6c4-8.3,8.4-14.7,13.2-19.2
			c1.1-1.1,1.2-2.8,0.1-4c-1.1-1.1-2.8-1.2-4-0.1c-5.3,5-10.1,11.9-14.4,20.8c-2.7,5.5-5.2,11.8-7.6,18.9
			c-0.8-7.5-1.6-14.9-2.3-22.2l-0.6-5.7c0-0.1,0-0.2,0-0.3C632.8,1533.5,628.8,1498.4,617.4,1468.6z" class="colorffffff svgShape" clip-rule="evenodd"/><path fill="#d8b2ff" fill-rule="evenodd" d="M634.8,1702.4c-9.8-5.3-21.5-8-28.3-16.8c-8-10.3-6.4-25.4-13.2-36.6c-8.5-14.1-27.1-17.7-40.4-27.3
			c-13.1-9.4-11.3-15.2-18.3-29.7c-10.6-21.9-40.8-42.3-62-24.3c-21.5,18.2-7.7,39.5,4.1,55c8.4,11,7.1,13.7,9.3,27.3
			c2.7,16.5-2.9,35.9,8.2,48.4c6.9,7.7,18.3,10,25.3,17.6c7.9,8.6,8.2,21.5,11.1,32.8c3.8,15.1,10.3,27.2,20.7,37
			c28-2.1,61-4.1,98.1-5.9c2.9-4.1,5.2-8.5,6.8-13.2C664.1,1744,656.7,1714.3,634.8,1702.4z" class="colorc4def3 svgShape" clip-rule="evenodd"/><path fill="#fff" fill-rule="evenodd" d="M492.3,1583c-0.8-0.8-2.2-0.9-3-0.1c-0.8,0.8-0.9,2.2-0.1,3c4.1,4.2,8,8.8,11.7,13.8
			c-0.8-0.3-1.6-0.5-2.4-0.7c-3.6-1-7.4-1.6-11.4-1.7c-1.2,0-2.2,0.9-2.2,2c0,1.2,0.9,2.2,2,2.2c3.7,0.1,7.2,0.7,10.4,1.6
			c3.1,0.9,5.9,2.1,8.6,3.6c7.6,10.9,14.7,23,21.9,35.9c-3.8-2.6-7.5-4.7-11.3-6.4c-6.5-3-13.1-4.6-19.7-5c-1.2-0.1-2.2,0.8-2.2,2
			c-0.1,1.2,0.8,2.2,2,2.2c6,0.3,12.1,1.9,18.2,4.7c6,2.7,12.1,6.7,18.2,11.7l1.9,3.5c4.3,7.7,8.6,15.6,13.2,23.7
			c0,0.1,0.1,0.2,0.1,0.2c4.8,8.4,9.9,16.9,15.3,25.4c-7-4.7-14-8.6-21-11.5c-10.3-4.3-20.5-6.7-30.8-7.2c-1.2-0.1-2.2,0.9-2.2,2
			c-0.1,1.2,0.9,2.2,2,2.2c9.8,0.5,19.6,2.7,29.4,6.9c9.8,4.1,19.6,10,29.4,17.8c7.6,11.1,15.9,22.2,25.3,33l0,0l0,0l0,0
			c4.6,5.3,9.5,10.5,14.6,15.6c-8.1-2.6-16.2-4.3-24.5-5.2c-11.5-1.2-23-0.8-34.7,1.3c-1.2,0.2-1.9,1.3-1.7,2.5
			c0.2,1.2,1.3,1.9,2.5,1.7c11.3-2,22.5-2.4,33.5-1.2c10.9,1.2,21.7,3.9,32.4,8.1c3.7,3.4,7.5,6.8,11.5,10.1l6.3-0.3
			c-13.9-11.1-26-23-36.7-35.2c-4.8-9.2-7.7-19.3-8.8-30.1c-1.1-11-0.2-22.8,2.5-35.4c0.3-1.1-0.5-2.3-1.6-2.5
			c-1.1-0.2-2.3,0.5-2.5,1.6c-2.8,13.1-3.7,25.3-2.6,36.7c0.6,6.5,1.9,12.7,3.8,18.6c-14.9-18.7-27-38-37.8-56.8
			c-1.3-9.4-1.7-17.5-1.4-24.6c0.4-7,1.5-12.7,3.5-17.3c0.5-1.1,0-2.3-1.1-2.8c-1.1-0.5-2.3,0-2.8,1.1c-2.2,5-3.5,11.3-3.9,18.7
			c-0.2,4.7-0.1,9.8,0.3,15.4c-2.8-5-5.5-9.9-8.2-14.8l-2.1-3.8c0-0.1-0.1-0.1-0.1-0.2C522.3,1623.7,509.1,1600.4,492.3,1583z" class="colorffffff svgShape" clip-rule="evenodd"/><path fill="#dfdfdf" fill-rule="evenodd" d="M1725.6,1676.5c10-12.5,24-22.8,28.1-38.2c4.9-18.2-5.8-37.4-3.2-56.1c3.3-23.5,26-38.7,38.2-59
			c12-19.9,6.4-26.6,7.5-49.8c1.7-35,30.3-79.1,68.6-67.3c38.8,12,32.5,48.1,25.6,75.2c-4.9,19.3-1.7,22.1,3,41.5
			c5.7,23.4,24.1,46,16.4,68.8c-4.8,14.1-18.6,23.6-23.6,37.6c-5.7,15.9,1.2,33.1,3.8,49.8c5.6,35.1-2.4,64.3-27.9,93.2
			c-3.1,2.9-6.3,5.6-9.7,8.1c-35.3-1.8-74.6-3.4-117.4-4.9c-0.6-0.6-1.2-1.2-1.7-1.8C1710.1,1748.2,1703.2,1704.6,1725.6,1676.5z" class="colord2deec svgShape" clip-rule="evenodd"/><path fill="#fff" fill-rule="evenodd" d="M1847.2,1437.7c0.6-1.6,2.4-2.4,4-1.8c1.6,0.6,2.4,2.4,1.8,4c-3,7.9-5.6,16.2-7.8,24.9
			c0.9-0.8,1.8-1.6,2.7-2.3c4.2-3.3,8.9-6.3,14.2-8.8c1.5-0.7,3.4-0.1,4.1,1.5c0.7,1.5,0.1,3.4-1.5,4.1c-4.9,2.3-9.2,5-13,8
			c-3.6,2.9-6.7,6.1-9.3,9.7c-3.9,18.7-6.5,38.8-8.8,60.1c3.5-5.5,7.3-10.5,11.4-14.9c7-7.6,14.8-13.5,23.3-17.7
			c1.5-0.8,3.3-0.1,4.1,1.4c0.8,1.5,0.1,3.4-1.4,4.1c-7.8,3.9-14.9,9.3-21.5,16.4c-6.5,7-12.3,15.7-17.5,25.8l-0.6,5.8
			c-1.3,12.6-2.6,25.6-4.2,38.9c0,0.1,0,0.3,0,0.4c-1.7,13.8-3.6,28-6,42.3c6.6-10.2,13.8-19.3,21.4-27.1
			c11.2-11.5,23.5-20.5,36.8-26.9c1.5-0.7,3.4-0.1,4.1,1.4c0.7,1.5,0.1,3.4-1.4,4.1c-12.7,6.1-24.4,14.7-35.1,25.7
			c-10.7,11-20.3,24.4-29,40.2c-3.8,19-8.6,38.4-15,58l0,0l0,0.1l0,0c-3.1,9.6-6.6,19.3-10.6,29c9.3-8,19.1-14.8,29.6-20.7
			c14.5-8.1,30.1-14.1,46.8-17.9c1.7-0.4,3.3,0.6,3.7,2.3c0.4,1.7-0.6,3.3-2.3,3.7c-16.1,3.7-31.2,9.5-45.2,17.3
			c-13.8,7.7-26.7,17.4-38.4,29.1c-2.9,6.4-6,12.9-9.4,19.4l-6.8-0.3c11.2-21.3,19.9-42.5,26.7-63.5c1.2-15-0.6-29.9-5.3-44.9
			c-4.8-15.2-12.5-30.3-23.3-45.5c-1-1.4-0.7-3.3,0.7-4.3c1.4-1,3.3-0.7,4.3,0.7c11.1,15.7,19.2,31.5,24.2,47.2
			c2.8,9,4.6,17.9,5.5,26.9c9.2-33.2,14.3-65.7,18-96.7c-3.6-13.1-7.6-24.2-12.1-33.3c-4.4-9-9.2-16-14.4-20.9
			c-1.2-1.2-1.3-3.1-0.1-4.3c1.2-1.2,3.1-1.3,4.3-0.1c5.7,5.4,11,13,15.7,22.7c2.9,6,5.7,12.9,8.3,20.7c0.9-8.2,1.7-16.3,2.6-24.2
			l0.6-6.2c0-0.1,0-0.2,0-0.3C1830.3,1508.6,1834.7,1470.3,1847.2,1437.7z" class="colorffffff svgShape" clip-rule="evenodd"/><path fill="#d8b2ff" fill-rule="evenodd" d="M1828.2,1693c10.6-5.7,23.5-8.8,30.9-18.3c8.8-11.3,7-27.8,14.4-40c9.3-15.4,29.6-19.3,44.1-29.8
			c14.3-10.3,12.3-16.6,20-32.5c11.5-23.9,44.6-46.1,67.7-26.6c23.5,19.9,8.4,43.1-4.4,60c-9.1,12-7.7,14.9-10.2,29.8
			c-3,18,3.2,39.2-8.9,52.8c-7.5,8.4-20,10.9-27.6,19.2c-8.7,9.4-9,23.4-12.1,35.8c-4.2,16.7-11.5,30-23.1,40.8
			c-30.6-2.1-66.1-4-105.8-5.8c-3.5-4.8-6.3-10-8.3-15.6C1796.2,1738.4,1804.3,1705.9,1828.2,1693z" class="colorc4def3 svgShape" clip-rule="evenodd"/><path fill="#fff" fill-rule="evenodd" d="M1983.7,1562.7c0.9-0.9,2.4-0.9,3.3-0.1c0.9,0.9,0.9,2.4,0.1,3.3c-4.5,4.6-8.7,9.6-12.8,15
			c0.8-0.3,1.7-0.6,2.6-0.8c3.9-1.1,8.1-1.7,12.5-1.9c1.3,0,2.4,1,2.4,2.2c0,1.3-0.9,2.4-2.2,2.4c-4.1,0.2-7.9,0.7-11.4,1.7
			c-3.3,0.9-6.5,2.3-9.4,4c-8.3,11.9-16,25.1-23.9,39.2c4.1-2.8,8.2-5.1,12.3-7c7.1-3.2,14.3-5.1,21.5-5.5c1.3-0.1,2.4,0.9,2.4,2.2
			c0.1,1.3-0.9,2.4-2.2,2.4c-6.6,0.4-13.2,2.1-19.8,5.1c-6.6,3-13.2,7.3-19.8,12.8l-2.1,3.8c-4.7,8.4-9.4,17.1-14.5,25.8
			c0,0.1-0.1,0.2-0.1,0.3c-5.3,9.2-10.8,18.4-16.7,27.7c7.6-5.2,15.3-9.3,22.9-12.6c11.2-4.7,22.4-7.3,33.6-7.8
			c1.3-0.1,2.4,0.9,2.4,2.2c0.1,1.3-0.9,2.4-2.2,2.4c-10.7,0.5-21.3,3-32,7.5c-10.7,4.5-21.4,11-32.1,19.4
			c-8.3,12.1-17.4,24.2-27.6,36l0,0l0,0l0,0c-5,5.8-10.3,11.5-16,17.1c8.8-2.8,17.7-4.7,26.7-5.6c12.5-1.3,25.1-0.9,37.9,1.4
			c1.3,0.2,2.1,1.4,1.9,2.7c-0.2,1.3-1.4,2.1-2.7,1.9c-12.4-2.2-24.6-2.6-36.6-1.3c-11.9,1.3-23.7,4.2-35.4,8.9
			c-4.4,4-9,8-13.7,11.9l-7-0.3c15.7-12.4,29.3-25.7,41.2-39.4c5.2-10.1,8.4-21,9.6-32.8c1.2-12,0.3-24.8-2.7-38.6
			c-0.3-1.3,0.5-2.5,1.8-2.8c1.2-0.3,2.5,0.5,2.8,1.8c3.1,14.3,4.1,27.6,2.8,40.1c-0.7,7.1-2.1,13.9-4.2,20.3
			c16.2-20.4,29.4-41.5,41.2-62c1.4-10.2,1.9-19.1,1.5-26.8c-0.4-7.6-1.7-13.9-3.8-18.8c-0.5-1.2,0-2.5,1.2-3.1
			c1.2-0.5,2.5,0,3.1,1.2c2.4,5.5,3.8,12.3,4.2,20.5c0.3,5.1,0.2,10.7-0.3,16.9c3-5.4,6-10.8,8.9-16.1l2.3-4.1
			c0-0.1,0.1-0.2,0.1-0.2C1950.9,1607,1965.3,1581.7,1983.7,1562.7z" class="colorffffff svgShape" clip-rule="evenodd"/><path fill="#fff" fill-rule="evenodd" d="M1186.7,927.9c-2.9,39.4-8.7,44.8-46.2,47.8c37.5,3,43.3,8.5,46.2,47.8c2.9-39.4,8.7-44.8,46.2-47.8
			C1195.4,972.7,1189.6,967.3,1186.7,927.9L1186.7,927.9z M1339.2,1031.7c-1.5,21-4.6,23.9-24.7,25.5c20,1.6,23.1,4.5,24.7,25.5
			c1.5-21,4.6-23.9,24.7-25.5C1343.9,1055.6,1340.8,1052.7,1339.2,1031.7L1339.2,1031.7z M1272.4,870c-1.6,21.3-4.7,24.2-25,25.9
			c20.3,1.6,23.4,4.6,25,25.9c1.5-21.3,4.7-24.2,25-25.9C1277.1,894.2,1274,891.3,1272.4,870z" class="colorffffff svgShape" clip-rule="evenodd"/><path fill="#fff" fill-rule="evenodd" d="M1131.4,1573.1c2.3,31.9,7,36.3,37.4,38.7c-30.4,2.5-35.1,6.9-37.4,38.7c-2.3-31.9-7-36.3-37.4-38.7
			C1124.4,1609.4,1129.1,1605,1131.4,1573.1L1131.4,1573.1z M1007.8,1657.2c1.2,17,3.8,19.4,20,20.7c-16.2,1.3-18.7,3.7-20,20.7
			c-1.2-17-3.7-19.4-20-20.7C1004.1,1676.6,1006.6,1674.2,1007.8,1657.2L1007.8,1657.2z M1062,1526.2c1.3,17.2,3.8,19.6,20.2,20.9
			c-16.4,1.3-19,3.7-20.2,20.9c-1.3-17.2-3.8-19.6-20.2-20.9C1058.2,1545.8,1060.7,1543.5,1062,1526.2z" class="colorffffff svgShape" clip-rule="evenodd"/><path fill="#fff" fill-rule="evenodd" d="M1617,1494.5c-1.8,24.4-5.4,27.8-28.7,29.7c23.3,1.9,26.9,5.2,28.7,29.7c1.8-24.4,5.4-27.8,28.7-29.7
			C1622.4,1522.3,1618.8,1519,1617,1494.5L1617,1494.5z M1711.6,1558.9c-0.9,13-2.9,14.8-15.3,15.8c12.4,1,14.3,2.8,15.3,15.8
			c1-13,2.9-14.8,15.3-15.8C1714.5,1573.7,1712.5,1572,1711.6,1558.9L1711.6,1558.9z M1670.2,1458.6c-1,13.2-2.9,15-15.5,16
			c12.6,1,14.5,2.8,15.5,16c1-13.2,2.9-15,15.5-16C1673.1,1473.6,1671.1,1471.8,1670.2,1458.6z" class="colorffffff svgShape" clip-rule="evenodd"/><g class="color000000 svgShape"><path fill="#b588e3" fill-rule="evenodd" d="M1258,1094.9l11.3-24.7c60.9,27.9,75.8,34.8,136.7,62.7c3.4,1.6,4.9,5.6,3.3,9l-5.7,12.4
			c-1.6,3.4-5.6,4.9-9,3.3C1333.8,1129.7,1318.9,1122.9,1258,1094.9z" class="color88b9e3 svgShape" clip-rule="evenodd"/><polygon fill="#ffd666" fill-rule="evenodd" points="1269.4 1070.2 1258 1094.9 1230.2 1067.2" class="colorf9af79 svgShape" clip-rule="evenodd"/><rect width="8.9" height="137.2" x="1321.6" y="1042.5" fill="#8d41c9" fill-rule="evenodd" class="color4189c9 svgShape" clip-rule="evenodd" transform="rotate(-65.362 1326.055 1111.077)"/><path fill="#8d41c9" fill-rule="evenodd" d="M1394.1,1127.4l-11.3,24.7l12,5.5c3.4,1.6,7.5,0.1,9-3.3l5.7-12.4c1.6-3.4,0.1-7.5-3.3-9L1394.1,1127.4z" class="color4189c9 svgShape" clip-rule="evenodd"/><path fill="#8d41c9" fill-rule="evenodd" d="M1240.5,1077.4c7.3-0.4,8.7-3.4,3.9-9.1l-14.2-1.1L1240.5,1077.4z" class="color4189c9 svgShape" clip-rule="evenodd"/><path fill="#ffd666" fill-rule="evenodd" d="M1353,1144c-0.2-12-6.6-14.9-8-21.4c-5.5,2.4-6.9,6.9-4.3,13.4c-2.5-2-5-4.2-7.4-6.5
			c-8-3.7-14.2-6.5-18.7-8.6c2.7,7.2,6.6,15.6,11.5,25c2.9,4.6,7.3,3.7,12.8,8.2C1343.6,1148.7,1348.3,1145.3,1353,1144z" class="colorf9af79 svgShape" clip-rule="evenodd"/><path fill="#2e1a47" fill-rule="evenodd" d="M1510.2,1053.4c37.3,13.5,61.2,14.8,71.8,3.9c10.7-2.5,17.7-12,21-28.5c11.1-25.2,1.6-65.4-14-45.5
			c-12.9-33-64.7-13.9-93.9-32.2c-17.7,11.6-11,40.2,1.8,49.9C1496.2,1034,1498.1,1051.6,1510.2,1053.4z" class="color263c84 svgShape" clip-rule="evenodd"/><path fill="#2e1a47" fill-rule="evenodd" d="M1597.4,986.9c-4-3.1-5.3-6.5-3.9-10.2c6.2-3.5,12.1-3.6,17.7-0.3C1607.7,976.6,1603.1,980.1,1597.4,986.9z" class="color263c84 svgShape" clip-rule="evenodd"/><path fill="#2e1a47" fill-rule="evenodd" d="M1589.7,978.2c2.9,3.2,5.5,3.9,7.9,2.1c1.5-6.1,0.6-11.4-2.6-15.9C1595.4,967.5,1593.6,972.1,1589.7,978.2z" class="color263c84 svgShape" clip-rule="evenodd"/><path fill="#2e1a47" fill-rule="evenodd" d="M1569.9,992c7-2.8,12.3-1.8,16,2.8c-0.3,10.5-5.7,31.7-14.1,36.4C1570.3,1030.2,1570.6,1007.9,1569.9,992z" class="color263c84 svgShape" clip-rule="evenodd"/><path fill="#2e1a47" fill-rule="evenodd" d="M1567.3,981.9c11.9,5.8,15.8,11,11.8,15.6c-17.9,2.6-35.1,0.7-51.5-5.8
			C1537.5,992.6,1550.7,989.3,1567.3,981.9z" class="color263c84 svgShape" clip-rule="evenodd"/><path fill="#2e1a47" fill-rule="evenodd" d="M1497.6,999.6c13.4-13.6,38.8-15.2,73.8-2.4c22.1-5.5,27.1-15.7,17.8-32.3c-13.2-23.5-41.8-4.9-76.8-27
			C1513.7,955,1461.6,969.7,1497.6,999.6z" class="color263c84 svgShape" clip-rule="evenodd"/><path fill="#ffd666" fill-rule="evenodd" d="M1581.7,1011.2c-9.3-2-8.4,17.1-7.7,26.5C1575.3,1056.3,1596.3,1014.3,1581.7,1011.2z" class="colorf9af79 svgShape" clip-rule="evenodd"/><path fill="#ffd666" fill-rule="evenodd" d="M1592.5,1088.5c-5.1,0.4-13.2-0.6-14.7-2.4c-5.5-6.9-9.3-14.2-10.7-18.7c1.1-3,2.2-6.9,3.3-11.5
			c19.8-13.4,22.5-23.4,8.1-29.8c-2.9,1.6-6.5,6.6-10.8,15c-3.4-0.1-6-1.9-7.8-5.3c4.1-14.2,6.7-25.7,8-34.5
			c-9.8-14.5-32.6-16.6-62.8-12.7c-1.4,8-2.6,16.6-3.4,25.5c-3.8,3.5-14.7,61.4,22.4,63.8c0.2,4.2-0.1,9.4-0.4,10
			c-0.4,0.9-2,1.8-4.1,2.6l0,0C1519.1,1110.2,1543.4,1109.5,1592.5,1088.5z" class="colorf9af79 svgShape" clip-rule="evenodd"/><path fill="#2e1a47" fill-rule="evenodd" d="M1505.3,988.6c30.2-3.9,53-1.8,62.8,12.7c-1.2,8.8-3.9,20.3-8,34.5c1.8,3.4,4.4,5.1,7.8,5.3
			c4.3-8.4,7.9-13.4,10.8-15c14.4,6.5,11.7,16.4-8.1,29.8c-1.2,4.6-2.3,8.5-3.3,11.5c17.8-4,32.7-19.9,34.8-26.8
			c20.8-40.9-2.4-58.2-14.8-64.5c-5.5-40.5-64.4-4.7-93.9-24.3C1481.6,967.9,1496.1,988.2,1505.3,988.6z" class="color263c84 svgShape" clip-rule="evenodd"/><path fill="#edc557" fill-rule="evenodd" d="M1544.1,1073.7c-4.8,2.4-11.4,3.8-19.9,4.2c0.2,2.8,0,6.1-0.1,8.2C1532.5,1084.4,1539.2,1080.3,1544.1,1073.7
			z" class="colored7d57 svgShape" clip-rule="evenodd"/><path fill="#2e1a47" fill-rule="evenodd" d="M1509.6,978.6c-4.6,3.5-6,7.3-4.4,11.5c7,3.9,13.6,4.1,19.9,0.4C1521.3,990.2,1516.1,986.3,1509.6,978.6z" class="color263c84 svgShape" clip-rule="evenodd"/><path fill="#ffd666" fill-rule="evenodd" d="M1639.4,1749.9l6.7,21.5c1.1,2.6,4.6,9,5.2,11.5c2.4,9.4-43.9,2.5-35.5-4c0.8-0.6,5.3-7,4.8-10.3
			c-0.8-5.1-3-12.8-3-12.8L1639.4,1749.9z" class="colorf9af79 svgShape" clip-rule="evenodd"/><path fill="#2e1a47" fill-rule="evenodd" d="M1615.8,1778.7c0,0,10.6,0.5,15.8-0.1c5.2-0.5,10.3-8.3,14.3-7.5c4.4,0.8,10.4,20.5,10.4,20.5
			c-32.3,16.6-56.7,20.8-70.8,20.3C1579.1,1811.7,1597.4,1790.5,1615.8,1778.7z" class="color263c84 svgShape" clip-rule="evenodd"/><path fill="#ffd666" fill-rule="evenodd" d="M1543.3,1760.2l0.8,22.5c0.4,2.8,2.1,9.9,2,12.4c-0.2,9.7-43-9.1-33.2-13.2c0.9-0.4,6.9-5.4,7.3-8.7
			c0.6-5.1,0.5-13.2,0.5-13.2L1543.3,1760.2z" class="colorf9af79 svgShape" clip-rule="evenodd"/><path fill="#2e1a47" fill-rule="evenodd" d="M1513,1781.8c0,0,10.1,3.2,15.3,4.1c5.2,0.9,12.2-5.3,15.8-3.5c4,2,4.6,22.5,4.6,22.5s-60.1,5.2-73.7,1
			C1468.9,1803.9,1492.1,1788.3,1513,1781.8z" class="color263c84 svgShape" clip-rule="evenodd"/><path fill="#b588e3" fill-rule="evenodd" d="M1337.9,1154.4c13.9,59.5,38.3,105.7,73.2,138.5c12.6-3.8,23.8-12.4,33.5-25.8c-0.5,43,0.6,85.9,3.2,128.5
			c25.5,12.1,59.3,11.3,101.5-2.3l17.1-21.1c4.4-0.9,14.4,4,19.2,11.4c40.1-30.6,67.1-63.4,83-96.1c-4.3-70.1-13.8-125.5-28.6-166
			c-7.5-11.5-25-22.7-52.6-33.8c-45.7,19.6-68.2,20.2-67.7,1.8c-13.4,4.4-31.2,12.2-53.4,23.4c-18.5,14.1-34.3,52.2-47.3,114.3
			c-21.2-26.5-43.2-54.7-65.9-84.4C1348.1,1144.2,1343,1148.1,1337.9,1154.4L1337.9,1154.4z M1575.6,1353.2
			c-13.3-43.7-5.9-97.6,22-161.7c7,31.6,14.6,62.7,22.8,93.4C1611,1289.4,1596,1312.2,1575.6,1353.2z" class="color88b9e3 svgShape" clip-rule="evenodd"/><path fill="#7808d0" fill-rule="evenodd" d="M1580.6,1410.1c-6.5-0.5-16.9-6.1-31.3-16.8c-42.2,13.6-76,14.4-101.5,2.3c-4.5,71.8,13.1,147,35.5,230.8
			c21.9,36.8,21,62.7,32.7,147.6c6.5,4.6,17.2,4,32.1-2c4.7-72.4,1.5-120.4-17.3-147.4c2.9-24.3-4.7-84-5.1-121.4
			c13.7,30.5,23.1,71.6,40.9,113.2c21.7,50.6,36.8,104.8,48.2,154.2c12.1,2.4,23.4,1,34-4.2c-12.1-81.2-25.6-137.1-40.4-167.7
			c0.6-79.9-7-151.6-22.8-215.2C1582.6,1391.1,1581,1400,1580.6,1410.1z" class="color4361ac svgShape" clip-rule="evenodd"/><path fill="#ffd666" fill-rule="evenodd" d="M1549.3,1393.3c14.4,10.7,24.8,16.3,31.3,16.8c0.4-10.2,2-19,5-26.5c-4.8-7.4-14.8-12.3-19.2-11.4
			L1549.3,1393.3z" class="colorf9af79 svgShape" clip-rule="evenodd"/><path fill="#985ed3" fill-rule="evenodd" d="M1444.6,1267.1c1.4-41.8,4.7-76.1,10.1-102.8c-13.5,56.8-26.6,94.4-39.3,113c-8-0.3-18.2-5-30.5-14.3
			c8,10.9,16.7,20.9,26.2,29.8C1423.7,1289.1,1434.8,1280.5,1444.6,1267.1z" class="color5e9bd3 svgShape" clip-rule="evenodd"/><path fill="#985ed3" fill-rule="evenodd" d="M1566.4,1372.2c2.5-6.1,5.5-12.4,9.2-19c-13.3-43.7-5.9-97.6,22-161.7c-40.6,57.8-52.2,119.4-34.6,184.8
			L1566.4,1372.2z" class="color5e9bd3 svgShape" clip-rule="evenodd"/><path fill="#6531a5" fill-rule="evenodd" d="M1581,1420.3c-0.5-3.7-0.6-7.1-0.4-10.2c-6.5-0.5-16.9-6.1-31.3-16.8c-3.4,1.1-6.8,2.1-10.1,3.1
			C1549.3,1406.9,1563.3,1414.9,1581,1420.3z" class="color3155a5 svgShape" clip-rule="evenodd"/><path fill="#8d41c9" fill-rule="evenodd" d="M1522.1,1088.9c-0.1,1.9,0.3,4.3,0.8,5.7h0c0.6,1.6,1.8,2.9,3.4,3.9c1.9,1,4.4,1.7,7.5,1.9
			c11.4,0.8,29.3-3.4,55.5-13.2l6.2,3.1c-26.9,10.1-50,16-62,15.1c-3.9-0.3-7.1-1.1-9.7-2.5c-2.7-1.5-4.6-3.7-5.6-6.5v0
			c-0.8-2-1.1-3.6-0.9-6.2L1522.1,1088.9z" class="color4189c9 svgShape" clip-rule="evenodd"/><path fill="#8d41c9" fill-rule="evenodd" d="M1519.1,1107.4c-0.7,0.4-1.5,0.2-1.9-0.5c-0.4-0.7-0.2-1.5,0.5-1.9c1.7-1,5.3-1.2,10.6-0.5
			c5.1,0.7,11.9,2.1,20.5,4.3c0.8,0.2,1.2,1,1,1.7c-0.2,0.8-1,1.2-1.7,1c-8.5-2.2-15.3-3.6-20.2-4.2
			C1523.2,1106.7,1520.3,1106.7,1519.1,1107.4L1519.1,1107.4z M1518.5,1111.5c1.2-0.7,4.1-0.7,8.8-0.1c4.9,0.6,11.7,2.1,20.2,4.2
			c0.8,0.2,1.5-0.3,1.7-1c0.2-0.8-0.3-1.5-1-1.7c-8.6-2.2-15.5-3.6-20.5-4.3c-5.3-0.7-8.9-0.5-10.6,0.5c-0.7,0.4-0.9,1.3-0.5,1.9
			C1517,1111.7,1517.8,1111.9,1518.5,1111.5z" class="color4189c9 svgShape" clip-rule="evenodd"/></g><g class="color000000 svgShape"><path fill="#f5f5f5" fill-rule="evenodd" d="M1136.9,738.5H871.6h-252c72,8.7,66.4,191.8,71.5,245.6c12.3,128.5,29.7,277.9,49.9,314.7
			c26.5,48.4,85.7,79.1,99.5,132.7c27.8,107.5-15.3,410.7,99.5,398h265.4h252c-98-11.9-59.5-294.9-86.1-398
			c-13.8-53.6-73-84.3-99.5-132.7c-23.1-42.2-42.6-232.6-55-369.6C1212.6,883.4,1221.5,729.1,1136.9,738.5z" class="coloreef8fd svgShape" clip-rule="evenodd"/><path fill="#dac1f3" fill-rule="evenodd" d="M1457.3,1829.4h46.6c53.2-34.4,49.8-70.3,7.2-111.8c-26.5-25.8-20.5-14.4-54.6-4.4
			c-158.3,46.4-516.1-3.4-503.9-14.7c10.1,0.7,69.6,71.4-19.6,131.2l272.4-0.4h213.4H1457.3z" class="colorc1ddf3 svgShape" clip-rule="evenodd"/><path fill="#dfdfdf" fill-rule="evenodd" d="M981.2,1754.5c-0.5-18.2-7.7-33.6-15-43.6c-1.5-2.1-3.1-4-4.6-5.6c-2.5-2.6-5.3-4.8-8.3-6.6
			c-0.3-0.1-0.6-0.2-0.9-0.2c0,0,0.2,0,0.5,0c-16.2-6.7-36.2-5.3-43.9,18.6c-5.2,16.4,10.7,37.9,35.1,37.1
			C960,1754.4,968.3,1754.5,981.2,1754.5z" class="colord2deec svgShape" clip-rule="evenodd"/><path fill="#d8b2ff" fill-rule="evenodd" d="M976,1728.8l-17.9-1c-9.7,16.3-22.7,23.1-36.2,19.6c0,0.6,1.4,0.7,1.4,1.3c5.8,3.6,12.9,5.8,21.1,5.6
			c15.7,0.2,24,0.3,36.9,0.3C981,1745.1,978.9,1736.4,976,1728.8z" class="colorc4def3 svgShape" clip-rule="evenodd"/><path fill="#dac1f3" fill-rule="evenodd" d="M619.6,738.5c-53.9,2.1-59.6,91.5,1,130.7h63C676.8,806.5,661.1,743.5,619.6,738.5z" class="colorc1ddf3 svgShape" clip-rule="evenodd"/><path fill="#985ed3" fill-rule="evenodd" d="M843.9,865.8c3.4,32.6-20.2,59.3-52.9,59.5c-32.6,0.2-61.9-26-65.3-58.7c-3.4-32.6,20.2-59.3,52.9-59.5
				C811.2,806.9,840.4,833.2,843.9,865.8z" class="color5e9bd3 svgShape" clip-rule="evenodd"/><path fill="#fff" fill-rule="evenodd" d="M798.7,838.3c1,9.3-5.8,16.9-15.1,17c-9.3,0.1-17.6-7.4-18.6-16.7c-1-9.3,5.8-16.9,15.1-17
				C789.4,821.5,797.7,829,798.7,838.3z" class="colorffffff svgShape" clip-rule="evenodd"/><path fill="#fff" fill-rule="evenodd" d="M784.2,861L784.2,861c-17.2,0.1-29.7,14.2-27.9,31.5l0,0c0.5,4.5,4.5,8.2,9.1,8.1l46-0.3
				c4.5,0,7.8-3.7,7.3-8.3l0,0C816.9,874.8,801.5,860.9,784.2,861z" class="colorffffff svgShape" clip-rule="evenodd"/><path fill="#b588e3" fill-rule="evenodd" d="M873.3,827.3H1133c2.5,0,4.6,1,4.6,2.3v0c0,1.3-2.1,2.3-4.6,2.3H873.3c-2.5,0-4.6-1-4.6-2.3v0
			C868.7,828.3,870.8,827.3,873.3,827.3z" class="color88b9e3 svgShape" clip-rule="evenodd"/><path fill="#b588e3" fill-rule="evenodd" d="M875.4,848.8h181c2.5,0,4.6,1,4.6,2.3v0c0,1.3-2.1,2.3-4.6,2.3h-181c-2.5,0-4.6-1-4.6-2.3v0
			C870.7,849.9,872.8,848.8,875.4,848.8z" class="color88b9e3 svgShape" clip-rule="evenodd"/><path fill="#b588e3" fill-rule="evenodd" d="M877,870.4h113c2.5,0,4.6,1,4.6,2.3v0c0,1.3-2.1,2.3-4.6,2.3H877c-2.5,0-4.6-1-4.6-2.3v0
			C872.4,871.4,874.5,870.4,877,870.4z" class="color88b9e3 svgShape" clip-rule="evenodd"/><path fill="#b588e3" fill-rule="evenodd" d="M1011.5,870.4h121.6c2.5,0,4.6,1,4.6,2.3v0c0,1.3-2.1,2.3-4.6,2.3h-121.6c-2.5,0-4.6-1-4.6-2.3v0
			C1006.9,871.4,1009,870.4,1011.5,870.4z" class="color88b9e3 svgShape" clip-rule="evenodd"/><path fill="#b588e3" fill-rule="evenodd" d="M1081,848.8h52.5c2.5,0,4.6,1.1,4.6,2.3v0c0,1.3-2.1,2.3-4.6,2.3H1081c-2.5,0-4.6-1-4.6-2.3v0
			C1076.4,849.9,1078.5,848.8,1081,848.8z" class="color88b9e3 svgShape" clip-rule="evenodd"/><path fill="#b588e3" fill-rule="evenodd" d="M772.4,1028.5h384c2.5,0,4.6,1.1,4.6,2.3v0c0,1.3-2.1,2.3-4.6,2.3h-384c-2.5,0-4.6-1-4.6-2.3v0
			C767.8,1029.5,769.9,1028.5,772.4,1028.5z" class="color88b9e3 svgShape" clip-rule="evenodd"/><path fill="#b588e3" fill-rule="evenodd" d="M774.5,1050h181c2.5,0,4.6,1,4.6,2.3v0c0,1.3-2.1,2.3-4.6,2.3h-181c-2.5,0-4.6-1-4.6-2.3v0
			C769.9,1051.1,772,1050,774.5,1050z" class="color88b9e3 svgShape" clip-rule="evenodd"/><path fill="#b588e3" fill-rule="evenodd" d="M776.2,1071.5h113c2.5,0,4.6,1,4.6,2.3v0c0,1.3-2.1,2.3-4.6,2.3h-113c-2.5,0-4.6-1-4.6-2.3v0
			C771.6,1072.6,773.6,1071.5,776.2,1071.5z" class="color88b9e3 svgShape" clip-rule="evenodd"/><path fill="#b588e3" fill-rule="evenodd" d="M910.7,1071.5h255.6c2.5,0,4.6,1,4.6,2.3l0,0c0,1.3-2.1,2.3-4.6,2.3H910.7c-2.5,0-4.6-1-4.6-2.3l0,0
			C906.1,1072.6,908.1,1071.5,910.7,1071.5z" class="color88b9e3 svgShape" clip-rule="evenodd"/><path fill="#b588e3" fill-rule="evenodd" d="M980.1,1050h182.2c2.5,0,4.6,1.1,4.6,2.3v0c0,1.2-2.1,2.3-4.6,2.3H980.1c-2.5,0-4.6-1-4.6-2.3v0
			C975.5,1051.1,977.6,1050,980.1,1050z" class="color88b9e3 svgShape" clip-rule="evenodd"/><path fill="#b588e3" fill-rule="evenodd" d="M799.3,1148.4h113c2.5,0,4.6,1,4.6,2.3v0c0,1.3-2.1,2.3-4.6,2.3h-113c-2.5,0-4.6-1-4.6-2.3v0
			C794.7,1149.4,796.8,1148.4,799.3,1148.4z" class="color88b9e3 svgShape" clip-rule="evenodd"/><path fill="#b588e3" fill-rule="evenodd" d="M933.8,1148.4h255.6c2.5,0,4.6,1,4.6,2.3l0,0c0,1.3-2.1,2.3-4.6,2.3H933.8c-2.5,0-4.6-1-4.6-2.3l0,0
			C929.2,1149.4,931.2,1148.4,933.8,1148.4z" class="color88b9e3 svgShape" clip-rule="evenodd"/><path fill="#b588e3" fill-rule="evenodd" d="M801.4,1171.5h113c2.5,0,4.6,1,4.6,2.3v0c0,1.3-2.1,2.3-4.6,2.3h-113c-2.5,0-4.6-1-4.6-2.3v0
			C796.8,1172.5,798.9,1171.5,801.4,1171.5z" class="color88b9e3 svgShape" clip-rule="evenodd"/><path fill="#b588e3" fill-rule="evenodd" d="M935.9,1171.5h255.6c2.5,0,4.6,1,4.6,2.3l0,0c0,1.3-2.1,2.3-4.6,2.3H935.9c-2.5,0-4.6-1-4.6-2.3l0,0
			C931.3,1172.5,933.3,1171.5,935.9,1171.5z" class="color88b9e3 svgShape" clip-rule="evenodd"/><path fill="#b588e3" fill-rule="evenodd" d="M806.4,1194.6h113c2.5,0,4.6,1,4.6,2.3v0c0,1.3-2.1,2.3-4.6,2.3h-113c-2.5,0-4.6-1-4.6-2.3v0
			C801.8,1195.6,803.9,1194.6,806.4,1194.6z" class="color88b9e3 svgShape" clip-rule="evenodd"/><path fill="#b588e3" fill-rule="evenodd" d="M940.9,1194.6h255.6c2.5,0,4.6,1,4.6,2.3l0,0c0,1.3-2.1,2.3-4.6,2.3H940.9c-2.5,0-4.6-1-4.6-2.3l0,0
			C936.3,1195.6,938.3,1194.6,940.9,1194.6z" class="color88b9e3 svgShape" clip-rule="evenodd"/><path fill="#b588e3" fill-rule="evenodd" d="M836.9,1298.3h113c2.5,0,4.6,1,4.6,2.3v0c0,1.3-2.1,2.3-4.6,2.3h-113c-2.5,0-4.6-1-4.6-2.3v0
			C832.2,1299.3,834.3,1298.3,836.9,1298.3z" class="color88b9e3 svgShape" clip-rule="evenodd"/><path fill="#b588e3" fill-rule="evenodd" d="M971.3,1298.3h255.6c2.5,0,4.6,1,4.6,2.3l0,0c0,1.3-2.1,2.3-4.6,2.3H971.3c-2.5,0-4.6-1-4.6-2.3l0,0
			C966.7,1299.3,968.8,1298.3,971.3,1298.3z" class="color88b9e3 svgShape" clip-rule="evenodd"/><path fill="#fff" fill-rule="evenodd" d="M1098,1559.1l-7.2-110.3c-0.7-10.4-9.7-18.9-20.1-18.9H960.5c-10.4,0-18.3,8.5-17.7,18.9l7.2,110.3
			c0.7,10.4,9.7,18.9,20.1,18.9h110.3C1090.8,1578,1098.7,1569.5,1098,1559.1z" class="colorffffff svgShape" clip-rule="evenodd"/><path fill="#b588e3" fill-rule="evenodd" d="M1096.5,1559.2l-7.2-110.3c-0.3-4.8-2.6-9.2-5.9-12.3c-3.4-3.2-7.9-5.1-12.7-5.1H960.5c-0.4,0-0.8,0-1.1,0h0
			c-4.3,0.3-8.1,2.2-10.7,5c-2.7,2.9-4.3,6.8-4.3,11.1c0,0.4,0,0.8,0,1.1v0l7.2,110.3c0.3,4.8,2.6,9.2,5.9,12.3
			c3.4,3.2,7.9,5.1,12.7,5.1h110.3c0.4,0,0.8,0,1.1,0h0c4.3-0.3,8.1-2.2,10.7-5h0c2.7-2.9,4.3-6.8,4.3-11.1
			C1096.6,1560,1096.5,1559.6,1096.5,1559.2L1096.5,1559.2L1096.5,1559.2z M1092.4,1448.8l7.2,110.3c0,0.4,0,0.9,0,1.3
			c0,5.1-1.9,9.7-5.1,13.1h0c-3.2,3.4-7.7,5.7-12.8,6c-0.4,0-0.9,0-1.3,0H970.1c-5.6,0-10.8-2.3-14.7-6c-3.9-3.7-6.5-8.8-6.9-14.3
			l-7.2-110.3c0-0.4,0-0.9,0-1.3c0-5.1,1.9-9.7,5.1-13.1c3.2-3.4,7.7-5.7,12.8-6c0.4,0,0.9,0,1.3,0h110.3c5.6,0,10.8,2.3,14.7,6
			C1089.4,1438.1,1092,1443.2,1092.4,1448.8z" class="color88b9e3 svgShape" clip-rule="evenodd"/><path fill="#fff" fill-rule="evenodd" d="M1081.7,1601H971.4c-10.4,0-18.3,8.5-17.7,18.9l5.4,83.1c0.4,0.4,0.9,0.8,1.3,1.2l12.7,3
			c13.2,2.9,32.3,6.2,55.4,9.4c23.2,3.2,50.4,6.4,80.1,9.1l-6.9-105.7C1101.1,1609.5,1092.1,1601,1081.7,1601z" class="colorffffff svgShape" clip-rule="evenodd"/><path fill="#b588e3" fill-rule="evenodd" d="M1081.7,1602.5H971.4c-0.4,0-0.8,0-1.1,0h0c-4.3,0.3-8.1,2.2-10.7,5h0c-2.7,2.9-4.3,6.8-4.3,11.1
			c0,0.4,0,0.8,0,1.1v0l5.4,82.4l0.2,0.2l0,0l0.4,0.3l12.4,2.9c6.7,1.5,14.9,3,24.3,4.6c9.2,1.5,19.5,3.1,30.9,4.7
			c11.9,1.6,24.9,3.3,38.7,4.8c12.6,1.4,25.9,2.8,39.5,4.1l-6.8-103.9c-0.3-4.8-2.6-9.2-5.9-12.3
			C1091,1604.5,1086.5,1602.5,1081.7,1602.5L1081.7,1602.5z M971.4,1599.5h110.3c5.6,0,10.8,2.3,14.7,6c3.9,3.7,6.5,8.8,6.9,14.3
			l6.9,105.7l0.1,1.8l-1.8-0.2c-14.5-1.3-28.4-2.7-41.4-4.2c-13.9-1.6-26.9-3.2-38.8-4.9c-11.4-1.6-21.8-3.2-31-4.7
			c-9.5-1.6-17.8-3.2-24.5-4.7l0,0l-12.7-3l-0.7-0.4l-0.6-0.6l0,0l-0.7-0.6l-0.5-0.4l0-0.6l-5.4-83.1c0-0.5,0-0.9,0-1.3
			c0-5.1,1.9-9.7,5.1-13.1h0c3.2-3.4,7.7-5.7,12.8-6C970.5,1599.5,971,1599.5,971.4,1599.5z" class="color88b9e3 svgShape" clip-rule="evenodd"/><path fill="#fff" fill-rule="evenodd" d="M1151.4,1619.9l7.1,109.6c48,3.2,99.4,4.8,148.1,3.4c0.1-0.9,0.1-1.8,0-2.7l-7.2-110.3
			c-0.7-10.4-9.7-18.9-20.1-18.9h-110.3C1158.7,1601,1150.8,1609.5,1151.4,1619.9z" class="colorffffff svgShape" clip-rule="evenodd"/><path fill="#b588e3" fill-rule="evenodd" d="M1152.9,1619.8l7,108.2c24.7,1.6,50.3,2.8,75.9,3.4c23.3,0.5,46.6,0.6,69.3,0l0-1.1v0L1298,1620
			c-0.3-4.8-2.6-9.2-5.9-12.3c-3.4-3.2-7.9-5.1-12.7-5.1h-110.3c-0.4,0-0.8,0-1.1,0h0c-4.3,0.3-8.1,2.2-10.7,5
			c-2.7,2.9-4.3,6.8-4.3,11.1C1152.9,1619,1152.9,1619.4,1152.9,1619.8L1152.9,1619.8L1152.9,1619.8z M1157.1,1729.5l-7.1-109.6
			c0-0.4,0-0.9,0-1.3c0-5.1,1.9-9.7,5.1-13.1c3.2-3.4,7.7-5.7,12.8-6c0.4,0,0.9,0,1.3,0h110.3c5.6,0,10.8,2.3,14.7,6
			c3.9,3.7,6.5,8.8,6.9,14.3l7.2,110.3c0,0.5,0,1,0,1.5c0,0.5,0,1-0.1,1.4l-0.1,1.3l-1.4,0c-23.2,0.7-47.1,0.6-70.9,0.1
			c-26.2-0.6-52.2-1.8-77.3-3.5l-1.3-0.1L1157.1,1729.5z" class="color88b9e3 svgShape" clip-rule="evenodd"/><path fill="#fff" fill-rule="evenodd" d="M1167.8,1578H1278c10.4,0,18.3-8.5,17.7-18.9l-7.2-110.3c-0.7-10.4-9.7-18.9-20.1-18.9h-110.3
			c-10.4,0-18.3,8.5-17.7,18.9l7.2,110.3C1148.3,1569.5,1157.4,1578,1167.8,1578z" class="colorffffff svgShape" clip-rule="evenodd"/><path fill="#b588e3" fill-rule="evenodd" d="M1167.8,1576.5H1278c0.4,0,0.8,0,1.1,0h0c4.3-0.3,8.1-2.2,10.7-5h0c2.7-2.9,4.3-6.8,4.3-11.1
			c0-0.4,0-0.8,0-1.1v0l-7.2-110.3c-0.3-4.8-2.6-9.2-5.9-12.3c-3.4-3.2-7.9-5.1-12.7-5.1h-110.3c-0.4,0-0.8,0-1.1,0h0
			c-4.3,0.3-8.1,2.2-10.7,5h0c-2.7,2.9-4.3,6.8-4.3,11.1c0,0.4,0,0.8,0,1.1v0l7.2,110.3c0.3,4.8,2.6,9.2,5.9,12.3
			C1158.5,1574.5,1163,1576.5,1167.8,1576.5L1167.8,1576.5z M1278,1579.5h-110.3c-5.6,0-10.8-2.3-14.7-6c-3.9-3.7-6.5-8.8-6.9-14.3
			l-7.2-110.3c0-0.4,0-0.9,0-1.3c0-5.1,1.9-9.7,5.1-13.1h0c3.2-3.4,7.7-5.7,12.8-6c0.4,0,0.9,0,1.3,0h110.3c5.6,0,10.8,2.3,14.7,6
			c3.9,3.7,6.5,8.8,6.9,14.3l7.2,110.3c0,0.4,0,0.9,0,1.3c0,5.1-1.9,9.7-5.1,13.1h0c-3.2,3.4-7.7,5.7-12.8,6
			C1278.9,1579.5,1278.5,1579.5,1278,1579.5z" class="color88b9e3 svgShape" clip-rule="evenodd"/><polygon fill="#d7bcf3" fill-rule="evenodd" points="1080.5 1554.4 977.2 1554.4 974.3 1497.8 1077.6 1497.8" class="colorbcdbf3 svgShape" clip-rule="evenodd"/><polygon fill="#b588e3" fill-rule="evenodd" points="1077.4 1508.3 974.2 1508.3 973.7 1499.7 1077 1499.7" class="color88b9e3 svgShape" clip-rule="evenodd"/><polygon fill="#dac1f3" fill-rule="evenodd" points="971.1 1502.8 1080 1502.8 1063.8 1462.8 981.8 1462.8" class="colorc1ddf3 svgShape" clip-rule="evenodd"/><polygon fill="#c8a4ec" fill-rule="evenodd" points="1080.2 1505 971.2 1505 971.1 1502.6 1080 1502.6" class="colora4ccec svgShape" clip-rule="evenodd"/><polygon fill="#b588e3" fill-rule="evenodd" points="1064.8 1543.2 1044 1543.2 1042.4 1513.3 1063.3 1513.3" class="color88b9e3 svgShape" clip-rule="evenodd"/><polygon fill="#d7bcf3" fill-rule="evenodd" points="1063 1527.8 1057.6 1527.8 1056.9 1514.3 1062.3 1514.3" class="colorbcdbf3 svgShape" clip-rule="evenodd"/><polygon fill="#d7bcf3" fill-rule="evenodd" points="1056.4 1527.8 1050.9 1527.8 1050.2 1514.3 1055.7 1514.3" class="colorbcdbf3 svgShape" clip-rule="evenodd"/><polygon fill="#d7bcf3" fill-rule="evenodd" points="1049.6 1527.8 1044.1 1527.8 1043.4 1514.3 1048.9 1514.3" class="colorbcdbf3 svgShape" clip-rule="evenodd"/><polygon fill="#d7bcf3" fill-rule="evenodd" points="1063.8 1542.2 1058.4 1542.2 1057.7 1528.7 1063.1 1528.7" class="colorbcdbf3 svgShape" clip-rule="evenodd"/><polygon fill="#d7bcf3" fill-rule="evenodd" points="1057.1 1542.2 1051.6 1542.2 1050.9 1528.7 1056.4 1528.7" class="colorbcdbf3 svgShape" clip-rule="evenodd"/><polygon fill="#d7bcf3" fill-rule="evenodd" points="1050.4 1542.2 1044.9 1542.2 1044.2 1528.7 1049.7 1528.7" class="colorbcdbf3 svgShape" clip-rule="evenodd"/><polygon fill="#cab0e4" fill-rule="evenodd" points="1061.6 1515.6 1057 1515.6 1056.9 1514.3 1062.3 1514.3 1063 1527.8 1062.2 1527.8" class="colorb0c2e4 svgShape" clip-rule="evenodd"/><polygon fill="#cab0e4" fill-rule="evenodd" points="1054.9 1515.6 1050.2 1515.6 1050.2 1514.3 1055.7 1514.3 1056.4 1527.8 1055.6 1527.8" class="colorb0c2e4 svgShape" clip-rule="evenodd"/><polygon fill="#cab0e4" fill-rule="evenodd" points="1048.2 1515.6 1043.5 1515.6 1043.4 1514.3 1048.9 1514.3 1049.6 1527.8 1048.8 1527.8" class="colorb0c2e4 svgShape" clip-rule="evenodd"/><polygon fill="#cab0e4" fill-rule="evenodd" points="1062.3 1530.1 1057.7 1530.1 1057.7 1528.7 1063.1 1528.7 1063.8 1542.2 1062.9 1542.2" class="colorb0c2e4 svgShape" clip-rule="evenodd"/><polygon fill="#cab0e4" fill-rule="evenodd" points="1055.7 1530.1 1051 1530.1 1050.9 1528.7 1056.4 1528.7 1057.1 1542.2 1056.3 1542.2" class="colorb0c2e4 svgShape" clip-rule="evenodd"/><polygon fill="#cab0e4" fill-rule="evenodd" points="1048.9 1530.1 1044.2 1530.1 1044.2 1528.7 1049.7 1528.7 1050.4 1542.2 1049.5 1542.2" class="colorb0c2e4 svgShape" clip-rule="evenodd"/><polygon fill="#b588e3" fill-rule="evenodd" points="1066.6 1511.6 983.8 1511.6 983.5 1504.9 1066.3 1504.9" class="color88b9e3 svgShape" clip-rule="evenodd"/><polygon fill="#fff" fill-rule="evenodd" points="1066.7 1513.2 983.9 1513.2 983.8 1511.2 1066.6 1511.2" class="colorffffff svgShape" clip-rule="evenodd"/><polygon fill="#b588e3" fill-rule="evenodd" points="1038.6 1556.5 1017.7 1556.5 1015.5 1513.3 1036.4 1513.3" class="color88b9e3 svgShape" clip-rule="evenodd"/><polygon fill="#d7bcf3" fill-rule="evenodd" points="1035.9 1522.8 1030.5 1522.8 1030 1514.3 1035.4 1514.3" class="colorbcdbf3 svgShape" clip-rule="evenodd"/><polygon fill="#d7bcf3" fill-rule="evenodd" points="1029.2 1522.8 1023.7 1522.8 1023.3 1514.3 1028.8 1514.3" class="colorbcdbf3 svgShape" clip-rule="evenodd"/><polygon fill="#d7bcf3" fill-rule="evenodd" points="1022.5 1522.8 1017 1522.8 1016.5 1514.3 1022 1514.3" class="colorbcdbf3 svgShape" clip-rule="evenodd"/><polygon fill="#d7bcf3" fill-rule="evenodd" points="1036.2 1528.6 1030.8 1528.6 1030.5 1523.7 1035.9 1523.7" class="colorbcdbf3 svgShape" clip-rule="evenodd"/><polygon fill="#d7bcf3" fill-rule="evenodd" points="1029.5 1528.6 1024 1528.6 1023.8 1523.7 1029.3 1523.7" class="colorbcdbf3 svgShape" clip-rule="evenodd"/><polygon fill="#d7bcf3" fill-rule="evenodd" points="1022.8 1528.6 1017.3 1528.6 1017 1523.7 1022.5 1523.7" class="colorbcdbf3 svgShape" clip-rule="evenodd"/><polygon fill="#c8a4ec" fill-rule="evenodd" points="1034.7 1515.6 1030.1 1515.6 1030 1514.3 1035.4 1514.3 1035.9 1522.8 1035 1522.8" class="colora4ccec svgShape" clip-rule="evenodd"/><polygon fill="#c8a4ec" fill-rule="evenodd" points="1028 1515.6 1023.3 1515.6 1023.3 1514.3 1028.8 1514.3 1029.2 1522.8 1028.4 1522.8" class="colora4ccec svgShape" clip-rule="evenodd"/><polygon fill="#c8a4ec" fill-rule="evenodd" points="1021.3 1515.6 1016.6 1515.6 1016.5 1514.3 1022 1514.3 1022.5 1522.8 1021.6 1522.8" class="colora4ccec svgShape" clip-rule="evenodd"/><polygon fill="#c8a4ec" fill-rule="evenodd" points="1035.2 1525 1030.6 1525 1030.5 1523.7 1035.9 1523.7 1036.2 1528.6 1035.3 1528.6" class="colora4ccec svgShape" clip-rule="evenodd"/><polygon fill="#c8a4ec" fill-rule="evenodd" points="1028.5 1525 1023.8 1525 1023.8 1523.7 1029.3 1523.7 1029.5 1528.6 1028.7 1528.6" class="colora4ccec svgShape" clip-rule="evenodd"/><polygon fill="#c8a4ec" fill-rule="evenodd" points="1021.8 1525 1017.1 1525 1017 1523.7 1022.5 1523.7 1022.8 1528.6 1021.9 1528.6" class="colora4ccec svgShape" clip-rule="evenodd"/><polygon fill="#d7bcf3" fill-rule="evenodd" points="1036.5 1534.6 1031.1 1534.6 1030.8 1529.7 1036.2 1529.7" class="colorbcdbf3 svgShape" clip-rule="evenodd"/><polygon fill="#d7bcf3" fill-rule="evenodd" points="1029.8 1534.6 1024.3 1534.6 1024.1 1529.7 1029.6 1529.7" class="colorbcdbf3 svgShape" clip-rule="evenodd"/><polygon fill="#d7bcf3" fill-rule="evenodd" points="1023.1 1534.6 1017.6 1534.6 1017.3 1529.7 1022.8 1529.7" class="colorbcdbf3 svgShape" clip-rule="evenodd"/><polygon fill="#c8a4ec" fill-rule="evenodd" points="1035.5 1531 1030.9 1531 1030.8 1529.7 1036.2 1529.7 1036.5 1534.6 1035.6 1534.6" class="colora4ccec svgShape" clip-rule="evenodd"/><polygon fill="#c8a4ec" fill-rule="evenodd" points="1028.8 1531 1024.1 1531 1024.1 1529.7 1029.6 1529.7 1029.8 1534.6 1029 1534.6" class="colora4ccec svgShape" clip-rule="evenodd"/><polygon fill="#c8a4ec" fill-rule="evenodd" points="1022.1 1531 1017.4 1531 1017.3 1529.7 1022.8 1529.7 1023.1 1534.6 1022.2 1534.6" class="colora4ccec svgShape" clip-rule="evenodd"/><polygon fill="#d7bcf3" fill-rule="evenodd" points="1036.8 1540.5 1031.4 1540.5 1031.1 1535.6 1036.5 1535.6" class="colorbcdbf3 svgShape" clip-rule="evenodd"/><polygon fill="#d7bcf3" fill-rule="evenodd" points="1030.1 1540.5 1024.6 1540.5 1024.4 1535.6 1029.9 1535.6" class="colorbcdbf3 svgShape" clip-rule="evenodd"/><polygon fill="#d7bcf3" fill-rule="evenodd" points="1023.4 1540.5 1017.9 1540.5 1017.6 1535.6 1023.1 1535.6" class="colorbcdbf3 svgShape" clip-rule="evenodd"/><polygon fill="#c8a4ec" fill-rule="evenodd" points="1035.8 1537 1031.2 1537 1031.1 1535.6 1036.5 1535.6 1036.8 1540.5 1035.9 1540.5" class="colora4ccec svgShape" clip-rule="evenodd"/><polygon fill="#c8a4ec" fill-rule="evenodd" points="1029.1 1537 1024.4 1537 1024.4 1535.6 1029.9 1535.6 1030.1 1540.5 1029.3 1540.5" class="colora4ccec svgShape" clip-rule="evenodd"/><polygon fill="#c8a4ec" fill-rule="evenodd" points="1022.4 1537 1017.7 1537 1017.6 1535.6 1023.1 1535.6 1023.4 1540.5 1022.6 1540.5" class="colora4ccec svgShape" clip-rule="evenodd"/><polygon fill="#d7bcf3" fill-rule="evenodd" points="1037.5 1555.5 1032.1 1555.5 1031.4 1541.6 1036.8 1541.6" class="colorbcdbf3 svgShape" clip-rule="evenodd"/><polygon fill="#d7bcf3" fill-rule="evenodd" points="1030.9 1555.5 1025.4 1555.5 1024.7 1541.6 1030.2 1541.6" class="colorbcdbf3 svgShape" clip-rule="evenodd"/><polygon fill="#d7bcf3" fill-rule="evenodd" points="1024.2 1555.5 1018.6 1555.5 1017.9 1541.6 1023.4 1541.6" class="colorbcdbf3 svgShape" clip-rule="evenodd"/><polygon fill="#c8a4ec" fill-rule="evenodd" points="1036.1 1543 1031.5 1543 1031.4 1541.6 1036.8 1541.6 1037.5 1555.5 1036.7 1555.5" class="colora4ccec svgShape" clip-rule="evenodd"/><polygon fill="#c8a4ec" fill-rule="evenodd" points="1029.4 1543 1024.7 1543 1024.7 1541.6 1030.2 1541.6 1030.9 1555.5 1030.1 1555.5" class="colora4ccec svgShape" clip-rule="evenodd"/><polygon fill="#c8a4ec" fill-rule="evenodd" points="1022.7 1543 1018 1543 1017.9 1541.6 1023.4 1541.6 1024.2 1555.5 1023.3 1555.5" class="colora4ccec svgShape" clip-rule="evenodd"/><polygon fill="#b588e3" fill-rule="evenodd" points="1010.4 1543.2 989.5 1543.2 988 1513.3 1008.8 1513.3" class="color88b9e3 svgShape" clip-rule="evenodd"/><polygon fill="#d7bcf3" fill-rule="evenodd" points="1008.6 1527.8 1003.2 1527.8 1002.5 1514.3 1007.9 1514.3" class="colorbcdbf3 svgShape" clip-rule="evenodd"/><polygon fill="#d7bcf3" fill-rule="evenodd" points="1001.9 1527.8 996.4 1527.8 995.7 1514.3 1001.2 1514.3" class="colorbcdbf3 svgShape" clip-rule="evenodd"/><polygon fill="#d7bcf3" fill-rule="evenodd" points="995.2 1527.8 989.7 1527.8 989 1514.3 994.5 1514.3" class="colorbcdbf3 svgShape" clip-rule="evenodd"/><polygon fill="#d7bcf3" fill-rule="evenodd" points="1009.3 1542.2 1003.9 1542.2 1003.2 1528.7 1008.6 1528.7" class="colorbcdbf3 svgShape" clip-rule="evenodd"/><polygon fill="#d7bcf3" fill-rule="evenodd" points="1002.7 1542.2 997.2 1542.2 996.5 1528.7 1002 1528.7" class="colorbcdbf3 svgShape" clip-rule="evenodd"/><polygon fill="#d7bcf3" fill-rule="evenodd" points="995.9 1542.2 990.4 1542.2 989.7 1528.7 995.2 1528.7" class="colorbcdbf3 svgShape" clip-rule="evenodd"/><polygon fill="#c8a4ec" fill-rule="evenodd" points="1007.1 1515.6 1002.5 1515.6 1002.5 1514.3 1007.9 1514.3 1008.6 1527.8 1007.7 1527.8" class="colora4ccec svgShape" clip-rule="evenodd"/><polygon fill="#c8a4ec" fill-rule="evenodd" points="1000.5 1515.6 995.8 1515.6 995.7 1514.3 1001.2 1514.3 1001.9 1527.8 1001.1 1527.8" class="colora4ccec svgShape" clip-rule="evenodd"/><polygon fill="#c8a4ec" fill-rule="evenodd" points="993.7 1515.6 989 1515.6 989 1514.3 994.5 1514.3 995.2 1527.8 994.3 1527.8" class="colora4ccec svgShape" clip-rule="evenodd"/><polygon fill="#c8a4ec" fill-rule="evenodd" points="1007.9 1530.1 1003.3 1530.1 1003.2 1528.7 1008.6 1528.7 1009.3 1542.2 1008.5 1542.2" class="colora4ccec svgShape" clip-rule="evenodd"/><polygon fill="#c8a4ec" fill-rule="evenodd" points="1001.2 1530.1 996.5 1530.1 996.5 1528.7 1002 1528.7 1002.7 1542.2 1001.8 1542.2" class="colora4ccec svgShape" clip-rule="evenodd"/><polygon fill="#c8a4ec" fill-rule="evenodd" points="994.5 1530.1 989.8 1530.1 989.7 1528.7 995.2 1528.7 995.9 1542.2 995.1 1542.2" class="colora4ccec svgShape" clip-rule="evenodd"/><polygon fill="#fff" fill-rule="evenodd" points="1068.1 1557.1 1065.8 1557.1 1063.5 1512.4 1065.8 1512.4" class="colorffffff svgShape" clip-rule="evenodd"/><polygon fill="#fff" fill-rule="evenodd" points="1042.8 1556.7 1040.5 1556.7 1038.2 1512 1040.5 1512" class="colorffffff svgShape" clip-rule="evenodd"/><polygon fill="#fff" fill-rule="evenodd" points="1015 1556.7 1012.7 1556.7 1010.4 1512 1012.7 1512" class="colorffffff svgShape" clip-rule="evenodd"/><polygon fill="#fff" fill-rule="evenodd" points="989.4 1556.7 987.1 1556.7 984.8 1512 987.1 1512" class="colorffffff svgShape" clip-rule="evenodd"/><path fill="#fff" fill-rule="evenodd" d="M1043.2,1554.9h1.7l-0.5-9.1h-1.7L1043.2,1554.9L1043.2,1554.9z M1045.5,1554.9h1.7l-0.5-9.1h-1.7
				L1045.5,1554.9L1045.5,1554.9z M1047.9,1554.9h1.7l-0.5-9.1h-1.7L1047.9,1554.9L1047.9,1554.9z M1050.2,1554.9h1.7l-0.5-9.1h-1.7
				L1050.2,1554.9L1050.2,1554.9z M1052.5,1554.9h1.7l-0.5-9.1h-1.7L1052.5,1554.9L1052.5,1554.9z M1054.8,1554.9h1.7l-0.5-9.1h-1.7
				L1054.8,1554.9L1054.8,1554.9z M1057.1,1554.9h1.7l-0.5-9.1h-1.7L1057.1,1554.9L1057.1,1554.9z M1059.4,1554.9h1.7l-0.5-9.1h-1.7
				L1059.4,1554.9L1059.4,1554.9z M1061.7,1554.9h1.7l-0.5-9.1h-1.7L1061.7,1554.9L1061.7,1554.9z M1064,1554.9h1.7l-0.5-9.1h-1.7
				L1064,1554.9L1064,1554.9z M1065.7,1543.7l0.6,12.5h-23.7l-0.6-12.5H1065.7z" class="colorffffff svgShape" clip-rule="evenodd"/><path fill="#fff" fill-rule="evenodd" d="M989.6,1554.9h1.7l-0.5-9.1h-1.7L989.6,1554.9L989.6,1554.9z M991.9,1554.9h1.7l-0.5-9.1h-1.7L991.9,1554.9
				L991.9,1554.9z M994.2,1554.9h1.7l-0.5-9.1h-1.7L994.2,1554.9L994.2,1554.9z M996.5,1554.9h1.7l-0.5-9.1h-1.7L996.5,1554.9
				L996.5,1554.9z M998.8,1554.9h1.7l-0.5-9.1h-1.7L998.8,1554.9L998.8,1554.9z M1001.1,1554.9h1.7l-0.5-9.1h-1.7L1001.1,1554.9
				L1001.1,1554.9z M1003.4,1554.9h1.7l-0.5-9.1h-1.7L1003.4,1554.9L1003.4,1554.9z M1005.8,1554.9h1.7l-0.5-9.1h-1.7L1005.8,1554.9
				L1005.8,1554.9z M1008.1,1554.9h1.7l-0.5-9.1h-1.7L1008.1,1554.9L1008.1,1554.9z M1010.4,1554.9h1.7l-0.5-9.1h-1.7L1010.4,1554.9
				L1010.4,1554.9z M1012,1543.7l0.6,12.5H989l-0.6-12.5H1012z" class="colorffffff svgShape" clip-rule="evenodd"/><polygon fill="#b588e3" fill-rule="evenodd" points="1082.9 1558.9 972.4 1558.9 972.3 1556.4 1082.7 1556.4" class="color88b9e3 svgShape" clip-rule="evenodd"/><g class="color000000 svgShape"><path fill="#985ed3" fill-rule="evenodd" d="M1014.8,1628.2h3.3l-0.1-2.5c-0.1-2.7,2.1-5,4.8-5h22.1c2.7,0,5,2.2,5.1,5l0.1,2.3h3.3l-0.1-2.3
				c-0.1-4.6-4-8.3-8.6-8.3h-22.1c-4.6,0-8.2,3.7-8,8.3L1014.8,1628.2z" class="color5e9bd3 svgShape" clip-rule="evenodd"/><path fill="#b588e3" fill-rule="evenodd" d="M1047.9,1631.7c0,0.6,0.5,1.1,1.1,1.1h5.7c0.6,0,1.1-0.5,1.1-1.1l-0.1-3.7c0-0.6-0.5-1.1-1.1-1.1h-5.7
				c-0.6,0-1.1,0.5-1.1,1.1L1047.9,1631.7z" class="color88b9e3 svgShape" clip-rule="evenodd"/><path fill="#b588e3" fill-rule="evenodd" d="M1012.5,1631.7c0,0.6,0.5,1.1,1.1,1.1h5.7c0.6,0,1.1-0.5,1.1-1.1l-0.1-3.7c0-0.6-0.5-1.1-1.1-1.1h-5.7
				c-0.6,0-1.1,0.5-1.1,1.1L1012.5,1631.7z" class="color88b9e3 svgShape" clip-rule="evenodd"/><path fill="#dac1f3" fill-rule="evenodd" d="M987,1694.3c0.1,3.7,3.2,6.6,6.9,6.6h84.6c3.7,0,6.5-3,6.4-6.6l-1.9-59.7c-0.1-1.8-1.6-3.3-3.4-3.3h-91.2
				c-1.8,0-3.3,1.5-3.2,3.3L987,1694.3z" class="colorc1ddf3 svgShape" clip-rule="evenodd"/><path fill="#b588e3" fill-rule="evenodd" d="M988.6,1634.6h91.3c1.8,0,3.4,1.5,3.4,3.3l0.6,19.9c0.2,7.3-5.5,13.3-12.8,13.3h-30.9l0.1,3.4
				c0.1,2.8-2.1,5-4.8,5c-2.7,0-5-2.2-5.1-5l-0.1-3.4h-30.5c-7.3,0-13.5-5.9-13.7-13.3l-0.6-19.9
				C985.3,1636.1,986.8,1634.6,988.6,1634.6z" class="color88b9e3 svgShape" clip-rule="evenodd"/><path fill="#d7bcf3" fill-rule="evenodd" d="M985.9,1654.5c0.2,7.3,6.4,13.3,13.7,13.3h71.3c7.3,0,13.1-5.9,12.8-13.3l-0.6-19.9
				c-0.1-1.8-1.6-3.3-3.4-3.3h-91.3c-1.8,0-3.3,1.5-3.2,3.3L985.9,1654.5z" class="colorbcdbf3 svgShape" clip-rule="evenodd"/><path fill="#985ed3" fill-rule="evenodd" d="M1030.3,1671.2c0.1,2.8,2.4,5,5.1,5c2.7,0,4.9-2.2,4.8-5l-0.3-7.9h-10L1030.3,1671.2z" class="color5e9bd3 svgShape" clip-rule="evenodd"/><path fill="#dac1f3" fill-rule="evenodd" d="M1031.4,1670.9c0.1,2.1,1.9,3.9,4,3.9c2.1,0,3.8-1.7,3.7-3.9l-0.2-6.2h-7.7L1031.4,1670.9z" class="colorc1ddf3 svgShape" clip-rule="evenodd"/><polygon fill="#985ed3" fill-rule="evenodd" points="1031.1 1669.1 1039.7 1669.1 1039.6 1667.8 1031.1 1667.8" class="color5e9bd3 svgShape" clip-rule="evenodd"/></g><g class="color000000 svgShape"><path fill="#985ed3" fill-rule="evenodd" d="M974.6,1730.7l-15.5-0.8c-6.3,10.2-15.8,19.4-28.3,20.4c5.1,1.9,8.7,2.1,13.5,2.1
			c11.6,0.2,23.2,0.3,34.8,0.3C978.8,1745,977.2,1737.8,974.6,1730.7L974.6,1730.7z M973,1726.7l-14.8-0.8c-0.8,0-1.4,0.4-1.8,1
			c-7.2,12.1-18.9,22.7-34,18.7l-0.3-0.1c-8.3-6.2-14.3-17.3-11-27.7c6-18.9,21.2-24.7,39.3-18.1c0.5,1.5,3,3.1,7.4,4.7
			c1.3,1.1,2.5,2.3,3.6,3.6h0C966.4,1714.1,969.7,1719,973,1726.7L973,1726.7z M922.2,1750.3L922.2,1750.3L922.2,1750.3
			c6.3,4,13,5.8,20.2,5.9c12.3,0,24.7,0.3,37,0.3c-0.4,31.1-22.6,54.9-47,71.4c-45-0.7-62.6-57-70.6-128.5
			c-4.3-39.1-5.7-82.6-7.1-124.3c-1.8-56.7-3.6-110-12.3-144.1c-14.1-54.6-73.2-84.9-99.7-133.1c-10-18.2-19.3-64.5-27.6-122.3
			c-8.4-58-15.8-127.5-22-191.6c-0.8-8.7-1.4-20.9-2-35.1c-3.1-68.4-8.4-184.7-57.7-208.3h503.6v0l0.2,0
			c50.4-5.6,66.6,49.8,72.6,103.6c2.3,21.2,3.1,42.1,3.7,59.1c0.4,10.4,0.7,19.4,1.3,26.1c6.2,68.6,14.1,150.5,23.4,220.5
			c9.3,70.2,20,128.6,31.7,149.9c11.4,20.8,28.6,38.2,45.8,55.6c22.9,23.2,45.7,46.3,53.6,76.6c8.7,33.6,10.4,86.7,12.2,143.2
			c1.6,50.7,3.4,104,10.3,148.9c-113.6,14.5-270.9,2.6-363.2-10.2c-23.1-3.2-42.1-6.5-55.4-9.4c-5.3-1.2-9.6-2.2-12.7-3
			c-2.2-2.1-4.3-3.5-5.9-4.3c-0.2-0.1-0.6-0.3-0.8-0.4v0c-20.5-8.5-39.4-2.4-46.5,19.8C903.2,1729.6,911.2,1743.3,922.2,1750.3
			L922.2,1750.3z M965.4,1706.6c2.1,0.6,4.5,1.1,7,1.7c13.3,2.9,32.4,6.2,55.7,9.4c89.5,12.4,240,24,353.1,11.5
			c23-2.5,2.4,0.7,35-4.9c14.7-2.5,28.3-5.6,40.8-9.2c9.4-2.8,15.8-5.6,20.7-7.8c11.8-5.3,13.7-6.1,32,11.7
			c20.9,20.4,32.2,39.3,31.8,57.1c-0.4,17.7-12.5,34.6-38.1,51.3h-36.5c-17.3,0-25.8,0-36.9,0H940v0l-0.3,0
			c30.6-22.3,41.9-45.9,43.4-66.8C984.5,1741.8,977.6,1721.4,965.4,1706.6L965.4,1706.6z M618.7,740.2c-22.1,1.3-35.2,18-38.8,38.7
			c-2,11.7-1.2,24.8,2.8,37.8c5.9,19,18.4,37.6,38.4,50.7h60.4c-6.9-61.4-22.3-122.2-62.1-127.1C619.2,740.4,619,740.3,618.7,740.2
			L618.7,740.2z M592.1,747.8c6.9-6.4,15.8-10.4,26.5-11c0.3-0.2,0.6-0.3,1-0.3h517.3c53.5-5.8,70.6,51.4,76.7,107.1
			c2.4,21.3,3.1,42.3,3.7,59.4c0.4,10.4,0.7,19.3,1.3,25.9c6.2,68.5,14.1,150.3,23.4,220.3c9.3,69.8,19.9,127.7,31.3,148.6
			c26.4,48.3,85.6,78.5,99.7,133.1c8.8,34,10.5,87.3,12.3,144.1c1.6,50.6,3.4,104,10.2,148.5c22.1-3,42.4-7,60.2-12.2
			c9.2-2.7,15.4-5.5,20.2-7.6c13.8-6.2,16.1-7.2,36.3,12.5c21.7,21.1,33.4,41,33,60c-0.5,19.1-13.2,37.2-40.2,54.7
			c-0.3,0.3-0.8,0.4-1.2,0.4h-298.5c-90.8,0-181.6,0.4-272.4,0.4c-48.2-0.1-66.8-58.1-75-132c-4.3-39.1-5.7-82.8-7.1-124.6
			c-1.8-56.5-3.6-109.6-12.2-143.2c-7.8-30.3-30.6-53.4-53.6-76.6c-17.1-17.4-34.4-34.8-45.8-55.6c-10.2-18.6-19.7-65.4-28.1-123.6
			c-8.4-58-15.8-127.5-22-191.8c-0.8-8.8-1.4-21-2.1-35.3c-1-22.4-2.3-50.1-5.2-77.9l-62.2-0.3c-20.9-13.5-34.1-33-40.2-52.8
			C572.4,795.1,573.5,765,592.1,747.8z" class="color5e9bd3 svgShape" clip-rule="evenodd"/></g><g class="color000000 svgShape"><path fill="#b588e3" fill-rule="evenodd" d="M1212.3,1458.4c-27.7,0-49.1,22.5-47.8,50.2c1.3,27.7,24.9,50.2,52.5,50.2s49.1-22.5,47.8-50.2
				C1263.5,1480.9,1239.9,1458.4,1212.3,1458.4L1212.3,1458.4z M1217.2,1562.9c-30,0-55.5-24.4-56.9-54.3
				c-1.4-30,21.8-54.3,51.8-54.3c30,0,55.5,24.4,56.9,54.3C1270.4,1538.5,1247.1,1562.9,1217.2,1562.9z" class="color88b9e3 svgShape" clip-rule="evenodd"/><path fill="#b588e3" fill-rule="evenodd" d="M1212.3,1458.4c-16.2,0-28.3,22.5-27,50.2c1.3,27.7,15.6,50.2,31.8,50.2c16.2,0,28.3-22.5,27-50.2
				C1242.7,1480.9,1228.5,1458.4,1212.3,1458.4L1212.3,1458.4z M1217.2,1562.9c-18.5,0-34.7-24.4-36.1-54.3
				c-1.4-30,12.5-54.3,31-54.3c18.5,0,34.7,24.4,36.1,54.3C1249.6,1538.5,1235.7,1562.9,1217.2,1562.9z" class="color88b9e3 svgShape" clip-rule="evenodd"/><path fill="#b588e3" fill-rule="evenodd" d="M1212.3,1458.4c-2.5,0-7.6,17.1-6.1,50.2c1.6,33.1,8.3,50.2,10.8,50.2c2.5,0,7.6-17.1,6.1-50.2
				C1221.5,1475.4,1214.8,1458.4,1212.3,1458.4L1212.3,1458.4z M1217.2,1562.9c-9.9,0-14.3-35.5-15.1-54.3
				c-0.9-18.8,0.1-54.3,10-54.3c9.9,0,14.3,35.5,15.1,54.3C1228.1,1527.3,1227.1,1562.9,1217.2,1562.9z" class="color88b9e3 svgShape" clip-rule="evenodd"/><polygon fill="#b588e3" fill-rule="evenodd" points="1162.5 1510.6 1267 1510.6 1266.8 1506.5 1162.3 1506.5" class="color88b9e3 svgShape" clip-rule="evenodd"/><path fill="#b588e3" fill-rule="evenodd" d="M1213.8,1491.5c-17.1,0-33.4-4.6-43.7-12.3l2.4-3.3c9.5,7.2,24.9,11.4,41.1,11.4c16.4,0,31.4-4.4,40.3-11.6
				l2.7,3.2C1247.1,1486.8,1231.1,1491.5,1213.8,1491.5z" class="color88b9e3 svgShape" clip-rule="evenodd"/><path fill="#b588e3" fill-rule="evenodd" d="M1257,1541.3c-9.5-7.3-25-11.6-41.4-11.6c-16.2,0-31.2,4.3-40,11.4l-2.7-3.3c9.5-7.7,25.4-12.3,42.5-12.3
				c17.3,0,33.7,4.7,44,12.5L1257,1541.3z" class="color88b9e3 svgShape" clip-rule="evenodd"/><path fill="#b588e3" fill-rule="evenodd" d="M1213.9,1474c-12.3,0-25.3-4-26.5-11.6l4.1-0.4c0.6,3.7,9.9,7.9,22.2,7.9c12.4,0,21.1-4,21.5-7.8l4.1,0.6
				C1238.7,1469.2,1228,1474,1213.9,1474z" class="color88b9e3 svgShape" clip-rule="evenodd"/><path fill="#b588e3" fill-rule="evenodd" d="M1195.1,1555.1l-4.1-0.4c0.5-7.6,13.1-11.6,25.4-11.6c14,0,25.2,4.8,26.5,11.3l-4.1,0.6
				c-0.8-3.8-9.9-7.8-22.2-7.8C1204.2,1547.1,1195.3,1551.3,1195.1,1555.1z" class="color88b9e3 svgShape" clip-rule="evenodd"/></g><g class="color000000 svgShape"><path fill="#985ed3" fill-rule="evenodd" d="M1230.3,1649.8c0,0,8.2-14,25.1-14.1c15.2-0.2,26,14,26.5,30.6c0.6,19.2-13,42.1-49.3,62.2
			c-37.5-19.4-52.4-42.1-53-61.3c-0.5-16.6,9.5-30.9,24.6-31.1C1221.3,1636,1230.3,1649.8,1230.3,1649.8z" class="color5e9bd3 svgShape" clip-rule="evenodd"/></g></g><g class="color000000 svgShape"><path fill="#fff" fill-rule="evenodd" d="M612.2,1373.1c0-15,12.2-27.2,27.2-27.2c15,0,27.2,12.2,27.2,27.2c0,15-12.2,27.2-27.2,27.2
			C624.3,1400.3,612.2,1388.1,612.2,1373.1L612.2,1373.1z M639.3,1405c17.6,0,31.8-14.3,31.8-31.8c0-17.6-14.3-31.8-31.8-31.8
			c-17.6,0-31.8,14.3-31.8,31.8C607.5,1390.7,621.7,1405,639.3,1405z" class="colorffffff svgShape" clip-rule="evenodd"/><path fill="#fff" fill-rule="evenodd" d="M639.3,1358.4c-8.1,0-14.7,6.6-14.7,14.7c0,8.1,6.6,14.7,14.7,14.7s14.7-6.6,14.7-14.7
			C654,1365,647.4,1358.4,639.3,1358.4z" class="colorffffff svgShape" clip-rule="evenodd"/></g><g class="color000000 svgShape"><path fill="#fff" fill-rule="evenodd" d="M757.6,1624.9c0-18.4,14.9-33.3,33.3-33.3c18.4,0,33.3,14.9,33.3,33.3c0,18.4-14.9,33.3-33.3,33.3
			C772.5,1658.2,757.6,1643.3,757.6,1624.9L757.6,1624.9z M790.9,1664c21.6,0,39-17.5,39-39c0-21.6-17.5-39-39-39
			c-21.6,0-39,17.5-39,39C751.9,1646.5,769.3,1664,790.9,1664z" class="colorffffff svgShape" clip-rule="evenodd"/><circle cx="790.9" cy="1624.9" r="18" fill="#fff" fill-rule="evenodd" class="colorffffff svgShape" clip-rule="evenodd"/></g><g class="color000000 svgShape"><path fill="#fff" fill-rule="evenodd" d="M1752.8,1245.8c0-18.4,14.9-33.3,33.3-33.3c18.4,0,33.3,14.9,33.3,33.3c0,18.4-14.9,33.3-33.3,33.3
			C1767.7,1279.1,1752.8,1264.2,1752.8,1245.8L1752.8,1245.8z M1786.1,1284.9c21.6,0,39-17.5,39-39c0-21.6-17.5-39-39-39
			c-21.6,0-39,17.5-39,39C1747.1,1267.4,1764.5,1284.9,1786.1,1284.9z" class="colorffffff svgShape" clip-rule="evenodd"/><path fill="#fff" fill-rule="evenodd" d="M1786.1,1227.8c-9.9,0-18,8.1-18,18c0,9.9,8.1,18,18,18c9.9,0,18-8.1,18-18
			C1804.1,1235.9,1796,1227.8,1786.1,1227.8z" class="colorffffff svgShape" clip-rule="evenodd"/></g><g class="color000000 svgShape"><path fill="#fff" fill-rule="evenodd" d="M1693,1417.3c0-12.2,9.9-22.1,22.1-22.1c12.2,0,22.1,9.9,22.1,22.1s-9.9,22.1-22.1,22.1
			C1702.9,1439.3,1693,1429.5,1693,1417.3L1693,1417.3z M1715.1,1443.2c14.3,0,25.9-11.6,25.9-25.9c0-14.3-11.6-25.9-25.9-25.9
			c-14.3,0-25.9,11.6-25.9,25.9C1689.2,1431.6,1700.8,1443.2,1715.1,1443.2z" class="colorffffff svgShape" clip-rule="evenodd"/><path fill="#fff" fill-rule="evenodd" d="M1715.1,1405.3c-6.6,0-11.9,5.3-11.9,11.9c0,6.6,5.3,11.9,11.9,11.9c6.6,0,11.9-5.3,11.9-11.9
			C1727,1410.7,1721.7,1405.3,1715.1,1405.3z" class="colorffffff svgShape" clip-rule="evenodd"/></g><g class="color000000 svgShape"><path fill="#fff" fill-rule="evenodd" d="M1321.5,937.8c0-12.2,9.9-22.1,22.1-22.1c12.2,0,22.1,9.9,22.1,22.1s-9.9,22.1-22.1,22.1
			C1331.4,959.9,1321.5,950,1321.5,937.8L1321.5,937.8z M1343.6,963.7c14.3,0,25.9-11.6,25.9-25.9c0-14.3-11.6-25.9-25.9-25.9
			c-14.3,0-25.9,11.6-25.9,25.9C1317.7,952.1,1329.3,963.7,1343.6,963.7z" class="colorffffff svgShape" clip-rule="evenodd"/><path fill="#fff" fill-rule="evenodd" d="M1343.6,925.9c-6.6,0-11.9,5.3-11.9,11.9c0,6.6,5.3,11.9,11.9,11.9c6.6,0,11.9-5.3,11.9-11.9
			C1355.5,931.2,1350.2,925.9,1343.6,925.9z" class="colorffffff svgShape" clip-rule="evenodd"/></g></svg>