<svg xmlns="http://www.w3.org/2000/svg" data-name="1" viewBox="0 0 4680 3120"><defs><clipPath id="a"><path fill="none" d="M2731.67,682.05s-93.39-39.51-116.74,57.48c-117.64,17.06-118.53,176-62.86,215.51-30.53,73.64-37.71,165.23,46.7,170.62-21.55,71.84-5.39,204.74,125.72,176s368.17-154.46,368.17-154.46,55.68-93.39-34.12-127.51c25.14-102.37-5.39-170.62-84.41-168.82,59.26-125.72-80.82-116.74-80.82-116.74S2880.74,606.62,2731.67,682.05Z"/></clipPath><clipPath id="b"><path fill="none" d="M2839.43,1682.41c7.19-68.23-21.55-113.14-43.11-134.69s-44.9-48.5-44.9-48.5-64.66,84.41-120.32,100.57-100.59-3.58-185-41.3-59.27-18-138.28-48.49,3.58-134.7,3.58-134.7S2430,1413,2521.54,1418.41s16.16,43.1,84.4-39.53,66.46-172.41,111.37-217.29,98.76-53.88,98.76-53.88c359.21-140.09,425.65,73.63,420.26,152.64s12.58,224.52,25.16,305.33c10.13,65.28,111,265,149.41,339.28H2816.1C2822.64,1842.3,2834.39,1730.26,2839.43,1682.41Z"/></clipPath><clipPath id="c"><path fill="none" d="M2894.65,1007.58c-12.15-21.45-23.16-41.75-30.82-56.09,14.16-1,26.52-14.17,32.14-30.78,7-20.76-.18-38.66-14.22-50.94-18.95-16.59-36.87-2.42-46.2,10.66-23.06-76.25-112.61-42-127.23-101.39-52.13,53.31-77.22,74.53-109.73,75.33,0,0,37.91,119.66,55.69,157.57s33.17,66.35,99.52,58.06a94.61,94.61,0,0,0,26.49-7.37c2.59,10.32,5.83,23.87,7.95,35.19,4,21.55-5.38,26.94-5.38,26.94s21.55,63.31,86.2,49.84,106.86-111.8,106.86-111.8S2917.55,1048,2894.65,1007.58Z"/></clipPath><clipPath id="d"><polygon fill="none" points="3001.07 1461.51 3044.17 1464.2 3254.3 1685.11 3116.91 1854.83 3089.97 1873.68 2852.9 1642 3001.07 1461.51"/></clipPath><clipPath id="e"><path fill="none" d="M3238.5,1292.18c-11.27-121.09-24.41-182.1-110.29-174.12-83.68,7.77-60.71,169.25-60.71,169.25,4.6,78.36,9.13,157.73-6.05,234.74-3.58,18.17-8.27,36.25-9.09,54.76-.17,3.73-.19,7.55-1.43,11.09-1.18,3.38-3.39,6.28-5.35,9.27-6.35,9.74-10.13,20.88-14.16,31.79a622.25,622.25,0,0,1-82.59,153.29c-3.88,5.28-8.06,11.23-7.23,17.73.44,3.37,2.2,6.41,3.93,9.35,9.93,16.82,20.3,34.15,36.19,45.52,16.8,12,38.07,16.07,58.71,16.89,10.21.4,21.23-.17,29.3-6.42,5-3.91,8.33-9.59,11.49-15.13l114.21-200c21.72-38,35.19-89.89,36.81-135.25l.16.22S3249.76,1413.26,3238.5,1292.18Z"/></clipPath><clipPath id="f"><polygon fill="none" points="2980.55 2378.44 3016.7 2546.54 3163.11 2546.54 3190.22 2378.44 2980.55 2378.44"/></clipPath><clipPath id="g"><path fill="none" d="M1225.34,1709.35S1085,1674.27,1137.63,1564s12.53-180.43-7.51-275.66,55.13-177.93,117.78-120.29S1368.18,1589.07,1225.34,1709.35Z"/></clipPath><clipPath id="h"><polygon fill="none" points="1051.67 1912.38 1087.82 2080.48 1234.23 2080.48 1261.35 1912.38 1051.67 1912.38"/></clipPath><clipPath id="i"><path fill="none" d="M1854.78,2213.12s60.62,18.86,103.72,20.21,60.62,56.57,28.29,67.35-198,22.9-202,2.69S1747,2202.35,1854.78,2213.12Z"/></clipPath><clipPath id="j"><path fill="none" d="M1764.54,2083.81l24.24,154.91s41.76,20.2,87.56-12.13c-1.35-63.3-2.7-152.2-2.7-152.2Z"/></clipPath><clipPath id="k"><path fill="none" d="M1468.2,1900.62s-49.84,179.15,74.08,184.54,189.93-22.9,189.93-22.9l6.73,59.27,168.38-16.16s12.12-167-106.42-211.48S1468.2,1900.62,1468.2,1900.62Z"/></clipPath><clipPath id="l"><path fill="none" d="M1569.22,1396.85s-13.47-62,59.27-48.49c36.37-35,103.72,5.39,111.8,26.94,25.59,10.78,31.75,76.18-2.69,74.09s-121.23,92.94-121.23,92.94-109.11-5.39-74.09-95.64C1524.77,1400.89,1569.22,1396.85,1569.22,1396.85Z"/></clipPath><clipPath id="m"><path fill="none" d="M1765.88,1471.61c-16.16-2.69-21.55-16.84-21.55-37.71s-16.16-35.7-16.16-35.7c-10.78,16.16-41.76,6.74-41.76,6.74s-2,18.18-35,32.32c-6.06,43.11-24.92,45.13-24.92,45.13l-.33,1.18c-8-4.23-17.14-4.37-24.06.54-10.47,7.42-11.8,23.52-3,36a30.84,30.84,0,0,0,13.82,11l-1.27,4.54-8.08,67.35,78.13,47.15s-6.74-41.76-7.41-70c121.9,14.82,80.14-82.84,84.86-86.2S1782.05,1474.3,1765.88,1471.61Z"/></clipPath><clipPath id="n"><polygon fill="none" points="1842.66 1906.01 1923.48 1905.12 2054.14 1708.01 2040.67 1687.8 1910.01 1689.15 1829.19 1840.01 1740.29 1844.95 1767.23 1879.07 1842.66 1906.01"/></clipPath><clipPath id="o"><path fill="none" d="M1786.09,1867.4s33.22-12.57,51.18-2.69c10.59,5.82,19.93,14.45,25.81,20.56a3.93,3.93,0,0,1-3.11,6.63l-17.31-1.15s8.08,26.94-26.94,24.24S1760.94,1904.22,1786.09,1867.4Z"/></clipPath><clipPath id="p"><path fill="none" d="M1583.14,1594.41a73.74,73.74,0,0,1,44,2.69c23.35,9,67.35,59.27,73.64,93.4s-.9,58.36,2.69,95.18,25.15,44,51.19,60.17,57.47,15.26,57.47,15.26l-2.69,61.07s-84.42,9.87-116.74-13.47c-46.7,35.92-185.89,36.81-239.77,7.18-36.81-37.71,39.52-285.56,114-301.72C1580.45,1598,1583.14,1594.41,1583.14,1594.41Z"/></clipPath><clipPath id="q"><polygon fill="none" points="1918.09 1708.01 1848.05 1841.36 1911.36 1860.21 2013.73 1705.31 1918.09 1708.01"/></clipPath><clipPath id="r"><rect width="767.78" height="175.11" x="999.45" y="2109.41" fill="none"/></clipPath><clipPath id="s"><path fill="none" d="M1774,2269.7H1027c-39.87-69.33-5.44-140.47,0-150.86h747a17.52,17.52,0,1,0,0-35H1019.65c-9,0-20.56,8.8-21.55,17.52-63.42,96.94-14.44,170.76,4.66,195.84a7.34,7.34,0,0,0,5,2.86,17.43,17.43,0,0,0,11.87,4.69H1774a17.51,17.51,0,1,0,0-35Z"/></clipPath><clipPath id="t"><rect width="1133.9" height="175.11" x="1225.22" y="2330.31" fill="none"/></clipPath><clipPath id="u"><path fill="none" d="M2369.06,2490.6H1265.89c-94-72.73-8-140.46,0-150.86H2369.06c14.23,0,25.86-7.88,25.86-17.51s-11.63-17.51-25.86-17.51h-1114c-13.24,0-30.37,8.8-31.83,17.51-93.67,96.95-21.34,170.77,6.87,195.85a12.7,12.7,0,0,0,7.42,2.85,33.29,33.29,0,0,0,17.54,4.69h1114c14.23,0,25.86-7.87,25.86-17.51S2383.29,2490.6,2369.06,2490.6Z"/></clipPath><clipPath id="v"><path fill="none" d="M2320.38,2420.29s-28,193,105.46,201.76,133.77,1.56,157.15-26.3,61.56-83.9,61.56-83.9,67-2.81,79.63-18.5,42.21-205.06-85.17-238.73S2288.26,2363.34,2320.38,2420.29Z"/></clipPath><clipPath id="w"><polygon fill="none" points="2540.01 2013.57 2767.76 2026.83 2780.8 2038.12 2740.9 2257.65 2657.34 2350.59 2424.69 2324.56 2479.84 2222.43 2492.86 2024.33 2540.01 2013.57"/></clipPath><clipPath id="x"><polygon fill="none" points="2514.95 2034.17 2505.94 2198.28 2709.39 2212.4 2739.04 2049.09 2514.95 2034.17"/></clipPath><clipPath id="y"><path fill="none" d="M2374,2136.58s-58.6,16.62-81.53,52.13-19.84,165-19.84,165l38.52,15s13.09,80,5.95,90.54,88.78,74.86,217.53,21.86c61.24-26.85-6.73-70.36-6.73-70.36s54.47-3.37,82.58-33.29-22-174.66-45.4-197.13S2427.65,2107.64,2374,2136.58Z"/></clipPath><clipPath id="z"><path fill="none" d="M2330.21,1907.54s-20-41.21,61.57-58.74,158.76,7.91,132.36,86.87-78.56,219.84-78.56,219.84-29.58,44.7-89,2c-6.76,12.32,3.7,20.81,3.7,20.81s-53.39,9.63-48.84-38.73c-17.81-4.28-22.29,18.92-12.63,24.68-33.51,6.8-53.77-27.23.56-61.09S2195.71,1993.12,2330.21,1907.54Z"/></clipPath><clipPath id="A"><path fill="none" d="M2509.57,1893.77s15.53,40.14,17.33,63.58,36.89,22.09,33.92,29.16-13.18,15.67-13.18,15.67,21.05,106.85-54.78,92.25a313.72,313.72,0,0,0,0,47.63l-47.25,13.45s-19-19.6-2.24-35.13,22.91-35.06,10.21-55.32-26.16-44.15-9.11-66.85,11.29-36.41,11.29-36.41S2499.08,1956.28,2509.57,1893.77Z"/></clipPath></defs><rect width="4680" height="3120" fill="#fff" class="colorffffff svgShape" data-name="1" opacity="0"/><ellipse cx="2149.77" cy="2560.65" fill="#e0e0e0" class="colord6e3ea svgShape" rx="1206.9" ry="199.35"/><path fill="#d1bde5" d="M2508.07,2522.93c-25,0-49.39.62-72.85,1.78-4.74-36.78-293.52-66.43-649.13-66.43-358.57,0-649.25,30.15-649.25,67.34S1427.52,2593,1786.09,2593c149.31,0,286.83-5.23,396.51-14-7.34,6.2-11.28,12.7-11.28,19.41,0,41.66,150.77,75.43,336.75,75.43s336.75-33.77,336.75-75.43S2694.05,2522.93,2508.07,2522.93Z" class="colorbdd8e5 svgShape"/><ellipse cx="3076.5" cy="2547.18" fill="#d1bde5" class="colorbdd8e5 svgShape" rx="150.86" ry="40.41"/><path fill="#e0e0e0" d="M1395.9,880.66l244.54-253.35c110-114,263.81-185.23,429.78-199.15l782.87-65.65c228.9-19.2,452,72.78,587.06,242L3620.07,830c140.51,176.08,163.78,408,60.61,604.36l-184.93,351.9c-108.27,206-336.92,337.17-587.87,337.17H2098.73c-204.92,0-397.91-87.73-521-236.84l-213.26-258.35C1179.12,1403.72,1192.24,1091.65,1395.9,880.66Z" class="colord6e3ea svgShape"/><rect width="1495.07" height="937.45" x="2006.89" y="967.52" fill="#f2f2f2" class="colorf0f5f7 svgShape" rx="32.33"/><rect width="39.51" height="41.31" x="2117.44" y="1670.74" fill="#e2b12b" class="colore2392b svgShape"/><rect width="21.55" height="37.72" x="2253.94" y="1674.33" fill="#e2b12b" class="colore2392b svgShape"/><rect width="21.55" height="37.72" x="2293.45" y="1674.33" fill="#e2b12b" class="colore2392b svgShape"/><polygon fill="#7808d0" points="2227 1691.13 2190.18 1712.38 2190.18 1669.87 2227 1691.13" class="color538ec4 svgShape"/><rect width="174.21" height="73.64" x="2126.42" y="1789.27" fill="#fff" class="colorffffff svgShape" rx="6.67"/><rect width="174.21" height="73.64" x="2341.94" y="1789.27" fill="#fff" class="colorffffff svgShape" rx="6.67"/><path fill="#ffe8a9" d="M2306,1421.1s8.08-39.06-12.12-72.74-44.45-47.14-56.57-57.92-24.25,8.08-5.39,25.59,15.71,29.64-11.23,40.41-57.47-16.16-85.75-21.55-43.11-1.34-25.6,26.94,45.8,70,60.62,79.47,117.19,41.76,117.19,41.76Z" class="colorffbca9 svgShape"/><path fill="#ffdc7b" d="M2140.61,1375.39c8.28,3.36,14.17,10.57,19.37,17.53,4.91,6.55,10.13,15.58,19.14,16.55,5,.54,9.7-1.77,14.42-3a59.08,59.08,0,0,1,12.68-1.85,65.17,65.17,0,0,1,25.08,4.07,61.82,61.82,0,0,1,23.72,15.74c1.31,1.42,3.43-.71,2.12-2.12-11.81-12.69-28.8-20-46.06-20.69a65.16,65.16,0,0,0-12.86.81,60.43,60.43,0,0,0-6.38,1.39c-2.45.68-4.84,1.58-7.31,2.19a13.4,13.4,0,0,1-7.19,0,15.13,15.13,0,0,1-5.49-3.3c-3.32-3-5.82-6.71-8.46-10.27-6-8-12.44-16.13-22-20-1.79-.72-2.56,2.18-.8,2.9Z" class="colorff947b svgShape"/><path fill="#ffdc7b" d="M2139.06,1348.92a91.35,91.35,0,0,1,22.28,15.71c1.39,1.34,3.52-.78,2.12-2.12a93.9,93.9,0,0,0-22.89-16.18c-1.72-.86-3.24,1.72-1.51,2.59Z" class="colorff947b svgShape"/><path fill="#471782" d="M2731.67,682.05s-93.39-39.51-116.74,57.48c-117.64,17.06-118.53,176-62.86,215.51-30.53,73.64-37.71,165.23,46.7,170.62-21.55,71.84-5.39,204.74,125.72,176s368.17-154.46,368.17-154.46,55.68-93.39-34.12-127.51c25.14-102.37-5.39-170.62-84.41-168.82,59.26-125.72-80.82-116.74-80.82-116.74S2880.74,606.62,2731.67,682.05Z" class="color821717 svgShape"/><g class="color000000 svgShape" clip-path="url(#a)"><path fill="#361066" d="M2754.39,738.78c-25.48-15-59.71-13.74-84,3.21a325.62,325.62,0,0,1,55.85,18.43c-9.21-13.33-29.26-10.94-45-6.94-24,6.11-48.16,12.64-69.6,24.95s-40.15,31.23-47.07,55,.3,52.33,20.79,66.17C2600.86,910,2623.41,913,2628,933a31.09,31.09,0,0,1-1.12,16.76c-5.41,16.23-18.69,26.83-27.76,40.47-13.23,19.91-14.35,51,5.51,64.3,14.55,9.74,34.7,6.59,49.84,15.36,23.72,13.75,23.44,48.58,13.58,74.15s-26.41,50.09-25.17,77.47c1,22,13.45,41.71,25.58,59.82q13.26,19.8,27.75,38.72c9.59,12.52,19.91,25.13,33.75,32.72,20,11,44.72,9.83,66.33,2.66s40.91-19.8,60.41-31.56a874.26,874.26,0,0,1,240-99.46c6.63-1.64,14.11-3.86,17.07-10,1.87-3.9,1.4-8.46.9-12.75-1.66-14.2-3.4-28.66-9.29-41.69s-16.68-24.64-30.62-27.82c-10.9-2.48-23.5,0-32.4-6.73-13.59-10.31-6.9-32.47,4.5-45.15,4.74-5.28,10.39-10.62,11.13-17.68,1.2-11.45-11-19.66-22-22.83-13.55-3.87-29.58-5.45-34.86-21.08a28.24,28.24,0,0,1-1-12.85c1.92-14.25,10.89-25.23,17-37.58,12.62-25.49,10-61.1-13.7-76.85-21.2-14.11-49.81-7.63-74.17-15a67.37,67.37,0,0,1-42.58-39.55c-3.27-8.45-4.72-18.31.57-26.18,3.08-4.58,8.38-7.44,13.84-6.64,13.79,2,12,24,34,17a21.05,21.05,0,0,0,14.56-16.45c2.4-15.06-9.7-29-23.8-34.15-13.63-5-28.68-3.79-43.12-2.22-9.89,1.08-20.18,2.24-29.56-1.07s-17.49-12.58-15.91-22.4,16.24-15.56,22.23-7.61a65.43,65.43,0,0,0-2.58-6.71c-20.63-46.31-88.6-40.3-102.57,8.43Z" class="color661010 svgShape"/></g><path fill="#704c9c" d="M2839.43,1682.41c7.19-68.23-21.55-113.14-43.11-134.69s-44.9-48.5-44.9-48.5-64.66,84.41-120.32,100.57-100.59-3.58-185-41.3-59.27-18-138.28-48.49,3.58-134.7,3.58-134.7S2430,1413,2521.54,1418.41s16.16,43.1,84.4-39.53,66.46-172.41,111.37-217.29,98.76-53.88,98.76-53.88c359.21-140.09,425.65,73.63,420.26,152.64s12.58,224.52,25.16,305.33c10.13,65.28,111,265,149.41,339.28H2816.1C2822.64,1842.3,2834.39,1730.26,2839.43,1682.41Z" class="color4c9c85 svgShape"/><g class="color000000 svgShape" clip-path="url(#b)"><path fill="#5b3a84" d="M2998,1074.66c8.79-21.54,17-46.48,6.54-67.24-9.42-18.62-31-27.44-51.26-32.35-87-21-183.79,4.59-248.94,65.9l-10.24,48.6c21.86,35.18,47.56,69.08,82,92.06s79.07,33.71,118.18,20.06C2947.61,1183.09,2976.74,1126.91,2998,1074.66Z" class="color3a846d svgShape"/><path fill="#5b3a84" d="M2558,1291.64c-14.17,21.4-29.59,43.88-53.06,54.26-33.76,14.94-72.83.35-105.68-16.47s-67.58-36.6-104.17-31.7c-3.41.46-6.95,1.2-9.64,3.36-5.52,4.44-5.35,12.74-4.68,19.8,2.46,26.08,6.29,54.92,26.25,71.9,9.67,8.22,22,12.53,34.17,16.23a546.43,546.43,0,0,0,106.94,21.18c27.9,2.68,59.52,4.9,77.28,26.58,9,11,14,26.56,27,32.08a53,53,0,0,1,22.68-37.66c-6.76,20.59,5.32,45.47,25.69,52.88a143.34,143.34,0,0,1,5.79-111.36c14.58-29.65,39.71-54.78,45.86-87.25l-18.33-128.82Z" class="color3a846d svgShape"/><path fill="#5b3a84" d="M2750.61,1490c1.26-20.34,5.7-40.37,7.33-60.68a222.34,222.34,0,0,0-9.27-83.65c-6.66,30.46-3.43,62.06-3,93.24s-2.34,63.92-19.26,90.1l2.72,18.88c-1.17,6.4,3.45,12.73,9.26,15.68s12.53,3.27,19,3.54c2,.08,4,.14,5.78-.8,5.72-3.08,2.2-11.66-1.16-17.22C2751.54,1531.61,2749.35,1510.29,2750.61,1490Z" class="color3a846d svgShape"/><path fill="#5b3a84" d="M3512.1,1869.65c-11.82-37.86-36.65-70-59.14-102.68-101.78-147.91-162.79-323.57-174.61-502.72-2-30.49-1.28-64.72,20.11-86.54l-111.75-116.47c-33.89-5.81-68.68,11.55-91.33,37.42s-34.94,59.13-43.85,92.34a591.44,591.44,0,0,0-19.29,120.5c-4.37,79,6.35,162.35-27.79,233.69-12.32,25.75-30,48.54-44.09,73.36-6.05,10.64-11.49,23.82-5.79,34.65,3,5.71,8.6,9.56,14.23,12.72,49.72,27.95,111,18.08,167.8,23.31,16.84,1.54,34.27,4.79,47.75,15s21.66,29.11,14.86,44.59c-1.28,2.9-3.06,6.08-1.91,9,1.08,2.78,4.26,4,7,5.18,24.05,10.46,33.37,38.85,48.27,60.43,25.1,36.33,69.41,55.88,94.25,92.4,13.05,19.18,20.18,42.36,35.9,59.42,27,29.31,78.08,31.63,107.61,4.88S3523.93,1907.52,3512.1,1869.65Z" class="color3a846d svgShape"/></g><path fill="#ffe8a9" d="M2894.65,1007.58c-12.15-21.45-23.16-41.75-30.82-56.09,14.16-1,26.52-14.17,32.14-30.78,7-20.76-.18-38.66-14.22-50.94-18.95-16.59-36.87-2.42-46.2,10.66-23.06-76.25-112.61-42-127.23-101.39-52.13,53.31-77.22,74.53-109.73,75.33,0,0,37.91,119.66,55.69,157.57s33.17,66.35,99.52,58.06a94.61,94.61,0,0,0,26.49-7.37c2.59,10.32,5.83,23.87,7.95,35.19,4,21.55-5.38,26.94-5.38,26.94s21.55,63.31,86.2,49.84,106.86-111.8,106.86-111.8S2917.55,1048,2894.65,1007.58Z" class="colorffbca9 svgShape"/><g class="color000000 svgShape" clip-path="url(#c)"><path fill="#ffdc7b" d="M2836.42,883a160.85,160.85,0,0,0-135.73-167c-15.52-2.44-31.58-2.56-46.75,1.53-18,4.86-34,15.42-48.81,26.81-19.41,14.92-37.85,32.06-49.19,53.76-2.88,5.52-4.64,13.61.64,16.89l3.81,27.9a102.48,102.48,0,0,0,149-35.72c20.15,21.34,54,20,81,31.42A89.27,89.27,0,0,1,2836.42,883Z" class="colorff947b svgShape"/><path fill="#ffdc7b" d="M2842.64,1009.71a5.74,5.74,0,0,0-2-2.6c-2.58-1.46-5.35,1.5-6.91,4a160.76,160.76,0,0,1-59.24,56.31l-19,33.17c-4.72,8.78,2.69,20.22,12.25,23.07s19.81-.42,28.94-4.42c15.34-6.72,29.94-15.8,40.86-28.51s17.86-29.34,16.67-46C2853.33,1032.37,2848.19,1020.77,2842.64,1009.71Z" class="colorff947b svgShape"/><path fill="#ffdc7b" d="M2870.94,893.05c-7.25-4.53-17.29-1.57-22.42,6.63s-3.41,18.53,3.85,23.06,17.29,1.57,22.42-6.63S2878.19,897.59,2870.94,893.05Z" class="colorff947b svgShape"/></g><path fill="#eabb3b" d="M2700,892.9a60.4,60.4,0,0,1,4,9.79,56.38,56.38,0,0,1,2.21,10.46c.11.89.16,1.8.22,2.7s0,1.82,0,2.74a27.15,27.15,0,0,1-.72,5.54,18.48,18.48,0,0,1-2.19,5.36,15.58,15.58,0,0,1-4.08,4.37l-1.27.8c-.43.24-.89.44-1.34.66l-1.16.54a6.45,6.45,0,0,0-1,.51,5.72,5.72,0,0,0-1.55,1.19l-.27.32c-.09.1-.1.22-.17.33a2.4,2.4,0,0,0-.24.68,5.65,5.65,0,0,0,1.13,3.66,25.88,25.88,0,0,0,3.07,3.77c1.15,1.21,2.43,2.33,3.72,3.46s2.64,2.2,4,3.25c2.73,2.14,5.57,4.15,8.44,6.19a75.61,75.61,0,0,1-9.53-4.55,56.37,56.37,0,0,1-8.8-6.08,23.41,23.41,0,0,1-3.83-4.09,11.13,11.13,0,0,1-.8-1.25l-.37-.68-.3-.74a7.32,7.32,0,0,1-.51-3.42,5.56,5.56,0,0,1,.51-1.8,5.38,5.38,0,0,1,.42-.83l.54-.71a9.7,9.7,0,0,1,2.49-2.1,10.58,10.58,0,0,1,1.33-.7l1.2-.57c.34-.18.69-.32,1-.5l.94-.61a13.24,13.24,0,0,0,4.92-7.44,22.78,22.78,0,0,0,.88-4.79,43.76,43.76,0,0,0,.17-5A102.06,102.06,0,0,0,2700,892.9Z" class="colorea473b svgShape"/><path fill="#280456" d="M2749.59,842.44a10.43,10.43,0,0,1,5.17-4.33,16.55,16.55,0,0,1,6.73-1.21l1.7.11c.55.1,1.11.19,1.66.3a10.24,10.24,0,0,1,1.63.41c.53.17,1.06.36,1.58.55a25.6,25.6,0,0,1,3,1.49,20.91,20.91,0,0,1,2.62,2.07,24.36,24.36,0,0,1-3.26-.21c-1.07,0-2.08-.2-3.09-.3s-2-.25-3-.26l-1.46-.11-1.46-.05a41.25,41.25,0,0,0-5.77.23A30.81,30.81,0,0,0,2749.59,842.44Z" class="color560404 svgShape"/><circle cx="2806.64" cy="926.14" r="28.76" fill="#f6cd5c" class="colorf66d5c svgShape"/><ellipse cx="2655.67" cy="906.61" fill="#380677" class="color770906 svgShape" rx="12.25" ry="16.58" transform="rotate(-16.28 2654.973 906.483)"/><ellipse cx="2764.37" cy="880.81" fill="#380677" class="color770906 svgShape" rx="12.25" ry="16.58" transform="rotate(-16.28 2763.646 880.683)"/><ellipse cx="2652.6" cy="904.85" fill="#fff" class="colorffffff svgShape" rx="5.04" ry="6.8" transform="rotate(-16.28 2651.907 904.725)"/><ellipse cx="2761.82" cy="878.28" fill="#fff" class="colorffffff svgShape" rx="5.04" ry="6.8" transform="rotate(-16.28 2761.12 878.146)"/><path fill="#280456" d="M2660.2,867.4c-2.84.19-5.54.25-8.21.35s-5.28.26-7.82.56a29.85,29.85,0,0,0-7.29,1.74,16.19,16.19,0,0,0-6.3,4.46,9.74,9.74,0,0,1,1.58-4.06,12,12,0,0,1,3.2-3.16,18.78,18.78,0,0,1,8.31-2.94,28.75,28.75,0,0,1,8.55.28A25.17,25.17,0,0,1,2660.2,867.4Z" class="color560404 svgShape"/><ellipse cx="2656.5" cy="934.05" fill="none" stroke="#5100b7" stroke-linecap="round" stroke-miterlimit="10" stroke-width="4" class="colorStrokeb74a00 svgStroke" rx="39.69" ry="33.17" transform="matrix(.98 -.18 .18 .98 -126.9 507.27)"/><ellipse cx="2765.95" cy="913.46" fill="none" stroke="#5100b7" stroke-linecap="round" stroke-miterlimit="10" stroke-width="4" class="colorStrokeb74a00 svgStroke" rx="39.69" ry="33.17" transform="rotate(-10.65 2767.236 913.739)"/><path fill="none" stroke="#5100b7" stroke-linecap="round" stroke-miterlimit="10" stroke-width="4" d="M2695.5,926.71s13.67-17,31.44-5.91" class="colorStrokeb74a00 svgStroke"/><path fill="#eabb3b" d="M2710.12,989.17a45.08,45.08,0,0,0,6.78-.25c1.12-.09,2.23-.28,3.34-.42s2.21-.37,3.3-.64a62.52,62.52,0,0,0,24.05-10.81c.87-.67,1.76-1.32,2.65-2a24.23,24.23,0,0,1,3.09-2.09,13.62,13.62,0,0,1,3.71-1.42,8.67,8.67,0,0,1,4.39.18,8,8,0,0,1,3.63,2.6A11.45,11.45,0,0,1,2767,978a19.79,19.79,0,0,1,.8,7.47A28.79,28.79,0,0,1,2763,999a26.28,26.28,0,0,1-10.63,9.3,27.35,27.35,0,0,1-13.55,2.46,30.87,30.87,0,0,0,12.62-4.19,25.8,25.8,0,0,0,8.91-9.22A27.2,27.2,0,0,0,2764,985.2a17.07,17.07,0,0,0-.72-6,5.44,5.44,0,0,0-3.11-3.67c-1.36-.49-3.22-.06-5,.89a20.29,20.29,0,0,0-2.58,1.68l-2.86,2a58.15,58.15,0,0,1-12.39,6.45,55.22,55.22,0,0,1-13.52,3.2c-1.15.14-2.31.16-3.46.24s-2.3.08-3.45,0A34.48,34.48,0,0,1,2710.12,989.17Z" class="colorea473b svgShape"/><path fill="#ffe8a9" d="M2976.57,1772.6s4.57-16.77-30.48-15.24-39.63-19.82-47.25-9.15S2911,1778.7,2911,1778.7s9.15,32,6.1,51.82,7.62,24.38,29,35,35,42.68,53.34,32,41.16-22.86,41.16-22.86S2941.52,1827.47,2976.57,1772.6Z" class="colorffbca9 svgShape"/><polygon fill="#ffc527" points="3001.07 1461.51 3044.17 1464.2 3254.3 1685.11 3116.91 1854.83 3089.97 1873.68 2852.9 1642 3001.07 1461.51" class="colorffc127 svgShape"/><g class="color000000 svgShape" clip-path="url(#d)"><polygon fill="#fff" points="3071.11 1430.53 3044.17 1464.2 2877.14 1668.94 2825.96 1633.92 2956.62 1460.16 3071.11 1430.53" class="colorffffff svgShape"/><polygon fill="#e5af1a" points="2897.35 1645.37 3119.6 1861.56 3088.62 1895.24 2816.53 1639.31 2897.35 1645.37" class="colore5a61a svgShape"/><polygon fill="#e5af1a" points="2958.41 1653.81 3001.49 1686.87 3089.65 1556.18 3051.81 1533.38 2958.41 1653.81" class="colore5a61a svgShape"/></g><path fill="#704c9c" d="M3238.5,1292.18c-11.27-121.09-24.41-182.1-110.29-174.12-83.68,7.77-60.71,169.25-60.71,169.25,4.6,78.36,9.13,157.73-6.05,234.74-3.58,18.17-8.27,36.25-9.09,54.76-.17,3.73-.19,7.55-1.43,11.09-1.18,3.38-3.39,6.28-5.35,9.27-6.35,9.74-10.13,20.88-14.16,31.79a622.25,622.25,0,0,1-82.59,153.29c-3.88,5.28-8.06,11.23-7.23,17.73.44,3.37,2.2,6.41,3.93,9.35,9.93,16.82,20.3,34.15,36.19,45.52,16.8,12,38.07,16.07,58.71,16.89,10.21.4,21.23-.17,29.3-6.42,5-3.91,8.33-9.59,11.49-15.13l114.21-200c21.72-38,35.19-89.89,36.81-135.25l.16.22S3249.76,1413.26,3238.5,1292.18Z" class="color4c9c85 svgShape"/><g class="color000000 svgShape" clip-path="url(#e)"><path fill="#5b3a84" d="M3065.69,1181.68c-15.26,79.69,16.77,160.25,21.47,241.24,1.29,22.33.52,44.91,4.92,66.83a144.47,144.47,0,0,0,35.87,69.8c2,2.16,4.21,4.5,4.46,7.44.64,7.42-9.95,9.5-17.36,8.72l-38.63-4.08a13.87,13.87,0,0,0,10.74,12.3c-14.74,7.63-16.15,32-2.38,41.29a223,223,0,0,0-77.44,88c-11.26,23.06-19,48.81-37.27,66.84-20,19.76-49,26.67-76.49,32.76,9.1-41.38,32.23-78.24,46-118.33,11.42-33.37,16.19-68.58,20.91-103.53,8.86-65.67,17.72-131.36,24.47-197.29,3.1-30.26,5.62-61.7-4.66-90.32Z" class="color3a846d svgShape"/></g><rect width="1282.33" height="17.96" x="2110.26" y="1741.68" fill="#fff" class="colorffffff svgShape"/><rect width="26.94" height="71.84" x="2602.36" y="1714.74" fill="#7808d0" class="color538ec4 svgShape" rx="3.33"/><path fill="#fff" d="M2412.76,499.76h-404a51.73,51.73,0,0,0-51.58,51.58V760.52a51.73,51.73,0,0,0,51.58,51.58h314.45c19.15,26.25,48.09,57.51,83.85,70.21a647,647,0,0,1-2.78-70.21h8.51a51.73,51.73,0,0,0,51.58-51.58V551.34A51.73,51.73,0,0,0,2412.76,499.76Z" class="colorffffff svgShape"/><rect width="339.56" height="27.94" x="2043.83" y="568.53" fill="#ffc527" class="colorffc127 svgShape" rx="3.25"/><rect width="339.56" height="27.94" x="2043.83" y="635.16" fill="#ffc527" class="colorffc127 svgShape" rx="3.25"/><rect width="339.56" height="27.94" x="2043.83" y="701.78" fill="#ffc527" class="colorffc127 svgShape" rx="3.25"/><path fill="#3f285b" d="M3067.59,2481.63c.62-32.22,2.32-64.42,4.8-96.56,1.2-16.07,2.67-32.12,4.3-48.16s3.54-32,5.62-48,4.51-31.93,7.19-47.84,5.73-31.76,9.21-47.51,7.47-31.41,12.11-46.87c1.23-3.84,2.36-7.71,3.67-11.53s2.62-7.63,4-11.43l4.35-11.29,4.87-11.06a384.09,384.09,0,0,0-15,45.85c-4.18,15.53-7.71,31.22-10.95,47-6.28,31.55-11.28,63.34-15.49,95.24-2.15,15.94-4,31.93-5.83,47.92s-3.38,32-5,48-2.95,32.06-4.25,48.11S3068.71,2465.56,3067.59,2481.63Z" class="color285b4a svgShape"/><path fill="#3f285b" d="M3042.82,2140.39c9.37,27.32,17.12,55.19,23.81,83.3s12.17,56.53,16.39,85.15c2,14.32,3.78,28.68,5.07,43.09.34,3.6.57,7.21.85,10.81l.41,5.41.3,5.42c.18,3.61.45,7.22.56,10.84l.32,10.84c.25,14.47.08,28.95-.88,43.38-.22,3.61-.62,7.21-.92,10.81-.17,1.8-.31,3.6-.51,5.4l-.67,5.38-.67,5.38-.34,2.68-.43,2.68-1.82,10.67c.79-7.18,1.71-14.32,2.21-21.52l.44-5.38c.12-1.8.19-3.6.28-5.4.15-3.6.4-7.19.47-10.8l.24-10.79c.08-3.6,0-7.2,0-10.8l0-5.4-.15-5.4c-.12-3.6-.15-7.19-.34-10.79a859.65,859.65,0,0,0-8.34-85.94c-2-14.26-4.44-28.46-7-42.64s-5.44-28.3-8.46-42.39-6.29-28.14-9.75-42.14S3046.75,2154.28,3042.82,2140.39Z" class="color285b4a svgShape"/><path fill="#3f285b" d="M3006.45,2250.84c5,8.8,9.76,17.78,14.29,26.86s8.88,18.24,13,27.49,8.07,18.63,11.8,28.07,7.25,19,10.48,28.61a423.58,423.58,0,0,1,15.71,58.93,277.71,277.71,0,0,1,4.06,30.32,212.12,212.12,0,0,1,.14,30.67l-3.9-.38c3-25.06,6.75-50,10.9-74.83s8.93-49.61,14.29-74.24q4.13-18.45,8.77-36.78t10.14-36.43c3.65-12.06,7.76-24,12.24-35.77a294.81,294.81,0,0,1,15.44-34.48l-4,8.55-3.68,8.69c-2.34,5.84-4.62,11.7-6.68,17.64-4.19,11.85-7.88,23.87-11.32,36s-6.59,24.27-9.52,36.49-5.62,24.51-8.16,36.83-5,24.64-7.25,37-4.39,24.76-6.46,37.17-4,24.83-5.77,37.28-3.55,24.9-5.06,37.36l-3.9-.38c1.46-20-.31-40.2-3.83-60-1.7-9.94-4-19.78-6.47-29.56s-5.31-19.49-8.39-29.12c-6.11-19.28-13.41-38.18-21.2-56.87S3015.79,2268.83,3006.45,2250.84Z" class="color285b4a svgShape"/><path fill="#704c9c" d="M3244,2104.48s-66.78,20.55-90.76,42-25.14,73-25.14,73,37.13-28.26,66.24-57.48A549.84,549.84,0,0,0,3244,2104.48Z" class="color4c9c85 svgShape"/><path fill="#704c9c" d="M3250.82,1976.06s-78.94,27.34-107.27,55.82-29.72,97.13-29.72,97.13,43.88-37.59,78.29-76.48A717.53,717.53,0,0,0,3250.82,1976.06Z" class="color4c9c85 svgShape"/><path fill="#a681cc" d="M3090.68,2357.92s3.68-59.94,37.39-83.91,87.64-21.41,107.34-27.4-65.93,46.24-93.33,68.5S3090.68,2357.92,3090.68,2357.92Z" class="color81ccb5 svgShape"/><path fill="#a681cc" d="M3053.47,2167s-3.69-59.94-37.4-83.91-87.64-21.41-107.33-27.4,65.92,46.24,93.32,68.5S3053.47,2167,3053.47,2167Z" class="color81ccb5 svgShape"/><path fill="#704c9c" d="M3023.24,2275.33s-3.22-52.41-32.7-73.37-76.64-18.72-93.85-24,57.64,40.43,81.6,59.89S3023.24,2275.33,3023.24,2275.33Z" class="color4c9c85 svgShape"/><polygon fill="#fff" points="2980.55 2378.44 3016.7 2546.54 3163.11 2546.54 3190.22 2378.44 2980.55 2378.44" class="colorffffff svgShape"/><g class="color000000 svgShape" clip-path="url(#f)"><path fill="#a5a5a5" d="M3017.25,2335.73c8.16,31,18.5,61.69,35,89.14s39.62,51.64,68.57,65.35c26.43,12.53,56.11,15.77,84.8,21.44,4,.79,8.17,1.71,11.29,4.33,6.23,5.21,5.92,14.94,3.41,22.66-6.58,20.25-24.22,35.52-43.92,43.6s-41.4,9.8-62.69,9.95c-39.51.27-79.63-4.74-115.86-20.5s-68.39-43.07-84.71-79c-7.82-17.24-11.87-36-13.48-54.88-2.8-32.73,1.9-66.63,17.21-95.69Z" class="colora5a5a5 svgShape" opacity=".26"/></g><path fill="#ffe397" d="M1111.22,1843s42.25-40-48.92-66.71-126.75,24.46-126.75,24.46S993.36,1907.53,1111.22,1843Z" class="colorffdf97 svgShape"/><path fill="#ffd666" d="M1217.66,1819.81s21.55-91.6,132-88.9C1320,1846.75,1231.13,1871,1217.66,1819.81Z" class="colorffcb64 svgShape"/><path fill="#ffe397" d="M1225.34,1709.35S1085,1674.27,1137.63,1564s12.53-180.43-7.51-275.66,55.13-177.93,117.78-120.29S1368.18,1589.07,1225.34,1709.35Z" class="colorffdf97 svgShape"/><g class="color000000 svgShape" clip-path="url(#g)"><path fill="#ffd257" d="M1211.85,1130.68c21.8,7.3,39.13,24.57,51.05,44.23s19,41.77,26.07,63.66c11.16,34.75,22.46,71.16,16.41,107.16-6.85,40.72-35.38,76.71-35.4,118,0,30.13,15.42,59.3,11.85,89.21-1.5,12.55-6.3,24.47-11.92,35.79-9.85,19.84-22.71,38.69-40.44,52s-40.88,20.44-62.49,15.58c-33.32-7.48-54.21-39.64-71.51-69.09,2.25,33.27,10.31,66.84,28.63,94.71s47.9,49.43,81.06,52.93c33.93,3.58,67.85-12,92.74-35.3s41.92-53.8,56.19-84.79c42.73-92.83,64.16-198.46,42.07-298.23-7.4-33.4-19.49-65.57-32.43-97.24q-23.79-58.26-51.55-114.8Z" class="colorffc757 svgShape"/></g><path fill="#ffd666" d="M1134.15,1771.31s29.63-56.57-8.08-99.67-10.78-161.64-32.33-245.15-88.9-156.25-118.54-88.9,40.41,105.06,24.25,185.88S1012.92,1765.93,1134.15,1771.31Z" class="colorffcb64 svgShape"/><path fill="#eab72a" d="M1144.92,1919.48a357.73,357.73,0,0,0-9.75-41.08c-.46-1.69-1.09-3.32-1.65-5l-1.7-5c-.6-1.64-1.28-3.25-1.91-4.88s-1.23-3.27-2-4.84c-1.46-3.16-2.79-6.39-4.47-9.44l-1.19-2.32-.6-1.16-.66-1.13-2.65-4.48c-7.31-11.76-16.61-22.43-28.25-30-1.47-.9-2.89-1.89-4.44-2.68l-2.28-1.25-2.33-1.13a73.09,73.09,0,0,0-19.89-6.19,54.32,54.32,0,0,0-10.51-.71,47.18,47.18,0,0,1,10.63-.39,63.58,63.58,0,0,1,10.59,1.59,71,71,0,0,1,19.89,8.12,79.79,79.79,0,0,1,16.84,13.46,109.73,109.73,0,0,1,13.15,17.07l2.69,4.65.68,1.17.6,1.2,1.21,2.39c1.68,3.17,3.06,6.47,4.47,9.75.75,1.63,1.27,3.34,1.91,5s1.25,3.34,1.82,5c1,3.41,2.17,6.79,3,10.24A219.85,219.85,0,0,1,1144.92,1919.48Z" class="coloreaae2a svgShape"/><path fill="#eab72a" d="M1177.25,1949.12a148.4,148.4,0,0,1-1.76-23.93,177.47,177.47,0,0,1,1.76-24,159.48,159.48,0,0,1,5.2-23.59,136.11,136.11,0,0,1,9.17-22.43,108.72,108.72,0,0,1,31-37,55.22,55.22,0,0,1,5-3.5l2.52-1.68,1.26-.84c.43-.26.88-.49,1.32-.74l5.3-2.92c.44-.24.87-.49,1.32-.72l1.38-.63,2.74-1.25,2.76-1.23,1.37-.61,1.42-.52,5.66-2c1.87-.73,3.83-1.19,5.75-1.73l5.79-1.54-5.6,2.11c-1.86.71-3.76,1.32-5.55,2.19l-5.44,2.43-1.36.6-1.31.7-2.62,1.4a114.89,114.89,0,0,0-19.74,13l-4.5,3.81-4.23,4.09c-1.45,1.32-2.7,2.85-4,4.29l-2,2.19c-.68.72-1.22,1.54-1.84,2.3a111.14,111.14,0,0,0-12.81,19.68c-7.35,13.89-12,29.13-14.85,44.67A210.23,210.23,0,0,0,1177.25,1949.12Z" class="coloreaae2a svgShape"/><path fill="#eab72a" d="M1147.62,1951.81a122.51,122.51,0,0,0,8.39-10.61c1.36-1.8,2.57-3.71,3.85-5.56.63-.93,1.29-1.85,1.89-2.8l1.79-2.87c1.18-1.92,2.41-3.81,3.55-5.75l3.33-5.88,1.66-2.94c.56-1,1-2,1.56-3l3.07-6a401.81,401.81,0,0,0,20.57-49.88l4-12.89,1-3.22.5-1.61.44-1.63,1.73-6.52c1.15-4.35,2.34-8.69,3.45-13.05l2.88-13.19c2.09-8.75,3.47-17.66,5-26.51l1.16-6.65c.33-2.23.59-4.47.89-6.7l1.73-13.39c2.23-17.87,3.73-35.85,4.8-53.83.37-4.49.45-9,.63-13.5l.48-13.5,0-13.51.05-6.76c0-2.25-.12-4.5-.17-6.75-.14-4.5-.21-9-.4-13.5l-.81-13.49c-.69-9-1.51-18-2.77-26.87s-2.72-17.82-4.62-26.63l-1.59-6.57c-.53-2.19-1.2-4.34-1.79-6.52a107.2,107.2,0,0,0-4.42-12.78,108.62,108.62,0,0,1,5,12.6c.67,2.16,1.4,4.3,2,6.48l1.81,6.54c2.2,8.78,4.1,17.64,5.53,26.59a425.72,425.72,0,0,1,5.16,54.06c.09,2.26.22,4.52.28,6.78l.08,6.79.1,13.59-.35,13.58c-.13,4.52-.17,9-.49,13.57l-.81,13.55-.42,6.78-.62,6.76-1.25,13.52-.63,6.76-.88,6.74-1.79,13.48c-.31,2.24-.58,4.49-.91,6.73l-1.2,6.69c-1.64,8.91-3,17.88-5.21,26.68l-3,13.25c-1.16,4.38-2.41,8.74-3.61,13.11-2.23,8.79-5.34,17.33-8.13,26a373.6,373.6,0,0,1-21.78,49.77l-3.29,5.94c-.56,1-1.07,2-1.66,3l-1.78,2.9-3.54,5.8c-1.2,1.91-2.5,3.77-3.75,5.66A152.6,152.6,0,0,1,1147.62,1951.81Z" class="coloreaae2a svgShape"/><path fill="#eab72a" d="M1050.64,1499.22a146.37,146.37,0,0,0-5.21,14.78c-1.51,5-2.83,10-3.92,15.15a187.85,187.85,0,0,0-4.09,30.94,153.38,153.38,0,0,0,8.69,61.18,140,140,0,0,0,13.82,27.68c.34.55.66,1.11,1,1.64l1.12,1.58,2.23,3.17c1.44,2.11,3.07,4.21,4.61,6.31,3.12,4.21,6.22,8.43,9.26,12.7a617.62,617.62,0,0,1,34.14,52.85q7.73,13.72,14.54,28t12.25,29c3.61,9.88,6.69,20,9.33,30.13a265.49,265.49,0,0,1,5.79,31,255.12,255.12,0,0,1,1.67,31.5c-.05,2.62-.21,5.25-.31,7.88l-.18,3.93-.37,3.93c-.26,2.61-.46,5.23-.78,7.84l-1.15,7.8c-.34,2.6-.94,5.16-1.46,7.74l-.8,3.85c-.27,1.28-.51,2.57-.88,3.84-1.35,5.07-2.56,10.17-4.28,15.13l-1.2,3.74c-.41,1.24-.78,2.5-1.27,3.72l-2.8,7.34c-.49,1.21-.9,2.46-1.46,3.64l-1.6,3.59-3.21,7.15,2.93-7.27,1.46-3.63c.51-1.21.87-2.47,1.31-3.7l2.58-7.39c.46-1.22.79-2.49,1.16-3.74l1.08-3.76c1.57-5,2.63-10.09,3.83-15.16.33-1.26.53-2.55.76-3.83l.68-3.85c.45-2.56,1-5.12,1.23-7.71l1-7.74c.27-2.59.42-5.19.64-7.78l.3-3.89.1-3.9c.06-2.6.17-5.19.17-7.79a250.34,250.34,0,0,0-2.19-31.08l-1.23-7.7c-.23-1.28-.39-2.57-.66-3.84l-.79-3.81-.77-3.82-.38-1.91-.46-1.89-1.85-7.58c-2.69-10-5.82-20-9.48-29.68s-7.76-19.3-12.23-28.7-9.37-18.59-14.49-27.65c-10.29-18.12-21.69-35.6-33.74-52.63-3-4.28-6-8.51-9.11-12.74-1.53-2.12-3.09-4.17-4.58-6.38l-2.26-3.27-1.12-1.63c-.38-.55-.7-1.13-1-1.69a136,136,0,0,1-13.75-28.52,147.84,147.84,0,0,1-7.06-30.81c-.39-2.61-.52-5.25-.76-7.87s-.25-5.26-.37-7.89c0-5.26,0-10.53.44-15.77a188.09,188.09,0,0,1,5-31.06A163.28,163.28,0,0,1,1050.64,1499.22Z" class="coloreaae2a svgShape"/><polygon fill="#e6e6e6" points="1051.67 1912.38 1087.82 2080.48 1234.23 2080.48 1261.35 1912.38 1051.67 1912.38" class="colordfe6ed svgShape"/><g class="color000000 svgShape" clip-path="url(#h)"><path fill="#d8b2ff" d="M1256,1890.3c-22.57,80-102.23,140.12-185.35,139.87-7.29,0-16.71,1-18.48,8.1-.68,2.7.1,5.54,1,8.19,15.58,48.25,59,86.4,108.81,95.68,29.23,5.44,60.66,1.17,86-14.38,25-15.33,42.45-40.17,57.59-65.26,18.24-30.22,34.49-63,36.72-98.22s-12.41-73.46-43.35-90.45Z" class="colorc3d1dd svgShape"/></g><path fill="#edb418" d="M1889.81,2205s60.61,18.86,103.71,20.21,60.62,56.57,28.29,67.35-198,22.9-202,2.69S1782.05,2194.27,1889.81,2205Z" class="coloredab18 svgShape"/><path fill="#ffd971" d="M1799.56,2075.73l24.24,154.91s41.76,20.2,87.56-12.13c-1.35-63.31-2.7-152.21-2.7-152.21Z" class="colorff8c71 svgShape"/><path fill="#7a34d1" d="M1503.22,1892.54s-49.84,179.15,74.09,184.54,189.92-22.9,189.92-22.9l6.73,59.27,168.38-16.17s12.12-167-106.41-211.47S1503.22,1892.54,1503.22,1892.54Z" class="colord13834 svgShape"/><path fill="#ffc527" d="M1854.78,2213.12s60.62,18.86,103.72,20.21,60.62,56.57,28.29,67.35-198,22.9-202,2.69S1747,2202.35,1854.78,2213.12Z" class="colorffc127 svgShape"/><g class="color000000 svgShape" clip-path="url(#i)"><path fill="#fff" d="M1886.56,2253.94c9.81-3.79,19.73-9.79,23.52-19.6,2.38-6.19,2-13.21-.11-19.51-6.28-18.93-26.24-30.3-45.88-33.75-34.74-6.09-72.31,8.63-93.67,36.69l4.69,14.47C1804.22,2259.54,1849.33,2268.32,1886.56,2253.94Z" class="colorffffff svgShape"/><path fill="#fff" d="M2012.59,2284.15c-2.28-13.53-10.38-28.22-24-29.91-11.07-1.37-20.92,6.29-30.18,12.5-44.89,30.08-102.76,32.47-156.49,26.81-8.67-.91-18-2.29-24.29-8.26l-34.29,2.22c-9.2,4.41-10.15,18.23-4.2,26.52s16.23,12.15,26.08,14.83c53.61,14.59,110.5,6.75,165.35-2.12,21.1-3.41,42.27-7,62.59-13.61,6.86-2.24,14.15-5.27,17.71-11.55C2013.81,2296.39,2013.57,2290,2012.59,2284.15Z" class="colorffffff svgShape"/></g><path fill="#ffe8a9" d="M1764.54,2083.81l24.24,154.91s41.76,20.2,87.56-12.13c-1.35-63.3-2.7-152.2-2.7-152.2Z" class="colorffbca9 svgShape"/><g class="color000000 svgShape" clip-path="url(#j)"><path fill="#ffdc7b" d="M1896.82,2084.9c-11.54,25.19-45.29,30.37-65,49.84-15.89,15.69-21,38.94-25.48,60.82-5.85,28.87-11.7,58.76-5.29,87.51-26.78-36.8-36.58-83-43.82-127.93-4.93-30.5-8.77-62.9,3.27-91.35,15.3-36.17,57.36-58.85,96-51.75,12,2.2,23.57,7,32.73,15Z" class="colorff947b svgShape"/></g><path fill="#f6cd5c" d="M1468.2,1900.62s-49.84,179.15,74.08,184.54,189.93-22.9,189.93-22.9l6.73,59.27,168.38-16.16s12.12-167-106.42-211.48S1468.2,1900.62,1468.2,1900.62Z" class="colorf66d5c svgShape"/><g class="color000000 svgShape" clip-path="url(#k)"><path fill="#e0b43b" d="M1503.11,2083.11c38.74,23.77,89.44,17.17,131.06-1.09s77.92-46.78,118.45-67.34l-22,45.49,46.83-21.6c6.45,8.42-1.26,20-8.18,28s-13.08,21.22-4.89,28c3.27,2.69,7.8,3.12,12,3.28,42.57,1.55,85.75-13.31,127.22-3.52,8.19,1.93,17.35,6.07,19.15,14.29,2.12,9.63-7,17.74-15.43,23-67.6,42-150.11,54.06-229.64,51-19-.74-38.21-2.35-55.82-9.37s-33.6-20.21-39.93-38.08Z" class="colore0463b svgShape"/></g><path fill="#66399e" d="M1666.66,1601.59c4.49.9,35,22.45,41.3,51.19s2.7,35,7.19,42.21,5.38,13.47,17.06,42.2,14.37,74.53,50.29,88.9,38.61-.9,29.63,30.53-92.49,13.47-92.49,13.47l-71.84-91.59Z" class="color39739e svgShape"/><path fill="#2e1a47" d="M1569.22,1396.85s-13.47-62,59.27-48.49c36.37-35,103.72,5.39,111.8,26.94,25.59,10.78,31.75,76.18-2.69,74.09s-121.23,92.94-121.23,92.94-109.11-5.39-74.09-95.64C1524.77,1400.89,1569.22,1396.85,1569.22,1396.85Z" class="color0b1e3f svgShape"/><g class="color000000 svgShape" clip-path="url(#l)"><path fill="#120523" d="M1594.93,1415.51s-11.62-53.44,51.12-41.82c31.36-30.21,89.45,4.65,96.42,23.23,22.08,9.3,27.39,65.7-2.32,63.9S1635.59,1541,1635.59,1541s-94.1-4.65-63.89-82.48C1556.59,1419,1594.93,1415.51,1594.93,1415.51Z" class="color051123 svgShape"/></g><path fill="#ffe8a9" d="M1765.88,1471.61c-16.16-2.69-21.55-16.84-21.55-37.71s-16.16-35.7-16.16-35.7c-10.78,16.16-41.76,6.74-41.76,6.74s-2,18.18-35,32.32c-6.06,43.11-24.92,45.13-24.92,45.13l-.33,1.18c-8-4.23-17.14-4.37-24.06.54-10.47,7.42-11.8,23.52-3,36a30.84,30.84,0,0,0,13.82,11l-1.27,4.54-8.08,67.35,78.13,47.15s-6.74-41.76-7.41-70c121.9,14.82,80.14-82.84,84.86-86.2S1782.05,1474.3,1765.88,1471.61Z" class="colorffbca9 svgShape"/><g class="color000000 svgShape" clip-path="url(#m)"><path fill="#ffdc7b" d="M1741.6,1349.73c-29.86-9.66-63,.67-89.12,18.1-11.86,7.92-23.24,18-27.71,31.52l-7.88,52.39,7.56,25.15c.43,1.44.94,3,2.17,3.88,1.73,1.25,4.14.68,6.14-.08a50.44,50.44,0,0,0,29-29.12c1.09-2.92,2-6.13,4.48-8.06a17.55,17.55,0,0,1,5.46-2.42,47.31,47.31,0,0,0,22.2-15.71c1.66-2.14,3.25-4.52,5.69-5.7s5.51-.94,8.32-.77a77.91,77.91,0,0,0,37.73-7.29c12.75-6,24.72-17.59,24.27-31.68C1769.42,1365.23,1755.6,1354.26,1741.6,1349.73Z" class="colorff947b svgShape"/><path fill="#ffdc7b" d="M1679.24,1581.08c-14.12.22-26.56-8.5-39.62-13.87-1.79-.73-4.23-1.23-5.31.37a4.23,4.23,0,0,0-.39,2.88c2.28,20.37,15,38,28.66,53.27,4.13,4.6,8.6,9.25,14.42,11.33,3.9,1.4,8.73,1.36,11.7-1.54,2.07-2,2.84-5,3.33-7.89a70.32,70.32,0,0,0-4.41-38.94Z" class="colorff947b svgShape"/><path fill="#ffdc7b" d="M1631.56,1498.08c-4.82-6-13.11-7.32-18.52-3s-5.9,12.73-1.08,18.72,13.1,7.33,18.51,3S1636.37,1504.08,1631.56,1498.08Z" class="colorff947b svgShape"/></g><path fill="#280456" d="M1708,1425.14a12.8,12.8,0,0,0-4.85.47,18.19,18.19,0,0,0-4,1.79,5.77,5.77,0,0,0-1,.57l-1,.59c-.66.44-1.34.87-2,1.31s-1.42.9-2.16,1.36a17.13,17.13,0,0,1-2.41,1.32,14.8,14.8,0,0,1,1-2.64,18.36,18.36,0,0,1,1.47-2.34,19.31,19.31,0,0,1,1.91-2,14.5,14.5,0,0,1,2.35-1.64,10.43,10.43,0,0,1,5.73-1.4A6.52,6.52,0,0,1,1708,1425.14Z" class="color560404 svgShape"/><path fill="#eabb3b" d="M1732.21,1513.37a44.26,44.26,0,0,1-5.45,3.55,60.09,60.09,0,0,1-5.86,2.89,53.67,53.67,0,0,1-6.2,2.2,46,46,0,0,1-6.52,1.38l1.72-2.16a25.34,25.34,0,0,0,2.33,7.8,18.61,18.61,0,0,0,5,6.2,14.4,14.4,0,0,0,7.33,3.1,10.11,10.11,0,0,0,4-.43,8.79,8.79,0,0,0,3.61-2.31,8.05,8.05,0,0,1-3.06,3.45,10.52,10.52,0,0,1-4.58,1.47,15.07,15.07,0,0,1-9.3-2.49,19.68,19.68,0,0,1-6.53-7.16,24.85,24.85,0,0,1-1.82-4.49,29.09,29.09,0,0,1-.9-4.7l-.21-2,1.94-.21c2-.22,4.07-.51,6.11-.92s4.08-.88,6.12-1.44,4.06-1.15,6.11-1.77S1730.15,1514.07,1732.21,1513.37Z" class="colorea473b svgShape"/><ellipse cx="1710.32" cy="1461.38" fill="#380677" class="color770906 svgShape" rx="6.8" ry="10.2" transform="rotate(-10.04 1709.73 1460.988)"/><ellipse cx="1712.08" cy="1458.86" fill="#fff" class="colorffffff svgShape" rx="3.19" ry="4.79" transform="rotate(-10.04 1711.502 1458.448)"/><circle cx="1671.15" cy="1501.92" r="22.45" fill="#f6cd5c" class="colorf66d5c svgShape"/><polygon fill="#606060" points="1842.66 1906.01 1923.48 1905.12 2054.14 1708.01 2040.67 1687.8 1910.01 1689.15 1829.19 1840.01 1740.29 1844.95 1767.23 1879.07 1842.66 1906.01" class="color606060 svgShape"/><g class="color000000 svgShape" clip-path="url(#n)"><path fill="#a5a5a5" d="M2053.69,1665.35l-13,22.45-117.19,180.5L1829.19,1840l-126.62,2.25,87.11,100.57,154.45-17.06s99.68-160.74,101.48-166.13,30.53-59.27,30.53-59.27Z" class="colora5a5a5 svgShape"/></g><path fill="#ffe8a9" d="M1786.09,1867.4s33.22-12.57,51.18-2.69c10.59,5.82,19.93,14.45,25.81,20.56a3.93,3.93,0,0,1-3.11,6.63l-17.31-1.15s8.08,26.94-26.94,24.24S1760.94,1904.22,1786.09,1867.4Z" class="colorffbca9 svgShape"/><g class="color000000 svgShape" clip-path="url(#o)"><path fill="#ffdc7b" d="M1871.69,1882.47c-2.39,5.07-8.72,7.26-14.28,6.56s-10.53-3.68-15.32-6.58c-1.66.33-2.23,2.47-1.95,4.14s1,3.31.76,5c-.44,2.44-3,3.88-4.18,6-1.74,3.05-.82,7.42-3.4,9.81-2.13,2-5.44,1.48-8.35,1.36a25.81,25.81,0,0,0-16.85,5.41,11.76,11.76,0,0,1-3.33,2.16c-5.31,1.8-11.23-5.89-15.89-2.77,12.12,12.58,30.41,19.75,47.52,16.22s31.75-18.91,32.11-36.38c.07-3.3-.33-6.7.69-9.85Z" class="colorff947b svgShape"/></g><path fill="#7808d0" d="M1583.14,1594.41a73.74,73.74,0,0,1,44,2.69c23.35,9,67.35,59.27,73.64,93.4s-.9,58.36,2.69,95.18,25.15,44,51.19,60.17,57.47,15.26,57.47,15.26l-2.69,61.07s-84.42,9.87-116.74-13.47c-46.7,35.92-185.89,36.81-239.77,7.18-36.81-37.71,39.52-285.56,114-301.72C1580.45,1598,1583.14,1594.41,1583.14,1594.41Z" class="color538ec4 svgShape"/><g class="color000000 svgShape" clip-path="url(#p)"><path fill="#673e9b" d="M1722.68,1681.63c.36-45.82-17.12-92.69-51.57-122.91s-86.39-41.19-128.17-22.35l11.09,74.22c21.9,10.1,46.15,13.86,68.88,21.91s45.33,22,54.31,44.43c4.17,10.39,5.06,21.75,5.87,32.91,2.6,35.57,5.53,73.14,26,102.37,3.38,4.85,7.87,9.75,13.76,10.22C1704.74,1778.59,1722.3,1729.05,1722.68,1681.63Z" class="color3e739b svgShape"/><path fill="#673e9b" d="M1618.88,1850.14c-26.41-25.75-40.45-61.46-51.26-96.73-6.91,12.55-6.57,28.07-2.3,41.75s12.1,25.91,19.85,38c-8.65,3.46-17.76-3.84-23.25-11.36s-10.82-16.58-19.91-18.64c-4.46,13.62,2.84,28.17,11.08,39.89s18,23.52,19.3,37.79c.4,4.45-.27,9.38-3.5,12.46-2.72,2.61-6.67,3.37-10.39,4-26.83,4.65-54.59,9.28-81,2.66-21.55-5.39-41.25-18.1-63.39-19.85-1.92,15.24,4.23,30.68,13.87,42.64s22.53,20.86,35.72,28.73c37.23,22.19,79.74,37.69,123,36.08s87.27-22.41,109.62-59.54l-.58-16.58C1674.28,1886.59,1642.41,1873.07,1618.88,1850.14Z" class="color3e739b svgShape"/></g><polygon fill="#e6e6e6" points="1918.09 1708.01 1848.05 1841.36 1911.36 1860.21 2013.73 1705.31 1918.09 1708.01" class="colordce8ef svgShape"/><g class="color000000 svgShape" clip-path="url(#q)"><rect width="29.63" height="285.56" x="1889.89" y="1634.08" fill="#fff" class="colorffffff svgShape" transform="rotate(-16.16 1904.523 1776.732)"/><rect width="10.78" height="281.07" x="1934.37" y="1626.63" fill="#fff" class="colorffffff svgShape" transform="rotate(-16.16 1939.565 1767.047)"/></g><rect width="767.78" height="175.11" x="999.45" y="2109.41" fill="#e1e1e1" class="colorefd3d3 svgShape"/><g class="color000000 svgShape" clip-path="url(#r)"><path fill="#ddc994" d="M1789.88,2081.09c9.5,14.44.5,35.14-14.17,44.27s-32.86,9.9-50.12,10.58q-83.73,3.34-167.08,12.71c-8,.89-14.77,6.82-16,14.75-1.78,11.47,9,16.72,18.43,18.88,35.55,8.13,73-3.06,109,2.1l.24,0c9.29,1.42,9.6,14.86.43,16.92q-48.39,10.89-95.77,25.66c11.39,15.84,34.3,16.39,53.8,15.81a1348.88,1348.88,0,0,1,151.92,4,31.71,31.71,0,0,1,18.29,7.44c13.92,12.15,5.77,27.34-5.68,33.35-7.74,4.06-16.73,4.83-25.44,5.49a4615.44,4615.44,0,0,1-479.34,11.64c-14.52-.41-29.2-.9-43.06-5.51a12.38,12.38,0,0,1-7.45-6.22c-4.33-9.2,6.51-16.06,15.45-18.28,41.21-10.24,88-.43,126.25-15.52a14.92,14.92,0,0,0,1.78-26.87c-8-4.44-18.1-6.78-27.2-7.78a360,360,0,0,0-178.13,25.87,29,29,0,0,0-17.25,19.85c-3.51,14.91,7.28,20.63,14.72,28.53,6.16,6.55,10.19,17.86,0,23.32a19.8,19.8,0,0,1-5.31,1.79c-16.6,3.42-33.48,5.09-50.34,6.67-42.34,4-86.1,7.28-126.48-6.06s-76.88-47.6-79.58-90c-.83-13.1,2.22-27.51,12.39-35.8,9-7.36,21.52-8.33,33.16-8.92q83.1-4.23,166.34-4.47c29.74-.09,60.74-.07,87.41-13.25,3.63-1.79,7.53-4.35,8.15-8.36.44-2.88-1-5.69-2.48-8.18-15.09-25.22-41.34-41.66-68.08-53.87-28.1-12.82-58-22.12-84-38.87A10.13,10.13,0,0,1,1060,2056c-1.18-7.29,6.31-10.19,12.44-11.58,210.62-47.61,430.34,6.44,645.94-5.65,9.58-.54,20.45-.75,27.21,6.07Z" class="colordd9494 svgShape" opacity=".51"/></g><path fill="#4a079d" d="M1774,2269.7H1027c-39.87-69.33-5.44-140.47,0-150.86h747a17.52,17.52,0,1,0,0-35H1019.65c-9,0-20.56,8.8-21.55,17.52-63.42,96.94-14.44,170.76,4.66,195.84a7.34,7.34,0,0,0,5,2.86,17.43,17.43,0,0,0,11.87,4.69H1774a17.51,17.51,0,1,0,0-35Z" class="color9d1107 svgShape"/><g class="color000000 svgShape" clip-path="url(#s)"><path fill="#370772" d="M1786.31,2257.53H1048.94c-39.36-58.76-5.37-119.06,0-127.87h737.35c9.51,0,17.29-6.68,17.29-14.84s-7.78-14.84-17.29-14.84H1041.7c-8.85,0-20.3,7.46-21.28,14.84-62.61,82.17-14.26,144.74,4.6,166a7.58,7.58,0,0,0,5,2.42,18.81,18.81,0,0,0,11.72,4h744.61c9.51,0,17.29-6.68,17.29-14.84S1795.82,2257.53,1786.31,2257.53Z" class="color720a07 svgShape"/></g><path fill="#fff" d="M1012.92,2168.67l9.6-.3,9.59-.22,19.2-.45c12.79-.23,25.59-.45,38.39-.58s25.59-.23,38.39-.33l38.39-.11,38.38.1c12.8.11,25.6.15,38.39.33s25.6.35,38.39.58l19.2.45,9.59.23,9.6.3-9.6.31-9.59.22-19.2.45q-19.19.36-38.39.59c-12.79.18-25.59.22-38.39.33l-38.38.1-38.39-.11c-12.8-.11-25.6-.15-38.39-.33s-25.6-.35-38.39-.58l-19.2-.45-9.59-.23Z" class="colorffffff svgShape"/><path fill="#fff" d="M1256.72,2230.64c18.3-.83,36.6-1.26,54.89-1.56,9.15-.18,18.3-.22,27.45-.33l27.44-.11,27.45.1c9.15.11,18.29.15,27.44.34,18.3.29,36.6.72,54.89,1.56-18.29.83-36.59,1.26-54.89,1.56-9.15.18-18.29.22-27.44.33l-27.45.1-27.44-.11c-9.15-.1-18.3-.15-27.45-.33C1293.32,2231.9,1275,2231.46,1256.72,2230.64Z" class="colorffffff svgShape"/><path fill="#fff" d="M1512.65,2229.29c18.3-.83,36.59-1.26,54.89-1.56,9.15-.18,18.3-.22,27.44-.33l27.45-.11,27.44.1c9.15.12,18.3.15,27.45.34,18.3.29,36.59.73,54.89,1.56-18.3.83-36.59,1.27-54.89,1.56-9.15.19-18.3.22-27.45.33l-27.44.11-27.45-.11c-9.14-.11-18.29-.15-27.44-.34C1549.24,2230.55,1531,2230.12,1512.65,2229.29Z" class="colorffffff svgShape"/><path fill="#fff" d="M1376.6,2195.61c18.3-.82,36.6-1.26,54.89-1.55,9.15-.18,18.3-.23,27.45-.33l27.44-.11,27.45.1c9.15.11,18.3.15,27.44.33,18.3.3,36.6.73,54.89,1.56-18.29.84-36.59,1.27-54.89,1.56-9.14.19-18.29.23-27.44.34l-27.45.1-27.44-.11c-9.15-.11-18.3-.15-27.45-.33C1413.2,2196.87,1394.9,2196.44,1376.6,2195.61Z" class="colorffffff svgShape"/><polygon fill="#e2b12b" points="1138.19 2174.06 1202.84 2174.06 1202.84 2227.94 1171.86 2217.17 1138.19 2227.94 1138.19 2174.06" class="colore2392b svgShape"/><rect width="1133.9" height="175.11" x="1225.22" y="2330.31" fill="#e6e6e6" class="colordce8ef svgShape"/><g class="color000000 svgShape" clip-path="url(#t)"><path fill="#d3c7e0" d="M2407.89,2325c-33.32,17.84-72.81,18-110.33,22.5s-78.09,16.08-98.8,47.69c-4.43,6.76-7.73,15.76-3.55,22.69,2.05,3.41,5.6,5.65,9.21,7.34,35.22,16.41,86.06-7.53,111.09,22.18-9,1.8-18.45,3.83-25.26,10s-9.48,17.85-3.08,24.42c3.06,3.13,7.47,4.49,11.73,5.47,39.19,9.06,81.45-3.34,119.91,8.46,4.67,1.43,9.55,3.46,12.16,7.59,8.16,12.9-11.89,24.84-27,27.15-174.56,26.67-349.88,53.41-526.47,54.24-36.56.18-76.45-2-104-26.06-3.3-2.89-6.48-6.26-7.59-10.5-2.9-11.07,9-20.07,19.57-24.47,67.1-28,146.4-14.51,212.59-44.61,4.87-2.21,9.86-4.84,12.74-9.35,6.63-10.36-1.33-24.08-10.89-31.82-31.35-25.36-76.22-22.21-116.29-17.76l-239.53,26.64c-62.51,6.95-125.16,13.93-186.57,27.52-30.23,6.69-60.67,15.21-86.65,32.07-4.57,3-9.17,6.39-11.49,11.32-3.68,7.79-.69,17.1,3.67,24.54,26.37,45,89.85,48.74,132,79.46-124.8,29.1-259.94,11.47-373.1-48.68-18.48-9.82-36.87-21.16-49.28-38s-17.67-40.43-8.12-59.05c8.92-17.38,28.19-26.73,46.84-32.51,89.69-27.83,187.8-.24,280.08-17.63,7.29-1.38,14.91-3.23,20.34-8.3,6.29-5.89,8.39-15,8.56-23.65.77-39.14-30.2-70.35-51.82-103-4.63-7-9.05-14.82-8.54-23.2.88-14.45,15.4-23.7,28.51-29.82,63.36-29.58,132.79-43.54,201.91-54.09,247.83-37.82,499.84-34.8,750.51-31.69Z" class="colorc7d8e0 svgShape"/></g><path fill="#66399e" d="M2369.06,2490.6H1265.89c-94-72.73-8-140.46,0-150.86H2369.06c14.23,0,25.86-7.88,25.86-17.51s-11.63-17.51-25.86-17.51h-1114c-13.24,0-30.37,8.8-31.83,17.51-93.67,96.95-21.34,170.77,6.87,195.85a12.7,12.7,0,0,0,7.42,2.85,33.29,33.29,0,0,0,17.54,4.69h1114c14.23,0,25.86-7.87,25.86-17.51S2383.29,2490.6,2369.06,2490.6Z" class="color39739e svgShape"/><g class="color000000 svgShape" clip-path="url(#u)"><path fill="#4f297f" d="M2399.59,2471.49H1296.42c-94-56.47-8-109.06,0-117.13H2399.59c14.23,0,25.87-6.12,25.87-13.59s-11.64-13.6-25.87-13.6h-1114c-13.24,0-30.37,6.83-31.83,13.6-93.67,75.27-21.34,132.58,6.87,152.05a15,15,0,0,0,7.42,2.22,40.85,40.85,0,0,0,17.54,3.65h1114c14.23,0,25.87-6.12,25.87-13.6S2413.82,2471.49,2399.59,2471.49Z" class="color295e7f svgShape"/></g><path fill="#fff" d="M1245.11,2389.58l14.17-.3,14.18-.23,28.34-.44,56.7-.56c37.8-.37,75.59-.42,113.39-.47l56.69.11c18.9.12,37.8.12,56.7.35l56.69.56,28.35.45,14.18.23,14.17.3-14.17.3-14.18.23-28.35.45-56.69.56c-18.9.22-37.8.23-56.7.35l-56.69.11c-37.8,0-75.59-.1-113.39-.47l-56.7-.56-28.34-.44-14.18-.23Z" class="colorffffff svgShape"/><path fill="#fff" d="M1605.17,2451.54l10.14-.3,10.13-.23,20.26-.44q20.27-.36,40.54-.58c13.51-.19,27-.23,40.53-.34l40.53-.11,40.53.11c13.51.11,27,.14,40.53.33s27,.35,40.54.58l20.26.45,10.14.23,10.13.3-10.13.3-10.14.23-20.26.45q-20.26.36-40.54.58c-13.51.19-27,.22-40.53.33l-40.53.11-40.53-.11c-13.51-.11-27-.15-40.53-.33s-27-.35-40.54-.58l-20.26-.45-10.13-.23Z" class="colorffffff svgShape"/><path fill="#fff" d="M1983.14,2450.19l10.13-.3,10.14-.22,20.26-.45c13.51-.23,27-.45,40.53-.58s27-.23,40.53-.33l40.54-.11,40.53.1c13.51.11,27,.15,40.53.33s27,.35,40.53.58l20.27.45,10.13.23,10.13.3-10.13.31-10.13.22-20.27.45q-20.27.36-40.53.58c-13.51.19-27,.23-40.53.34l-40.53.1-40.54-.11c-13.51-.11-27-.15-40.53-.33s-27-.35-40.53-.58l-20.26-.45-10.14-.23Z" class="colorffffff svgShape"/><path fill="#fff" d="M1782.22,2416.52l10.13-.3,10.14-.23,20.26-.45q20.26-.35,40.53-.58c13.51-.18,27-.22,40.54-.33l40.53-.11,40.53.11c13.51.11,27,.14,40.53.33s27,.35,40.53.58l20.27.45,10.13.23,10.14.3-10.14.3-10.13.23-20.27.45c-13.51.23-27,.45-40.53.58s-27,.22-40.53.33l-40.53.11-40.53-.11c-13.51-.11-27-.15-40.54-.34s-27-.34-40.53-.58l-20.26-.44-10.14-.23Z" class="colorffffff svgShape"/><polygon fill="#7808d0" points="1465.2 2393.62 1531.51 2393.62 1531.51 2447.5 1499.73 2436.72 1465.2 2447.5 1465.2 2393.62" class="color538ec4 svgShape"/><path fill="#fff" d="M2615,2516.11c-.21,5.38,19.94,42.1,17.67,54.6s39.13,10.49,66.4,2.55,52-42.93,62.26-76.68-17.87-49.22-38.1-37.41S2615,2516.11,2615,2516.11Z" class="colorffffff svgShape"/><path fill="#3d3d3d" d="M2320.38,2420.29s-28,193,105.46,201.76,133.77,1.56,157.15-26.3,61.56-83.9,61.56-83.9,67-2.81,79.63-18.5,42.21-205.06-85.17-238.73S2288.26,2363.34,2320.38,2420.29Z" class="color3d3d3d svgShape"/><g class="color000000 svgShape" clip-path="url(#v)"><path fill="#242326" d="M2773.37,2455.11c-1.09-45.16-19.55-87.91-38.81-128.76-7.6-16.1-18.15-34.22-35.83-36.31A442.7,442.7,0,0,1,2636,2525.57l24,27.56c25.84,16.61,62.52,8.53,84.17-13.26S2774.1,2485.82,2773.37,2455.11Z" class="color262323 svgShape"/><path fill="#242326" d="M2671.83,2245.24c-23.69-12-51.65-11.92-78-8.76C2487.24,2249.25,2387.35,2310,2327,2398.8L2297.59,2502c32.15,33.4,82.37,41.35,128.74,41.74,26.89.23,54.26-1.54,79.52-10.79,60.65-22.18,98.22-82.57,123.73-141.9,10.1-23.49,19.48-48.13,37.23-66.53,12.53-13,30-24.6,31.14-42.61C2699,2266,2686,2252.43,2671.83,2245.24Z" class="color262323 svgShape"/></g><polygon fill="#606060" points="2540.01 2013.57 2767.76 2026.83 2780.8 2038.12 2740.9 2257.65 2657.34 2350.59 2424.69 2324.56 2479.84 2222.43 2492.86 2024.33 2540.01 2013.57" class="color606060 svgShape"/><g class="color000000 svgShape" clip-path="url(#w)"><path fill="#a5a5a5" d="M2450.15,2214.47c4-1.35,272.09,24.25,272.09,24.25l37.72-198-267.1-16.38,40.8-45.58,247.85,8.08,60.61,48.49-71.39,278.83L2699.34,2395l-251.88-6.74-64.66-66Z" class="colora5a5a5 svgShape"/></g><polygon fill="#e6e6e6" points="2514.95 2034.17 2505.94 2198.28 2709.39 2212.4 2739.04 2049.09 2514.95 2034.17" class="colordce8ef svgShape"/><g class="color000000 svgShape" clip-path="url(#x)"><rect width="63.31" height="339.44" x="2562.23" y="1953.98" fill="#fff" class="colorffffff svgShape" transform="rotate(-28.75 2593.393 2123.471)"/><rect width="17.51" height="339.44" x="2636.98" y="1922.47" fill="#fff" class="colorffffff svgShape" transform="rotate(-28.75 2645.23 2091.974)"/></g><path fill="#ffd971" d="M2280.74,2328.9s-14.78,150.4,86.69,129.15-12.14-151.44-12.14-151.44Z" class="colorff8c71 svgShape"/><path fill="#ffd971" d="M2583.25,2477.59s33.08,16.1,53.89-34.32,30-100.56,34.54-126.73c6.33-36.15,18.79-68,6.37-60.41a57.06,57.06,0,0,0-8.58,6.21,2.89,2.89,0,0,1-4.82-1.76c-1.19-9.29-3.68-24.4-7.36-25.47-3.42-1-5.54,7.47-6.62,13.68a1.67,1.67,0,0,1-3.19.37c-3-7-8.4-17.49-13.07-14.93-5.1,2.8-3.07,12.53-1.68,17.39a1,1,0,0,1-1.55,1.13c-4.59-3-14.32-8.77-17.48-5.84-4.19,3.88,3.26,20.35,3.26,20.35l-11.8,61.55S2529.21,2445.85,2583.25,2477.59Z" class="colorff8c71 svgShape"/><path fill="#e2b12b" d="M2374,2136.58s-58.6,16.62-81.53,52.13-19.84,165-19.84,165l38.52,15s13.09,80,5.95,90.54,88.78,74.86,217.53,21.86c61.24-26.85-6.73-70.36-6.73-70.36s54.47-3.37,82.58-33.29-22-174.66-45.4-197.13S2427.65,2107.64,2374,2136.58Z" class="colore2392b svgShape"/><g class="color000000 svgShape" clip-path="url(#y)"><path fill="#6a22c4" d="M2656.73,2316.18l-33.24,2.61c-19.49,31.93-59.14,50.22-96.08,44.32-3.8-.6-7.69-1.5-10.72-3.87-5.89-4.62-6.64-13.09-7.15-20.55-2.56-37.47-1.46-47.77-15.84-82.46,4.49,45.8,7.33,57.7,11.26,100.64q2.43,26.64,4.87,53.29c.46,5.05.92,10.22-.31,15.14-3.31,13.31-17.94,20.85-31.61,22s-27.3-2.31-41-2.58a28.46,28.46,0,0,0-10.11,1.21c-4.67,1.67-8.34,5.27-12.4,8.11-11.13,7.8-25.34,9.89-38.92,9.54a127.37,127.37,0,0,1-88.12-39.2c22,46.66,67.08,80.55,117,93.59s103.83,6.29,151.3-13.88c30.79-13.08,61.42-34.58,70.06-66.9,2.79-10.43,3.15-21.59,7.77-31.35,5.34-11.25,15.68-19.27,22.56-29.65C2667.7,2358.56,2668,2334.08,2656.73,2316.18Z" class="colorc42a22 svgShape"/><path fill="#6a22c4" d="M2312.7,2355.3q-8.73-46.32-17.47-92.64-1,19.92-2.11,39.82c-.35,6.71-.73,13.52-3,19.85s-6.7,12.2-13,14.56c-8,3-18.55.34-24.36,6.66-2.67,2.89-3.53,7-3.63,11-.54,21.12,17.45,38.4,36.62,47.28l29.48-10.9C2317.14,2379.08,2314.92,2367.05,2312.7,2355.3Z" class="colorc42a22 svgShape"/></g><path fill="#471782" d="M2330.21,1907.54s-20-41.21,61.57-58.74,158.76,7.91,132.36,86.87-78.56,219.84-78.56,219.84-29.58,44.7-89,2c-6.76,12.32,3.7,20.81,3.7,20.81s-53.39,9.63-48.84-38.73c-17.81-4.28-22.29,18.92-12.63,24.68-33.51,6.8-53.77-27.23.56-61.09S2195.71,1993.12,2330.21,1907.54Z" class="color821717 svgShape"/><g class="color000000 svgShape" clip-path="url(#z)"><path fill="#2a0b51" d="M2357.12,1908.83c-7.33-5.2-6.49-17.1-.67-23.95s14.82-9.92,23.37-12.7a28.6,28.6,0,0,0-.51,33c1.62-11.66,11.21-20.5,20.93-27.15a155.66,155.66,0,0,1,89.13-27c12.46.15,25.19,1.9,36.24,7.65,19.32,10,31,31.39,33.64,53s-2.71,43.47-10.54,63.78c-20.74,53.73-59.45,101.79-64.75,159.14-1.24,13.37-.62,27.1-4.64,39.91-1.36,4.33-3.29,8.59-6.5,11.79-4,3.94-9.47,5.91-14.94,7.08a66.56,66.56,0,0,1-80.39-66.05c0-1.93,0-4.21-1.62-5.29a5.06,5.06,0,0,0-3-.63c-14.1.29-26,13.75-26.37,27.85s9.25,27.39,22,33.36c-15.88,2.42-33.44.08-45.39-10.65s-15.56-31.25-4.63-43c-8-6.68-21.58.11-24.22,10.21s2.7,20.72,9.9,28.27c-10.88,1.1-23.88-3.67-26.34-14.33-1.83-8,3-16,8.92-21.68,15.42-14.71,38.58-19.56,53-35.25,11.05-12,15.45-29.5,12.56-45.58s-12.67-30.56-25.79-40.28c-9-6.68-20.6-12.63-22.72-23.66-2.52-13.09,9.84-23.81,20.81-31.38a47.37,47.37,0,0,0-20.26,8.59c-4.91-9.54-.33-21.76,7.7-28.88s18.68-10.35,29-13.37Z" class="color510b0b svgShape"/></g><path fill="#ffe8a9" d="M2509.57,1893.77s15.53,40.14,17.33,63.58,36.89,22.09,33.92,29.16-13.18,15.67-13.18,15.67,21.05,106.85-54.78,92.25a313.72,313.72,0,0,0,0,47.63l-47.25,13.45s-19-19.6-2.24-35.13,22.91-35.06,10.21-55.32-26.16-44.15-9.11-66.85,11.29-36.41,11.29-36.41S2499.08,1956.28,2509.57,1893.77Z" class="colorffbca9 svgShape"/><g class="color000000 svgShape" clip-path="url(#A)"><path fill="#ffdc7b" d="M2452.33,2090.77c1.35-2.48,1.43-5.45,1.23-8.27-1-13.84-7.86-26.47-12.08-39.69s-5.25-29.15,3.91-39.58c4.88-5.56,12.15-8.88,16.19-15.09,3.93-6.05,4.27-14.11,9-19.59,4.34-5,11.32-6.69,17.32-9.57,13.43-6.45,22.6-19.92,26.36-34.33s2.63-29.7-.42-44.27l-33.3-38.47q-9.12,24.57-18.25,49.12c-5.31,14.29-10.69,28.72-19.15,41.41-14.42,21.63-37.52,37.84-46,62.4-4.22,12.15-4.42,25.43-2.35,38.13,3.71,22.83,15.3,45,34.42,58.06C2436.37,2096,2448.16,2098.46,2452.33,2090.77Z" class="colorff947b svgShape"/><path fill="#ffdc7b" d="M2544.62,2079.34c-2.73,7.3-11.13,11-18.92,11.33s-15.43-1.89-23.18-2.67-16.36.19-21.88,5.7c-9.1,9.07-5.13,24.44-8.7,36.78-4.29,14.86-19,23.86-32.62,31.17-4.34,2.33-9.45,6.54-7.53,11.08,1.3,3.09,5.15,4,8.47,4.53,13.21,2,26.67,3.34,39.91,1.57s26.37-6.94,35.75-16.45c6.3-6.39,10.64-14.41,14.89-22.31q7.26-13.5,14.53-27Z" class="colorff947b svgShape"/></g><ellipse cx="2446.46" cy="2027.49" fill="#ffd971" class="colorff8c71 svgShape" rx="10.33" ry="22" transform="rotate(-17.65 2446.484 2027.511)"/><path fill="#280456" d="M2497.6,1948.13a14.57,14.57,0,0,0-5.28,1,20.27,20.27,0,0,0-4.34,2.4c-.72.42-1.36,1-2.07,1.51s-1.37,1.12-2.09,1.67-1.42,1.17-2.17,1.76a20.11,20.11,0,0,1-2.42,1.76,17,17,0,0,1,.84-2.93,20.54,20.54,0,0,1,1.39-2.67,21.31,21.31,0,0,1,1.89-2.39,14.89,14.89,0,0,1,2.38-2,11.61,11.61,0,0,1,6-2.17A7.4,7.4,0,0,1,2497.6,1948.13Z" class="color560404 svgShape"/><path fill="#eabb3b" d="M2513.85,2039.52a22.56,22.56,0,0,0,6.12-.31,29.09,29.09,0,0,0,5.49-1.62c1.81-.65,3.54-1.59,5.38-2.46.89-.48,1.81-1,2.78-1.42a24.74,24.74,0,0,1,3-1.4,21.57,21.57,0,0,1-1.7,2.9,26.11,26.11,0,0,1-2.23,2.49,18.57,18.57,0,0,1-5.74,3.62,14.88,14.88,0,0,1-6.87,1A9.65,9.65,0,0,1,2513.85,2039.52Z" class="colorea473b svgShape"/><ellipse cx="2501.55" cy="1977.26" fill="#380677" class="color770906 svgShape" rx="6.8" ry="10.2" transform="rotate(-20.4 2501.63 1977.288)"/><ellipse cx="2502.83" cy="1974.46" fill="#fff" class="colorffffff svgShape" rx="3.19" ry="4.79" transform="matrix(.94 -.35 .35 .94 -531.28 996.28)"/><circle cx="2488.93" cy="2009.8" r="17.06" fill="#f6cd5c" class="colorf66d5c svgShape"/><path fill="#ffe8a9" d="M2510.26,2377.73s60.29,9.06,109.23-29.5c3.88,70.25,21.54,126.75-13.82,130.67C2569.57,2482.91,2552.77,2506.07,2510.26,2377.73Z" class="colorffbca9 svgShape"/><circle cx="2332.06" cy="1156.19" r="116.74" fill="#fff" class="colorffffff svgShape"/><polygon fill="#7808d0" points="2263.12 1132.37 2330.67 1177.97 2399.35 1135.18 2331.8 1091.84 2263.12 1132.37" class="color538ec4 svgShape"/><polygon fill="#7808d0" points="2273.66 1151.29 2331.7 1189.67 2391.15 1151.75 2391.15 1200.9 2273.66 1200.9 2273.66 1151.29" class="color538ec4 svgShape"/><circle cx="2403.79" cy="1182.65" r="6.09" fill="#7808d0" class="color538ec4 svgShape"/><rect width="6.55" height="24.34" x="2400.51" y="1145.67" fill="#7808d0" class="color538ec4 svgShape"/><circle cx="1692.7" cy="1090.64" r="124.82" fill="#f2f2f2" class="coloredf4f7 svgShape"/><circle cx="1691.8" cy="1092.44" r="148.17" fill="none" stroke="#fff" stroke-dasharray="11.94 11.94" stroke-linecap="round" stroke-miterlimit="10" stroke-width="4" class="colorStrokeffffff svgStroke"/><path fill="#fff" d="M1757.35,1088.85a61.95,61.95,0,0,1-123.46,7.38,59.81,59.81,0,0,1-.46-7.38,62,62,0,1,1,123.92,0Z" class="colorffffff svgShape"/><path fill="#7808d0" d="M1707.7,1028.13a16,16,0,0,1-2.21,6.84c-4.41,6.79-14.52,6.85-20.69,12.1-4.44,3.77-6.3,9.78-10.21,14.14-8.51,9.48-24.73,8.08-34.75.19a61.93,61.93,0,0,1,67.86-33.27Z" class="color538ec4 svgShape"/><path fill="#7808d0" d="M1757.35,1088.85a61.83,61.83,0,0,1-22.28,47.58,88.61,88.61,0,0,0-16.65-26.13c-2.77-3-5.87-5.93-9.72-7.3-6.57-2.4-16.3-1.54-18-8.3-1-3.77,1.67-7.49,4.58-10.08,10.1-9,24.27-11.37,36.45-17.24a41.15,41.15,0,0,0,15.38-12.69A61.7,61.7,0,0,1,1757.35,1088.85Z" class="color538ec4 svgShape"/><path fill="#7808d0" d="M1671.31,1145.94a61.86,61.86,0,0,1-37.42-49.71c7.46,0,15.08,3.37,20.61,8.6,7.73,7.38,11.93,17.75,14.54,28.1A77.83,77.83,0,0,1,1671.31,1145.94Z" class="color538ec4 svgShape"/><circle cx="3397.98" cy="689.24" r="145.47" fill="#f2f2f2" class="coloredf4f7 svgShape"/><circle cx="3392.59" cy="690.14" r="195.76" fill="none" stroke="#9253c4" stroke-dasharray="12" stroke-linecap="round" stroke-miterlimit="10" stroke-width="4" class="colorStroke538ec4 svgStroke"/><ellipse cx="3444.03" cy="754.37" fill="#d1c0e2" class="colorc0d4e2 svgShape" rx="22.9" ry="13.02" transform="rotate(-29.21 3444.037 754.376)"/><path fill="#fff" d="M3436.8,628.27a58.82,58.82,0,1,0-50.65,87.53l22.33,39.93L3459.89,727l-23.09-41.3A58.77,58.77,0,0,0,3436.8,628.27Z" class="colorffffff svgShape"/><path fill="none" stroke="#ffc527" stroke-linecap="round" stroke-miterlimit="10" stroke-width="4" d="M3413.73,721.33c-1.4-2.51-24.79-68.26-40.82-60.12s-2.93,20.52,20.41,3.37,15.2-29.85,7.46-19.78,31.07,72.14,31.07,72.14" class="colorStrokeffc127 svgStroke"/><rect width="84.41" height="10.33" x="3380.92" y="716.4" fill="#7808d0" class="color538ec4 svgShape" rx="1.5" transform="rotate(-29.21 3423.119 721.569)"/><rect width="79.02" height="8.31" x="3391.44" y="731.42" fill="#7808d0" class="color538ec4 svgShape" rx="1.5" transform="rotate(-29.21 3430.944 735.575)"/><rect width="74.53" height="10.78" x="3402.38" y="741.14" fill="#7808d0" class="color538ec4 svgShape" rx="1.5" transform="rotate(-29.21 3439.647 746.53)"/></svg>