<svg xmlns="http://www.w3.org/2000/svg" enable-background="new 0 0 1500 1500" version="1.0" viewBox="0 0 1500 1500"><switch><g class="color000000 svgShape"><path fill="#d8b2ff" fill-rule="evenodd" d="M427.4,1202.6c69,0,125.3-10.7,125.3-23.8s-56.3-23.8-125.3-23.8c-69,0-125.3,10.7-125.3,23.8
				S358.4,1202.6,427.4,1202.6z" class="colord1c6e2 svgShape" clip-rule="evenodd"/><path fill="#f2f2f2" fill-rule="evenodd" d="M1275,883.3c30,34,44.4,81.4,34.8,129.7c-14.1,71.1-75.5,120.7-144.3,121.8l0,0l-0.1,0
				c-6.9,0.1-13.9-0.3-20.9-1.2c-135.7-10.3-237.7-67.1-498.1,9.5l0,0c-50.2,16.2-105.6,20.3-161.6,9.2
				C314.9,1118.6,203.6,958.9,236,795.4c23-116.1,112.4-202.8,223-231.2v0c81.9-22.5,216.7-11,343.9-51
				c110.3-34.7,190.4-138.1,306.4-116.2c3.1,0.5,6.1,1,9.2,1.6c97.7,19.4,162.4,108.6,144.4,199.4c-1.2,5.8-2.6,11.4-4.4,17l0,0
				C1225.7,718.6,1231.1,808,1275,883.3L1275,883.3z" class="colorede4f1 svgShape" clip-rule="evenodd"/><path fill="#d8b2ff" fill-rule="evenodd" d="M282.5,464.1l-19.4,11.3c-6.6,3.8-8.8,12.3-5,18.9l4.3,7.4c5.1,8.7,2.9,12.7,1.3,14.1
				c-4.3,3.9-8.3,8.1-12.4,12.3c-1.2,1.2-4.9,5.4-14.8-0.3l-6.8-3.9c-6.5-3.8-15-1.6-18.9,5l-11.3,19.5c-3.8,6.6-1.6,15,5,18.9
				l6.7,3.9c9.3,5.4,9,8.2,7.9,12.1c-1.6,5.4-3.3,10.8-4.5,16.4c-1.1,5-0.6,8.5-13.2,8.5h-7.7c-7.6,0-13.8,6.2-13.8,13.8v22.5
				c0,7.6,6.2,13.8,13.8,13.8h7.7c12.6,0,12.1,3.6,13.2,8.5c1.2,5.6,2.9,11,4.5,16.4c1.2,3.9,1.4,6.7-7.9,12.1l-6.7,3.9
				c-6.5,3.8-8.8,12.3-5,18.9l11.3,19.5c3.8,6.6,12.3,8.8,18.9,5l6.8-3.9c9.9-5.7,13.7-1.5,14.8-0.3c4,4.2,8,8.4,12.4,12.3
				c1.6,1.4,3.8,5.4-1.3,14.1l-4.3,7.4c-3.8,6.6-1.6,15,5,18.9l19.4,11.3c6.6,3.8,15.1,1.6,18.9-5l4.3-7.3
				c5.2-8.8,10.2-8.5,12.4-7.8c6.2,2,11.9,3.3,18.3,4.9c2.3,0.6,6.4,2.3,6.4,12.9v7.9c0,7.6,6.2,13.8,13.8,13.8H379
				c7.6,0,13.8-6.2,13.8-13.8v-7.9c0-10.5,4-12.2,6.3-12.9c6.4-1.6,12.1-2.9,18.3-4.9c2.1-0.7,7.2-1,12.4,7.8l4.3,7.3
				c3.8,6.6,12.3,8.8,18.9,5l19.5-11.3c6.6-3.8,8.8-12.3,5-18.9l-4.3-7.4c-5.1-8.7-2.9-12.7-1.3-14.1c4.3-3.9,8.3-8.1,12.4-12.3
				c1.2-1.2,4.9-5.4,14.8,0.3l6.8,3.9c6.6,3.8,15.1,1.6,18.9-5l11.3-19.5c3.8-6.6,1.6-15.1-5-18.9l-6.7-3.9c-9.3-5.4-9-8.1-7.9-12.1
				c1.6-5.4,3.4-10.8,4.5-16.4c1.1-5,0.6-8.5,13.2-8.5h7.7c7.6,0,13.8-6.2,13.8-13.8v-22.5c0-7.6-6.2-13.8-13.8-13.8h-7.7
				c-12.6,0-12.1-3.6-13.2-8.5c-1.2-5.6-2.9-11-4.5-16.4c-1.2-3.9-1.4-6.7,7.9-12.1l6.7-3.9c6.6-3.8,8.8-12.3,5-18.9l-11.3-19.5
				c-3.8-6.6-12.3-8.8-18.9-5l-6.8,3.9c-9.9,5.8-13.7,1.5-14.8,0.3c-4-4.2-8-8.4-12.4-12.3c-1.6-1.4-3.8-5.4,1.3-14.1l4.3-7.4
				c3.8-6.6,1.6-15-5-18.9L453,464.1c-6.5-3.8-15-1.6-18.9,5l-4.3,7.4c-5.2,8.8-10.2,8.5-12.4,7.8c-6.2-2-11.9-3.3-18.3-4.9
				c-2.3-0.6-6.3-2.3-6.3-12.8v-7.9c0-7.6-6.2-13.8-13.8-13.8h-22.5c-7.6,0-13.8,6.2-13.8,13.8v7.9c0,10.5-4,12.2-6.4,12.8
				c-6.4,1.7-12.1,3-18.3,4.9c-2.2,0.7-7.2,1-12.4-7.8l-4.3-7.4C297.6,462.5,289.1,460.3,282.5,464.1L282.5,464.1z M367.7,544.7
				c48.8,0,88.3,39.5,88.3,88.3c0,48.8-39.5,88.3-88.3,88.3c-48.8,0-88.3-39.5-88.3-88.3C279.4,584.3,319,544.7,367.7,544.7
				L367.7,544.7z M367.7,522.7c61,0,110.4,49.4,110.4,110.4c0,61-49.4,110.4-110.4,110.4S257.3,694,257.3,633.1
				C257.3,572.1,306.8,522.7,367.7,522.7z" class="colord1c6e2 svgShape" clip-rule="evenodd"/><path fill="#482870" fill-rule="evenodd" d="M390.6,350.4c-16.7-0.1-33.2,12.6-33.2,30.3v574.2c0,16.4,14.4,27.3,30,27.3l440.5,1.6
				c16.7,0.1,33.2-12.6,33.2-30.4V379.3c0-16.4-14.4-27.3-30-27.3L390.6,350.4z" class="color2b2870 svgShape" clip-rule="evenodd"/><path fill="#d8cce5" fill-rule="evenodd" d="M389,363.7l440.5,1.6c10.1,0,18.3,7.1,18.3,15.6v574.2c0,8.5-8.3,15.5-18.3,15.5L389,969
				c-10.1,0-18.4-7.1-18.4-15.6V379.2C370.7,370.6,379,363.7,389,363.7z" class="colord7cce5 svgShape" clip-rule="evenodd"/><path fill="#c7b5d9" fill-rule="evenodd" d="M431.9,526.8l39.6,0.1c3,0,5.4,2.5,5.4,5.4V572c0,3-2.4,5.4-5.4,5.4l-39.6-0.1c-3,0-5.4-2.5-5.4-5.5v-39.6
				C426.5,529.2,428.9,526.8,431.9,526.8z" class="colorc2b5d9 svgShape" clip-rule="evenodd"/><path fill="#fff" fill-rule="evenodd" d="M517.7,527.1l269,1c3,0,5.4,2.5,5.4,5.4v39.6c0,3-2.4,5.4-5.4,5.4l-269-1c-3,0-5.4-2.5-5.4-5.4v-39.6
				C512.3,529.5,514.7,527.1,517.7,527.1z" class="colorffffff svgShape" clip-rule="evenodd"/><path fill="#c7b5d9" fill-rule="evenodd" d="M433.6,605.8l39.6,0.1c3,0,5.4,2.5,5.4,5.4V651c0,3-2.4,5.4-5.4,5.4l-39.6-0.1c-3,0-5.4-2.5-5.4-5.4v-39.6
				C428.2,608.3,430.7,605.8,433.6,605.8z" class="colorc2b5d9 svgShape" clip-rule="evenodd"/><path fill="#fff" fill-rule="evenodd" d="M519.4,606.2l269,1c3,0,5.4,2.5,5.4,5.5v39.6c0,3-2.4,5.4-5.4,5.4l-269-1c-3,0-5.4-2.5-5.4-5.5v-39.6
				C514,608.6,516.4,606.2,519.4,606.2z" class="colorffffff svgShape" clip-rule="evenodd"/><path fill="#c7b5d9" fill-rule="evenodd" d="M435.4,684.9L475,685c3,0,5.4,2.4,5.4,5.4V730c0,3-2.4,5.4-5.4,5.4l-39.6-0.1c-3,0-5.4-2.5-5.4-5.5v-39.6
				C430,687.3,432.4,684.9,435.4,684.9z" class="colorc2b5d9 svgShape" clip-rule="evenodd"/><path fill="#fff" fill-rule="evenodd" d="M521.2,685.2l269,1c3,0,5.4,2.4,5.4,5.4v39.6c0,3-2.4,5.4-5.4,5.4l-269-1c-3,0-5.4-2.5-5.4-5.4v-39.6
				C515.7,687.6,518.2,685.2,521.2,685.2z" class="colorffffff svgShape" clip-rule="evenodd"/><path fill="#c7b5d9" fill-rule="evenodd" d="M437.1,763.9l39.6,0.1c3,0,5.4,2.5,5.4,5.4v39.6c0,3-2.4,5.4-5.4,5.4l-39.6-0.2c-3,0-5.4-2.4-5.4-5.4v-39.6
				C431.7,766.3,434.1,763.9,437.1,763.9z" class="colorc2b5d9 svgShape" clip-rule="evenodd"/><path fill="#fff" fill-rule="evenodd" d="M522.9,764.2l269,1c3,0,5.4,2.5,5.4,5.4v39.6c0,3-2.4,5.4-5.4,5.4l-269-1c-3,0-5.4-2.5-5.4-5.5v-39.6
				C517.5,766.6,519.9,764.2,522.9,764.2z" class="colorffffff svgShape" clip-rule="evenodd"/><path fill="#fff" fill-rule="evenodd" d="M445.8,867.3l39.6,0.1c3,0,5.4,2.5,5.4,5.4v39.6c0,3-2.4,5.4-5.4,5.4l-39.6-0.1c-3,0-5.4-2.5-5.4-5.5v-39.6
				C440.4,869.7,442.9,867.3,445.8,867.3z" class="colorffffff svgShape" clip-rule="evenodd"/><path fill="#fff" fill-rule="evenodd" d="M524.6,843.3l269,1c3,0,5.4,2.4,5.4,5.4v39.6c0,3-2.4,5.4-5.4,5.4l-269-1c-3,0-5.4-2.5-5.4-5.4v-39.6
				C519.2,845.7,521.6,843.2,524.6,843.3z" class="colorffffff svgShape" clip-rule="evenodd"/><path fill="#fff" fill-rule="evenodd" d="M598.6,487l-163.9,0c-4.5,0-8.2-3.7-8.2-8.2v0c0-4.5,3.7-8.2,8.2-8.2l163.9,0c4.5,0,8.2,3.7,8.2,8.2v0
				C606.9,483.3,603.2,487,598.6,487z" class="colorffffff svgShape" clip-rule="evenodd"/><path fill="#fff" fill-rule="evenodd" d="M783.9,458.1l-349.1,0c-4.5,0-8.2-3.7-8.2-8.2l0,0c0-4.5,3.7-8.2,8.2-8.2l349.1,0c4.5,0,8.3,3.7,8.3,8.2l0,0
				C792.1,454.4,788.4,458.1,783.9,458.1z" class="colorffffff svgShape" clip-rule="evenodd"/><path fill="#fff" fill-rule="evenodd" d="M783.9,429.2l-349.1,0c-4.5,0-8.2-3.7-8.2-8.2l0,0c0-4.5,3.7-8.2,8.2-8.2l349.1,0c4.5,0,8.3,3.7,8.3,8.2l0,0
				C792.1,425.5,788.4,429.2,783.9,429.2z" class="colorffffff svgShape" clip-rule="evenodd"/><path fill="#c7b5d9" fill-rule="evenodd" d="M357.4,851.7c19-10.9,41.2-16.8,63.7-16.8c37.7,0,75.6,16.3,98,47.3c13.8,19.1,20.1,41.7,18.6,65.2
				c-0.8,12.6-3.3,24.1-7.6,35.3l-142.7-0.5c-15.6,0-30-11-30-27.3V851.7z" class="colorc2b5d9 svgShape" clip-rule="evenodd"/><path fill="#7808d0" fill-rule="evenodd" d="M534.4,969.5c-1.1,4.5-2.6,9-4.2,13.3l-9.9,0c1.8-4.2,3.4-8.6,4.6-13.3H534.4z" class="color8071b3 svgShape" clip-rule="evenodd"/><path fill="#fff" fill-rule="evenodd" d="M468,1096.1c-1.2,0.1-2.4,0.2-3.7,0.2h-73.8c-10.8,0-19.7-4.9-19.7-15.8v-2.1c-1-58.1-52.1-74.4-56.2-138.7
				c-0.3-4.8-0.3-9.5,0.1-14.1c8-48.7,54.3-81.5,106.4-81.5c59.3,0,111.2,42.5,107.4,102.8c-3.9,62.4-52.6,78.2-53.5,134.5v2
				C475,1089.5,472.3,1093.6,468,1096.1z" class="colorffffff svgShape" clip-rule="evenodd"/><path fill="#482870" fill-rule="evenodd" d="M473.3,1154.4c0,7.1-5.8,12.9-12.9,12.9h-9.9l-3.8,6.3c-2.2,3.6-3.5,3.8-7.7,3.8h-23.2
				c-4.2,0-5.5-0.2-7.7-3.8l-3.8-6.3h-9.9c-7.1,0-12.9-5.8-12.9-12.9c0-10.9,0,8.7,0-2.2c0-1.8,1.5-3.3,3.4-3.3h85
				c1.8,0,3.3,1.5,3.3,3.3C473.3,1163,473.3,1143.4,473.3,1154.4L473.3,1154.4z M386.1,1126h82.7c2.5,0,4.5,2,4.5,4.5v7
				c0,2.5-2,4.5-4.5,4.5h-82.7c-2.5,0-4.5-2-4.5-4.5v-7C381.5,1128.1,383.6,1126,386.1,1126L386.1,1126z M386.3,1102.8h82.3
				c2.6,0,4.7,2.1,4.7,4.7v7.3c0,2.6-2.1,4.7-4.7,4.7h-82.3c-2.6,0-4.7-2.1-4.7-4.7v-7.3C381.5,1105,383.7,1102.8,386.3,1102.8z" class="color2b2870 svgShape" clip-rule="evenodd"/><path fill="#482870" fill-rule="evenodd" d="M408.7,1096.3l-9-108.5H387c-5.5,0-10.5-2.2-14.1-5.9l0,0c-3.6-3.6-5.9-8.6-5.9-14.1
				c0-5.5,2.2-10.5,5.9-14.1c3.6-3.6,8.6-5.9,14.1-5.9c5.4,0,10.2,2.2,13.7,5.7c3.6,3.6,5.8,8.5,6.3,13.9l1,11.4h39l1-11.4
				c0.5-5.4,2.7-10.3,6.3-13.9c3.5-3.5,8.2-5.7,13.6-5.7c5.5,0,10.5,2.2,14.1,5.9h0c3.6,3.6,5.8,8.6,5.8,14.1
				c0,5.5-2.2,10.5-5.8,14.1c-3.6,3.6-8.6,5.9-14.1,5.9h-12.7l-9,108.5h-9l8.9-108.5h-37.4l8.9,108.5H408.7L408.7,1096.3z
				 M398.9,978.8l-0.9-10.6c-0.3-3.3-1.6-6.2-3.7-8.3c-1.9-1.9-4.4-3.1-7.3-3.1c-3,0-5.8,1.2-7.8,3.2c-2,2-3.2,4.8-3.2,7.8
				c0,3,1.2,5.8,3.2,7.8h0c2,2,4.8,3.2,7.8,3.2H398.9L398.9,978.8z M455.9,978.8h11.9c3,0,5.8-1.2,7.8-3.2c2-2,3.2-4.8,3.2-7.8
				c0-3-1.2-5.8-3.2-7.8l0,0c-2-2-4.8-3.2-7.8-3.2c-2.9,0-5.4,1.2-7.3,3.1c-2.1,2.1-3.4,5.1-3.7,8.3L455.9,978.8z" class="color2b2870 svgShape" clip-rule="evenodd"/><path fill="#f2f2f2" fill-rule="evenodd" d="M243.8,1003c-0.8-2.5-3.4-3.9-6-3.2c-2.5,0.8-3.9,3.4-3.2,6c15.9,51.7,45.7,89,89.3,111.8
				c2.3,1.2,5.2,0.3,6.4-2c1.2-2.3,0.3-5.2-2-6.4C287.2,1087.6,258.9,1052.2,243.8,1003L243.8,1003z M270.7,1022.6
				c6.6,11.8,13.5,22.5,21,32.1c7.4,9.5,15.4,17.8,24.2,24.7c2.1,1.6,2.4,4.6,0.8,6.7c-1.6,2.1-4.6,2.4-6.7,0.8
				c-9.5-7.4-18-16.3-25.9-26.3c-7.8-9.9-14.9-21.1-21.8-33.3c-1.3-2.3-0.5-5.2,1.8-6.5C266.5,1019.4,269.4,1020.3,270.7,1022.6z" class="colorede4f1 svgShape" clip-rule="evenodd"/><path fill="#d8b2ff" fill-rule="evenodd" d="M1062.2,305.5l-9,5.2c-3,1.8-4.1,5.7-2.3,8.8l2,3.4c2.3,4,1.3,5.9,0.6,6.5c-2,1.8-3.9,3.7-5.7,5.7
				c-0.5,0.6-2.3,2.5-6.9-0.1l-3.1-1.8c-3-1.8-7-0.7-8.7,2.3l-5.3,9c-1.8,3.1-0.7,7,2.3,8.8l3.1,1.8c4.3,2.5,4.2,3.8,3.7,5.6
				c-0.7,2.5-1.5,5-2.1,7.6c-0.5,2.3-0.3,4-6.1,4h-3.6c-3.5,0-6.4,2.9-6.4,6.4V389c0,3.5,2.9,6.4,6.4,6.4h3.6c5.8,0,5.6,1.6,6.1,4
				c0.5,2.6,1.4,5.1,2.1,7.6c0.5,1.8,0.7,3.1-3.7,5.6l-3.1,1.8c-3,1.8-4.1,5.7-2.3,8.7l5.3,9c1.8,3,5.7,4.1,8.7,2.3l3.1-1.8
				c4.6-2.7,6.3-0.7,6.9-0.1c1.9,2,3.7,3.9,5.7,5.7c0.7,0.6,1.8,2.5-0.6,6.5l-2,3.4c-1.8,3-0.7,7,2.3,8.8l9,5.2c3,1.8,7,0.7,8.7-2.3
				l2-3.4c2.4-4.1,4.7-3.9,5.7-3.6c2.9,0.9,5.5,1.5,8.5,2.3c1.1,0.3,2.9,1.1,2.9,6v3.7c0,3.5,2.9,6.4,6.4,6.4h10.4
				c3.5,0,6.4-2.9,6.4-6.4V461c0-4.9,1.9-5.7,2.9-6c3-0.8,5.6-1.4,8.5-2.3c1-0.3,3.3-0.5,5.7,3.6l2,3.4c1.8,3.1,5.7,4.1,8.7,2.3
				l9-5.2c3-1.8,4.1-5.7,2.3-8.8l-2-3.4c-2.3-4-1.3-5.9-0.6-6.5c2-1.8,3.9-3.7,5.7-5.7c0.5-0.6,2.3-2.5,6.9,0.1l3.1,1.8
				c3,1.8,7,0.7,8.7-2.3l5.3-9c1.8-3,0.7-7-2.3-8.7l-3.1-1.8c-4.3-2.5-4.2-3.8-3.7-5.6c0.7-2.5,1.5-5,2.1-7.6c0.5-2.3,0.3-4,6.1-4
				h3.6c3.5,0,6.4-2.9,6.4-6.4v-10.4c0-3.5-2.9-6.4-6.4-6.4h-3.6c-5.8,0-5.6-1.7-6.1-4c-0.5-2.6-1.4-5.1-2.1-7.6
				c-0.5-1.8-0.7-3.1,3.7-5.6l3.1-1.8c3-1.8,4.1-5.7,2.3-8.8l-5.3-9c-1.8-3-5.7-4.1-8.7-2.3l-3.1,1.8c-4.6,2.7-6.3,0.7-6.9,0.1
				c-1.9-1.9-3.7-3.9-5.7-5.7c-0.7-0.7-1.8-2.5,0.6-6.5l2-3.4c1.8-3.1,0.7-7-2.3-8.8l-9-5.2c-3-1.8-7-0.7-8.7,2.3l-2,3.4
				c-2.4,4.1-4.7,3.9-5.7,3.6c-2.9-0.9-5.5-1.5-8.5-2.3c-1.1-0.3-2.9-1.1-2.9-6v-3.7c0-3.5-2.9-6.4-6.4-6.4h-10.4
				c-3.5,0-6.4,2.9-6.4,6.4v3.7c0,4.9-1.9,5.7-2.9,6c-3,0.8-5.6,1.4-8.5,2.3c-1,0.3-3.3,0.5-5.7-3.6l-2-3.4
				C1069.2,304.7,1065.3,303.7,1062.2,305.5L1062.2,305.5z M1101.7,342.8c22.6,0,40.9,18.3,40.9,40.9c0,22.6-18.3,40.9-40.9,40.9
				c-22.6,0-41-18.3-41-40.9C1060.8,361.2,1079.1,342.8,1101.7,342.8L1101.7,342.8z M1101.7,332.6c28.3,0,51.2,22.9,51.2,51.2
				c0,28.3-22.9,51.2-51.2,51.2s-51.2-22.9-51.2-51.2C1050.5,355.5,1073.4,332.6,1101.7,332.6z" class="colord1c6e2 svgShape" clip-rule="evenodd"/><path fill="#482870" fill-rule="evenodd" d="M1152.8,443.2c-67.6,1.5-151,43.2-151,143.7s78.9,143.5,151,143.7c34.2,0.1,70-13.5,96.4-37.2
				c29.3-26.3,47.4-64.8,47.3-106.5c-0.1-46-22.9-88.5-57.5-115C1213.9,452.7,1181.2,442.5,1152.8,443.2z" class="color2b2870 svgShape" clip-rule="evenodd"/><path fill="#7808d0" fill-rule="evenodd" d="M1152.8,723.6c75.3,0,136.7-61.4,136.7-136.7c0-75.3-61.4-136.7-136.7-136.7c-75.3,0-136.7,61.4-136.7,136.7
				C1016.1,662.2,1077.5,723.6,1152.8,723.6z" class="color8071b3 svgShape" clip-rule="evenodd"/><path fill="#fff" fill-rule="evenodd" d="M1152.8,677.6c50,0,90.8-40.8,90.8-90.7c0-50-40.8-90.7-90.8-90.7c-50,0-90.7,40.8-90.7,90.7
				C1062.1,636.9,1102.9,677.6,1152.8,677.6z" class="colorffffff svgShape" clip-rule="evenodd"/><path fill="#7808d0" fill-rule="evenodd" d="M1153.9,634.1c25.4,0,46.1-20.7,46.1-46.1c0-25.4-20.7-46.1-46.1-46.1c-25.4,0-46.1,20.7-46.1,46.1
				C1107.8,613.3,1128.5,634.1,1153.9,634.1z" class="color8071b3 svgShape" clip-rule="evenodd"/><path fill="#f2f2f2" fill-rule="evenodd" d="M1149.1,591.1c-24.9-11.9-60-43.6-65.6-48.6c-62.1-56.5-106.4-96.8-168.5-153.2c-2.9-2.7-2.9-7.5,0.1-10.8
				l0,0c3-3.3,7.9-3.8,10.8-1.2c62.1,56.5,106.4,96.7,168.5,153.2C1100,535.5,1134.9,567.5,1149.1,591.1z" class="colorede4f1 svgShape" clip-rule="evenodd"/><path fill="#bda9d2" fill-rule="evenodd" d="M1087.2,538.5L918.7,385.2c-2.9-2.7-4.5-5.7-3.5-6.9c-3,3.3-3.1,8.2-0.1,10.8l6.6,6l12.9,11.7l12.9,11.7
				l12.9,11.7l12.9,11.7l110.4,100.4c5.6,5,40.7,36.7,65.6,48.6C1127.8,575.3,1092.8,543.5,1087.2,538.5z" class="colorb6a9d2 svgShape" clip-rule="evenodd"/><path fill="#7808d0" fill-rule="evenodd" d="M973.2,442.1l-37.4,8.9c-3.3,0.8-8.5-0.8-11.6-3.6l-41.3-37.5c-2.6-2.4-2.4-4.8,0.4-5.5l38.4-9.1
				L973.2,442.1z" class="color8071b3 svgShape" clip-rule="evenodd"/><path fill="#7808d0" fill-rule="evenodd" d="M984.1,430l5.3-38.1c0.5-3.4-1.6-8.4-4.7-11.2l-41.3-37.5c-2.6-2.4-5-1.9-5.4,0.9l-5.4,39L984.1,430z" class="color8071b3 svgShape" clip-rule="evenodd"/><rect width="137.8" height="384.3" x="1109.8" y="783.6" fill="#7808d0" fill-rule="evenodd" class="color8071b3 svgShape" clip-rule="evenodd"/><polygon fill="#fff" fill-rule="evenodd" points="530.9 1071.8 575.4 1064.4 575.4 1164.3 530.9 1164.3" class="colorffffff svgShape" clip-rule="evenodd"/><polygon fill="#fff" fill-rule="evenodd" points="709 992.9 753.5 985.5 753.5 1165.5 709 1165.5" class="colorffffff svgShape" clip-rule="evenodd"/><polygon fill="#fff" fill-rule="evenodd" points="887.1 899.4 931.7 891.9 931.7 1166.6 887.1 1166.6" class="colorffffff svgShape" clip-rule="evenodd"/><polygon fill="#fff" fill-rule="evenodd" points="1065.3 791 1109.8 783.6 1109.8 1167.8 1065.3 1167.8" class="colorffffff svgShape" clip-rule="evenodd"/><rect width="137.8" height="274.7" x="931.7" y="891.9" fill="#7808d0" fill-rule="evenodd" class="color8071b3 svgShape" clip-rule="evenodd"/><rect width="137.8" height="179.9" x="753.5" y="985.5" fill="#7808d0" fill-rule="evenodd" class="color8071b3 svgShape" clip-rule="evenodd"/><rect width="137.8" height="99.9" x="575.4" y="1064.4" fill="#7808d0" fill-rule="evenodd" class="color8071b3 svgShape" clip-rule="evenodd"/><path fill="#f5bb1d" fill-rule="evenodd" d="M759.5,549.4c13.9,34.7,40.9,40,51.4,5.2c23.2,5.3,38,12.6,44.5,21.8c10.6,13.7,20.2,25.6,28.6,35.7
				c-10.5,10.9-18.7,22.7-25.1,35.1c-7.4-9.3-14-16.8-19.8-22.6c-12.8,20.6-34.4,63-64.9,127.2c-22.2,19.6-56.2,24.1-102.2,13.6
				c14.6-80,31.1-114.7,34.4-157c-8.7,5.8-19.9,12.6-33.8,20.4c-15.1-15.1-25.8-24.8-32.3-29.2c29-21.8,49.4-35,61.2-39.5
				C721.9,553.6,741.2,550,759.5,549.4z" class="colorf59b1d svgShape" clip-rule="evenodd"/><path fill="#411973" fill-rule="evenodd" d="M775.6,515.6c-10.7-5.1-15.1-11-13.2-17.9c5.8-4.5,12.3-0.6,19.4,11.9c0.4-2.2,0-4.5-1-6.8
				c-6.6-7.7-9.1-13.9-7.6-18.8c11.4-2.7,22.2-8.2,32.3-16.5c1.2,1.1,2.4,2.2,3.4,3.3c8.3-13.1,8.8-26.7,0.3-43.6
				c-10,23.9-61.6,15.8-59.8,45.1c-2.9-4.1-7.8-4.7-12.5-1.3c4.5,0.2,8.5,3.4,10.3,8.2c-2.9,5.8-7.6,9-14.3,9.6
				c1.2,10.3,8.4,17.1,21.5,20.4c-0.5,2.5-2,5.3-4.4,8.2c3.9,7.1,12.1,9.3,24.7,6.6C777.6,522.5,777.9,519.7,775.6,515.6z" class="color733e19 svgShape" clip-rule="evenodd"/><path fill="#ffd666" fill-rule="evenodd" d="M775.6,515.6c2.3,4.1,2,6.9-0.9,8.4c-2.9,10.7-7.7,19.8-14.4,27.2c13.9,32.4,39.3,37.3,50,5.3
				c-2.4-3.9-2.9-10.7-4.7-21c17.8-3,21.7-10.1,18.6-20.1c1.2-18.8-1.6-30.2-8.5-34.2c-0.7-3-2.9-6.5-6.8-10.5
				c-1-1.1-2.2-2.2-3.4-3.3c-10,8.3-20.8,13.8-32.3,16.5c-1.5,4.9,1,11.2,7.6,18.8c1,2.3,1.3,4.6,1,6.8
				c-7.1-12.5-13.6-16.4-19.4-11.9C760.5,504.6,764.9,510.6,775.6,515.6z" class="colorfab688 svgShape" clip-rule="evenodd"/><path fill="#edc557" fill-rule="evenodd" d="M806.9,543.6c-0.4-2.4-0.8-5.1-1.3-8.1c-5.9,0-11-1-15.4-3C792.6,538.4,798.1,542.1,806.9,543.6z" class="colored7d57 svgShape" clip-rule="evenodd"/><path fill="#ffd666" fill-rule="evenodd" d="M900.2,631.5c-6.3-6.2-12.4-12-18.2-17.2c-8,8.7-14.7,17.9-20.1,27.5c14.6,14.1,28,19.9,38.7,21.2
				c22.6-5,52.4-18,89.4-38.9c10.5,0.4,16.7-2,18.6-7.4c3.8,0.2,8.1-0.5,13-2.4c5.3-3.4,1.6-10.2-4.9-16.9
				c19.5-7.9,25.7-11.9,20.5-16.4c-16.1,8.5-44.6,16.5-55.3,26.7C939.6,616.8,912.4,624.7,900.2,631.5z" class="colorfab688 svgShape" clip-rule="evenodd"/><path fill="#ffd666" fill-rule="evenodd" d="M675.3,714.4c-16.8-44.1-15.5-66.2-25-77c6.6-2.9,13.4-6.6,20.2-10.9c-10.2-10.2-18.4-17.8-24.4-22.7
				c-10.9,6.6-19,13.9-26.3,24.2c0.4,20.4,11.3,55.4,41,93.9c-6.1,15.2-5.6,24.6,1.5,28.1c4.9-0.9,9.8-2.5,14.9-4.7
				c4.2-1.8,8.4-4.1,12.7-6.9c-0.8-6-3.1-11.5-7.1-16.5C680.7,719.3,678.2,716.8,675.3,714.4z" class="colorfab688 svgShape" clip-rule="evenodd"/><path fill="#2e1a47" fill-rule="evenodd" d="M677.3,766.5c-0.1,51.9,34.7,70.5,104.2,55.8c27-7.2,55.8-19.7,86.2-37.6c1.7,27.9,34,54.8,96.8,80.5
				c7.2-3.8,11.5-8.7,12.9-14.8c-27.7-27.2-53.7-51.5-90.1-105.2c-11.7-6.8-73.9,2-115.3,8.6C750.6,770.9,719,775.2,677.3,766.5z" class="color1b2452 svgShape" clip-rule="evenodd"/><path fill="#130723" fill-rule="evenodd" d="M677.3,766.5c-0.1,51.9,34.7,70.5,104.2,55.8c27-7.2,55.8-19.7,86.2-37.6c1.7,27.9,34,54.8,96.8,80.5
				c2-1.1,3.7-2.2,5.3-3.4c-55.8-28.1-89.7-57.8-101.6-89c-91,49.4-148.9,48.3-173.6-3.4C689,768.7,683.2,767.7,677.3,766.5z" class="color071023 svgShape" clip-rule="evenodd"/><path fill="#2e1a47" fill-rule="evenodd" d="M652.8,896.3c-48.6,12.9-49.8,34.3-97.6,101c3.5,8.5,11.2,13.6,23,15.1C614.8,972,649,942.5,680.7,924
				c28.1-39.9,50.9-72.2,68.3-97.1c-47,2.7-70.9-16.6-71.7-58C664.8,827.3,656.6,869.8,652.8,896.3z" class="color1b2452 svgShape" clip-rule="evenodd"/><path fill="#130723" fill-rule="evenodd" d="M1030,840.9c-16.4,22.4-28.7,39.2-36.7,45.3c-8.7,6.5-12.6,1.2-17.4-9.5c30.9-20.2,7.3-16.7,15.9-25.6
				c10.6-3,23.6-11.2,35.2-23.6C1035.4,824.7,1037.6,829.7,1030,840.9z" class="color071023 svgShape" clip-rule="evenodd"/><path fill="#130723" fill-rule="evenodd" d="M569.6,1061.4c-17.4-17.6-30.3-30.8-34.7-39c-5.1-9.6,0.8-12.6,12.1-15.7c15.2,33.7,15.3,9.8,22.8,19.7
				c0.8,6.8,3.4,14.8,7.8,23.2c5.1,2.3,12.2,4.3,18.3,5.9c6.5,6,3.1,10.4-10.4,9.1C578.8,1063.7,575.5,1063.2,569.6,1061.4
				L569.6,1061.4z" class="color071023 svgShape" clip-rule="evenodd"/><path fill="#ffd666" fill-rule="evenodd" d="M966.2,864.2c4.1,3.8,8,7.6,11.2,11.4c23.9-15.9,12.1-16.3,12.4-21.1c-4.8,0.3-9.1-0.4-13-2.3
				C975.2,857.1,971.6,861,966.2,864.2L966.2,864.2z M567.4,1024.2c1.1-4.4,3.2-8.5,6.3-12.6c-8.1-1.9-13.8-5.7-17.1-11.6
				c-2.7,3.4-5.7,6.1-8.8,8.3C560.4,1035.7,562.2,1021.7,567.4,1024.2z" class="colorfab688 svgShape" clip-rule="evenodd"/><path fill="#eab524" fill-rule="evenodd" d="M679,744.5c-0.6,0.3-1.3,0.6-1.9,0.9c-0.4,0.2-0.8,0.4-1.2,0.5c-1.3,6.2-2.5,12.7-3.8,19.5
				c0.7,0.2,1.4,0.3,2.1,0.5C675.8,758.7,677.4,751.6,679,744.5L679,744.5z M843.2,586.9c2.3,14.9,1.1,27.5-3.9,37.7
				c5.8,5.7,12.4,13.3,19.8,22.6c0.4-0.9,0.9-1.8,1.4-2.6c-5.3-6.7-10.6-14-15.9-22C846.7,610.1,846.2,598.2,843.2,586.9
				L843.2,586.9z M720.1,599.3c-4.4,2.7-9,5.7-13.5,9c-2.7,33.4-13.5,62.1-25.1,112c0.5,0.5,0.9,1.1,1.3,1.6
				c0.4,0.6,0.9,1.1,1.2,1.7C694,683.5,706.1,642.1,720.1,599.3z" class="colorea7924 svgShape" clip-rule="evenodd"/><path fill="#130723" fill-rule="evenodd" d="M668.8,916c-34.4,20-60.5,52.8-93,96c0.8,0.1,1.6,0.3,2.4,0.4C614.8,972,649,942.5,680.7,924
				c28.1-39.9,50.9-72.2,68.3-97.1c-13.5,0.8-25.1-0.3-34.8-3.1C702.4,852.2,687.2,882.9,668.8,916z" class="color071023 svgShape" clip-rule="evenodd"/><path fill="#7808d0" fill-rule="evenodd" d="M370.7,845.2c-4.5,1.9-9,4.1-13.2,6.5v10.7c4.2-2.7,8.6-5.2,13.2-7.3V845.2z" class="color8071b3 svgShape" clip-rule="evenodd"/></g></switch></svg>