<svg xmlns="http://www.w3.org/2000/svg" enable-background="new 0 0 500 500" viewBox="0 0 500 500"><path fill="#2e1a47" d="M43.24,267.05l-0.02-0.48c0.62,0,1.25-0.02,1.9-0.06l0.03,0.48C44.49,267.02,43.85,267.05,43.24,267.05z
						 M40.8,266.92c-0.69-0.08-1.33-0.19-1.92-0.33l0.11-0.47c0.57,0.14,1.19,0.25,1.86,0.32L40.8,266.92z M47.55,266.76l-0.06-0.48
						c0.61-0.08,1.24-0.17,1.89-0.27l0.08,0.47C48.81,266.59,48.17,266.68,47.55,266.76z M51.83,266.05l-0.1-0.47
						c0.61-0.13,1.23-0.26,1.87-0.41l0.11,0.47C53.07,265.78,52.44,265.92,51.83,266.05z M36.59,265.72
						c-0.62-0.34-1.15-0.76-1.56-1.24l0.36-0.31c0.38,0.43,0.86,0.81,1.43,1.13L36.59,265.72z M56.04,265.05l-0.12-0.46
						c0.61-0.16,1.22-0.33,1.84-0.51l0.13,0.46C57.27,264.72,56.65,264.89,56.04,265.05z M60.2,263.85l-0.14-0.46
						c0.6-0.19,1.21-0.38,1.82-0.59l0.15,0.45C61.41,263.46,60.8,263.66,60.2,263.85z M64.3,262.47l-0.16-0.45
						c0.59-0.21,1.19-0.43,1.8-0.65l0.17,0.45C65.5,262.04,64.9,262.26,64.3,262.47z M33.93,262.25c-0.08-0.37-0.11-0.77-0.11-1.18
						c0-0.26,0.02-0.53,0.05-0.81l0.48,0.05c-0.03,0.26-0.04,0.51-0.04,0.75c0,0.38,0.04,0.74,0.1,1.08L33.93,262.25z M68.35,260.96
						l-0.18-0.45c0.59-0.23,1.18-0.47,1.78-0.71l0.18,0.44C69.54,260.49,68.94,260.73,68.35,260.96z M72.35,259.33l-0.19-0.44
						c0.58-0.25,1.17-0.5,1.76-0.76l0.19,0.44C73.52,258.82,72.94,259.08,72.35,259.33z M34.9,258.06l-0.45-0.16
						c0.21-0.57,0.47-1.17,0.78-1.78l0.43,0.22C35.35,256.92,35.1,257.5,34.9,258.06z M76.31,257.58l-0.2-0.44
						c0.58-0.26,1.16-0.53,1.74-0.81l0.2,0.43C77.47,257.04,76.88,257.31,76.31,257.58z M80.21,255.73L80,255.3
						c0.57-0.28,1.14-0.56,1.72-0.85l0.22,0.43C81.36,255.17,80.79,255.45,80.21,255.73z M36.83,254.27l-0.4-0.26
						c0.33-0.52,0.7-1.06,1.09-1.6l0.39,0.28C37.52,253.22,37.16,253.75,36.83,254.27z M84.08,253.79l-0.22-0.43
						c0.56-0.29,1.13-0.59,1.7-0.89l0.22,0.42C85.21,253.2,84.64,253.5,84.08,253.79z M87.89,251.76l-0.23-0.42
						c0.56-0.3,1.12-0.61,1.68-0.93l0.23,0.42C89.01,251.15,88.45,251.46,87.89,251.76z M39.36,250.81l-0.37-0.3
						c0.39-0.48,0.81-0.97,1.25-1.47l0.36,0.32C40.16,249.84,39.75,250.33,39.36,250.81z M90.38,250.38l-0.24-0.42
						c0.56-0.32,1.11-0.63,1.66-0.95l0.24,0.41C91.49,249.75,90.94,250.06,90.38,250.38z M94.12,248.21l-0.25-0.41
						c0.55-0.33,1.1-0.66,1.64-0.99l0.25,0.41C95.22,247.55,94.67,247.88,94.12,248.21z M42.21,247.59l-0.35-0.33
						c0.43-0.46,0.88-0.91,1.35-1.38l0.34,0.34C43.08,246.68,42.64,247.14,42.21,247.59z M97.8,245.96l-0.26-0.41
						c0.54-0.34,1.08-0.68,1.62-1.03l0.26,0.4C98.89,245.27,98.35,245.61,97.8,245.96z M45.26,244.56l-0.33-0.35
						c0.46-0.43,0.93-0.87,1.41-1.31l0.32,0.36C46.19,243.69,45.72,244.13,45.26,244.56z M101.44,243.61l-0.27-0.4
						c0.54-0.36,1.07-0.71,1.59-1.07l0.27,0.4C102.5,242.9,101.97,243.26,101.44,243.61z M48.46,241.68l-0.31-0.36
						c0.48-0.41,0.97-0.83,1.47-1.24l0.31,0.37C49.43,240.85,48.94,241.27,48.46,241.68z M105.01,241.18l-0.28-0.39
						c0.53-0.37,1.05-0.74,1.56-1.11l0.28,0.39C106.06,240.44,105.54,240.81,105.01,241.18z M51.78,238.93l-0.3-0.38
						c0.49-0.39,1-0.79,1.51-1.19l0.29,0.38C52.77,238.14,52.27,238.53,51.78,238.93z M108.51,238.65l-0.29-0.38
						c0.52-0.38,1.03-0.77,1.53-1.15l0.29,0.38C109.54,237.87,109.03,238.26,108.51,238.65z M55.18,236.29l-0.29-0.38
						c0.51-0.38,1.02-0.76,1.55-1.14l0.28,0.39C56.2,235.53,55.69,235.91,55.18,236.29z M111.94,236.01l-0.3-0.38
						c0.51-0.4,1-0.8,1.49-1.2l0.3,0.37C112.95,235.21,112.45,235.61,111.94,236.01z M58.67,233.75l-0.28-0.39
						c0.52-0.37,1.04-0.73,1.58-1.1l0.27,0.39C59.71,233.02,59.19,233.39,58.67,233.75z M115.28,233.26l-0.31-0.36
						c0.49-0.42,0.97-0.84,1.44-1.26l0.32,0.36C116.26,232.42,115.78,232.84,115.28,233.26z M62.22,231.31l-0.27-0.4
						c0.53-0.35,1.06-0.71,1.6-1.06l0.26,0.4C63.29,230.61,62.75,230.96,62.22,231.31z M118.51,230.38l-0.33-0.35
						c0.48-0.44,0.94-0.88,1.39-1.32l0.33,0.34C119.45,229.5,118.99,229.94,118.51,230.38z M65.84,228.97l-0.26-0.41
						c0.54-0.34,1.08-0.68,1.63-1.02l0.25,0.41C66.92,228.29,66.38,228.63,65.84,228.97z M121.6,227.35l-0.34-0.33
						c0.45-0.47,0.89-0.93,1.31-1.39l0.36,0.32C122.5,226.41,122.06,226.88,121.6,227.35z M69.51,226.71l-0.25-0.41
						c0.55-0.33,1.1-0.65,1.65-0.98l0.24,0.41C70.6,226.06,70.06,226.38,69.51,226.71z M73.23,224.53L73,224.12
						c0.41-0.23,0.83-0.47,1.24-0.7l0.43-0.24l0.23,0.42l-0.43,0.24C74.06,224.07,73.64,224.3,73.23,224.53z M124.5,224.13
						l-0.37-0.31c0.41-0.49,0.81-1,1.19-1.49l0.38,0.29C125.32,223.13,124.92,223.63,124.5,224.13z M77,222.44l-0.23-0.42
						c0.57-0.3,1.13-0.61,1.69-0.9l0.22,0.42C78.13,221.84,77.57,222.14,77,222.44z M127.11,220.66l-0.4-0.27
						c0.36-0.55,0.7-1.1,0.99-1.62l0.42,0.23C127.82,219.55,127.48,220.1,127.11,220.66z M80.82,220.44l-0.22-0.43
						c0.57-0.29,1.15-0.58,1.72-0.87l0.21,0.43C81.96,219.86,81.39,220.15,80.82,220.44z M84.68,218.53l-0.21-0.43
						c0.58-0.28,1.16-0.55,1.74-0.82l0.2,0.43C85.84,217.97,85.26,218.25,84.68,218.53z M129.18,216.83l-0.44-0.18
						c0.25-0.62,0.44-1.22,0.57-1.78l0.47,0.11C129.64,215.56,129.44,216.19,129.18,216.83z M88.59,216.71l-0.2-0.44
						c0.59-0.26,1.17-0.52,1.76-0.78l0.19,0.44C89.76,216.18,89.17,216.44,88.59,216.71z M92.54,214.99l-0.18-0.44
						c0.6-0.25,1.19-0.49,1.78-0.73l0.18,0.45C93.73,214.5,93.14,214.74,92.54,214.99z M96.54,213.38l-0.17-0.45
						c0.6-0.23,1.2-0.46,1.8-0.68l0.17,0.45C97.74,212.93,97.14,213.15,96.54,213.38z M129.48,212.57
						c-0.07-0.63-0.25-1.21-0.53-1.73l0.42-0.23c0.32,0.57,0.51,1.22,0.59,1.91L129.48,212.57z M100.59,211.91l-0.16-0.45
						c0.61-0.21,1.22-0.42,1.82-0.61l0.15,0.46C101.8,211.49,101.2,211.7,100.59,211.91z M104.68,210.57l-0.14-0.46
						c0.62-0.19,1.24-0.37,1.85-0.54l0.13,0.46C105.92,210.21,105.3,210.39,104.68,210.57z M108.83,209.42l-0.12-0.46
						c0.63-0.16,1.26-0.31,1.87-0.45l0.11,0.47C110.08,209.11,109.46,209.26,108.83,209.42z M127.39,209.2
						c-0.48-0.31-1.04-0.58-1.67-0.8l0.16-0.45c0.67,0.23,1.27,0.52,1.78,0.86L127.39,209.2z M113.03,208.49l-0.09-0.47
						c0.65-0.12,1.28-0.23,1.9-0.32l0.07,0.47C114.3,208.26,113.67,208.37,113.03,208.49z M123.44,207.87
						c-0.58-0.08-1.21-0.14-1.89-0.17l0.02-0.48c0.69,0.03,1.34,0.09,1.93,0.17L123.44,207.87z M117.28,207.86l-0.05-0.48
						c0.67-0.07,1.31-0.12,1.93-0.14l0.02,0.48C118.57,207.75,117.93,207.8,117.28,207.86z" class="color263156 svgShape"/><path fill="#2e1a47" d="M132.18,271.46l-0.21,0l0.01-0.48l0.2,0c0.59,0,1.16-0.02,1.69-0.06l0.04,0.48
						C133.36,271.44,132.78,271.46,132.18,271.46z M129.56,271.35c-0.62-0.05-1.26-0.12-1.92-0.2l0.06-0.48
						c0.65,0.08,1.29,0.15,1.9,0.2L129.56,271.35z M136.31,271.06l-0.11-0.47c0.66-0.15,1.26-0.34,1.78-0.57l0.19,0.44
						C137.63,270.7,137,270.9,136.31,271.06z M125.26,270.79c-0.62-0.11-1.25-0.22-1.89-0.36l0.1-0.47
						c0.64,0.13,1.27,0.25,1.88,0.35L125.26,270.79z M121.02,269.92c-0.61-0.14-1.23-0.3-1.87-0.46l0.12-0.46
						c0.63,0.16,1.25,0.32,1.86,0.46L121.02,269.92z M140.22,269.05l-0.35-0.33c0.23-0.25,0.43-0.52,0.59-0.82
						c0.13-0.23,0.23-0.48,0.32-0.74l0.46,0.15c-0.09,0.29-0.21,0.56-0.35,0.82C140.7,268.47,140.48,268.78,140.22,269.05z
						 M116.83,268.82c-0.61-0.17-1.22-0.36-1.84-0.55l0.14-0.46c0.62,0.19,1.23,0.37,1.84,0.55L116.83,268.82z M112.7,267.54
						c-0.6-0.2-1.21-0.4-1.82-0.62l0.16-0.45c0.61,0.21,1.22,0.42,1.81,0.61L112.7,267.54z M108.62,266.12
						c-0.6-0.22-1.2-0.44-1.8-0.67l0.17-0.45c0.6,0.23,1.2,0.45,1.79,0.67L108.62,266.12z M140.94,264.9
						c-0.07-0.57-0.21-1.18-0.43-1.81l0.45-0.15c0.23,0.67,0.38,1.31,0.45,1.91L140.94,264.9z M104.58,264.57
						c-0.59-0.23-1.18-0.48-1.78-0.72l0.18-0.44c0.6,0.25,1.19,0.49,1.78,0.72L104.58,264.57z M100.59,262.92
						c-0.58-0.25-1.17-0.51-1.76-0.77l0.19-0.44c0.59,0.26,1.17,0.52,1.76,0.77L100.59,262.92z M96.63,261.17
						c-0.58-0.26-1.16-0.53-1.74-0.81l0.2-0.43c0.58,0.27,1.16,0.54,1.74,0.81L96.63,261.17z M139.57,260.93
						c-0.27-0.53-0.6-1.08-0.95-1.64l0.4-0.26c0.36,0.57,0.69,1.14,0.97,1.68L139.57,260.93z M92.73,259.33
						c-0.57-0.28-1.15-0.56-1.72-0.85l0.21-0.43c0.58,0.29,1.15,0.57,1.72,0.84L92.73,259.33z M88.86,257.4
						c-0.57-0.29-1.14-0.58-1.71-0.88l0.22-0.42c0.57,0.3,1.14,0.59,1.7,0.88L88.86,257.4z M137.26,257.34
						c-0.37-0.49-0.76-1-1.18-1.5l0.37-0.3c0.42,0.51,0.82,1.02,1.19,1.52L137.26,257.34z M85.03,255.39c-0.5-0.27-1-0.54-1.49-0.81
						l-0.19-0.11l0.23-0.42l0.19,0.11c0.5,0.27,1,0.54,1.49,0.81L85.03,255.39z M134.53,254.03c-0.42-0.46-0.85-0.93-1.3-1.4
						l0.35-0.33c0.45,0.48,0.89,0.95,1.31,1.41L134.53,254.03z M81.25,253.3c-0.56-0.32-1.12-0.63-1.67-0.95l0.24-0.41
						c0.55,0.32,1.11,0.63,1.66,0.95L81.25,253.3z M77.51,251.13c-0.55-0.33-1.1-0.66-1.65-0.99l0.25-0.41
						c0.54,0.33,1.09,0.66,1.64,0.99L77.51,251.13z M131.55,250.93c-0.45-0.44-0.91-0.88-1.38-1.32l0.33-0.35
						c0.48,0.45,0.94,0.89,1.39,1.33L131.55,250.93z M73.82,248.89c-0.55-0.34-1.09-0.68-1.62-1.02l0.26-0.4
						c0.54,0.34,1.08,0.68,1.62,1.02L73.82,248.89z M128.39,248c-0.47-0.42-0.95-0.84-1.44-1.26l0.31-0.36
						c0.49,0.42,0.98,0.84,1.45,1.26L128.39,248z M70.18,246.56c-0.54-0.35-1.07-0.71-1.6-1.06l0.27-0.4
						c0.53,0.35,1.06,0.71,1.6,1.06L70.18,246.56z M125.12,245.2c-0.49-0.4-0.98-0.8-1.49-1.2l0.3-0.38c0.51,0.4,1,0.81,1.49,1.21
						L125.12,245.2z M66.59,244.15c-0.53-0.37-1.06-0.73-1.57-1.1l0.28-0.39c0.52,0.37,1.04,0.73,1.57,1.1L66.59,244.15z
						 M121.74,242.52c-0.5-0.39-1.01-0.77-1.53-1.16l0.29-0.38c0.52,0.39,1.03,0.77,1.53,1.16L121.74,242.52z M63.07,241.64
						c-0.52-0.38-1.04-0.76-1.54-1.14l0.29-0.38c0.51,0.38,1.02,0.76,1.54,1.14L63.07,241.64z M118.29,239.94
						c-0.51-0.37-1.03-0.74-1.56-1.11l0.28-0.39c0.53,0.37,1.05,0.75,1.56,1.12L118.29,239.94z M59.61,239.04
						c-0.51-0.4-1.01-0.79-1.51-1.19l0.3-0.38c0.49,0.39,0.99,0.79,1.5,1.19L59.61,239.04z M114.76,237.46
						c-0.52-0.36-1.05-0.72-1.59-1.07l0.27-0.4c0.54,0.36,1.07,0.72,1.59,1.08L114.76,237.46z M56.24,236.33
						c-0.5-0.42-0.99-0.83-1.47-1.24l0.31-0.36c0.48,0.41,0.96,0.82,1.46,1.24L56.24,236.33z M111.18,235.07
						c-0.53-0.35-1.07-0.69-1.61-1.04l0.26-0.41c0.54,0.35,1.08,0.69,1.62,1.04L111.18,235.07z M52.97,233.5
						c-0.48-0.44-0.96-0.87-1.42-1.3l0.33-0.35c0.46,0.43,0.93,0.86,1.41,1.3L52.97,233.5z M107.54,232.76
						c-0.54-0.33-1.08-0.67-1.63-1l0.25-0.41c0.55,0.33,1.1,0.67,1.64,1L107.54,232.76z M103.85,230.54
						c-0.55-0.32-1.1-0.64-1.66-0.97l0.24-0.41c0.56,0.32,1.11,0.64,1.66,0.97L103.85,230.54z M49.82,230.53
						c-0.47-0.46-0.91-0.92-1.35-1.38l0.35-0.33c0.43,0.45,0.88,0.91,1.34,1.37L49.82,230.53z M100.11,228.39
						c-0.55-0.31-1.11-0.62-1.68-0.93l0.23-0.42c0.56,0.31,1.12,0.62,1.68,0.93L100.11,228.39z M46.85,227.38
						c-0.44-0.5-0.85-0.99-1.25-1.47l0.37-0.3c0.39,0.48,0.8,0.97,1.23,1.46L46.85,227.38z M97.13,226.75
						c-0.56-0.3-1.13-0.61-1.69-0.9l0.22-0.42c0.56,0.3,1.13,0.6,1.69,0.9L97.13,226.75z M93.32,224.74
						c-0.57-0.29-1.14-0.58-1.71-0.87l0.22-0.43c0.57,0.29,1.14,0.57,1.71,0.87L93.32,224.74z M44.14,223.99
						c-0.39-0.54-0.75-1.08-1.08-1.6l0.41-0.25c0.32,0.51,0.68,1.04,1.06,1.58L44.14,223.99z M89.46,222.81
						c-0.58-0.28-1.15-0.56-1.73-0.83l0.21-0.43c0.58,0.27,1.15,0.55,1.73,0.83L89.46,222.81z M85.57,220.97
						c-0.58-0.27-1.17-0.53-1.75-0.79l0.2-0.44c0.58,0.26,1.16,0.52,1.75,0.79L85.57,220.97z M41.89,220.27
						c-0.3-0.62-0.54-1.23-0.72-1.81l0.46-0.15c0.18,0.56,0.41,1.14,0.7,1.75L41.89,220.27z M81.63,219.22
						c-0.59-0.25-1.18-0.5-1.76-0.75l0.18-0.44c0.59,0.25,1.18,0.5,1.77,0.75L81.63,219.22z M77.65,217.56
						c-0.6-0.24-1.19-0.47-1.78-0.7l0.17-0.45c0.59,0.23,1.19,0.46,1.79,0.7L77.65,217.56z M40.73,216.04l0-0.13
						c0-0.66,0.11-1.28,0.32-1.84l0.45,0.17c-0.19,0.51-0.29,1.07-0.29,1.68l0,0.12L40.73,216.04z M73.62,216.02
						c-0.61-0.22-1.21-0.44-1.8-0.65l0.16-0.45c0.6,0.21,1.2,0.43,1.81,0.65L73.62,216.02z M69.56,214.59
						c-0.61-0.2-1.22-0.4-1.82-0.59l0.14-0.46c0.6,0.19,1.21,0.39,1.83,0.59L69.56,214.59z M65.45,213.31
						c-0.62-0.18-1.24-0.35-1.84-0.52l0.12-0.46c0.61,0.16,1.23,0.34,1.85,0.52L65.45,213.31z M42.82,212.43l-0.3-0.37
						c0.48-0.39,1.05-0.72,1.71-0.99l0.18,0.44C43.79,211.76,43.26,212.07,42.82,212.43z M61.28,212.21
						c-0.63-0.15-1.25-0.29-1.87-0.42l0.1-0.47c0.61,0.13,1.24,0.27,1.88,0.43L61.28,212.21z M57.07,211.33
						c-0.64-0.11-1.27-0.21-1.89-0.3l0.07-0.48c0.62,0.09,1.25,0.19,1.9,0.3L57.07,211.33z M46.67,210.88l-0.08-0.47
						c0.6-0.1,1.25-0.18,1.93-0.22l0.03,0.48C47.88,210.71,47.24,210.78,46.67,210.88z M52.82,210.76c-0.64-0.06-1.28-0.1-1.9-0.11
						l0.02-0.48c0.63,0.02,1.28,0.06,1.93,0.12L52.82,210.76z" class="color263156 svgShape"/><path fill="#ececec" d="M134.82,249.45c-2.06,25.27-24.21,44.09-49.47,42.03c-11.35-0.93-21.41-5.91-28.86-13.41
								c-9.12-9.19-14.31-22.16-13.18-36.07c2.06-25.27,24.21-44.09,49.48-42.03c13.64,1.11,25.39,8.07,33,18.21
								C132.29,226.83,135.77,237.81,134.82,249.45z" class="colordae4fe svgShape"/><path fill="#d8b2ff" d="M65.69,238.55l1.18-0.39l-2.58-0.99l-1.04,0.82l0.29,1.19l1.3,0.2L65.69,238.55z M83.85,256.85
								l-6.87-2.9l-4.92-4.73l-6.28-3l-1.96,1.3c-1.16,0.23-1.93,1.34-1.74,2.51l0.12,0.72l-1.42,4.27l1.99,1.82l1.3,3.12l2.24,1.26
								l2.35,2.28l0.21,3.96l1.76,6.62c0.97,3.66,2.84,7.03,5.43,9.79h0c0.86,0.4,1.7-0.57,1.19-1.36l-1.48-2.26l0.16-5
								c1.22-0.55,2.16-1.6,2.57-2.87l1.37-4.26l1.92-1.47c0.83-0.63,1.35-1.59,1.43-2.62l0.06-0.69l1.17-2.61
								c0.49-1.1,0.39-2.37-0.27-3.37L83.85,256.85z M50.77,244.93l0.51-0.17l-1.12-0.43l-0.45,0.35l0.13,0.52l0.56,0.09
								L50.77,244.93z M51.59,245.77c0,0-0.83,0.12-1.11,0.19l-0.39,0.7l0.22,0.49c0,0,0.79,0.08,1.19,0.46
								c0.4,0.38,0.8-0.07,0.84-0.11c0.03-0.04,0.41-1.87,0.41-1.87l-0.79-0.54L51.59,245.77z M95.95,217.19l-2.29,0.01L92,216.87
								c0,0-0.7,0.8-0.9,0.92l1,1.4l0.84,0.7l1.5-0.83l1.7-0.52L95.95,217.19z M133.2,245.82l-1.62-1.6l-0.04-1.85l1.5,1.87
								l1.43,0.36l0.51,0.27c-0.05-2.95-0.38-5.84-0.98-8.64c-0.07,1.12-0.19,2.25-0.35,2.22c-0.03-0.01-0.06-0.01-0.09-0.02
								c-0.84-0.14-1.61-0.56-2.15-1.21l-0.08-0.1l0.2-1.59l-0.22-0.22c-0.44-0.45-0.58-1.12-0.36-1.71
								c0.04-0.1,0.06-0.17,0.06-0.19c0.01-0.1,0.01-0.78,0.01-0.78l0.88-0.3l1.04-0.18c-2.1-6.76-5.72-12.9-10.5-17.97l-2.53-1.41
								l-2.09,1.1l-0.28,0.02c-0.99,0.08-1.92,0.49-2.65,1.16l-4.19,3.88l-0.05,0.31c-0.22,1.47,0.53,2.92,1.87,3.58
								c0,0,1.08,1.52,1.25,1.69c0.01,0.01,0.02,0.02,0.02,0.02c0.05-0.01,1.32-0.82,1.32-0.82l0.96-2.84l0.01-1.85
								c0,0,2.18-1.85,2.21-1.89c0.04-0.05,1.26,0.44,1.26,0.44l-0.84,1.3l-0.45,0.76c-0.37,0.64-0.46,1.41-0.23,2.11l0.02,0.06
								l2.63,0.33l-1.42,0.08l-0.9,0.87l0.17,0.53c0,0-3.59,2.06-3.78,2.08c-0.09,0.01-0.61-0.05-1.11-0.1
								c-0.51-0.06-1.01-0.12-1.01-0.12l-0.13-0.28c-0.29-0.64-1.14-0.77-1.61-0.25l-0.46,0.51l-0.32,0.8l-1.96,0.72l-3.97,1.28
								l-0.26,1.34c0,0,1.47,1.31,1.39,1.4c-0.07,0.09-0.54,0.67-0.54,0.67l-1.23-0.11l-2.8,1.12c0,0-0.18,2.63-0.04,2.69
								c0.1,0.04,1.13,0.41,1.77,0.63c0.29,0.1,0.5,0.18,0.5,0.18s2.29-0.64,2.47-0.81c0.17-0.16,1.71-2.81,1.71-2.81l0.32,0.01
								c2.26,0.09,4.32,1.31,5.49,3.24c0.5,0.82,0.89,1.47,0.87,1.41c-0.03-0.06-0.02-0.66,0-1.39c0.02-0.85,1.09-1.2,1.62-0.53
								c0.53,0.67,1.09,1.27,1.47,1.38c0.95,0.27,2.57-1.64,2.57-1.64l0.65,2.73c0,0,1.43,0.23,1.51,0.24
								c0.08,0.01,2.12-0.18,2.12-0.18s0.22,1.64,0.22,1.7c-0.01,0.07-1.38,1.6-1.38,1.6s-4.59-0.62-4.81-0.75
								c-0.22-0.13-1.4-1.13-1.4-1.13l-1.98,0.62c0,0-3.47-1.05-3.55-1.3c-0.08-0.25-0.07-0.95-0.07-0.95l-0.79-1.62l-2.31,0.1
								c0,0-1.49-0.04-1.54,0.01c-0.05,0.04-2.53,1.32-2.53,1.32l-1.43-0.52l-2.7,1.81l-0.15,1.29l-3.91,3.92
								c0,0-1.72,4.34,0.81,7.37c2.53,3.03,8.49,2.74,8.72,2.9c0.11,0.08,0.78,0.56,1.47,1.05c1.03,0.74,1.73,1.85,1.95,3.1
								l0.29,1.66l1.66,3.5v0c-0.93,2.46-1.1,5.15-0.47,7.7l1.2,4.92c1.19,0.88,2.79,0.93,4.04,0.13c1.85-1.19,4.36-2.95,5.06-4.17
								c1.14-2,1.7-4.15,1.7-4.15s1.96-1.93,2.19-2.94c0.1-0.45,0.24-1.44,0.36-2.39c0.18-1.46,0.88-2.8,1.96-3.78
								c2-1.81,5.02-4.68,4.86-5.42c-0.25-1.09-3.02-0.59-3.02-0.59s-3.2-4.35-3.32-4.65c-0.05-0.13-0.33-1.09-0.64-2.14
								c-0.19-0.64,0.66-1.06,1.05-0.52c0.43,0.59,0.76,1.09,0.77,1.25c0.01,0.44,0.68,2.49,0.68,2.49l1.6,2.42l3.92-0.95l2.55-1.76
								c0.08-1.1,0.12-2.19,0.12-3.27L133.2,245.82z M126.03,234.76L126.03,234.76c-0.58,0.11-1.16,0.13-1.74,0.05
								c-1.27-0.17-3.46-0.49-3.39-0.71c0.1-0.3,0.25-1.31,0.25-1.31l1.28-0.89l1.57,0.34l0.03-0.02c0.58-0.49,1.38-0.58,2.09-0.31
								c0.01,0,0.02,0.01,0.03,0.01l0,0c0.47,0.07,0.85,0.42,0.97,0.89l0.02,0.09l0.03,0.35
								C127.24,233.96,126.75,234.62,126.03,234.76z M130,259.67c-0.96-0.24-1.94,1.92-1.94,1.92s-1.65,0.71-1.69,0.8
								c-0.04,0.09,0.34,1.46,0.34,1.46l-0.86,0.97l0.09,1.63l1.7-0.09l1.22-1.42l0.64-2.25l1.14-1.21
								C130.63,261.48,130.96,259.91,130,259.67z M92.82,214.8l2.81-1.68l1.26-0.03l1.58-0.46c0,0,0.74-1.61,0.7-1.68
								c-0.04-0.07,0-1.14,0-1.14l2.99-5.04l1.1-0.85l1.3,0.06l0.47-1.03l-0.12-0.32c-0.44-0.17-0.9-0.32-1.35-0.47
								c-0.24,0.04-1.83-0.28-1.83-0.28l-1.04-0.4l-0.27-0.24c-0.54-0.14-1.08-0.26-1.62-0.38l-4.98,0.5c0,0-0.54-0.02-0.76-0.04
								c-0.23-0.02-1.3,1.44-1.3,1.44s-1.34-0.45-1.64-0.57c-0.3-0.12-3.38,0.42-3.38,0.42l-1.09-0.79l-9.3,2.13l-0.79-0.26
								l-0.92,0.51c0,0-0.6-0.23-1.15-0.21c-0.55,0.02-0.98,0.89-0.98,0.89s0.02,1.97,0.01,2.08c-0.01,0.11-0.7,0.8-0.7,0.8
								l-1.36,0.17c-0.43-0.75-1.33-0.42-1.33-0.42l-0.24-0.11c-0.55-0.25-1.19-0.22-1.71,0.08l-1.37-0.03l-1.06,0.3l-1.28,0.09
								l-1.3,0.66c-9.63,6.96-16.52,17.61-18.47,30.08l1.47-0.94l1.06,1.14c0,0,2.34,3.91,2.37,3.96c0.03,0.05,1.71,0.12,1.92,0.2
								c0.2,0.08,4.58,2.76,4.58,2.76l1.85-0.21l1.18,1.33c1.01,0.29,1.9-0.71,1.5-1.68l-0.52-1.26l-1.61,0.19l-1.16-0.72l1.14-1.21
								c-0.09-0.62-0.74-0.98-1.31-0.74c-0.85,0.36-1.88,0.82-1.99,0.94c-0.18,0.2-1.77-0.52-1.77-0.52l-0.11-0.17
								c-0.74-1.18-0.62-2.7,0.3-3.75l0.32-0.36c0,0,0.61-0.96,0.65-1.02c0.03-0.06,1.37,0.47,1.37,0.47l2.58-0.24
								c0,0,1.71,1.75,1.77,1.85c0.06,0.1,1.23-1.54,1.23-1.54l0.95-1.24l1.46-0.55c0,0,2.47-3.01,2.82-2.97
								c0.35,0.04,5.48-3.09,5.48-3.09l1.42,0.15l0.7-1.03l-0.84-1.79l1.84-0.9l1.66,1.35c1.01-0.21,1.69-1.16,1.57-2.18l-0.04-0.37
								l-1.78-4.06c0,0-0.46-1.29-0.5-1.39c-0.04-0.1-1.75,0.14-1.75,0.14l-1.28,0.43c0.1-0.86-0.57-1.63-1.44-1.65l-0.78-0.02
								c0,0-1.07,0.39-1.08,0.45c-0.01,0.06-2.68,5.04-2.68,5.04l-1.1,0.59l-0.63-1.56c0,0-1.3-0.41-1.6-0.45
								c-0.3-0.04-1.36-1.23-1.47-1.24c-0.11-0.01,0.57-1.06,0.57-1.06s3.5-1.49,3.55-1.5c0.05-0.01,1.28-0.24,1.28-0.24l3.03-3.15
								l1.38-0.36l0.43-1.07l1.08-1.13l1.02,2.09l-1.93,0.98l-0.11,0.85c-0.06,0.45,0.28,0.86,0.73,0.89l1.05,0.07l0.73,0.55
								l2.54-0.3l0.61-1.07l0.86,0.02c0.51-0.41,0.71-1.1,0.49-1.71c-0.11-0.31-0.2-0.59-0.2-0.66c0-0.18-2.15-2.92-2.15-2.92
								l-1.09,0.22l-1.81-0.93l1.97-1.63l0.9-0.1l0.56-1.03l2.52-0.82l0.75,0.89l0.06,1.04l1.22,0.41l0.52-0.82l1.61-0.44l0.41,0.96
								l1.06,1.14l-1.25,3.77l-0.76,0.7l0.34,2.85c0,0-0.39,0.91-0.39,1.03c0,0.01,0,0.04,0.01,0.08c0.16,0.67,0.88,1.04,1.53,0.81
								c0.21-0.07,0.36-0.13,0.36-0.13l1.55-0.04l4.74-4.03L92.82,214.8z M84.08,205.33c-0.04-0.06-0.64-0.17-0.64-0.17l-0.48,0.32
								l-1.61,0.53c0.01-0.03,0.77-1.06,0.77-1.06l0.59,0.11l0.91-0.57c0,0,1.66-0.09,1.76-0.08
								C85.29,204.48,84.12,205.39,84.08,205.33z M99.77,255.2l-1.65-0.33c0,0-0.7,0.8-0.9,0.92l1,1.4l0.84,0.7l1.5-0.83l1.7-0.52
								l-0.2-1.36L99.77,255.2z" class="colorb2c2fd svgShape"/><path fill="#2e1a47" d="M43.24,267.05c-0.52,0-1.02-0.02-1.48-0.04l0.03-0.48c0.46,0.03,0.94,0.04,1.45,0.04l0.45,0l0.01,0.48
					L43.24,267.05z M46.11,266.91l-0.04-0.48c0.61-0.05,1.25-0.13,1.9-0.21l0.06,0.48C47.37,266.78,46.72,266.86,46.11,266.91z
					 M39.35,266.69c-0.69-0.14-1.32-0.33-1.88-0.56l0.18-0.45c0.53,0.22,1.14,0.39,1.79,0.53L39.35,266.69z M50.4,266.32l-0.09-0.47
					c0.61-0.11,1.24-0.23,1.88-0.37l0.1,0.47C51.65,266.09,51.02,266.21,50.4,266.32z M54.64,265.41l-0.11-0.47
					c0.61-0.15,1.23-0.31,1.85-0.48l0.13,0.46C55.87,265.1,55.25,265.26,54.64,265.41z M35.37,264.84
					c-0.37-0.35-0.68-0.74-0.92-1.17l0.42-0.23c0.22,0.39,0.49,0.74,0.83,1.06L35.37,264.84z M58.81,264.27l-0.14-0.46
					c0.6-0.18,1.21-0.37,1.83-0.56l0.15,0.46C60.03,263.9,59.42,264.09,58.81,264.27z M62.93,262.95l-0.16-0.45
					c0.6-0.2,1.2-0.42,1.81-0.63l0.16,0.45C64.13,262.53,63.53,262.75,62.93,262.95z M67,261.48l-0.17-0.45
					c0.59-0.22,1.19-0.46,1.79-0.69l0.18,0.45C68.19,261.03,67.59,261.26,67,261.48z M71.02,259.89l-0.18-0.44
					c0.58-0.24,1.17-0.49,1.77-0.74l0.19,0.44C72.19,259.39,71.6,259.64,71.02,259.89z M74.99,258.18l-0.2-0.44
					c0.58-0.26,1.16-0.52,1.74-0.79l0.2,0.44C76.15,257.65,75.57,257.92,74.99,258.18z M78.91,256.36l-0.21-0.43
					c0.57-0.27,1.15-0.55,1.72-0.84l0.21,0.43C80.06,255.81,79.48,256.09,78.91,256.36z M82.79,254.45l-0.22-0.43
					c0.57-0.29,1.13-0.58,1.7-0.88l0.22,0.43C83.92,253.87,83.35,254.17,82.79,254.45z M86.62,252.45l-0.23-0.42
					c0.56-0.3,1.12-0.61,1.68-0.91l0.23,0.42C87.74,251.85,87.18,252.15,86.62,252.45z M90.4,250.37l-0.24-0.42
					c0.56-0.32,1.11-0.63,1.66-0.95l0.24,0.41C91.52,249.73,90.96,250.05,90.4,250.37z M94.14,248.2l-0.25-0.41
					c0.55-0.33,1.1-0.66,1.64-0.99l0.25,0.41C95.24,247.54,94.69,247.87,94.14,248.2z M97.83,245.94l-0.26-0.41
					c0.54-0.34,1.08-0.68,1.62-1.03l0.26,0.4C98.91,245.25,98.37,245.6,97.83,245.94z M101.46,243.6l-0.27-0.4
					c0.54-0.36,1.07-0.71,1.59-1.07l0.27,0.4C102.53,242.88,101.99,243.24,101.46,243.6z M105.03,241.16l-0.28-0.39
					c0.53-0.37,1.05-0.74,1.56-1.11l0.28,0.39C106.08,240.42,105.56,240.79,105.03,241.16z M108.53,238.63l-0.29-0.38
					c0.52-0.38,1.03-0.77,1.53-1.15l0.29,0.38C109.56,237.86,109.05,238.24,108.53,238.63z M111.96,236l-0.3-0.38
					c0.51-0.4,1-0.8,1.49-1.2l0.3,0.37C112.97,235.19,112.47,235.59,111.96,236z M115.3,233.25l-0.31-0.36
					c0.49-0.42,0.97-0.84,1.44-1.26l0.32,0.36C116.28,232.4,115.8,232.82,115.3,233.25z M118.53,230.37l-0.33-0.35
					c0.47-0.44,0.94-0.88,1.39-1.32l0.33,0.34C119.47,229.48,119.01,229.92,118.53,230.37z M121.62,227.33l-0.34-0.33
					c0.45-0.47,0.89-0.93,1.31-1.39l0.36,0.32C122.52,226.39,122.08,226.86,121.62,227.33z M124.52,224.11l-0.37-0.31
					c0.42-0.5,0.82-1,1.19-1.49l0.38,0.29C125.35,223.1,124.94,223.6,124.52,224.11z M127.12,220.64l-0.4-0.27
					c0.36-0.55,0.7-1.09,0.99-1.62l0.42,0.23C127.83,219.53,127.49,220.08,127.12,220.64z M129.19,216.81l-0.45-0.18
					c0.25-0.62,0.44-1.22,0.57-1.79l0.47,0.11C129.65,215.54,129.45,216.16,129.19,216.81z M129.48,212.54
					c-0.07-0.63-0.25-1.21-0.54-1.73l0.42-0.23c0.32,0.57,0.52,1.21,0.6,1.91L129.48,212.54z" class="color263156 svgShape"/><path fill="#3d314c" d="M132.18,271.47c-0.42,0-0.85-0.01-1.3-0.03l0.02-0.49c0.68,0.03,1.32,0.04,1.94,0.02l0.01,0.49
					C132.64,271.46,132.41,271.47,132.18,271.47z M135.33,271.25l-0.07-0.48c0.68-0.1,1.31-0.25,1.87-0.43l0.15,0.47
					C136.69,270.99,136.04,271.14,135.33,271.25z M128.42,271.25c-0.63-0.07-1.29-0.15-1.95-0.25l0.07-0.48
					c0.66,0.1,1.31,0.18,1.93,0.25L128.42,271.25z M124.04,270.58c-0.63-0.12-1.27-0.25-1.93-0.4l0.11-0.48
					c0.65,0.14,1.29,0.28,1.91,0.4L124.04,270.58z M139.53,269.68l-0.3-0.39c0.52-0.39,0.93-0.86,1.22-1.38l0.43,0.23
					C140.56,268.73,140.11,269.25,139.53,269.68z M119.72,269.61c-0.62-0.16-1.26-0.33-1.9-0.5l0.13-0.47
					c0.64,0.18,1.27,0.34,1.89,0.5L119.72,269.61z M115.46,268.42c-0.62-0.19-1.24-0.38-1.88-0.59l0.15-0.47
					c0.63,0.2,1.25,0.4,1.87,0.58L115.46,268.42z M111.26,267.06c-0.61-0.21-1.23-0.43-1.85-0.65l0.17-0.46
					c0.62,0.22,1.24,0.44,1.85,0.65L111.26,267.06z M107.1,265.56c-0.61-0.23-1.22-0.47-1.83-0.71l0.18-0.46
					c0.61,0.24,1.22,0.48,1.83,0.71L107.1,265.56z M102.99,263.94c-0.6-0.25-1.2-0.5-1.81-0.76l0.19-0.45
					c0.61,0.26,1.21,0.51,1.81,0.75L102.99,263.94z M98.93,262.2c-0.59-0.26-1.19-0.53-1.79-0.8l0.2-0.45
					c0.6,0.27,1.19,0.54,1.79,0.8L98.93,262.2z M94.91,260.37c-0.59-0.28-1.18-0.56-1.77-0.84l0.21-0.44
					c0.59,0.29,1.18,0.57,1.77,0.84L94.91,260.37z M90.93,258.45c-0.58-0.29-1.17-0.58-1.75-0.88l0.22-0.44
					c0.58,0.3,1.17,0.59,1.75,0.88L90.93,258.45z M87,256.44c-0.58-0.3-1.15-0.61-1.73-0.92l0.23-0.43
					c0.58,0.31,1.15,0.62,1.73,0.92L87,256.44z M83.11,254.34c-0.58-0.32-1.15-0.64-1.71-0.96l0.24-0.43
					c0.57,0.32,1.14,0.64,1.71,0.95L83.11,254.34z M79.27,252.17c-0.57-0.33-1.13-0.66-1.69-0.99l0.25-0.42
					c0.56,0.33,1.12,0.66,1.69,0.99L79.27,252.17z M75.47,249.91c-0.56-0.34-1.12-0.69-1.67-1.03l0.26-0.41
					c0.55,0.34,1.11,0.69,1.67,1.03L75.47,249.91z M71.73,247.57c-0.56-0.36-1.1-0.71-1.65-1.07l0.27-0.41
					c0.54,0.36,1.09,0.71,1.64,1.07L71.73,247.57z M68.04,245.14c-0.55-0.37-1.09-0.74-1.62-1.11l0.28-0.4
					c0.53,0.37,1.07,0.74,1.62,1.11L68.04,245.14z M64.41,242.62c-0.54-0.38-1.07-0.77-1.59-1.15l0.29-0.4
					c0.52,0.38,1.05,0.77,1.59,1.15L64.41,242.62z M60.85,240c-0.53-0.4-1.05-0.8-1.56-1.2l0.3-0.39c0.51,0.4,1.02,0.8,1.55,1.19
					L60.85,240z M57.37,237.27c-0.52-0.42-1.02-0.84-1.52-1.25l0.32-0.38c0.49,0.41,1,0.83,1.51,1.25L57.37,237.27z M53.99,234.42
					c-0.5-0.44-0.99-0.88-1.46-1.31l0.33-0.36c0.47,0.43,0.96,0.87,1.46,1.31L53.99,234.42z M50.73,231.43
					c-0.48-0.46-0.95-0.93-1.4-1.38l0.35-0.34c0.45,0.45,0.91,0.91,1.39,1.37L50.73,231.43z M47.64,228.26
					c-0.46-0.5-0.89-0.99-1.3-1.48l0.37-0.32c0.41,0.48,0.84,0.97,1.29,1.46L47.64,228.26z M44.78,224.87
					c-0.42-0.55-0.8-1.09-1.15-1.6l0.41-0.27c0.34,0.51,0.73,1.04,1.14,1.58L44.78,224.87z M42.34,221.16
					c-0.33-0.62-0.62-1.22-0.85-1.79l0.45-0.18c0.22,0.56,0.5,1.14,0.83,1.74L42.34,221.16z M40.81,216.96
					c-0.05-0.36-0.08-0.71-0.08-1.04c0-0.34,0.03-0.67,0.08-0.99l0.48,0.09c-0.05,0.29-0.08,0.59-0.08,0.9
					c0,0.31,0.03,0.64,0.08,0.97L40.81,216.96z" class="color31374c svgShape"/><path fill="#d8b2ff" d="M387.28,349.65h50.26l19.39-91.97c1.03-4.87-2.69-9.45-7.67-9.45h-34.24c-3.7,0-6.9,2.59-7.67,6.22
					L387.28,349.65z" class="colorb2c2fd svgShape"/><path fill="#ececec" d="M383.81,339.39h50.25l1.33-6.49l15.35-74.7c1.07-5.15-2.87-9.99-8.14-9.99h-33.29
					c-3.95,0-7.34,2.78-8.14,6.64l-0.61,2.99L383.81,339.39z" class="colordae4fe svgShape"/><path fill="#2e1a47" d="M325.82,347.83l2.58-1.4l102.57,74.97c0.79,0.57,0.71,1.77-0.15,2.24h0c-0.45,0.24-1,0.21-1.42-0.09
						L325.82,347.83z" class="color263156 svgShape"/><path fill="#2e1a47" d="M432.66,347.83l-2.58-1.4L327.51,421.4c-0.79,0.57-0.71,1.77,0.15,2.24l0,0c0.45,0.24,1,0.21,1.42-0.09
						L432.66,347.83z" class="color263156 svgShape"/><polygon fill="#d8b2ff" points="324.41 339.4 439.51 339.4 437.53 350.36 324.41 350.36" class="colorb2c2fd svgShape"/><path fill="#ffd666" d="M312.35,346.69l-5.13,12.13l-0.35,0.71l-1.74,3.41l-2.63,5.17l-2.85,5.58l0.5,3.14l8.27,5.67l3.26-3.6
						l3.31-6.07l0.37-0.69l2.64-4.85c0.01-0.04,0.04-0.07,0.06-0.12l0.3-0.53l4.26-7.78L312.35,346.69z" class="colorecc351 svgShape"/><path fill="#e2bc54" d="M278.88,374.68c0,0-2.52,2.61,2.31,5.71c4.82,3.1,8.69,5.08,11.61,5.85c2.91,0.77,4.23,1.56,6.87,3.19
						c2.64,1.64,5.37,3.17,7.46,2.49c1.72-0.56,1.79-3.17,1.79-3.17l-15.26-7.67L278.88,374.68z" class="colore25469 svgShape"/><path fill="#2e1a47" d="M299.66,373.68c0,0-8.21,1.19-11.92,1.13c-3.71-0.06-7.05-3.03-8.86-0.13c-1.81,2.91,6.9,6.5,12.04,8.55
						c5.13,2.05,9.54,1.9,11.73,3.96c2.19,2.06,5.66,2.3,6.27,1.56c0.61-0.75,3.05-8.79,2.76-9.83c0,0-2.32,2.15-7.21-0.18
						C299.57,376.4,299.66,373.68,299.66,373.68z" class="color263156 svgShape"/><path fill="#f2f2f2" d="M290.89,376.98l-0.1,0.01c-0.18,0.01-0.34-0.13-0.35-0.31l-0.13-2.01c-0.01-0.18,0.13-0.34,0.31-0.35
						l0.1-0.01c0.18-0.01,0.34,0.13,0.35,0.31l0.13,2.01C291.22,376.81,291.08,376.97,290.89,376.98z" class="colorffffff svgShape"/><path fill="#f2f2f2" d="M292.75,376.72l-0.1,0.01c-0.18,0.01-0.34-0.13-0.35-0.31l-0.13-2.01c-0.01-0.18,0.13-0.34,0.31-0.35
						l0.1-0.01c0.18-0.01,0.34,0.13,0.35,0.31l0.13,2.01C293.07,376.55,292.94,376.71,292.75,376.72z" class="colorffffff svgShape"/><path fill="#f2f2f2" d="M294.87,376.51l-0.1,0.01c-0.18,0.01-0.34-0.13-0.35-0.31l-0.13-2.01c-0.01-0.18,0.13-0.34,0.31-0.35
						l0.1-0.01c0.18-0.01,0.34,0.13,0.35,0.31l0.13,2.01C295.19,376.34,295.05,376.5,294.87,376.51z" class="colorffffff svgShape"/><path fill="#f2f2f2" d="M296.96,376.31l-0.1,0.01c-0.18,0.01-0.34-0.13-0.35-0.31l-0.13-2.01c-0.01-0.18,0.13-0.34,0.31-0.35
						l0.1-0.01c0.18-0.01,0.34,0.13,0.35,0.31l0.13,2.01C297.28,376.14,297.14,376.29,296.96,376.31z" class="colorffffff svgShape"/><path fill="#ffd666" d="M331.41,380.77l0.11,12.09l0.02,0.79l0.09,3.82l0.14,5.8l0.15,6.27l1.93,2.53l9.97,1.06l1.16-4.72
						l0.03-6.91l-0.01-0.79l0.02-5.52c-0.01-0.04,0-0.08-0.01-0.14l0.01-0.6l1.41-25.16L331.41,380.77z" class="colorecc351 svgShape"/><path fill="#e2bc54" d="M314.13,420.28c0,0-0.97,3.5,4.74,3.93s10.06,0.34,12.99-0.37c2.93-0.71,4.46-0.64,7.56-0.45
						s6.23,0.24,7.75-1.36c1.25-1.31,0.07-3.64,0.07-3.64l-17.07,0.5L314.13,420.28z" class="colore25469 svgShape"/><path fill="#2e1a47" d="M331.93,409.52c0,0-6.65,4.95-9.95,6.66c-3.29,1.71-7.64,0.68-7.86,4.1c-0.21,3.42,9.16,2.44,14.65,1.8
						c5.49-0.64,9.3-2.86,12.2-2.09c2.9,0.77,6.07-0.66,6.26-1.61c0.18-0.95-1.49-9.19-2.25-9.96c0,0-1.02,2.99-6.43,3.27
						C333.15,411.96,331.93,409.52,331.93,409.52z" class="color263156 svgShape"/><path fill="#f2f2f2" d="M325.79,416.59l-0.08,0.05c-0.16,0.1-0.36,0.05-0.46-0.1l-1.07-1.71c-0.1-0.16-0.05-0.36,0.1-0.46
						l0.08-0.05c0.16-0.1,0.36-0.05,0.46,0.1l1.07,1.71C325.99,416.29,325.95,416.49,325.79,416.59z" class="colorffffff svgShape"/><path fill="#f2f2f2" d="M327.3,415.47l-0.08,0.05c-0.16,0.1-0.36,0.05-0.46-0.1l-1.07-1.71c-0.1-0.16-0.05-0.36,0.1-0.46
						l0.08-0.05c0.16-0.1,0.36-0.05,0.46,0.1l1.07,1.71C327.5,415.17,327.46,415.38,327.3,415.47z" class="colorffffff svgShape"/><path fill="#f2f2f2" d="M329.06,414.29l-0.08,0.05c-0.16,0.1-0.36,0.05-0.46-0.1l-1.07-1.71c-0.1-0.16-0.05-0.36,0.1-0.46
						l0.08-0.05c0.16-0.1,0.36-0.05,0.46,0.1l1.07,1.71C329.27,413.99,329.22,414.19,329.06,414.29z" class="colorffffff svgShape"/><path fill="#f2f2f2" d="M330.81,413.11l-0.08,0.05c-0.16,0.1-0.36,0.05-0.46-0.1l-1.07-1.71c-0.1-0.16-0.05-0.36,0.1-0.46
						l0.08-0.05c0.16-0.1,0.36-0.05,0.46,0.1l1.07,1.71C331.01,412.81,330.96,413.02,330.81,413.11z" class="colorffffff svgShape"/><g class="color000000 svgShape"><path fill="#2e1a47" d="M404.18,345.2c-1.78,0.79-10.39,0.76-20.1,0.5c-14.56-0.4-35.39-1.71-35.49-1.22
					c-0.16,0.83,12.22,53.96,12.22,53.96c-8.24,5.44-30.58,5.39-31.73,3.9c-1.16-1.48-2.32-36.06-2.32-36.06l-4.85-19.28l7.75-28.68
					l20.29,1.17l8.39,0.48L404.18,345.2z" class="color263156 svgShape"/></g><g class="color000000 svgShape"><path fill="#2e1a47" d="M408.62,344.79c-13.63,4.83-64.23-23.23-72.36-21.91c-8.13,1.32-9.49,43.4-9.49,43.4s-15.16,3.08-22.2-5.17
					c0,0,21.47-57.63,28.56-59.78c7.09-2.14,37.42,0.99,38.74-0.16c1.32-1.16,2.64-4.62,2.64-4.62l9.49-3l27.44-8.65
					c0,0,4.15,13.05,6.81,22.15C422.9,322.91,422.26,339.95,408.62,344.79z" class="color263156 svgShape"/></g><g class="color000000 svgShape" opacity=".4"><path fill="#dab03e" d="M388.57,297.12c-6.81,3.95-16.7,4.06-16.7,4.06c1.32-1.16,2.64-4.62,2.64-4.62l9.49-3
					C388.42,294.39,391.28,295.55,388.57,297.12z" class="colordaa73e svgShape"/></g><g class="color000000 svgShape"><path fill="#d8b2ff" d="M326.78,366.46C326.77,366.46,326.77,366.46,326.78,366.46c-0.1,0-0.18-0.09-0.18-0.18
					c0.06-1.72,1.45-42.24,9.64-43.57c1.22-0.2,3.55,0.25,7.11,1.36c5.04,1.58,12.16,4.38,19.7,7.35
					c10.27,4.04,21.9,8.61,31.62,11.46c0.09,0.03,0.15,0.13,0.12,0.22c-0.03,0.09-0.13,0.15-0.22,0.12
					c-9.74-2.85-21.38-7.43-31.65-11.47c-7.53-2.96-14.64-5.76-19.68-7.34c-3.5-1.1-5.77-1.54-6.94-1.35
					c-7.9,1.28-9.32,42.81-9.34,43.23C326.95,366.39,326.87,366.46,326.78,366.46z" class="colorb2c2fd svgShape"/></g><g class="color000000 svgShape"><path fill="#2e1a47" d="M394.43,184.93c0,0,12.88,0.3,17.24,8.13c4.36,7.83,2.87,17.04,3.07,23.19
							c0.2,6.14,3.07,14.27,6.34,17.14c3.27,2.87-12.39,2.18-12.39,2.18l-30.12-0.3c0,0,3.37-5.15,2.18-12.98
							c-1.19-7.83-1.46-15.77-0.38-20.77c1.08-5,4.52-12.31,8.31-14.71C390.32,185.78,394.43,184.93,394.43,184.93z" class="color263156 svgShape"/><path fill="#ffd666" d="M389.87,223.97c0,0-1.73,10.34-2.42,11.93c-0.69,1.59,13.02,0.36,15.9-0.53s3.86-3.17,3.86-3.17
								s-3.86-10.11-2.77-14.47S389.87,223.97,389.87,223.97z" class="colorecc351 svgShape"/><path fill="#ffd666" d="M392.71,225.74c5.88,0.79,10.85-5.4,13.1-11.36c2.25-5.96,4.58-27.4-8.46-28.19
								c-13.04-0.79-14.11,13.26-14.28,19.62C382.89,212.15,384.75,224.66,392.71,225.74z" class="colorecc351 svgShape"/><path fill="#2e1a47" d="M393.67,226c-0.33,0-0.66-0.02-0.99-0.07c-0.94-0.13-1.83-0.41-2.65-0.86c-0.1-0.05-0.13-0.17-0.08-0.27
								c0.05-0.1,0.17-0.13,0.27-0.08c0.78,0.42,1.62,0.69,2.51,0.81c2.59,0.35,5.53-0.79,8.27-3.2c0.08-0.07,0.21-0.06,0.28,0.02
								c0.07,0.08,0.06,0.21-0.02,0.28C398.79,224.83,396.13,226,393.67,226z" class="color263156 svgShape"/><ellipse cx="387.19" cy="206.23" fill="#2e1a47" class="color263156 svgShape" rx="1.21" ry="1" transform="rotate(-88.16 387.182 206.226)"/><path fill="#2e1a47" d="M391.56,214.18c-0.01,0-0.01,0-0.02,0l-0.3-0.03c-0.36-0.03-0.68-0.22-0.88-0.52
									c-0.2-0.3-0.26-0.67-0.15-1.01l0.42-1.37c0.03-0.1,0.14-0.16,0.25-0.13c0.1,0.03,0.16,0.14,0.13,0.25l-0.42,1.37
									c-0.07,0.23-0.03,0.48,0.1,0.68c0.13,0.2,0.35,0.33,0.59,0.35l0.3,0.03c0.11,0.01,0.19,0.11,0.18,0.22
									C391.75,214.1,391.66,214.18,391.56,214.18z" class="color263156 svgShape"/><path fill="#2e1a47" d="M395.66,203.78c0,0,2.87-0.57,4.65,1.23L395.66,203.78z" class="color263156 svgShape"/><path fill="#2e1a47" d="M389.22,203.36c0,0-2.07-1.07-4.41,0.35L389.22,203.36z" class="color263156 svgShape"/><path fill="#2e1a47" d="M387.65,205.13c0,0-1.36-0.79-2.77,0.13c0,0,1.35-0.11,2.12,0.29L387.65,205.13z" class="color263156 svgShape"/><ellipse cx="396.57" cy="208.14" fill="#2e1a47" class="color263156 svgShape" rx="1.21" ry="1" transform="rotate(-88.16 396.554 208.138)"/><path fill="#2e1a47" d="M396.18,207.02c0,0,1.4-0.7,2.75,0.31c0,0-1.34-0.2-2.14,0.15L396.18,207.02z" class="color263156 svgShape"/><path fill="#f2f2f2" d="M393.81,217.57c0,0-2.81,4.42-4.57-0.66L393.81,217.57z" class="colorffffff svgShape"/><path fill="#2e1a47" d="M404.99,208.79c-0.88-3.43-0.31-6.57-5.7-8.75c-6.64-2.69-6.05-5.63-6.05-5.63s-5.47,9.49-12.86,7.11
								c0,0,2.59-20.46,17.81-15.88c18.63,5.61,15.17,19.09,10.39,22.84C407.79,209.09,404.99,208.79,404.99,208.79z" class="color263156 svgShape"/><path fill="#ffd666" d="M405.93,208.87c0,0,4.06-1.09,4.08,2.33c0.02,3.42-5.51,6.06-5.51,6.06L405.93,208.87z" class="colorecc351 svgShape"/><path fill="#2e1a47" d="M406.99,210.87c0,0,2.35,0.42-0.24,3.04" class="color263156 svgShape"/><path fill="#ffd666" d="M343.05,270.46c0,0,7.46,9.12,15.65,14.89c3.18,2.23,5.77,4.82,8.5,4.7c4.6-12.43-4.75-18.84-4.75-18.84
							s-5.8-3.66-13.41-7.29c0,0,2.28,2.94,0.16,4.86C347.08,270.71,343.05,270.46,343.05,270.46z" class="colorecc351 svgShape"/><path fill="#7808d0" d="M367.2,290.05c4.32-0.18,7.53-2.5,7.9-4.48c0.6-3.24,0.3-30.65,0.3-30.65l-2.93-16.18l1.47-6.93
							c0,0-7.64,1.27-8.54,5.41c-0.91,4.15-2.43,32.88-2.94,33.99C362.45,271.21,371.81,277.62,367.2,290.05z" class="color6f52eb svgShape"/><path fill="#7808d0" d="M374.33,274.35c0.86-8.79-6.28-35.9-0.39-42.54c3.52-1.73,15.29-3.59,15.3-3.55
						c1,3.49,1.19,5.65,3.79,7.41c2.45,1.66,7.13-0.06,11.95-7.16l12.15,2.48c0,0,3.25,12.44,3.34,22.07
						c0.09,9.63-1.88,27.46-1.78,34.8c0.24,17.72,1.38,22.22,0.58,23.36c-1.66,1.89-16.37,0.97-29.25,0
						c-0.52-0.04-1.2-1.76-1.71-1.8c-0.72-0.05-1.43,1.58-2.14,1.54c-8.38-0.46-15.73-1.8-15.88-2.25
						C369.89,307.53,373.94,280.98,374.33,274.35z" class="color6f52eb svgShape"/><circle cx="393.43" cy="246.74" r="1.03" fill="#2e1a47" class="color263156 svgShape"/><circle cx="392.15" cy="255.89" r="1.03" fill="#2e1a47" class="color263156 svgShape"/><circle cx="391.72" cy="264.41" r="1.03" fill="#2e1a47" class="color263156 svgShape"/><circle cx="391.72" cy="274.79" r="1.03" fill="#2e1a47" class="color263156 svgShape"/><circle cx="391.81" cy="284.72" r="1.03" fill="#2e1a47" class="color263156 svgShape"/><circle cx="391.76" cy="295.32" r="1.03" fill="#2e1a47" class="color263156 svgShape"/><circle cx="391.32" cy="304.32" r="1.03" fill="#2e1a47" class="color263156 svgShape"/><g class="color000000 svgShape"><path fill="#2e1a47" d="M372.65,288.09c-0.01,0-0.02,0-0.02,0c-0.11-0.01-0.19-0.11-0.17-0.22c2.08-17.74,0.39-30.18-0.73-38.41
						c-0.19-1.38-0.36-2.68-0.5-3.84c-0.01-0.11,0.07-0.21,0.17-0.22c0.11-0.01,0.21,0.07,0.22,0.17c0.13,1.16,0.31,2.46,0.5,3.84
						c1.12,8.25,2.82,20.72,0.73,38.51C372.84,288.01,372.75,288.09,372.65,288.09z" class="color263156 svgShape"/></g><g class="color000000 svgShape"><path fill="#7808d0" d="M405.12,226.44c0,0-4.39,6.79-12.09,9.24c0,0,3.65,4.16,4.05,4.51s11.58-10.83,11.58-10.83L405.12,226.44z
						" class="color6f52eb svgShape"/></g><g class="color000000 svgShape"><path fill="#2e1a47" d="M397.05,240.37c-0.05,0-0.08-0.02-0.1-0.04c-0.41-0.35-3.92-4.35-4.07-4.52
						c-0.07-0.08-0.06-0.21,0.02-0.28c0.08-0.07,0.21-0.06,0.28,0.02c0.96,1.1,3.44,3.91,3.96,4.42c0.92-0.48,7.4-6.79,11.37-10.76
						c0.08-0.08,0.2-0.08,0.28,0c0.08,0.08,0.08,0.2,0,0.28C398.93,239.35,397.4,240.37,397.05,240.37z" class="color263156 svgShape"/></g><g class="color000000 svgShape"><path fill="#7808d0" d="M393.03,235.67l-3.59-8.78l-4.11,2.11c0,0,1.77,6.9,3.19,10.26L393.03,235.67z" class="color6f52eb svgShape"/></g><g class="color000000 svgShape"><path fill="#2e1a47" d="M388.53,239.47c-0.02,0-0.03,0-0.05-0.01c-0.06-0.02-0.11-0.06-0.13-0.11c-1.42-3.34-3.19-10.22-3.2-10.29
						c-0.03-0.11,0.04-0.21,0.14-0.24c0.1-0.02,0.21,0.04,0.24,0.14c0.02,0.07,1.7,6.6,3.08,10l4.3-3.43
						c0.09-0.07,0.21-0.05,0.28,0.03c0.07,0.09,0.05,0.21-0.03,0.28l-4.5,3.59C388.62,239.45,388.57,239.47,388.53,239.47z" class="color263156 svgShape"/></g><g class="color000000 svgShape"><path fill="#2e1a47" d="M388.3,309.63c0,0-0.01,0-0.01,0c-0.11-0.01-0.19-0.1-0.19-0.21c0.01-0.13,0.69-13.53,1.03-22.15
						c0.2-5.06,0.17-11.86,0.14-17.87c-0.02-4.26-0.04-8.29,0.03-10.87c0.17-6.1,3.33-22,3.36-22.16c0.02-0.11,0.13-0.18,0.23-0.16
						c0.11,0.02,0.18,0.13,0.16,0.23c-0.03,0.16-3.19,16.02-3.35,22.1c-0.07,2.58-0.05,6.6-0.03,10.86
						c0.03,6.01,0.06,12.81-0.14,17.88c-0.34,8.63-1.02,22.02-1.03,22.16C388.49,309.55,388.41,309.63,388.3,309.63z" class="color263156 svgShape"/></g><g class="color000000 svgShape"><path fill="#ffd666" d="M420.39,280.75l-21.15,8.03l1.07,9.27c0,0,19.16-3.43,26.61-5.27c7.44-1.84,8.36-3.06,8.36-3.06
								l1.33-7.65l-6.63-7.24c0,0-4.69,0.41-4.79,0.82S420.39,280.75,420.39,280.75z" class="colorecc351 svgShape"/><path fill="#ffd666" d="M396.14,303.53c0.24-1.1,0.87-2.09,4.05-4.43c1.91-1.41,3.97-4.67,4.54-5.56l-5.37-4.87
										c-1.36,0.79-4.25,1.37-6.17,2.05c-2.4,0.86-5.51,1.32-6.42,3.16c-1.55,3.11-2.96,7.25-1.74,7.78
										c1.22,0.52,3.12-3.07,3.12-3.07s-0.64,2.18,0.47,2.95c1.12,0.76,2.67-0.16,2.67-0.16c0.3,1.65,2.41,1.36,2.41,1.36
										C394.03,304.17,395.95,304.41,396.14,303.53z" class="colorecc351 svgShape"/><path fill="#211e24" d="M393.71,302.88c0,0-0.01,0-0.01,0c-0.08-0.01-0.14-0.08-0.13-0.16c0.01-0.08,0.2-1.91,1.68-3.57
										c0.05-0.06,0.15-0.07,0.21-0.01c0.06,0.06,0.07,0.15,0.01,0.21c-1.42,1.59-1.6,3.38-1.6,3.4
										C393.85,302.82,393.78,302.88,393.71,302.88z" class="color241e1e svgShape"/><path fill="#211e24" d="M391.29,301.52c0,0-0.01,0-0.01,0c-0.08-0.01-0.14-0.08-0.14-0.16c0.01-0.1,0.17-2.45,1.42-4.18
										c0.05-0.07,0.14-0.08,0.21-0.03c0.07,0.05,0.08,0.14,0.03,0.21c-1.2,1.65-1.37,4-1.37,4.02
										C391.43,301.46,391.37,301.52,391.29,301.52z" class="color241e1e svgShape"/><path fill="#211e24" d="M388.15,298.73c-0.01,0-0.03,0-0.04-0.01c-0.08-0.02-0.13-0.1-0.1-0.18c0.02-0.08,0.6-2.05,2.17-3.6
										c0.06-0.06,0.15-0.06,0.21,0c0.06,0.06,0.06,0.15,0,0.21c-1.51,1.49-2.08,3.45-2.09,3.46
										C388.28,298.69,388.22,298.73,388.15,298.73z" class="color241e1e svgShape"/><path fill="#7808d0" d="M417.13,231c0,0,10.81,1.02,13.25,13.25c2.45,12.24,11.01,39.76,4.89,45.47c0,0-0.31-14.89-14.89-8.97
									l-2.96-19.28l-1.22-24.98L417.13,231z" class="color6f52eb svgShape"/><path fill="#2e1a47" d="M421.43,279.95c-0.06,0-0.12-0.02-0.15-0.07c-0.07-0.09-0.06-0.21,0.03-0.28
								c0.03-0.03,3.3-2.63,7.37-3.25c0.11-0.02,0.21,0.06,0.23,0.17c0.02,0.11-0.06,0.21-0.17,0.23c-3.97,0.6-7.15,3.14-7.18,3.17
								C421.52,279.94,421.47,279.95,421.43,279.95z" class="color263156 svgShape"/><path fill="#2e1a47" d="M430.85,278.61c-0.03,0-0.07-0.01-0.1-0.03c-2.22-1.29-5.34-0.86-5.38-0.85
								c-0.11,0.02-0.21-0.06-0.22-0.17s0.06-0.21,0.17-0.22c0.13-0.02,3.29-0.46,5.63,0.9c0.09,0.06,0.13,0.18,0.07,0.27
								C430.98,278.57,430.92,278.61,430.85,278.61z" class="color263156 svgShape"/><path fill="#2e1a47" d="M419.38,273.89C419.38,273.89,419.38,273.89,419.38,273.89c-0.11,0-0.2-0.09-0.2-0.2l0.4-20.29
							c0-0.11,0.09-0.19,0.2-0.19c0,0,0,0,0,0c0.11,0,0.2,0.09,0.19,0.2l-0.4,20.29C419.58,273.81,419.49,273.89,419.38,273.89z" class="color263156 svgShape"/></g></g><g class="color000000 svgShape"><rect width="3.14" height="120.78" x="452.77" y="303.88" fill="#2e1a47" class="color263156 svgShape"/><rect width="3.6" height="120.78" x="271.25" y="303.88" fill="#2e1a47" class="color263156 svgShape"/><rect width="208.92" height="9.54" x="255.64" y="298.81" fill="#d8b2ff" class="colorb2c2fd svgShape"/><rect width="208.92" height="4.81" x="255.64" y="303.54" fill="#2e1a47" class="color263156 svgShape"/></g><g class="color000000 svgShape"><polygon fill="#2e1a47" points="358.83 298.93 304.59 298.93 294.48 251.33 348.72 251.33" class="color263156 svgShape"/><path fill="#2e1a47" d="M376.43,295.36h-20.76v3.62h22.18v-2.21C377.85,295.99,377.21,295.36,376.43,295.36z" class="color263156 svgShape"/><polygon fill="#2e1a47" points="357.76 298.93 303.52 298.93 293.4 251.33 347.64 251.33" class="color263156 svgShape"/><ellipse cx="324.82" cy="275.8" fill="#f2f2f2" class="colorffffff svgShape" rx="5.05" ry="5.8" transform="rotate(-8.959 324.747 275.758)"/></g><g class="color000000 svgShape"><path fill="#ececec" d="M249.38,112.23h-64.9c-1.03,0-1.86-0.83-1.86-1.86V76.68c0-1.03,0.83-1.86,1.86-1.86h64.9
						c1.03,0,1.86,0.83,1.86,1.86v33.69C251.24,111.39,250.4,112.23,249.38,112.23z M184.47,75.6c-0.6,0-1.08,0.48-1.08,1.08v33.69
						c0,0.6,0.48,1.08,1.08,1.08h64.9c0.6,0,1.08-0.48,1.08-1.08V76.68c0-0.6-0.48-1.08-1.08-1.08H184.47z" class="colordae4fe svgShape"/><rect width="54.34" height="2.86" x="190.3" y="82.42" fill="#ececec" class="colordae4fe svgShape"/><rect width="39.59" height="2.86" x="205.05" y="99.68" fill="#ececec" class="colordae4fe svgShape"/><rect width="28.62" height="2.86" x="190.3" y="88.93" fill="#ececec" class="colordae4fe svgShape"/><circle cx="195.42" cy="100.96" r="3.96" fill="#ececec" class="colordae4fe svgShape"/><path fill="#ececec" d="M194.07,102.82c-0.02,0-0.04,0-0.06-0.01c-0.07-0.02-0.13-0.07-0.16-0.13l-0.99-2.11
						c-0.06-0.12,0-0.27,0.12-0.32c0.12-0.06,0.27,0,0.32,0.12l0.87,1.85l3.95-2.72c0.11-0.08,0.26-0.05,0.34,0.06
						c0.08,0.11,0.05,0.26-0.06,0.34l-4.18,2.88C194.17,102.81,194.12,102.82,194.07,102.82z" class="colordae4fe svgShape"/></g><g class="color000000 svgShape"><path fill="#ececec" d="M423.85,134.49c-0.37,0-0.74-0.12-1.06-0.37c-5.89-4.6-12.96-7.03-20.46-7.03s-14.57,2.43-20.46,7.03
						c-0.75,0.59-1.83,0.45-2.42-0.3c-0.59-0.75-0.45-1.83,0.3-2.42c6.5-5.07,14.31-7.76,22.58-7.76c8.27,0,16.08,2.68,22.58,7.76
						c0.75,0.59,0.88,1.67,0.3,2.42C424.87,134.26,424.37,134.49,423.85,134.49z" class="colordae4fe svgShape"/><path fill="#ececec" d="M418.8,141.22c-0.37,0-0.75-0.12-1.07-0.37c-4.42-3.49-9.74-5.33-15.39-5.33
						c-5.65,0-10.97,1.84-15.39,5.33c-0.75,0.59-1.83,0.46-2.42-0.29c-0.59-0.75-0.46-1.83,0.29-2.42
						c5.03-3.97,11.09-6.07,17.53-6.07s12.5,2.1,17.53,6.07c0.75,0.59,0.88,1.67,0.29,2.42C419.81,141,419.31,141.22,418.8,141.22z" class="colordae4fe svgShape"/><path fill="#ececec" d="M391.25,148.41c-0.5,0-1-0.22-1.34-0.64c-0.6-0.74-0.49-1.83,0.25-2.43c3.43-2.78,7.76-4.32,12.18-4.32
						s8.74,1.53,12.18,4.32c0.74,0.6,0.85,1.69,0.25,2.42c-0.6,0.74-1.68,0.85-2.42,0.25c-2.82-2.29-6.37-3.55-10.01-3.55
						c-3.63,0-7.19,1.26-10.01,3.55C392.01,148.28,391.63,148.41,391.25,148.41z" class="colordae4fe svgShape"/><circle cx="402.34" cy="153.52" r="4.44" fill="#ececec" class="colordae4fe svgShape"/></g><g class="color000000 svgShape"><path fill="#ececec" d="M358.62,197.13H307c-1.81,0-3.27-1.46-3.27-3.27v-59.75c0-1.81,1.46-3.27,3.27-3.27h51.62
				c1.81,0,3.27,1.46,3.27,3.27v59.75C361.89,195.67,360.43,197.13,358.62,197.13z" class="colordae4fe svgShape"/><circle cx="332.81" cy="145.89" r="7.61" fill="#d8b2ff" class="colorb2c2fd svgShape"/><path fill="#d8b2ff" d="M345.29,165.18h-24.97v-6.44c0-2.11,1.71-3.82,3.82-3.82h17.34c2.11,0,3.82,1.71,3.82,3.82V165.18z" class="colorb2c2fd svgShape"/><rect width="43.25" height="1.85" x="311.18" y="170.24" fill="#f2f2f2" class="colorffffff svgShape"/><rect width="43.25" height="1.85" x="311.18" y="176.64" fill="#f2f2f2" class="colorffffff svgShape"/><rect width="43.25" height="1.85" x="311.18" y="183.91" fill="#f2f2f2" class="colorffffff svgShape"/></g><g class="color000000 svgShape"><path fill="#f2f2f2" d="M285.52,238.42H100.24c-2.58,0-4.67-2.09-4.67-4.67V114.77c0-2.58,2.09-4.67,4.67-4.67h185.28
							c2.58,0,4.67,2.09,4.67,4.67v118.97C290.19,236.32,288.1,238.42,285.52,238.42z" class="colorffffff svgShape"/><path fill="#2e1a47" d="M285.52,238.86H100.24c-2.82,0-5.12-2.3-5.12-5.12V114.77c0-2.82,2.3-5.12,5.12-5.12h185.28
							c2.82,0,5.12,2.3,5.12,5.12v118.97C290.64,236.57,288.34,238.86,285.52,238.86z M100.24,110.55c-2.33,0-4.22,1.89-4.22,4.22
							v118.97c0,2.33,1.89,4.22,4.22,4.22h185.28c2.33,0,4.22-1.9,4.22-4.22V114.77c0-2.33-1.89-4.22-4.22-4.22H100.24z" class="color263156 svgShape"/><rect width="181.64" height="101.51" x="102.06" y="130.41" fill="#ececec" class="colordae4fe svgShape"/><rect width="58.65" height="101.51" x="102.06" y="130.41" fill="#d8b2ff" class="colorb2c2fd svgShape"/><circle cx="104.95" cy="119.94" r="2.15" fill="#2e1a47" class="color263156 svgShape"/><circle cx="119.85" cy="119.94" r="2.15" fill="#2e1a47" class="color263156 svgShape"/><circle cx="112.4" cy="119.94" r="2.15" fill="#2e1a47" class="color263156 svgShape"/><path fill="#f2f2f2" d="M110.89,136.29c1.11,0,1.94,0.62,2.21,1.63h-1.25c-0.19-0.4-0.54-0.6-0.98-0.6c-0.7,0-1.17,0.52-1.17,1.34
				c0,0.82,0.48,1.34,1.17,1.34c0.43,0,0.78-0.2,0.98-0.6h1.25c-0.27,1.01-1.1,1.63-2.21,1.63c-1.37,0-2.34-0.98-2.34-2.37
				C108.54,137.27,109.51,136.29,110.89,136.29z" class="colorffffff svgShape"/><path fill="#f2f2f2" d="M113.8,136.09h1.14V141h-1.14V136.09z" class="colorffffff svgShape"/><path fill="#f2f2f2" d="M117.17,137.25c0.55,0,0.94,0.25,1.14,0.58v-0.52h1.14v3.7h-1.14v-0.52c-0.21,0.33-0.6,0.58-1.15,0.58
				c-0.9,0-1.63-0.74-1.63-1.91S116.26,137.25,117.17,137.25z M117.5,138.24c-0.42,0-0.81,0.32-0.81,0.91s0.39,0.92,0.81,0.92
				c0.43,0,0.81-0.33,0.81-0.92S117.93,138.24,117.5,138.24z" class="colorffffff svgShape"/><path fill="#f2f2f2" d="M121.78,141.06c-0.99,0-1.65-0.55-1.71-1.27h1.12c0.03,0.26,0.26,0.43,0.57,0.43c0.29,0,0.44-0.13,0.44-0.3
				c0-0.6-2.02-0.17-2.02-1.53c0-0.63,0.54-1.15,1.51-1.15c0.96,0,1.49,0.53,1.56,1.26h-1.05c-0.03-0.25-0.23-0.42-0.54-0.42
				c-0.27,0-0.41,0.11-0.41,0.29c0,0.59,2,0.17,2.02,1.55C123.28,140.57,122.71,141.06,121.78,141.06z" class="colorffffff svgShape"/><path fill="#f2f2f2" d="M125.49,141.06c-0.99,0-1.65-0.55-1.71-1.27h1.12c0.03,0.26,0.26,0.43,0.57,0.43c0.29,0,0.44-0.13,0.44-0.3
				c0-0.6-2.02-0.17-2.02-1.53c0-0.63,0.54-1.15,1.51-1.15c0.96,0,1.49,0.53,1.56,1.26h-1.05c-0.03-0.25-0.23-0.42-0.54-0.42
				c-0.27,0-0.41,0.11-0.41,0.29c0,0.59,2,0.17,2.02,1.55C126.99,140.57,126.42,141.06,125.49,141.06z" class="colorffffff svgShape"/><path fill="#f2f2f2" d="M128.82,141h-1.14v-3.7h1.14v0.62c0.26-0.39,0.66-0.66,1.16-0.66v1.2h-0.31c-0.54,0-0.85,0.19-0.85,0.82V141
				z" class="colorffffff svgShape"/><path fill="#f2f2f2" d="M132.22,141.06c-1.09,0-1.91-0.73-1.91-1.9s0.84-1.91,1.93-1.91c1.09,0,1.92,0.73,1.92,1.91
				S133.31,141.06,132.22,141.06z M132.22,140.07c0.41,0,0.78-0.3,0.78-0.92c0-0.63-0.37-0.92-0.77-0.92
				c-0.41,0-0.77,0.29-0.77,0.92C131.46,139.78,131.81,140.07,132.22,140.07z" class="colorffffff svgShape"/><path fill="#f2f2f2" d="M136.45,141.06c-1.09,0-1.91-0.73-1.91-1.9s0.84-1.91,1.93-1.91c1.09,0,1.92,0.73,1.92,1.91
				S137.54,141.06,136.45,141.06z M136.45,140.07c0.41,0,0.78-0.3,0.78-0.92c0-0.63-0.37-0.92-0.77-0.92
				c-0.41,0-0.77,0.29-0.77,0.92C135.69,139.78,136.04,140.07,136.45,140.07z" class="colorffffff svgShape"/><path fill="#f2f2f2" d="M144.1,138.99c0-0.49-0.28-0.75-0.71-0.75s-0.71,0.26-0.71,0.75V141h-1.13v-2.01c0-0.49-0.28-0.75-0.71-0.75
				s-0.71,0.26-0.71,0.75V141H139v-3.7h1.14v0.46c0.22-0.3,0.6-0.5,1.08-0.5c0.56,0,1.01,0.25,1.26,0.69
				c0.25-0.39,0.71-0.69,1.25-0.69c0.92,0,1.51,0.58,1.51,1.58V141h-1.13V138.99z" class="colorffffff svgShape"/><circle cx="112.63" cy="151.15" r="4.49" fill="#7808d0" class="color6f52eb svgShape"/><rect width="35.64" height="1.74" x="120.36" y="148.41" fill="#f2f2f2" class="colorffffff svgShape"/><rect width="25.99" height="1.74" x="120.36" y="152.15" fill="#f2f2f2" class="colorffffff svgShape"/><circle cx="112.63" cy="164.42" r="4.49" fill="#e2bc54" class="colore25469 svgShape"/><rect width="35.64" height="1.74" x="120.36" y="161.68" fill="#f2f2f2" class="colorffffff svgShape"/><rect width="25.99" height="1.74" x="120.36" y="165.42" fill="#f2f2f2" class="colorffffff svgShape"/><circle cx="112.63" cy="177.69" r="4.49" fill="#7808d0" class="color6f52eb svgShape"/><rect width="35.64" height="1.74" x="120.36" y="174.95" fill="#f2f2f2" class="colorffffff svgShape"/><rect width="25.99" height="1.74" x="120.36" y="178.69" fill="#f2f2f2" class="colorffffff svgShape"/><g class="color000000 svgShape"><circle cx="112.63" cy="190.96" r="4.49" fill="#e2bc54" class="colore25469 svgShape"/><rect width="35.64" height="1.74" x="120.36" y="188.22" fill="#f2f2f2" class="colorffffff svgShape"/><rect width="25.99" height="1.74" x="120.36" y="191.96" fill="#f2f2f2" class="colorffffff svgShape"/></g><g class="color000000 svgShape"><circle cx="112.63" cy="204.23" r="4.49" fill="#7808d0" class="color6f52eb svgShape"/><rect width="35.64" height="1.74" x="120.36" y="201.49" fill="#f2f2f2" class="colorffffff svgShape"/><rect width="25.99" height="1.74" x="120.36" y="205.23" fill="#f2f2f2" class="colorffffff svgShape"/></g><g class="color000000 svgShape"><rect width="90.71" height="1.99" x="177.05" y="163.24" fill="#d8b2ff" class="colorb2c2fd svgShape"/><rect width="90.71" height="5.21" x="177.05" y="141.56" fill="#d8b2ff" class="colorb2c2fd svgShape"/><rect width="90.71" height="1.99" x="177.05" y="170.47" fill="#d8b2ff" class="colorb2c2fd svgShape"/><rect width="45.86" height="1.99" x="177.05" y="177.94" fill="#d8b2ff" class="colorb2c2fd svgShape"/><rect width="41.54" height="1.99" x="226.23" y="177.94" fill="#d8b2ff" class="colorb2c2fd svgShape"/></g><g class="color000000 svgShape"><path fill="#d8b2ff" d="M249.27,212.98c0,2.02,0.37,3.95,1.05,5.74c1.36,3.61,3.97,6.6,7.31,8.45v0.01
					c2.34,1.3,5.03,2.04,7.89,2.04c2.56,0,4.99-0.6,7.14-1.65c0.28-0.14,0.56-0.28,0.83-0.45c1.79-0.99,3.36-2.32,4.63-3.91v-0.01
					c2.28-2.79,3.64-6.34,3.64-10.22c0-7.58-5.2-13.96-12.23-15.73c-0.04-0.01-0.1-0.02-0.14-0.03c-0.48-0.12-0.97-0.22-1.47-0.29
					c-0.1-0.01-0.19-0.02-0.28-0.03c-0.55-0.08-1.1-0.12-1.67-0.13c-0.07-0.01-0.14-0.01-0.21,0c-0.01-0.01-0.01-0.01-0.02,0
					c-0.07-0.01-0.14-0.01-0.21-0.01c-0.11,0-0.21,0-0.32,0.01c-0.82,0.01-1.61,0.09-2.4,0.22c-0.01,0-0.02,0-0.03,0.01
					c-0.01,0-0.01,0-0.01,0c-0.51,0.09-1.01,0.2-1.52,0.34c-0.07,0.01-0.13,0.03-0.2,0.05c-5.37,1.53-9.6,5.75-11.14,11.12
					C249.49,209.92,249.27,211.42,249.27,212.98z" class="colorb2c2fd svgShape"/><path fill="#ffd666" d="M246.04,203.97l3.37-0.89l0.85,9.37c0.61-0.54,1.19-0.99,1.99-1.66c6.34-5.32,9.63-3.49,9.63-3.49
							l1.38,2.77l-4,2.02c0,0-2.79,3.94-6.59,5.74c-2.4,1.14-5.97,2.07-6.71-0.14C244.91,214.54,246.04,203.97,246.04,203.97z" class="colorecc351 svgShape"/><path fill="#2e1a47" d="M250.75,217.22C250.75,217.22,250.74,217.22,250.75,217.22c-0.02,0-0.04-0.02-0.04-0.04
							c0.07-2.9-0.48-4.7-0.48-4.72c-0.01-0.02,0-0.04,0.03-0.05c0.02-0.01,0.04,0.01,0.05,0.03c0.01,0.02,0.56,1.83,0.48,4.74
							C250.78,217.2,250.77,217.22,250.75,217.22z" class="color263156 svgShape"/><path fill="#ffd666" d="M268.15,206.79c-0.01-0.08,0.24-5.95,0.24-6.03c0,0-0.39-0.02-0.39-0.02c-1.47,0.63-3.24,1.64-4.72,2.27
								c0,0-0.25,3.18-0.25,3.18s-1.84,1.49-1.85,1.81C261.15,209.15,267.08,212.49,268.15,206.79z" class="colorecc351 svgShape"/><path fill="#ffd666" d="M260.99,200.18c0.14,2.53,0.69,5.14,3.12,5.19c1.69,0.03,3.68-1.99,4.4-4.02
											c0.37-1.05,0.7-1.97,0.82-2.68c0.09-0.56,0.13-0.92,0.13-0.92l-0.2-1.29l-0.12-0.76c0,0-0.46-0.52-0.97-1.11
											c-0.64-0.73-1.92-0.05-1.94-0.1c-0.02-0.07-3.25-1.1-4.53,0.05c0,0-0.01,0.01-0.01,0.01c-0.12,0.1-0.21,0.22-0.28,0.33
											c-0.06,0.1-0.09,0.2-0.11,0.31c-0.03,0.2-0.08,0.51-0.13,0.9c-0.02,0.16-0.04,0.34-0.06,0.53
											c-0.04,0.32-0.07,0.67-0.1,1.04C260.97,198.43,260.94,199.31,260.99,200.18z" class="colorecc351 svgShape"/><path fill="#2e1a47" d="M264.15,205.41c-0.01,0-0.03,0-0.04,0c-0.28,0-0.55-0.05-0.8-0.12c-0.02-0.01-0.03-0.03-0.03-0.05
											c0.01-0.02,0.03-0.03,0.05-0.03c0.24,0.07,0.5,0.11,0.78,0.12c0.01,0,0.03,0,0.04,0c0.92,0,1.98-0.6,2.91-1.65
											c0.01-0.02,0.04-0.02,0.05,0c0.02,0.01,0.02,0.04,0,0.05C266.17,204.8,265.09,205.41,264.15,205.41z" class="color263156 svgShape"/><path fill="#2e1a47" d="M269.44,198.66c0,0,0.75-6.05-2.36-6.59c0,0-2.1-1.6-4.78,0.09c-1.29,0.81-1.49,3.17-1.44,3.94
											c0.03,0.48,0.15,0.9,0.22,0.88c0.18-0.04,0.28-0.5,0.88-0.25c2.43,1.02,4.83-0.69,5.47-0.16
											c0.64,0.53,0.99,5.05,0.99,5.05S268.86,199.68,269.44,198.66z" class="color263156 svgShape"/><ellipse cx="266.6" cy="196.15" fill="#2e1a47" class="color263156 svgShape" rx="1.52" ry="1.58" transform="rotate(-1.146 266.327 196.162)"/><ellipse cx="262.69" cy="193.94" fill="#2e1a47" class="color263156 svgShape" rx="2.68" ry="2.79" transform="rotate(-1.146 262.426 193.953)"/><ellipse cx="264.26" cy="196.54" fill="#2e1a47" class="color263156 svgShape" rx="1.52" ry="1.58" transform="rotate(-1.146 263.99 196.549)"/><path fill="#2e1a47" d="M261.03,196.94c0.24,0.6,0.88,1.28,2.65,0.45c2.74-1.28,4.32-0.19,4.31-0.84
											c-0.01-0.64-1.6-1.14-3.55-1.12S260.8,196.37,261.03,196.94z" class="color263156 svgShape"/><path fill="#ffd666" d="M268.58,199.02c0,0,1.57-0.76,1.34,0.69c-0.23,1.46-1.7,1.92-1.7,1.92L268.58,199.02z" class="colorecc351 svgShape"/><path fill="#2e1a47" d="M268.88,199.54c0,0,1.18-0.2-0.17,1.23L268.88,199.54z" class="color263156 svgShape"/><ellipse cx="262.4" cy="199.75" fill="#2e1a47" class="color263156 svgShape" rx=".23" ry=".4" transform="rotate(-6.227 262.41 199.79)"/><ellipse cx="265.16" cy="199.78" fill="#2e1a47" class="color263156 svgShape" rx=".23" ry=".4" transform="rotate(-6.227 265.174 199.813)"/><path fill="#2e1a47" d="M262.74,198.48c0,0-0.62-0.57-1.23-0.33L262.74,198.48z" class="color263156 svgShape"/><path fill="#2e1a47" d="M266.24,198.44c-0.05-0.01-0.9-0.25-1.47,0.24L266.24,198.44z" class="color263156 svgShape"/><path fill="#2e1a47" d="M263.58,201.63c-0.26,0-0.34-0.12-0.37-0.2c-0.07-0.2,0.09-0.45,0.27-0.55
												c0.28-0.14,0.2-0.78,0.19-0.78c0-0.02,0.01-0.04,0.03-0.04c0.02-0.01,0.04,0.01,0.04,0.03c0,0.03,0.09,0.69-0.24,0.86
												c-0.16,0.08-0.28,0.31-0.23,0.45c0.05,0.13,0.23,0.18,0.52,0.12c0.02,0,0.04,0.01,0.05,0.03c0,0.02-0.01,0.04-0.03,0.04
												C263.72,201.62,263.64,201.63,263.58,201.63z" class="color263156 svgShape"/><path fill="#f2f2f2" d="M262.77,202.56c0,0,0.03,0.1,0.09,0.23c0.12,0.24,0.36,0.58,0.78,0.62
												c0.41,0.04,0.71-0.28,0.87-0.51c0.09-0.13,0.14-0.23,0.14-0.23L262.77,202.56z" class="colorffffff svgShape"/><g class="color000000 svgShape"><path fill="#e2bc54" d="M257.63,227.16v0.01c2.34,1.3,5.03,2.04,7.89,2.04c2.56,0,4.99-0.6,7.14-1.65
							c-0.07-2.19-0.03-4.51,0.1-6.75c0.03-0.62,0.08-1.24,0.12-1.84c0.05-0.59,0.11-1.16,0.17-1.72c0.39-3.49,1.06-6.56,2.05-8.46
							l-0.05-0.05c-1.35-1.41-6.82-2.54-6.82-2.54c-0.02,0.04-0.04,0.08-0.05,0.12c-1.29,2.38-6.54,1.83-5.16-0.1
							c0.01-0.01,0.01-0.01,0.02-0.02c-1.75,0.08-4.39,0.84-4.39,0.84c-0.02,0.05-0.03,0.12-0.05,0.17
							c-0.7,2.18-1.01,4.55-1.12,7.01c-0.01,0.15-0.02,0.32-0.02,0.47c-0.01,0.09-0.01,0.13-0.01,0.13v0.04
							C257.3,218.85,257.63,223.07,257.63,227.16z" class="colore25469 svgShape"/></g><g class="color000000 svgShape"><path fill="#e2bc54" d="M258.47,213.78c-1.99,2.28-4.24,3.4-4.24,3.4c0.29-2.5-1.22-4.7-2.65-5.93c4.55-3.86,7.06-4.22,7.06-4.22
							L258.47,213.78z" class="colore25469 svgShape"/></g><g class="color000000 svgShape"><path fill="#2e1a47" d="M257.44,214.86C257.43,214.86,257.43,214.86,257.44,214.86c-0.02,0-0.04-0.02-0.04-0.04
							c0-0.03,0.26-3,0.57-4.23c0.01-0.02,0.03-0.04,0.05-0.03c0.02,0,0.03,0.03,0.03,0.05c-0.31,1.23-0.56,4.19-0.56,4.22
							C257.47,214.84,257.45,214.86,257.44,214.86z" class="color263156 svgShape"/></g><g class="color000000 svgShape"><path fill="#ffd666" d="M272.33,217.2l0.21,1.72l0.22,1.89l0.73,6.31c1.79-0.99,3.36-2.32,4.63-3.91v-0.01
									c-0.11-1.77-0.24-3.54-0.36-4.92c-0.09-0.95-0.19-1.73-0.27-2.22c-1.74,0.95-3.44,1.17-4.43,1.18
									c-0.27,0-0.48-0.01-0.63-0.03C272.38,217.21,272.35,217.2,272.33,217.2z" class="colorecc351 svgShape"/><path fill="#e2bc54" d="M275.06,208.73c0,0,1.44,1.36,1.99,3.82c0.55,2.46,1.31,5.33,0.98,5.57c-2.05,1.46-5.75,0.76-5.75,0.76
								l-1.13-6.14L275.06,208.73z" class="colore25469 svgShape"/><path fill="#2e1a47" d="M272.65,218.96c-0.02,0-0.04-0.01-0.04-0.03l-0.56-4.11c0-0.02,0.01-0.04,0.03-0.04
								c0.02,0,0.04,0.01,0.04,0.03l0.56,4.11C272.69,218.94,272.67,218.96,272.65,218.96
								C272.65,218.96,272.65,218.96,272.65,218.96z" class="color263156 svgShape"/></g><g class="color000000 svgShape"><path fill="#ffd666" d="M249.46,204.57c0,0,0.97-1.39,1-1.93c0.03-0.54,0-1.23,0-1.82c-0.01-0.59,0.22-1.07-0.3-1.05
									s-0.75,1.52-0.75,1.52s-0.31-0.82-0.27-1.94c0.04-1.12,0.2-2.43-0.18-2.43c-0.38,0-0.52,0.09-0.52,0.09
									s-0.12-0.48-0.42-0.49s-0.48,0.46-0.48,0.46s-0.46-0.11-0.63,0.04c-0.17,0.15-0.8,1.82-0.86,3.07c0,0-0.07-2.21-0.21-2.19
									c-0.14,0.02-0.59,0.48-0.54,2.15c0.05,1.66,0.77,4.22,0.77,4.22L249.46,204.57z" class="colorecc351 svgShape"/><path fill="#2e1a47" d="M247,201.07C247,201.07,247,201.07,247,201.07c-0.04,0-0.07-0.04-0.07-0.07c0-0.01,0.08-1.27,0.18-2.18
									c0.1-0.92,0.35-1.84,0.35-1.85c0.01-0.04,0.05-0.06,0.08-0.05c0.04,0.01,0.06,0.05,0.05,0.08c0,0.01-0.25,0.92-0.35,1.83
									c-0.1,0.91-0.18,2.16-0.18,2.17C247.07,201.04,247.04,201.07,247,201.07z" class="color263156 svgShape"/><path fill="#2e1a47" d="M248.1,201.02C248.1,201.02,248.1,201.02,248.1,201.02c-0.04,0-0.07-0.04-0.07-0.07
									c0.11-1.74,0.34-3.92,0.34-3.94c0-0.04,0.04-0.07,0.08-0.06c0.04,0,0.07,0.04,0.06,0.08c0,0.02-0.23,2.2-0.34,3.93
									C248.17,200.99,248.14,201.02,248.1,201.02z" class="color263156 svgShape"/></g></g><g class="color000000 svgShape"><rect width="45.86" height="1.99" x="108.36" y="224.39" fill="#ececec" class="colordae4fe svgShape"/></g></g><g class="color000000 svgShape"><rect width="394.1" height="3.12" x="72.08" y="422.06" fill="#2e1a47" class="color263156 svgShape"/></g><g class="color000000 svgShape"><path fill="#7808d0" d="M170.6,422.79h63.13c2.39,0,4.32-1.94,4.32-4.32v-20.95c0-2.39-1.94-4.32-4.32-4.32H170.6V422.79z" class="color6f52eb svgShape"/><path fill="#7808d0" d="M174.21,422.79h-71.53V393.2h71.53c1.5,0,2.72,1.22,2.72,2.72v24.16
							C176.92,421.58,175.71,422.79,174.21,422.79z" class="color6f52eb svgShape"/><path fill="#2e1a47" d="M174.21,422.96c-0.09,0-0.16-0.07-0.16-0.16s0.07-0.16,0.16-0.16c1.41,0,2.55-1.15,2.55-2.55v-24.16
							c0-1.41-1.15-2.55-2.55-2.55c-0.09,0-0.16-0.07-0.16-0.16s0.07-0.16,0.16-0.16c1.59,0,2.88,1.29,2.88,2.88v24.16
							C177.09,421.66,175.8,422.96,174.21,422.96z" class="color263156 svgShape"/><rect width="69.11" height="21.44" x="102.67" y="397.27" fill="#f2f2f2" class="colorffffff svgShape"/><rect width="69.11" height=".69" x="102.67" y="401.49" fill="#ececec" class="colordae4fe svgShape"/><rect width="69.11" height=".69" x="102.67" y="405.59" fill="#ececec" class="colordae4fe svgShape"/><rect width="69.11" height=".69" x="102.67" y="409.71" fill="#ececec" class="colordae4fe svgShape"/><rect width="69.11" height=".69" x="102.67" y="413.81" fill="#ececec" class="colordae4fe svgShape"/><g class="color000000 svgShape"><polygon fill="#7808d0" points="148.38 413.68 152.55 409.76 156.27 413.68 156.27 401.43 148.38 401.43" class="color6f52eb svgShape"/></g><g class="color000000 svgShape"><path fill="#e2bc54" d="M190.42,393.27h49.93c1.89,0,3.42-1.53,3.42-3.42v-16.57c0-1.89-1.53-3.42-3.42-3.42h-49.93V393.27z" class="colore25469 svgShape"/><path fill="#e2bc54" d="M193.28,393.27h-56.57v-23.4h56.57c1.19,0,2.15,0.96,2.15,2.15v19.11
							C195.43,392.31,194.47,393.27,193.28,393.27z" class="colore25469 svgShape"/><path fill="#2e1a47" d="M193.28,393.43c-0.09,0-0.16-0.07-0.16-0.16s0.07-0.16,0.16-0.16c1.09,0,1.98-0.89,1.98-1.98v-19.11
							c0-1.09-0.89-1.98-1.98-1.98c-0.09,0-0.16-0.07-0.16-0.16s0.07-0.16,0.16-0.16c1.27,0,2.31,1.04,2.31,2.31v19.11
							C195.59,392.39,194.55,393.43,193.28,393.43z" class="color263156 svgShape"/><rect width="54.66" height="16.96" x="136.7" y="373.09" fill="#f2f2f2" class="colorffffff svgShape"/><rect width="54.66" height=".54" x="136.7" y="376.42" fill="#ececec" class="colordae4fe svgShape"/><rect width="54.66" height=".54" x="136.7" y="379.67" fill="#ececec" class="colordae4fe svgShape"/><rect width="54.66" height=".54" x="136.7" y="382.92" fill="#ececec" class="colordae4fe svgShape"/><rect width="54.66" height=".54" x="136.7" y="386.17" fill="#ececec" class="colordae4fe svgShape"/><g class="color000000 svgShape"><polygon fill="#e2bc54" points="172.85 386.06 176.15 382.97 179.1 386.06 179.1 376.37 172.85 376.37" class="colore25469 svgShape"/></g></g></g><g class="color000000 svgShape"><path fill="#8e68b5" d="M182.34,282.13c-2.37,2.37-8.47,2.26-17.67-1.6c-3.45-1.45-6.68-3.17-9.44-4.88l3.37-3.38l-5.95,1.7
					c-3.99-2.74-6.49-5.17-6.36-5.94c0.23-1.4,8.75-2.87,24.39,0.42c0.53,0.11,1.04,0.23,1.53,0.35c0.87,1.49,2.27,3.87,2.27,3.87
					l-0.08-3.24C185.95,273.2,184.01,280.45,182.34,282.13z" class="color68b5a0 svgShape"/><path fill="#8e68b5" d="M214.37,278.08c-0.58,0.35-1.28,0.78-2.09,1.26l-5.49,0.63c0,0,1.87,0.32,3.39,0.59
							c-4.37,2.46-10.63,5.36-17,5.15c0,0,0.42-6.8,9.76-10.41c9.35-3.61,24.08-4.44,24.55-2.66
							C227.98,274.41,218.04,275.89,214.37,278.08z" class="color68b5a0 svgShape"/><path fill="#8e68b5" d="M222.22,304.33c-0.33,0.33-3.27-0.29-7.55-0.07l-2.81-2.3l1.21,2.42c-1.42,0.14-2.96,0.38-4.58,0.78
							c-7.46,1.83-17.21,5.86-18.64-4.02c0,0-0.53-10,8.22-9.52c1.79,0.1,3.46,0.24,5.01,0.46l-0.69,1.97l3.28-1.54h0
							c4.7,0.93,8.29,2.55,11.45,5.15C221.8,301.49,222.69,303.85,222.22,304.33z" class="color68b5a0 svgShape"/><path fill="#2e1a47" d="M181.67,345.28c0-0.09-0.41-9.52,0.37-19.63c1.05-13.63,3.63-21.95,7.68-24.71
							c5.03-3.44,12.3-3.22,17.52-2.43c5.63,0.85,10.14,2.54,10.19,2.55l-0.17,0.45c-0.04-0.02-4.52-1.68-10.1-2.53
							c-5.13-0.78-12.26-1-17.16,2.35c-9.39,6.42-7.85,43.55-7.84,43.93L181.67,345.28z" class="color263156 svgShape"/><path fill="#8e68b5" d="M147.22,318.19c0.4,0.25,3.13-0.98,7.36-1.68l2.25-2.84l-0.66,2.62c1.42-0.17,2.98-0.26,4.64-0.22
							c7.68,0.2,18.07,2.04,17.34-7.92c0,0-1.62-9.88-10.07-7.54c-1.73,0.48-3.32,0.98-4.79,1.52l1.09,1.78l-3.53-0.8l0,0
							c-4.39,1.91-7.55,4.27-10.08,7.48C147.02,315.33,146.65,317.83,147.22,318.19z" class="color68b5a0 svgShape"/><path fill="#2e1a47" d="M184.17,344.34c-0.01-0.12-0.86-12.02-0.2-25.14c0.89-17.66,3.93-28.98,9.05-33.67
							c12.15-11.11,28.02-12.29,28.18-12.3l0.03,0.48c-0.16,0.01-15.86,1.18-27.88,12.17c-12,10.97-8.74,57.94-8.7,58.41
							L184.17,344.34z" class="color263156 svgShape"/><path fill="#8e68b5" d="M158.6,290.92c0.58,0.35,1.28,0.78,2.09,1.26l5.49,0.63c0,0-1.87,0.32-3.39,0.59
							c4.37,2.46,10.63,5.36,17,5.15c0,0-0.42-6.8-9.76-10.41c-9.35-3.61-24.08-4.44-24.55-2.66
							C144.99,287.25,154.93,288.73,158.6,290.92z" class="color68b5a0 svgShape"/><path fill="#2e1a47" d="M189.29,347.19l-0.48-0.04c0.03-0.37,2.81-37.45-9.19-48.43c-12.02-10.99-27.73-12.16-27.88-12.17
							l0.03-0.48c0.16,0.01,16.03,1.19,28.18,12.3C192.12,309.5,189.32,346.81,189.29,347.19z" class="color263156 svgShape"/><path fill="#2e1a47" d="M187.63,344.08l-0.49,0c0-0.54,0.41-54.22-5-61.81c-5.4-7.58-28.57-12.44-28.81-12.48l0.1-0.48
							c0.96,0.2,23.59,4.94,29.1,12.68C188.04,289.71,187.65,341.87,187.63,344.08z" class="color263156 svgShape"/><path fill="#2e1a47" d="M184.3,349.56l-0.48-0.02c0.02-0.34,1.44-33.66-6.04-39.91c-7.44-6.21-24.56,3.76-24.73,3.86l-0.25-0.42
							c0.04-0.03,4.42-2.59,9.68-4.34c7.01-2.33,12.41-2.15,15.61,0.52c3.23,2.7,5.25,10.31,6.02,22.62
							C184.67,341.01,184.3,349.48,184.3,349.56z" class="color263156 svgShape"/><path fill="#ffd666" d="M199.47,333.23l-0.26,3.15v0.05l-0.11,1.2l-0.24,2.9l-0.09,1.11l-0.01,0.1l-0.12,1.45l-0.12,1.46
							l-0.05,0.64l-0.01,0.05l-0.04,0.5l-0.14,1.59l-0.11,1.31l-0.1,1.2l-0.24,2.9l-0.1,1.2l-0.24,2.9l-0.1,1.19l-0.24,2.9l-0.1,1.2
							l-0.24,2.9l-0.08,0.96c-0.01,0.09-0.01,0.16-0.02,0.24c-0.24,2.11-1.19,3.65-2.32,3.65h-16.61c-1.12,0-2.08-1.54-2.32-3.65
							c-0.01-0.08-0.01-0.16-0.02-0.24l-0.08-0.96l-0.24-2.9l-0.1-1.2l-0.24-2.9l-0.1-1.19l-0.24-2.9l-0.1-1.2l-0.24-2.9l-0.1-1.2
							l-0.11-1.31l-0.14-1.59l-0.04-0.5v-0.05l-0.05-0.64l-0.13-1.46l-0.12-1.45l-0.01-0.1l-0.09-1.11l-0.24-2.9l-0.1-1.2v-0.05
							l-0.26-3.15H199.47z" class="colorecc351 svgShape"/><polygon fill="#dbb242" points="199.21 336.43 199.11 337.64 173.12 337.64 173.02 336.43" class="colordbaf42 svgShape"/><polygon fill="#dbb242" points="198.86 340.54 198.78 341.64 198.77 341.74 173.46 341.74 173.45 341.64 173.36 340.54" class="colordbaf42 svgShape"/><polygon fill="#dbb242" points="198.53 344.64 198.48 345.28 198.47 345.33 198.44 345.83 173.79 345.83 173.75 345.33 173.75 345.28 173.7 344.64" class="colordbaf42 svgShape"/><polygon fill="#dbb242" points="198.19 348.74 198.1 349.94 174.13 349.94 174.03 348.74" class="colordbaf42 svgShape"/><polygon fill="#dbb242" points="197.85 352.84 197.76 354.04 174.47 354.04 174.37 352.84" class="colordbaf42 svgShape"/><polygon fill="#dbb242" points="197.51 356.94 197.42 358.14 174.81 358.14 174.71 356.94" class="colordbaf42 svgShape"/><polygon fill="#dbb242" points="197.17 361.04 197.08 362.24 175.15 362.24 175.05 361.04" class="colordbaf42 svgShape"/><path fill="#dbb242" d="M196.83,365.14l-0.08,0.96c-0.01,0.09-0.01,0.16-0.02,0.24h-21.25c-0.01-0.08-0.01-0.16-0.02-0.24
					l-0.08-0.96H196.83z" class="colordbaf42 svgShape"/></g></svg>