<svg xmlns="http://www.w3.org/2000/svg" enable-background="new 0 0 2697.53 2100" viewBox="0 0 2697.53 2100"><polygon fill="none" stroke="#be6dff" stroke-linecap="round" stroke-linejoin="round" stroke-miterlimit="10" stroke-width="5.152" points="1129.07 2027.43 1129.07 172.51 1051.47 172.51 1200.02 23.95 1348.58 172.51 1270.98 172.51 1270.98 2027.43" class="colorStroke6dffb1 svgStroke"/><polygon fill="#7808d0" points="1129.07 172.51 1209.08 172.51 1129.07 221.2" class="color1c1919 svgShape"/><path fill="none" stroke="#c57cff" stroke-linecap="round" stroke-linejoin="round" stroke-miterlimit="10" stroke-width="8.039" d="M1913.51,172.51h-77.6v201.81c0,71.92-58.5,130.44-130.43,130.44c-43.68,0-79.21,35.52-79.21,79.2v1443.47
				h-141.92V583.96c0-16.21,1.73-32.15,5.11-47.62c1.26-5.76,2.75-11.45,4.45-17.08c5.49-18,13.27-35.22,23.2-51.28
				c7.48-12.11,16.19-23.55,26.04-34.19c1.94-2.1,3.93-4.17,5.96-6.19c39.05-39.04,90.13-61.69,144.89-64.48v-190.6h-77.6
				l148.56-148.56L1913.51,172.51z" class="colorStroke847cff svgStroke"/><polygon fill="#7808d0" points="1835.92 172.5 1781.88 172.5 1835.92 204.63" class="color1c1919 svgShape"/><polygon fill="#7808d0" points="401.09 487.24 252.54 635.8 401.09 784.35" class="color6dffb1 svgShape"/><path fill="#7808d0" d="M1271.22,1124.66v902.76h-141.91v-902.76c0-7.84-4.89-14.55-10.96-15.46c-0.47-0.09-0.94-0.12-1.43-0.12
							c-6.72,0-12.39,7.13-12.39,15.58v403.46c0,38.09-11.6,73.42-31.4,102.55c-26.2,38.56-66.76,66.2-113.68,74.76
							c-8.57,1.57-17.36,2.49-26.3,2.74c-1.56,0.04-3.12,0.05-4.69,0.05c-10.58,0-20.95-0.96-31.02-2.8
							c-78.7-14.37-139.45-82.39-144.67-165.61c-0.25-3.86-0.38-7.75-0.38-11.68V265.71c0-14.72-10.35-26.7-23.08-26.7
							c-12.72,0-23.08,11.98-23.08,26.7V434.1c0,72.18-27.19,140.16-76.58,191.45c-9.02,9.36-18.59,17.97-28.68,25.81
							c-1.95,1.52-3.92,3.01-5.91,4.47c-2.77,2.03-5.58,4-8.43,5.93c-5.58,3.77-11.29,7.31-17.14,10.63
							c-1.08,0.61-2.18,1.22-3.26,1.82c-5.53,3.03-11.16,5.86-16.92,8.5c-1.27,0.57-2.53,1.15-3.8,1.71
							c-3.1,1.36-6.22,2.65-9.35,3.9c-2.38,0.93-4.78,1.84-7.18,2.69c-0.68,0.25-1.35,0.49-2.03,0.72
							c-2.87,1.01-5.74,1.96-8.63,2.87c-0.49,0.15-0.99,0.31-1.48,0.45c-0.24,0.09-0.48,0.15-0.73,0.23
							c-1.7,0.52-3.4,1.01-5.11,1.49c-2.27,0.62-4.52,1.21-6.8,1.78c-1.08,0.28-2.19,0.55-3.31,0.81c-2.45,0.58-4.92,1.13-7.39,1.63
							c-0.34,0.08-0.68,0.14-1.02,0.2c-0.69,0.14-1.37,0.27-2.06,0.4c-0.75,0.15-1.5,0.29-2.25,0.42
							c-7.9,1.46-15.88,2.53-23.93,3.23c-7.49,0.64-15.06,0.98-22.67,0.98h-84.15V564.28h84.15c67.68,0,122.75-58.4,122.75-130.18
							V265.71c0-92.97,74.02-168.62,164.99-168.62c90.99,0,165,75.65,165,168.62v1262.41c0,21.06,15.33,38.18,34.15,38.18
							c18.83,0,34.16-17.12,34.16-38.18v-403.46c0-5.03,0.24-10.02,0.69-14.93c1.21-13.18,4.04-25.89,8.24-37.93
							c6.81-19.43,17.24-37.12,30.5-52.18c3.15-3.6,6.47-7.04,9.94-10.34c0.57-0.54,1.14-1.07,1.72-1.6
							c7.56-6.97,15.8-13.16,24.59-18.51c17.93-10.87,38.19-18.16,59.82-20.85c6.16-0.77,12.43-1.16,18.8-1.16
							c18.96,0,37.12,3.5,53.91,9.91c3.7,1.42,7.34,2.96,10.9,4.66c8.17,3.88,15.95,8.46,23.27,13.67
							c4.11,2.93,8.07,6.05,11.87,9.36c5.79,5.03,11.21,10.5,16.22,16.35c13.17,15.36,23.47,33.37,30.01,53.13
							c4.09,12.28,6.71,25.25,7.69,38.67C1271.09,1116.78,1271.22,1120.71,1271.22,1124.66z" class="color6dffb1 svgShape"/><polygon fill="#7808d0" points="401.09 706.12 401.09 635.8 430.61 706.2" class="color1c1919 svgShape"/><path fill="#fff" d="M2658.21,866.64l-148.55-148.55v72.59h-120.1c-45.02,0-81.64-36.63-81.64-81.64V507.72
				c0-103.05-83.85-186.91-186.91-186.91c-103.06,0-186.91,83.86-186.91,186.91v1022.38c0,13.8-11.23,25.02-25.02,25.02
				c-13.8,0-25.04-11.22-25.04-25.02V821.82c0-13.55-1.73-26.68-4.96-39.22v-0.01c-2.05-7.94-4.7-15.64-7.9-23.05
				c-0.14-0.32-0.29-0.64-0.44-0.97c-0.4-0.92-0.81-1.84-1.22-2.74c-1.11-2.38-2.27-4.72-3.5-7.04c-0.09-0.17-0.18-0.33-0.28-0.5
				v-0.01c-4.71-8.89-10.25-17.26-16.52-25.02c-0.2-0.26-0.41-0.5-0.61-0.75c-0.72-0.88-1.44-1.75-2.18-2.61
				c-4.67-5.45-9.68-10.58-15.04-15.36c-8.97-8-18.87-15-29.51-20.8c-22.3-12.15-47.84-19.05-74.98-19.05
				c-32.2,0-62.18,9.74-87.12,26.42c-2.3,1.54-4.55,3.13-6.76,4.79c-16.51,12.33-30.52,27.85-41.14,45.61
				c-2.11,3.52-4.08,7.13-5.91,10.83c-1.3,2.65-2.56,5.36-3.71,8.09c-3.3,7.75-6,15.81-8.03,24.13
				c-2.92,11.96-4.47,24.44-4.47,37.27v1205.6h141.91V821.82c0-8.39,6.84-15.23,15.23-15.23s15.23,6.84,15.23,15.23v708.27
				c0,92.06,74.9,166.96,166.96,166.96c92.05,0,166.95-74.9,166.95-166.96V507.72c0-24.81,20.18-45,44.99-45
				c24.81,0,44.99,20.19,44.99,45v201.32c0,59.71,23.25,115.86,65.48,158.08c42.23,42.22,98.36,65.48,158.08,65.48h120.1v82.6
				L2658.21,866.64z" class="colorffffff svgShape"/><path fill="none" stroke="#211f23" stroke-linecap="round" stroke-linejoin="round" stroke-miterlimit="10" stroke-width="6.014" d="M2658.21,866.64l-148.55-148.55v72.59h-120.1c-45.02,0-81.64-36.63-81.64-81.64V507.72
				c0-103.05-83.85-186.91-186.91-186.91c-103.06,0-186.91,83.86-186.91,186.91v1022.38c0,13.8-11.23,25.02-25.02,25.02
				c-13.8,0-25.04-11.22-25.04-25.02V821.82c0-13.55-1.73-26.68-4.96-39.22v-0.01c-2.05-7.94-4.7-15.64-7.9-23.05
				c-0.14-0.32-0.29-0.64-0.44-0.97c-0.4-0.92-0.81-1.84-1.22-2.74c-1.11-2.38-2.27-4.72-3.5-7.04c-0.09-0.17-0.18-0.33-0.28-0.5
				v-0.01c-4.71-8.89-10.25-17.26-16.52-25.02c-0.2-0.26-0.41-0.5-0.61-0.75c-0.72-0.88-1.44-1.75-2.18-2.61
				c-4.67-5.45-9.68-10.58-15.04-15.36c-8.97-8-18.87-15-29.51-20.8c-22.3-12.15-47.84-19.05-74.98-19.05
				c-32.2,0-62.18,9.74-87.12,26.42c-2.3,1.54-4.55,3.13-6.76,4.79c-16.51,12.33-30.52,27.85-41.14,45.61
				c-2.11,3.52-4.08,7.13-5.91,10.83c-1.3,2.65-2.56,5.36-3.71,8.09c-3.3,7.75-6,15.81-8.03,24.13
				c-2.92,11.96-4.47,24.44-4.47,37.27v1205.6h141.91V821.82c0-8.39,6.84-15.23,15.23-15.23s15.23,6.84,15.23,15.23v708.27
				c0,92.06,74.9,166.96,166.96,166.96c92.05,0,166.95-74.9,166.95-166.96V507.72c0-24.81,20.18-45,44.99-45
				c24.81,0,44.99,20.19,44.99,45v201.32c0,59.71,23.25,115.86,65.48,158.08c42.23,42.22,98.36,65.48,158.08,65.48h120.1v82.6
				L2658.21,866.64z" class="colorStroke231f20 svgStroke"/><polygon fill="#7808d0" points="2509.66 931.08 2509.66 872.25 2482.38 931.08" class="color1c1919 svgShape"/><path fill="#7808d0" d="M1010.42,1855.94v171.49H868.5v-171.49c0-40.15-19.38-75.84-49.29-98.24
				c-20.46-15.31-45.85-24.38-73.33-24.38h-40.56c-5.77,0-11.51-0.22-17.2-0.61c-57.75-4.05-111.49-28.49-152.82-69.82
				c-45.42-45.41-70.43-105.8-70.43-170.02v-73.31c0-103.86-84.49-188.34-188.34-188.34h-88.65v77.58L39.32,1160.25l148.56-148.56
				v77.6h88.65c44.55,0,87.81,8.74,128.57,25.97c39.33,16.64,74.65,40.44,104.95,70.75c30.31,30.3,54.12,65.62,70.75,104.95
				c17.23,40.78,25.98,84.02,25.98,128.58v73.31c0,48.32,34.99,88.63,80.95,96.95c5.7,1.04,11.58,1.56,17.58,1.56h40.56
				c28.92,0,57.12,4.61,83.78,13.49c2.46,0.81,4.91,1.67,7.34,2.56c21.56,7.89,42.03,18.61,60.97,31.97
				c4.44,3.13,8.79,6.4,13.06,9.82c7.6,6.1,14.92,12.66,21.92,19.66c42.26,42.26,68.46,96.29,75.54,154.69
				C1009.78,1834.23,1010.42,1845.03,1010.42,1855.94z" class="color1c1919 svgShape"/><polygon fill="#7919c5" points="187.88 1231.21 187.88 1162.7 225.36 1231.21" class="color847cff svgShape"/><path fill="#fff" d="M206.65,759.71c-0.53-16.01-6.84-29.83-18.96-41.49c-12.12-11.65-31.01-17.07-56.66-16.23
						c-24.32,0.79-42.86,7.98-55.64,21.52c-12.77,13.57-19.05,30.97-18.86,52.23l47.11,4.12c-0.73-25.74,7.78-38.9,25.51-39.48
						c5.73-0.18,10.8,1.38,15.19,4.69c4.39,3.32,6.7,8.48,6.93,15.49c0.25,7.64-1.29,14.27-4.59,19.87
						c-3.31,5.6-9.41,12.39-18.33,20.31c-10.69,9.58-16.78,17.23-18.24,22.99c-1.46,5.75-1.99,15.17-1.57,28.25l0.24,7.05
						l43.99-1.42c-0.32-9.94,0.46-16.81,2.36-20.59c1.89-3.78,7.42-9.44,16.6-16.95c12.99-10.58,22.17-20.18,27.5-28.78
						C204.58,782.7,207.06,772.17,206.65,759.71z M155.84,873.24l-49.12,1.6l1.49,45.68l49.11-1.6L155.84,873.24z" class="colorffffff svgShape"/><path fill="none" stroke="#be6dff" stroke-linecap="round" stroke-linejoin="round" stroke-miterlimit="10" stroke-width="5.152" d="M460.79,58.96c-4.12-12.97-12.48-22.82-25.08-29.56c-12.6-6.73-29.3-6.79-50.08-0.18
					c-19.7,6.26-33.21,16.41-40.52,30.45c-7.31,14.04-8.43,29.72-3.36,47.06l39.47-7.5c-6.53-20.89-2.62-33.61,11.74-38.17
					c4.65-1.48,9.15-1.37,13.51,0.33c4.36,1.7,7.44,5.39,9.24,11.07c1.97,6.19,2.24,11.96,0.84,17.3
					c-1.41,5.35-4.85,12.3-10.3,20.85c-6.54,10.29-9.74,17.96-9.61,23.01c0.14,5.04,1.88,12.86,5.25,23.46l1.82,5.72l35.64-11.33
					c-2.56-8.06-3.5-13.85-2.82-17.38c0.68-3.53,3.89-9.42,9.66-17.7c8.18-11.66,13.46-21.62,15.84-29.89
					C464.41,78.23,464,69.05,460.79,58.96z M445.46,163.52l-39.79,12.65l11.76,37.01l39.8-12.64L445.46,163.52z" class="colorStroke6dffb1 svgStroke"/><path fill="#7919c5" d="M2503.54,1160.45c-12.75-17.9-35.73-29.42-68.92-34.56c-31.43-4.87-57.01-0.14-76.7,14.2
						c-19.71,14.34-32,35.18-36.87,62.56l59.54,16.71c5.31-33.25,19.43-48.13,42.33-44.57c7.44,1.14,13.57,4.39,18.39,9.7
						c4.86,5.33,6.57,12.52,5.16,21.59c-1.53,9.88-5.1,18.02-10.7,24.43c-5.61,6.4-15.08,13.63-28.47,21.67
						c-16.09,9.7-25.75,18.09-29.02,25.12c-3.27,7.04-6.23,19.03-8.84,35.94l-1.43,9.12l56.89,8.82
						c1.99-12.87,4.67-21.48,8.02-25.89c3.34-4.39,11.83-10.33,25.43-17.78c19.25-10.45,33.36-20.58,42.34-30.33
						c8.95-9.76,14.67-22.71,17.18-38.81C2521.06,1197.69,2516.29,1178.37,2503.54,1160.45z M2361.56,1342.15l-9.16,59.07
						l63.52,9.84l9.14-59.07L2361.56,1342.15z" class="color847cff svgShape"/><path fill="none" stroke="#211f23" stroke-linecap="round" stroke-linejoin="round" stroke-miterlimit="10" stroke-width="6.014" d="M2314,86.48c-4.7-10.38-15.22-18.53-31.58-24.44c-15.5-5.61-28.97-5.75-40.42-0.43
					c-11.43,5.34-19.76,14.71-24.97,28.14l28.6,14.43c6.01-16.38,14.67-22.53,25.97-18.44c3.66,1.33,6.45,3.59,8.38,6.76
					c1.93,3.2,2.08,7.02,0.47,11.5c-1.76,4.86-4.39,8.65-7.88,11.35c-3.48,2.69-9.03,5.43-16.63,8.18
					c-9.14,3.34-14.89,6.63-17.25,9.89c-2.37,3.25-5.06,9.04-8.08,17.38l-1.63,4.5l28.04,10.14c2.3-6.33,4.51-10.44,6.66-12.36
					c2.15-1.89,7.04-4.07,14.71-6.49c10.82-3.4,19.01-7.14,24.53-11.21c5.53-4.08,9.73-10.08,12.6-18.01
					C2319.21,107.14,2318.7,96.85,2314,86.48z M2223.73,164.69l-10.54,29.11l31.31,11.34l10.53-29.11L2223.73,164.69z" class="colorStroke231f20 svgStroke"/><path fill="#7808d0" d="M2288.01,1602.66c-15.5-3.53-33.45,1.31-53.84,14.49c-19.33,12.5-30.85,27.37-34.57,44.58
					c-3.74,17.23-0.34,34.4,10.19,51.53l40.19-19.63c-13.14-20.52-12.67-35.34,1.41-44.45c4.56-2.95,9.43-4.16,14.6-3.61
					c5.18,0.55,9.56,3.61,13.18,9.17c3.93,6.08,5.91,12.19,5.97,18.34c0.05,6.15-1.59,14.62-4.95,25.4
					c-4.01,12.98-5.19,22.16-3.57,27.52c1.62,5.38,5.8,13.27,12.52,23.66l3.63,5.61l34.95-22.61c-5.11-7.9-7.83-13.84-8.14-17.83
					c-0.3-3.99,1.42-11.26,5.19-21.84c5.36-14.92,8.1-27.16,8.24-36.75c0.14-9.58-2.99-19.31-9.4-29.22
					C2315.38,1614.32,2303.51,1606.19,2288.01,1602.66z M2298.8,1769.08l23.48,36.29l39.04-25.25l-23.49-36.3L2298.8,1769.08z" class="color6dffb1 svgShape"/><path fill="none" stroke="#211f23" stroke-linecap="round" stroke-linejoin="round" stroke-miterlimit="10" stroke-width="6.014" d="M306.04,1738.63c16.96-9.59,29.35-18.79,37.17-27.6c7.82-8.82,12.72-20.41,14.7-34.76
					c2.54-18.46-1.99-35.55-13.6-51.3c-11.6-15.73-32.21-25.63-61.78-29.71c-28.03-3.86-50.69,0.73-67.99,13.78
					c-17.29,13.04-27.92,31.77-31.85,56.18l53.19,13.96c4.23-29.65,16.56-43.07,36.99-40.26c6.61,0.91,12.12,3.69,16.5,8.36
					c4.37,4.66,6.02,11.03,4.9,19.12c-1.21,8.8-4.26,16.09-9.15,21.86c-4.89,5.79-13.21,12.36-25,19.71
					c-14.14,8.86-22.62,16.46-25.42,22.77c-2.8,6.31-5.25,17-7.33,32.09l-1.12,8.14l50.7,7c1.58-11.47,3.83-19.17,6.74-23.14
					C286.59,1750.85,294.05,1745.46,306.04,1738.63z M277.41,1796.45l-56.63-7.81l-7.25,52.65l56.62,7.81L277.41,1796.45z" class="colorStroke231f20 svgStroke"/><g class="color000000 svgShape"><path fill="#211f23" d="M1737.56,1864.97c2.65,29.27-11.38,57.72-36.51,72.95c-1.87,1.13-3.23,1.85-3.9,1.97
				c-244.99,42.93-475.93,45.74-717.15,0c-0.6-0.12-1.83-0.68-3.54-1.57c-31.29-16.43-48.87-50.79-44.42-85.84l27.52-216.75
				l-51.13-368.42l208.45-315.96l34.82,11.78l42.24,14.29l8.16,2.77h272.17l4.21-1.42l34.18-11.57l46.83-15.85l208.45,315.96
				l-51.13,368.42L1737.56,1864.97z" class="color231f20 svgShape"/><path fill="#fff" d="M1512.66,967.2c-1.01,30.28-5.13,60.28-14.6,88.99c-16,48.58-49.11,93.35-95.9,114
				c-43.68,19.27-95.96,15.42-138.4-6.45c-42.43-21.89-75.09-60.59-93.56-104.62c-12.7-30.26-18.95-63.18-18.5-95.99l42.24,14.29
				l8.16,2.77h272.17l4.21-1.42L1512.66,967.2z" class="colorffffff svgShape"/><path fill="#fff" d="M1206.88,907.35l28.56,116.63c16.52,49.57,68.44,78.87,119.06,65.88c1.17-0.3,2.35-0.62,3.52-0.96
				c31.02-8.97,55.56-32.76,66.18-63.25c15.69-45.04,29.66-125.29,29.04-124.36L1206.88,907.35z" class="colorffffff svgShape"/><path fill="none" stroke="#211f23" stroke-linecap="round" stroke-linejoin="round" stroke-miterlimit="10" stroke-width="8.039" d="M1424.19,1025.65c15.69-45.04,29.66-125.29,29.04-124.36l-246.35,6.06l28.56,116.63" class="colorStroke231f20 svgStroke"/><path fill="#211f23" d="M1832.5,2076.05l-135.35-796.94l-137.66-327.76c128.75-91.44,255.42-104.14,360.79,73.48
				c32.22,54.32,54.54,113.93,66.75,175.89l127.16,645.3c22.83,115.88-64.1,224.43-182.16,227.47L1832.5,2076.05z" class="color231f20 svgShape"/><path fill="#211f23" d="M949.44,1930.69l48.64-638.23l121.59-341.11c-163.49-112.79-366.65-65.46-390.18,240.38l-69.32,692.79
				c-1.58,15.78-1.1,31.72,1.9,47.29C689.67,2075.35,890.44,2065.95,949.44,1930.69z" class="color231f20 svgShape"/><circle cx="1136.76" cy="815.08" r="93.68" fill="#fff" class="colorffffff svgShape"/><path fill="none" stroke="#211f23" stroke-linecap="round" stroke-linejoin="round" stroke-miterlimit="10" stroke-width="8.039" d="M1079.81,815.08c0-31.45,25.5-56.95,56.95-56.95c31.45,0,56.95,25.5,56.95,56.95" class="colorStroke231f20 svgStroke"/><path fill="none" stroke="#211f23" stroke-linecap="round" stroke-linejoin="round" stroke-miterlimit="10" stroke-width="8.039" d="M1122.29,761.97c-0.15,37.78,2.74,73.39,35.71,87.54" class="colorStroke231f20 svgStroke"/><circle cx="1136.76" cy="815.08" r="93.68" fill="none" stroke="#211f23" stroke-linecap="round" stroke-linejoin="round" stroke-miterlimit="10" stroke-width="8.039" class="colorStroke231f20 svgStroke"/><path fill="none" stroke="#211f23" stroke-linecap="round" stroke-linejoin="round" stroke-miterlimit="10" stroke-width="8.039" d="M1079.81,815.08c0-31.45,25.5-56.95,56.95-56.95c31.45,0,56.95,25.5,56.95,56.95" class="colorStroke231f20 svgStroke"/><path fill="none" stroke="#211f23" stroke-linecap="round" stroke-linejoin="round" stroke-miterlimit="10" stroke-width="8.039" d="M1122.29,761.97c-0.15,37.78,2.74,73.39,35.71,87.54" class="colorStroke231f20 svgStroke"/><circle cx="1529.81" cy="810.54" r="93.68" fill="#fff" class="colorffffff svgShape"/><circle cx="1529.81" cy="810.54" r="93.68" fill="none" stroke="#211f23" stroke-linecap="round" stroke-linejoin="round" stroke-miterlimit="10" stroke-width="8.039" class="colorStroke231f20 svgStroke"/><path fill="none" stroke="#211f23" stroke-linecap="round" stroke-linejoin="round" stroke-miterlimit="10" stroke-width="8.039" d="M1592.24,815.08c0-31.45-25.5-56.95-56.95-56.95c-31.45,0-56.95,25.5-56.95,56.95" class="colorStroke231f20 svgStroke"/><path fill="none" stroke="#211f23" stroke-linecap="round" stroke-linejoin="round" stroke-miterlimit="10" stroke-width="8.039" d="M1549.75,761.97c0.15,37.78-2.74,73.39-35.71,87.54" class="colorStroke231f20 svgStroke"/><path fill="#fff" d="M1509.85,726.03c8.46,59.42,9.93,121.9-12.82,177.44c-22.75,55.54-74.87,92.33-134.38,104.65
					c-17.24,2.67-35.15,3.36-54.43,0c-55-8.49-111.63-49.12-134.38-104.65c-22.75-55.54-21.29-118.02-12.82-177.44
					C1197.68,543.51,1464.39,546.07,1509.85,726.03z" class="colorffffff svgShape"/><path fill="none" stroke="#211f23" stroke-linecap="round" stroke-linejoin="round" stroke-miterlimit="10" stroke-width="8.039" d="M1509.85,726.03c8.46,59.42,9.93,121.9-12.82,177.44c-22.75,55.54-74.87,92.33-134.38,104.65
					c-17.24,2.67-35.15,3.36-54.43,0c-55-8.49-111.63-49.12-134.38-104.65c-22.75-55.54-21.29-118.02-12.82-177.44
					C1197.68,543.51,1464.39,546.07,1509.85,726.03z" class="colorStroke231f20 svgStroke"/><ellipse cx="1379.92" cy="794.09" fill="#211f23" class="color231f20 svgShape" rx="10.75" ry="17.15"/><ellipse cx="1269.35" cy="795.63" fill="#211f23" class="color231f20 svgShape" rx="10.75" ry="17.15"/><path fill="#211f23" d="M1383.48,749.34c8.23,5.67,34.63,20.59,40.67,6.64c4.28-9.88-5.05-20.31-11.53-26.79
					c-9.18-9.19-20.18-16.81-32.57-20.7c-10.56-3.32-27.39,0.08-23.28,15.08C1359.49,733.46,1375.54,743.87,1383.48,749.34z" class="color231f20 svgShape"/><path fill="#211f23" d="M1263.62,774.76c-8.97,4.4-37.27,15.29-41.2,0.61c-2.78-10.4,7.97-19.35,15.33-24.82
					c10.43-7.74,22.42-13.67,35.25-15.71c10.94-1.74,27.08,4.09,20.82,18.33C1289.69,762.56,1272.28,770.51,1263.62,774.76z" class="color231f20 svgShape"/><path fill="#211f23" d="M1599.69,650.24c-7.46,13.01-19.06,12.05-30.66,18.09c-10.83,5.63-18.34,16.16-28.19,23.17
					c-21.86,15.57-52.95,16.93-76.08,3.32c-12.01-7.07-20.66-21.74-34.1-18.04c-9.73,12.48-26.56,19.01-42.16,16.34
					c-23.17-3.95-42.51-26.06-65.75-22.52c-23.15,3.52-38.63,31.63-62,30.2c-9.51-0.58-17.87-6.16-25.81-11.42
					c-7.94-5.26-16.56-10.58-26.08-10.54s-16.18,3.49-17.7,12.9c-6.31,39,3.01,79.57-5.56,118.14c-1.28,5.74-3.01,11.53-6.52,16.26
					c-3.51,4.72-9.1,8.24-14.97,7.91c-22.93-1.3-24.64-58.34-26.26-75.05c-3.08-31.81-2.34-63.85-1.57-95.75
					c0.22-8.92,0.47-18.06,3.76-26.36c6.21-15.69,21.76-25.29,36.34-33.79c9.02-35.43,41.45-63.77,77.96-61.69
					c19.66,1.12,39.08,9.5,58.47,6.05c16.44-2.93,30.23-13.96,46-19.47c18.33-6.41,39.3-4.86,56.49,4.16
					c14.86,7.8,27.8,21.12,44.54,22.34c12.52,0.92,24.29-5.25,36.17-9.3c18.85-6.43,40.31-7.48,58.22,1.22
					c24.62,11.95,37.67,39.21,45.46,65.44C1603.45,624.47,1606.24,638.81,1599.69,650.24z" class="color231f20 svgShape"/><path fill="#211f23" d="M1479.29,760.81c0.85,19.53,1.78,39.51,9.14,57.63c2.5,6.15,6.8,12.76,13.41,13.27
					c7.3,0.56,12.75-6.62,15.53-13.4c5.68-13.88,6.54-29.19,7.01-44.18c0.74-23.71,0.68-47.44-0.16-71.14
					c-0.38-10.46-1.03-21.37-6.22-30.46c-5.19-9.09-16.35-15.67-26.23-12.2C1463.73,670.17,1478.37,739.62,1479.29,760.81z" class="color231f20 svgShape"/><path fill="#fff" d="M1309.82,844.77c-9.96-1.18-19.78-3.6-29.15-7.17c-6.94-2.64-16.25-4.45-20.01-11.31
						c-1.46-2.67-2.2-6.01-0.86-8.75c0.7-1.42,1.89-2.54,3.21-3.41c4.74-3.11,10.82-3.03,16.49-2.84
						c17.1,0.58,27.53,1.43,44.63,2.01L1309.82,844.77z" class="colorffffff svgShape"/><path fill="none" stroke="#211f23" stroke-linecap="round" stroke-linejoin="round" stroke-miterlimit="10" stroke-width="8.039" d="M1309.82,844.77c-9.96-1.18-19.78-3.6-29.15-7.17c-6.94-2.64-16.25-4.45-20.01-11.31
						c-1.46-2.67-2.2-6.01-0.86-8.75c0.7-1.42,1.89-2.54,3.21-3.41c4.74-3.11,10.82-3.03,16.49-2.84
						c17.1,0.58,27.53,1.43,44.63,2.01" class="colorStroke231f20 svgStroke"/><line x1="1307.9" x2="1360.24" y1="879.19" y2="859.04" fill="none" stroke="#211f23" stroke-linecap="round" stroke-linejoin="round" stroke-miterlimit="10" stroke-width="8.039" class="colorStroke231f20 svgStroke"/><path fill="#fff" d="M1283.43,976.46c15.83,15.71,11.16,41.9,5.36,63.43c-8.7,32.29-17.4,64.58-26.1,96.87
					c-3.77,13.98-7.75,28.39-16.82,39.68c-9.07,11.28-24.67,18.65-38.28,13.73c-13.64-4.93-18.22-20.16-18.31-34.67
					c-0.1-14.51,4.43-28.6,8.9-42.4c11.02-33.98,22.04-67.96,33.06-101.94c4.14-12.77,8.78-26.29,19.26-34.69
					C1260.97,968.07,1273.9,967,1283.43,976.46z" class="colorffffff svgShape"/><path fill="none" stroke="#211f23" stroke-linecap="round" stroke-linejoin="round" stroke-miterlimit="10" stroke-width="8.039" d="M1283.43,976.46c15.83,15.71,11.16,41.9,5.36,63.43c-8.7,32.29-17.4,64.58-26.1,96.87
					c-3.77,13.98-7.75,28.39-16.82,39.68c-9.07,11.28-24.67,18.65-38.28,13.73c-13.64-4.93-18.22-20.16-18.31-34.67
					c-0.1-14.51,4.43-28.6,8.9-42.4c11.02-33.98,22.04-67.96,33.06-101.94c4.14-12.77,8.78-26.29,19.26-34.69
					C1260.97,968.07,1273.9,967,1283.43,976.46z" class="colorStroke231f20 svgStroke"/><polygon fill="#fff" points="1144.68 1264.92 1128.39 1325.63 1108.11 1401.28 890.43 1320.21 924.14 1248.21 951.13 1190.58" class="colorffffff svgShape"/><path fill="#fff" d="M945.04,1210.29c23.47-81.34,53.1-160.75,82.86-240c7.65-20.36,16.19-41.92,33.82-54.65
					c17.64-12.73,47.25-11.12,56.48,8.57c7.61-6,17.5-11.46,27.1-12.82c17.24-2.45,34.9,12.32,35.54,29.72
					c5.73-3.32,12.6-5.36,19-7.01c6.41-1.65,13.59-1.42,19.18,2.11c3.01,1.9,5.4,4.65,7.45,7.56c4.26,6.05,7.24,12.99,8.68,20.25
					c10.15-3.38,21.75-6.23,31.88-2.8c25.81,8.74,12.68,48.81,6.69,67.58c-11.73,36.76-25.73,72.85-42.04,107.83
					c-14.76,31.66-19.18,66.34-37.72,96.8c-15.7,25.79-38.48,48-66.58,59.04L945.04,1210.29z" class="colorffffff svgShape"/><path fill="none" stroke="#211f23" stroke-linecap="round" stroke-linejoin="round" stroke-miterlimit="10" stroke-width="8.039" d="M1213.29,1188.43c18.54-30.46,48.7-122.87,60.44-159.63c5.99-18.77,19.13-58.83-6.69-67.58
					c-10.13-3.43-21.73-0.58-31.88,2.8c-1.44-7.26-4.42-14.2-8.68-20.25c-2.05-2.91-4.44-5.65-7.45-7.56
					c-5.59-3.54-12.78-3.77-19.18-2.11l-19,7.01c-12.82-32.46-34.67-34.85-62.64-16.9c-18.38-23.8-39.91-23.41-59.12-6.55" class="colorStroke231f20 svgStroke"/><polygon fill="#211f23" points="1144.92 1374.41 930.26 1964.17 715.59 1693.58 872.58 1238.91" class="color231f20 svgShape"/><polyline fill="none" stroke="#847cff" stroke-linecap="round" stroke-linejoin="round" stroke-miterlimit="10" stroke-width="8.039" points="930.26 1964.17 1144.92 1374.41 1119.67 1358.16 923.23 1261.05 872.58 1238.91 715.59 1693.58"/><g class="color000000 svgShape"><path fill="#fff" d="M956.94,2024.09c8.53,20.6,34.54,26.21,56.67,29.01c33.18,4.19,66.35,8.39,99.53,12.58
						c14.36,1.82,29.21,3.6,43.09-0.51c13.88-4.11,26.61-15.76,27.22-30.22c0.61-14.5-11.74-24.5-25.13-30.09
						c-13.39-5.59-28.15-6.75-42.61-7.84c-35.62-2.69-71.24-5.37-106.86-8.06c-13.39-1.01-27.66-1.84-39.4,4.66
						C957.7,2000.12,951.8,2011.68,956.94,2024.09z" class="colorffffff svgShape"/><path fill="none" stroke="#211f23" stroke-linecap="round" stroke-linejoin="round" stroke-miterlimit="10" stroke-width="6.014" d="M956.94,2024.09c8.53,20.6,34.54,26.21,56.67,29.01c33.18,4.19,66.35,8.39,99.53,12.58
						c14.36,1.82,29.21,3.6,43.09-0.51c13.88-4.11,26.61-15.76,27.22-30.22c0.61-14.5-11.74-24.5-25.13-30.09
						c-13.39-5.59-28.15-6.75-42.61-7.84c-35.62-2.69-71.24-5.37-106.86-8.06c-13.39-1.01-27.66-1.84-39.4,4.66
						C957.7,2000.12,951.8,2011.68,956.94,2024.09z" class="colorStroke231f20 svgStroke"/><path fill="#fff" d="M1341.01,1794.85l-58.24,2.86c-77.96-7.59-156.34-10.08-234.65-12.41c-21.74-0.65-44.92-0.92-63.39,10.58
						s-28.21,39.5-13.49,55.51c-8.44,4.77-17.24,11.85-22.14,20.21c-8.8,15.02-1.83,36.97,14.03,44.16
						c-5.24,4.04-9.73,9.63-13.69,14.93c-3.96,5.3-6.47,12.03-5.32,18.55c0.62,3.51,2.25,6.76,4.17,9.76
						c3.98,6.23,9.28,11.62,15.45,15.71c-6.97,8.11-14.01,17.76-14.68,28.43c-1.7,27.2,40.36,30.24,60,31.81
						c38.47,3.08,77.16,3.81,115.71,1.99c34.89-1.65,68.66,7.41,103.88,1.8c25.7-4.09,50.92-14.07,70.76-30.72l35.84,4.57
						l99.51,12.7l2.55-235.16L1341.01,1794.85z" class="colorffffff svgShape"/><path fill="none" stroke="#211f23" stroke-linecap="round" stroke-linejoin="round" stroke-miterlimit="10" stroke-width="6.014" d="M1341.01,1794.85l-58.24,2.86c-77.96-7.59-156.34-10.08-234.65-12.41c-21.74-0.65-44.92-0.92-63.39,10.58
						s-28.21,39.5-13.49,55.51c-8.44,4.77-17.24,11.85-22.14,20.21c-8.8,15.02-1.83,36.97,14.03,44.16
						c-5.24,4.04-9.73,9.63-13.69,14.93c-3.96,5.3-6.47,12.03-5.32,18.55c0.62,3.51,2.25,6.76,4.17,9.76
						c3.98,6.23,9.28,11.62,15.45,15.71c-6.97,8.11-14.01,17.76-14.68,28.43c-1.7,27.2,40.36,30.24,60,31.81
						c38.47,3.08,77.16,3.81,115.71,1.99c34.89-1.65,68.66,7.41,103.88,1.8c25.7-4.09,50.92-14.07,70.76-30.72l35.84,4.57
						l99.51,12.7l2.55-235.16L1341.01,1794.85z" class="colorStroke231f20 svgStroke"/><polygon fill="#211f23" points="1835.83 1770.58 1832.5 2076.05 1385.59 2053.9 1386.83 1765.9" class="color231f20 svgShape"/><polyline fill="none" stroke="#847cff" stroke-linecap="round" stroke-linejoin="round" stroke-miterlimit="10" stroke-width="8.039" points="1386.98 1791.11 1386.83 1765.9 1878.52 1775.66"/></g><line x1="1735.21" x2="1763.97" y1="1503.19" y2="1295.93" fill="none" stroke="#c57cff" stroke-linecap="round" stroke-linejoin="round" stroke-miterlimit="10" stroke-width="8.039" class="colorStroke847cff svgStroke"/></g></svg>