<svg xmlns="http://www.w3.org/2000/svg" enable-background="new 0 0 3000 2500" viewBox="0 0 3000 2500"><path fill="none" d="M42.7 42.6h2914.5v2414.8H42.7z"/><defs><filter id="a" width="1570.5" height="672.2" x="1386.8" y="1216.3" filterUnits="userSpaceOnUse"><feFlood flood-color="#fff" flood-opacity="1" result="back"/><feBlend in="SourceGraphic" in2="back"/></filter></defs><mask id="b" width="1570.5" height="672.2" x="1386.8" y="1216.3" maskUnits="userSpaceOnUse"><g filter="url(#a)"><linearGradient id="c" x1="1375.984" x2="2969.006" y1="1269.799" y2="1839.832" gradientUnits="userSpaceOnUse"><stop class="stopColorffffff svgShape" offset="0" stop-color="#fff"/><stop class="stopColor000000 svgShape" offset="1"/></linearGradient><path fill="url(#c)" d="m1409.1 1311-22.4 4.7 878.7 396.1s686.6 228.3 691.8 165.8c5.2-62.5-1385.1-661.3-1385.1-661.3s-181.2 98.1-163 94.7z" mask="url(#b)"/></g></mask><linearGradient id="d" x1="1375.984" x2="2969.006" y1="1269.799" y2="1839.832" gradientUnits="userSpaceOnUse"><stop class="stopColor0c5c93 svgShape" offset="0" stop-color="#480c93"/><stop class="stopColor0c5c93 svgShape" offset="1" stop-color="#480c93"/></linearGradient><path fill="url(#d)" d="m1409.1 1311-22.4 4.7 878.7 396.1s686.6 228.3 691.8 165.8c5.2-62.5-1385.1-661.3-1385.1-661.3s-181.2 98.1-163 94.7z" opacity=".2"/><defs><filter id="e" width="304.4" height="121.4" x="1358.2" y="2124.9" filterUnits="userSpaceOnUse"><feFlood flood-color="#fff" flood-opacity="1" result="back"/><feBlend in="SourceGraphic" in2="back"/></filter></defs><mask id="f" width="304.4" height="121.4" x="1358.2" y="2124.9" maskUnits="userSpaceOnUse"><g filter="url(#e)"><linearGradient id="g" x1="1362.277" x2="1664.255" y1="2125.17" y2="2233.227" gradientUnits="userSpaceOnUse"><stop class="stopColorffffff svgShape" offset="0" stop-color="#fff"/><stop class="stopColor000000 svgShape" offset="1"/></linearGradient><path fill="url(#g)" d="M1479.6 2124.9s-137.4 6.4-119.9 31.2c17.5 24.7 259.1 105.2 298.1 87.8 39.1-17.4-178.2-119-178.2-119z" mask="url(#f)"/></g></mask><linearGradient id="h" x1="1362.277" x2="1664.255" y1="2125.17" y2="2233.227" gradientUnits="userSpaceOnUse"><stop class="stopColor0c5c93 svgShape" offset="0" stop-color="#480c93"/><stop class="stopColor0c5c93 svgShape" offset="1" stop-color="#480c93"/></linearGradient><path fill="url(#h)" d="M1479.6 2124.9s-137.4 6.4-119.9 31.2c17.5 24.7 259.1 105.2 298.1 87.8 39.1-17.4-178.2-119-178.2-119z" opacity=".2"/><defs><filter id="i" width="1306.2" height="629" x="477.5" y="1485.9" filterUnits="userSpaceOnUse"><feFlood flood-color="#fff" flood-opacity="1" result="back"/><feBlend in="SourceGraphic" in2="back"/></filter></defs><mask id="j" width="1306.2" height="629" x="477.5" y="1485.9" maskUnits="userSpaceOnUse"><g filter="url(#i)"><linearGradient id="k" x1="519.641" x2="1722.493" y1="1580.534" y2="2010.952" gradientUnits="userSpaceOnUse"><stop class="stopColorffffff svgShape" offset="0" stop-color="#fff"/><stop class="stopColor000000 svgShape" offset="1"/></linearGradient><path fill="url(#k)" d="m488.7 1777 686.6 332.3c15 7.2 32.4 7.5 47.5.6l547.4-248.8c17.9-8.1 18.2-33.4.5-41.9L1096.9 1493c-19-9.2-41-9.4-60.2-.7l-547.6 248.9c-15.3 6.9-15.5 28.5-.4 35.8z" mask="url(#j)"/></g></mask><linearGradient id="l" x1="519.641" x2="1722.493" y1="1580.534" y2="2010.952" gradientUnits="userSpaceOnUse"><stop class="stopColor0c5c93 svgShape" offset="0" stop-color="#480c93"/><stop class="stopColor0c5c93 svgShape" offset="1" stop-color="#480c93"/></linearGradient><path fill="url(#l)" d="m488.7 1777 686.6 332.3c15 7.2 32.4 7.5 47.5.6l547.4-248.8c17.9-8.1 18.2-33.4.5-41.9L1096.9 1493c-19-9.2-41-9.4-60.2-.7l-547.6 248.9c-15.3 6.9-15.5 28.5-.4 35.8z" opacity=".2"/><linearGradient id="m" x1="1413.509" x2="2473.696" y1="1302.865" y2="1302.865" gradientUnits="userSpaceOnUse"><stop class="stopColore2e2e2 svgShape" offset="0" stop-color="#e2e2e2"/><stop class="stopColorfdfdfd svgShape" offset="1" stop-color="#fdfdfd"/></linearGradient><path fill="url(#m)" d="m1606.5 1051.3-193 89.2 867.3 413.9 192.9-89.2z"/><linearGradient id="n" x1="2280.754" x2="2473.696" y1="1525.051" y2="1525.051" gradientUnits="userSpaceOnUse"><stop class="stopColore2e2e2 svgShape" offset="0" stop-color="#e2e2e2"/><stop class="stopColorfdfdfd svgShape" offset="1" stop-color="#fdfdfd"/></linearGradient><path fill="url(#n)" d="m2280.8 1554.4 192.9-89.2v30.5l-192.9 89.2z"/><path fill="#fcfcfc" d="m1413.5 1171 867.3 413.9v-30.5l-867.3-413.9z" class="colorfcfcfc svgShape"/><linearGradient id="o" x1="1453.755" x2="1605.139" y1="852.876" y2="1084.105" gradientUnits="userSpaceOnUse"><stop class="stopColore2e2e2 svgShape" offset="0" stop-color="#e2e2e2"/><stop class="stopColorc1bfc0 svgShape" offset="1" stop-color="#d8b2ff"/></linearGradient><path fill="url(#o)" d="m1447.3 1157.2 186.8-92.1.1-250.9-185.9 42.3z"/><defs><filter id="p" width="317.4" height="136" x="2039.6" y="1363.8" filterUnits="userSpaceOnUse"><feFlood flood-color="#fff" flood-opacity="1" result="back"/><feBlend in="SourceGraphic" in2="back"/></filter></defs><mask id="q" width="317.4" height="136" x="2039.6" y="1363.8" maskUnits="userSpaceOnUse"><g filter="url(#p)"><linearGradient id="r" x1="2048.243" x2="2336.915" y1="1383.372" y2="1486.668" gradientUnits="userSpaceOnUse"><stop class="stopColorffffff svgShape" offset="0" stop-color="#fff"/><stop class="stopColor000000 svgShape" offset="1"/></linearGradient><path fill="url(#r)" d="m2058.5 1408.4-18.9 13 160.4 78.4 157-68.1-212.4-67.9z" mask="url(#q)"/></g></mask><linearGradient id="s" x1="2048.243" x2="2336.915" y1="1383.372" y2="1486.668" gradientUnits="userSpaceOnUse"><stop class="stopColor0c5c93 svgShape" offset="0" stop-color="#480c93"/><stop class="stopColor0c5c93 svgShape" offset="1" stop-color="#480c93"/></linearGradient><path fill="url(#s)" d="m2058.5 1408.4-18.9 13 160.4 78.4 157-68.1-212.4-67.9z" opacity=".3"/><linearGradient id="t" x1="2134.97" x2="2172.398" y1="1165.791" y2="1222.958" gradientUnits="userSpaceOnUse"><stop class="stopColor0988c9 svgShape" offset="0" stop-color="#7509c9"/><stop class="stopColor3951a2 svgShape" offset="1" stop-color="#7808d0"/></linearGradient><path fill="url(#t)" d="M2248.7 1170.1v.2c0 1.7-.9 3.5-2.8 4.4l-137.3 65.5c-1.6.8-3.3 1.2-5.1 1.2h-.1c-2.3.1-4.6-.3-6.7-1.4l-36-18c-1.5-.7-2.3-2.1-2.4-3.5-.1-1.7.7-3.4 2.4-4.2l137.8-66c4-1.9 8.7-1.9 12.7.2l34.7 17.6c1.9.8 2.7 2.4 2.8 4z"/><linearGradient id="u" x1="2025.196" x2="2136.385" y1="1240.327" y2="1410.16" gradientUnits="userSpaceOnUse"><stop class="stopColor0988c9 svgShape" offset="0" stop-color="#7509c9"/><stop class="stopColor3951a2 svgShape" offset="1" stop-color="#7808d0"/></linearGradient><path fill="url(#u)" d="M2103.6 1241.5v190.1c-2.3.1-4.6-.3-6.7-1.4l-36-18c-1.6-.8-2.4-2.4-2.4-3.9v-189.8c.1 1.4.9 2.8 2.4 3.5l36 18c2 1.2 4.3 1.6 6.7 1.5z"/><linearGradient id="v" x1="2127.096" x2="2226.41" y1="1226.07" y2="1377.764" gradientUnits="userSpaceOnUse"><stop class="stopColor3060ab svgShape" offset="0" stop-color="#7530ab"/><stop class="stopColor0c5c93 svgShape" offset=".995" stop-color="#480c93"/></linearGradient><path fill="url(#v)" d="M2248.7 1170.4v190.1c0 1.8-.9 3.6-2.8 4.5l-137.3 65.4c-1.6.8-3.3 1.2-5.1 1.3v-190.2c1.7-.1 3.5-.5 5.1-1.2l137.3-65.5c1.9-.9 2.8-2.7 2.8-4.4z"/><path fill="#fdfdfd" d="m2211.4 1148.5-142.7 66.9 37.8 19.1 139.6-68.4z" class="colorfdfdfd svgShape"/><path fill="#a552fb" d="m2058.5 1265.3 45.1 21.3v-13.3l-45.1-21.3zM2058.5 1377.1l45.1 21.3v-13.3l-45.1-21.3z" class="color528afb svgShape"/><linearGradient id="w" x1="2186.459" x2="2223.886" y1="1190.571" y2="1247.738" gradientUnits="userSpaceOnUse"><stop class="stopColor0988c9 svgShape" offset="0" stop-color="#7509c9"/><stop class="stopColor3951a2 svgShape" offset="1" stop-color="#7808d0"/></linearGradient><path fill="url(#w)" d="M2300.2 1194.9v.2c0 1.7-.9 3.5-2.8 4.4l-137.3 65.5c-1.6.8-3.3 1.2-5.1 1.2h-.1c-2.3.1-4.6-.3-6.7-1.4l-36-18c-1.5-.7-2.3-2.1-2.4-3.5-.1-1.7.7-3.4 2.4-4.2l137.8-66c4-1.9 8.7-1.9 12.7.2l34.7 17.6c1.8.8 2.7 2.4 2.8 4z"/><linearGradient id="x" x1="2076.685" x2="2187.874" y1="1265.106" y2="1434.939" gradientUnits="userSpaceOnUse"><stop class="stopColor0988c9 svgShape" offset="0" stop-color="#7509c9"/><stop class="stopColor3951a2 svgShape" offset="1" stop-color="#7808d0"/></linearGradient><path fill="url(#x)" d="M2155.1 1266.3v190.1c-2.3.1-4.6-.3-6.7-1.4l-36-18c-1.6-.8-2.4-2.4-2.4-3.9v-189.8c.1 1.4.9 2.8 2.4 3.5l36 18c2 1.1 4.3 1.6 6.7 1.5z"/><linearGradient id="y" x1="2178.584" x2="2277.898" y1="1250.849" y2="1402.544" gradientUnits="userSpaceOnUse"><stop class="stopColor3060ab svgShape" offset="0" stop-color="#7530ab"/><stop class="stopColor0c5c93 svgShape" offset=".995" stop-color="#480c93"/></linearGradient><path fill="url(#y)" d="M2300.2 1195.2v190.1c0 1.8-.9 3.6-2.8 4.5l-137.3 65.4c-1.6.8-3.3 1.2-5.1 1.3v-190.2c1.7-.1 3.5-.5 5.1-1.2l137.3-65.5c1.9-.9 2.8-2.7 2.8-4.4z"/><path fill="#fdfdfd" d="m2262.9 1173.3-142.7 66.9 37.8 19.1 139.6-68.5z" class="colorfdfdfd svgShape"/><path fill="#a552fb" d="m2110 1290.1 45.1 21.3v-13.3l-45.1-21.3zM2110 1401.9l45.1 21.3v-13.3l-45.1-21.3z" class="color528afb svgShape"/><linearGradient id="z" x1="2237.948" x2="2275.375" y1="1215.35" y2="1272.517" gradientUnits="userSpaceOnUse"><stop class="stopColor0988c9 svgShape" offset="0" stop-color="#7509c9"/><stop class="stopColor3951a2 svgShape" offset="1" stop-color="#7808d0"/></linearGradient><path fill="url(#z)" d="M2351.7 1219.7v.2c0 1.7-.9 3.5-2.8 4.4l-137.3 65.5c-1.6.8-3.3 1.2-5.1 1.2h-.1c-2.3.1-4.6-.3-6.7-1.4l-36-18c-1.5-.7-2.3-2.1-2.4-3.5-.1-1.7.7-3.4 2.4-4.2l137.8-66c4-1.9 8.7-1.9 12.7.2l34.7 17.6c1.8.8 2.7 2.4 2.8 4z"/><linearGradient id="A" x1="2128.174" x2="2239.363" y1="1289.885" y2="1459.719" gradientUnits="userSpaceOnUse"><stop class="stopColor0988c9 svgShape" offset="0" stop-color="#7509c9"/><stop class="stopColor3951a2 svgShape" offset="1" stop-color="#7808d0"/></linearGradient><path fill="url(#A)" d="M2206.6 1291.1v190.1c-2.3.1-4.6-.3-6.7-1.4l-36-18c-1.6-.8-2.4-2.4-2.4-3.9v-189.8c.1 1.4.9 2.8 2.4 3.5l36 18c2 1.1 4.3 1.6 6.7 1.5z"/><linearGradient id="B" x1="2230.073" x2="2329.387" y1="1275.628" y2="1427.323" gradientUnits="userSpaceOnUse"><stop class="stopColor0988c9 svgShape" offset="0" stop-color="#7509c9"/><stop class="stopColor3951a2 svgShape" offset="1" stop-color="#7808d0"/></linearGradient><path fill="url(#B)" d="M2351.7 1219.9V1410c0 1.8-.9 3.6-2.8 4.5l-137.3 65.4c-1.6.8-3.3 1.2-5.1 1.3V1291c1.7-.1 3.5-.5 5.1-1.2l137.3-65.5c1.9-.9 2.8-2.6 2.8-4.4z"/><path fill="#fdfdfd" d="m2314.4 1198-142.8 66.9 37.9 19.1 139.5-68.4z" class="colorfdfdfd svgShape"/><path fill="#a552fb" d="m2161.5 1314.9 45.1 21.3v-13.3l-45.1-21.3zM2161.5 1426.7l45.1 21.3v-13.3l-45.1-21.3z" class="color528afb svgShape"/><defs><filter id="C" width="704.3" height="186.6" x="1479.6" y="1142.6" filterUnits="userSpaceOnUse"><feFlood flood-color="#fff" flood-opacity="1" result="back"/><feBlend in="SourceGraphic" in2="back"/></filter></defs><mask id="D" width="704.3" height="186.6" x="1479.6" y="1142.6" maskUnits="userSpaceOnUse"><g filter="url(#C)"><linearGradient id="E" x1="1479.493" x2="2170.915" y1="1115.915" y2="1363.327" gradientUnits="userSpaceOnUse"><stop class="stopColorffffff svgShape" offset="0" stop-color="#fff"/><stop class="stopColor000000 svgShape" offset="1"/></linearGradient><path fill="url(#E)" d="m1491.9 1142.6-12.3 5.9 391.4 180.7h313L1818.6 1164z" mask="url(#D)"/></g></mask><linearGradient id="F" x1="1479.493" x2="2170.915" y1="1115.915" y2="1363.327" gradientUnits="userSpaceOnUse"><stop class="stopColor0c5c93 svgShape" offset="0" stop-color="#480c93"/><stop class="stopColor0c5c93 svgShape" offset="1" stop-color="#480c93"/></linearGradient><path fill="url(#F)" d="m1491.9 1142.6-12.3 5.9 391.4 180.7h313L1818.6 1164z" opacity=".3"/><linearGradient id="G" x1="1521.097" x2="1620.952" y1="1108.879" y2="1232.365" gradientUnits="userSpaceOnUse"><stop class="stopColorf87d0b svgShape" offset="0" stop-color="#f8b80b"/><stop class="stopColorf7cb14 svgShape" offset="1" stop-color="#f7ba14"/></linearGradient><path fill="url(#G)" d="M1633.7 1177.9v30.5c0 1.2-.5 2.2-1.4 2.8-.5.5-1.2.7-1.8.8-.7.1-1.4 0-2-.3l-131.1-60.7c-3.3-1.5-5.4-4.8-5.4-8.5v-28.2c0-1.7.9-3.1 2.1-3.9.4-.2.8-.4 1.2-.5 1.1-.4 2.2-.3 3.4.2l130.4 60.3c1.3.6 2.4 1.5 3.2 2.7.9 1.4 1.4 3.1 1.4 4.8z"/><linearGradient id="H" x1="1693.006" x2="1691.884" y1="1019.406" y2="1018.979" gradientUnits="userSpaceOnUse"><stop class="stopColore2e2e2 svgShape" offset="0" stop-color="#e2e2e2"/><stop class="stopColorf5f4f3 svgShape" offset="1" stop-color="#f4f4f4"/></linearGradient><path fill="url(#H)" d="M1691 1019.8c.7-.7 1.7-1.2 2.8-1.3l-2.8 1.3z"/><linearGradient id="I" x1="1804.176" x2="1521.286" y1="1149.356" y2="1041.588" gradientUnits="userSpaceOnUse"><stop class="stopColorf87d0b svgShape" offset="0" stop-color="#f8b80b"/><stop class="stopColorf7cb14 svgShape" offset="1" stop-color="#f7ba14"/></linearGradient><path fill="url(#I)" d="m1829.9 1081.9-43.6 20.1-154 71.1c-.8-1.1-1.9-2.1-3.2-2.7l-130.4-60.3c-1.1-.5-2.3-.6-3.4-.2l195.8-90.1 2.8-1.3c.8-.1 1.6 0 2.5.4l130.4 60.4c1.2.6 2.3 1.5 3.1 2.6z"/><linearGradient id="J" x1="1809.146" x2="1653.58" y1="1176.29" y2="1117.026" gradientUnits="userSpaceOnUse"><stop class="stopColorf87d0b svgShape" offset="0" stop-color="#f8b80b"/><stop class="stopColorf7cb14 svgShape" offset="1" stop-color="#f7ba14"/></linearGradient><path fill="url(#J)" d="M1831.4 1086.7v30.5c0 1.2-.6 2.3-1.5 2.9v.8l-197.6 90.3c.8-.6 1.4-1.6 1.4-2.8v-30.5c0-1.7-.5-3.4-1.5-4.7l154-71.1 43.6-20.1c1 1.3 1.6 3 1.6 4.7z"/><path fill="#fefefe" d="M1497.3 1121.7v19.3c0 2.2 1.3 4.1 3.2 5l133.1 61v-28.2l-131.3-60.4c-2.3-1.1-5 .7-5 3.3z" class="colorfefefe svgShape"/><path fill="#e7e7e7" d="m1633.7 1177.9 197.7-91.2v30.5l-197.7 89.8z" class="colordfeeef svgShape"/><linearGradient id="K" x1="1521.097" x2="1620.953" y1="1060.293" y2="1183.778" gradientUnits="userSpaceOnUse"><stop class="stopColor0988c9 svgShape" offset="0" stop-color="#7509c9"/><stop class="stopColor3951a2 svgShape" offset="1" stop-color="#7808d0"/></linearGradient><path fill="url(#K)" d="M1633.7 1129.3v30.5c0 1.2-.5 2.2-1.4 2.8-.5.5-1.2.7-1.8.8-.7.1-1.4 0-2-.3l-131.1-60.7c-3.3-1.5-5.4-4.8-5.4-8.5v-28.2c0-1.7.9-3.1 2.1-3.9.4-.2.8-.4 1.2-.5 1.1-.4 2.2-.3 3.4.2l130.4 60.3c1.3.6 2.4 1.5 3.2 2.7.9 1.4 1.4 3.1 1.4 4.8z"/><linearGradient id="L" x1="1693.006" x2="1691.884" y1="970.819" y2="970.392" gradientUnits="userSpaceOnUse"><stop class="stopColore2e2e2 svgShape" offset="0" stop-color="#e2e2e2"/><stop class="stopColorf5f4f3 svgShape" offset="1" stop-color="#f4f4f4"/></linearGradient><path fill="url(#L)" d="M1691 971.2c.7-.7 1.7-1.2 2.8-1.3l-2.8 1.3z"/><linearGradient id="M" x1="1804.176" x2="1521.286" y1="1100.769" y2="993.001" gradientUnits="userSpaceOnUse"><stop class="stopColor0988c9 svgShape" offset="0" stop-color="#7509c9"/><stop class="stopColor3951a2 svgShape" offset="1" stop-color="#7808d0"/></linearGradient><path fill="url(#M)" d="m1829.9 1033.3-43.6 20.1-154 71.1c-.8-1.1-1.9-2.1-3.2-2.7l-130.4-60.3c-1.1-.5-2.3-.6-3.4-.2l195.8-90.1 2.8-1.3c.8-.1 1.6 0 2.5.4l130.4 60.4c1.2.6 2.3 1.5 3.1 2.6z"/><path fill="none" stroke="#fff" stroke-miterlimit="10" stroke-width=".228" d="m1543.6 1054.8 143.8-66.2c4.6-2.1 9.8-2.1 14.4 0l80.7 37.4c5.8 2.7 5.8 10.9 0 13.6l-141.1 65.2c-5 2.3-10.8 2.3-15.8 0l-82.1-38c-5-2.4-5-9.7.1-12z" class="colorStrokeffffff svgStroke" opacity=".6"/><linearGradient id="N" x1="1809.146" x2="1653.58" y1="1127.703" y2="1068.439" gradientUnits="userSpaceOnUse"><stop class="stopColor0988c9 svgShape" offset="0" stop-color="#7509c9"/><stop class="stopColor3951a2 svgShape" offset="1" stop-color="#7808d0"/></linearGradient><path fill="url(#N)" d="M1831.4 1038.1v30.5c0 1.2-.6 2.3-1.5 2.9v.8l-197.6 90.3c.8-.6 1.4-1.6 1.4-2.8v-30.5c0-1.7-.5-3.4-1.5-4.7l154-71.1 43.6-20.1c1 1.3 1.6 3 1.6 4.7z"/><linearGradient id="O" x1="1633.734" x2="1831.405" y1="1098.26" y2="1098.26" gradientUnits="userSpaceOnUse"><stop class="stopColor0988c9 svgShape" offset="0" stop-color="#7509c9"/><stop class="stopColor3951a2 svgShape" offset="1" stop-color="#7808d0"/></linearGradient><path fill="url(#O)" d="m1633.7 1129.3 197.7-91.2v30.5l-197.7 89.8z"/><path fill="#fff" d="m1491.9 1065.8 134.5 63.2v27.1l-134.5-62.1z" class="colorffffff svgShape"/><linearGradient id="P" x1="1604.405" x2="1621.633" y1="1151.709" y2="1151.709" gradientUnits="userSpaceOnUse"><stop class="stopColor0988c9 svgShape" offset="0" stop-color="#7509c9"/><stop class="stopColor3951a2 svgShape" offset="1" stop-color="#7808d0"/></linearGradient><path fill="url(#P)" d="m1610.4 1137.5 11.2 5.1-5.6 23.3-3.6-9.8-8 3z"/><linearGradient id="Q" x1="1493.898" x2="1511.127" y1="1148.432" y2="1148.432" gradientUnits="userSpaceOnUse"><stop class="stopColor0988c9 svgShape" offset="0" stop-color="#7509c9"/><stop class="stopColor3951a2 svgShape" offset="1" stop-color="#7808d0"/></linearGradient><path fill="url(#Q)" d="m1499.9 1134.3 11.2 5-5.6 23.3-3.6-9.7-8 2.9z"/><linearGradient id="R" x1="12911.31" x2="13011.166" y1="1207.945" y2="1331.431" gradientTransform="matrix(-1 0 0 1 14903.81 0)" gradientUnits="userSpaceOnUse"><stop class="stopColorf87d0b svgShape" offset="0" stop-color="#f8b80b"/><stop class="stopColorf7cb14 svgShape" offset="1" stop-color="#f7ba14"/></linearGradient><path fill="url(#R)" d="M1879.9 1277v30.5c0 1.2.5 2.2 1.4 2.8.5.5 1.2.7 1.8.8.7.1 1.4 0 2-.3l131.1-60.7c3.3-1.5 5.4-4.8 5.4-8.5v-28.2c0-1.7-.9-3.1-2.1-3.9-.4-.2-.8-.4-1.2-.5-1.1-.4-2.2-.3-3.4.2l-130.4 60.3c-1.3.6-2.4 1.5-3.2 2.7-.9 1.4-1.4 3.1-1.4 4.8z"/><linearGradient id="S" x1="13083.219" x2="13082.098" y1="1118.472" y2="1118.045" gradientTransform="matrix(-1 0 0 1 14903.81 0)" gradientUnits="userSpaceOnUse"><stop class="stopColore2e2e2 svgShape" offset="0" stop-color="#e2e2e2"/><stop class="stopColorf5f4f3 svgShape" offset="1" stop-color="#f4f4f4"/></linearGradient><path fill="url(#S)" d="M1822.6 1118.9c-.7-.7-1.7-1.2-2.8-1.3l2.8 1.3z"/><linearGradient id="T" x1="13194.39" x2="12911.5" y1="1248.422" y2="1140.654" gradientTransform="matrix(-1 0 0 1 14903.81 0)" gradientUnits="userSpaceOnUse"><stop class="stopColorf87d0b svgShape" offset="0" stop-color="#f8b80b"/><stop class="stopColorf7cb14 svgShape" offset="1" stop-color="#f7ba14"/></linearGradient><path fill="url(#T)" d="m1683.7 1181 43.6 20.1 154 71.1c.8-1.1 1.9-2.1 3.2-2.7l130.4-60.3c1.1-.5 2.3-.6 3.4-.2l-195.8-90.1-2.8-1.3c-.8-.1-1.6 0-2.5.4l-130.4 60.4c-1.2.5-2.3 1.5-3.1 2.6z"/><linearGradient id="U" x1="13199.359" x2="13043.794" y1="1275.356" y2="1216.092" gradientTransform="matrix(-1 0 0 1 14903.81 0)" gradientUnits="userSpaceOnUse"><stop class="stopColorf87d0b svgShape" offset="0" stop-color="#f8b80b"/><stop class="stopColorf7cb14 svgShape" offset="1" stop-color="#f7ba14"/></linearGradient><path fill="url(#U)" d="M1682.2 1185.8v30.5c0 1.2.6 2.3 1.5 2.9v.8l197.6 90.3a3.5 3.5 0 0 1-1.4-2.8V1277c0-1.7.5-3.4 1.5-4.7l-154-71.1-43.6-20.1c-1 1.3-1.6 2.9-1.6 4.7z"/><path fill="#fefefe" d="M2016.3 1220.7v19.3c0 2.2-1.3 4.1-3.2 5l-133.1 61v-28.2l131.3-60.4c2.2-1 5 .7 5 3.3z" class="colorfefefe svgShape"/><path fill="#e7e7e7" d="m1879.9 1277-197.7-91.2v30.4l197.7 89.9z" class="colordfeeef svgShape"/><linearGradient id="V" x1="12911.31" x2="13011.166" y1="1159.358" y2="1282.844" gradientTransform="matrix(-1 0 0 1 14903.81 0)" gradientUnits="userSpaceOnUse"><stop class="stopColor0988c9 svgShape" offset="0" stop-color="#7509c9"/><stop class="stopColor3951a2 svgShape" offset="1" stop-color="#7808d0"/></linearGradient><path fill="url(#V)" d="M1879.9 1228.4v30.5c0 1.2.5 2.2 1.4 2.8.5.5 1.2.7 1.8.8.7.1 1.4 0 2-.3l131.1-60.7c3.3-1.5 5.4-4.8 5.4-8.5v-28.2c0-1.7-.9-3.1-2.1-3.9-.4-.2-.8-.4-1.2-.5-1.1-.4-2.2-.3-3.4.2l-130.4 60.3c-1.3.6-2.4 1.5-3.2 2.7-.9 1.4-1.4 3.1-1.4 4.8z"/><linearGradient id="W" x1="13083.219" x2="13082.098" y1="1069.885" y2="1069.458" gradientTransform="matrix(-1 0 0 1 14903.81 0)" gradientUnits="userSpaceOnUse"><stop class="stopColore2e2e2 svgShape" offset="0" stop-color="#e2e2e2"/><stop class="stopColorf5f4f3 svgShape" offset="1" stop-color="#f4f4f4"/></linearGradient><path fill="url(#W)" d="M1822.6 1070.3c-.7-.7-1.7-1.2-2.8-1.3l2.8 1.3z"/><linearGradient id="X" x1="13194.39" x2="12911.5" y1="1199.835" y2="1092.067" gradientTransform="matrix(-1 0 0 1 14903.81 0)" gradientUnits="userSpaceOnUse"><stop class="stopColor0988c9 svgShape" offset="0" stop-color="#7509c9"/><stop class="stopColor3951a2 svgShape" offset="1" stop-color="#7808d0"/></linearGradient><path fill="url(#X)" d="m1683.7 1132.4 43.6 20.1 154 71.1c.8-1.1 1.9-2.1 3.2-2.7l130.4-60.3c1.1-.5 2.3-.6 3.4-.2l-195.8-90.1-2.8-1.3c-.8-.1-1.6 0-2.5.4l-130.4 60.4c-1.2.6-2.3 1.5-3.1 2.6z"/><path fill="none" stroke="#fff" stroke-miterlimit="10" stroke-width=".228" d="m1970 1153.8-143.8-66.2c-4.6-2.1-9.8-2.1-14.4 0l-80.7 37.4c-5.8 2.7-5.8 10.9 0 13.6l141.1 65.2c5 2.3 10.8 2.3 15.8 0l82.1-38c5-2.4 5-9.6-.1-12z" class="colorStrokeffffff svgStroke" opacity=".6"/><linearGradient id="Y" x1="13199.359" x2="13043.794" y1="1226.769" y2="1167.505" gradientTransform="matrix(-1 0 0 1 14903.81 0)" gradientUnits="userSpaceOnUse"><stop class="stopColor0988c9 svgShape" offset="0" stop-color="#7509c9"/><stop class="stopColor3951a2 svgShape" offset="1" stop-color="#7808d0"/></linearGradient><path fill="url(#Y)" d="M1682.2 1137.2v30.5c0 1.2.6 2.3 1.5 2.9v.8l197.6 90.3a3.5 3.5 0 0 1-1.4-2.8v-30.5c0-1.7.5-3.4 1.5-4.7l-154-71.1-43.6-20.1c-1 1.3-1.6 2.9-1.6 4.7z"/><linearGradient id="Z" x1="13023.947" x2="13221.618" y1="1197.326" y2="1197.326" gradientTransform="matrix(-1 0 0 1 14903.81 0)" gradientUnits="userSpaceOnUse"><stop class="stopColor0988c9 svgShape" offset="0" stop-color="#7509c9"/><stop class="stopColor3951a2 svgShape" offset="1" stop-color="#7808d0"/></linearGradient><path fill="url(#Z)" d="m1879.9 1228.4-197.7-91.2v30.4l197.7 89.9z"/><path fill="#fff" d="m2021.7 1164.9-134.5 63.1v27.2l134.5-62.1z" class="colorffffff svgShape"/><linearGradient id="aa" x1="12994.618" x2="13011.847" y1="1250.775" y2="1250.775" gradientTransform="matrix(-1 0 0 1 14903.81 0)" gradientUnits="userSpaceOnUse"><stop class="stopColor0988c9 svgShape" offset="0" stop-color="#7509c9"/><stop class="stopColor3951a2 svgShape" offset="1" stop-color="#7808d0"/></linearGradient><path fill="url(#aa)" d="m1903.2 1236.6-11.2 5.1 5.6 23.3 3.6-9.8 8 3z"/><linearGradient id="ab" x1="12884.112" x2="12901.341" y1="1247.498" y2="1247.498" gradientTransform="matrix(-1 0 0 1 14903.81 0)" gradientUnits="userSpaceOnUse"><stop class="stopColor0988c9 svgShape" offset="0" stop-color="#7509c9"/><stop class="stopColor3951a2 svgShape" offset="1" stop-color="#7808d0"/></linearGradient><path fill="url(#ab)" d="m2013.7 1233.3-11.2 5.1 5.6 23.3 3.6-9.8 8 3z"/><linearGradient id="ac" x1="1413.509" x2="2473.696" y1="965.294" y2="965.294" gradientUnits="userSpaceOnUse"><stop class="stopColore2e2e2 svgShape" offset="0" stop-color="#e2e2e2"/><stop class="stopColorfdfdfd svgShape" offset="1" stop-color="#fdfdfd"/></linearGradient><path fill="url(#ac)" d="m1606.5 713.8-193 89.2 867.3 413.8 192.9-89.2z"/><linearGradient id="ad" x1="2280.754" x2="2473.696" y1="1190.378" y2="1190.378" gradientUnits="userSpaceOnUse"><stop class="stopColore2e2e2 svgShape" offset="0" stop-color="#e2e2e2"/><stop class="stopColorfdfdfd svgShape" offset="1" stop-color="#fdfdfd"/></linearGradient><path fill="url(#ad)" d="m2280.8 1216.8 192.9-89.2v36.3l-192.9 89.2z"/><path fill="#fcfcfc" d="m1413.5 839.3 867.3 413.8v-36.3L1413.5 803z" class="colorfcfcfc svgShape"/><linearGradient id="ae" x1="2332.585" x2="2387.859" y1="869.683" y2="1542.725" gradientUnits="userSpaceOnUse"><stop class="stopColore2e2e2 svgShape" offset="0" stop-color="#e2e2e2"/><stop class="stopColord4d3d4 svgShape" offset=".415" stop-color="#d3d3d3"/><stop class="stopColorc1bfc0 svgShape" offset="1" stop-color="#d8b2ff"/></linearGradient><path fill="url(#ae)" d="M2280.8 1216.8v482l192.9-89.2v-482z"/><path fill="#fcfcfc" d="M2280.8 1698.8v-482l-30.7-14.6v482zM1447.3 1329.2v-508l-38.2-18.2v508z" class="colorfcfcfc svgShape"/><linearGradient id="af" x1="1447.254" x2="1598.984" y1="1258.197" y2="1258.197" gradientUnits="userSpaceOnUse"><stop class="stopColore2e2e2 svgShape" offset="0" stop-color="#e2e2e2"/><stop class="stopColorc1bfc0 svgShape" offset="1" stop-color="#d8b2ff"/></linearGradient><path fill="url(#af)" d="M1447.3 1187.1v142.1l151.7-69.6z"/><linearGradient id="ag" x1="1413.509" x2="2473.696" y1="931.565" y2="931.565" gradientUnits="userSpaceOnUse"><stop class="stopColore2e2e2 svgShape" offset="0" stop-color="#e2e2e2"/><stop class="stopColorfdfdfd svgShape" offset="1" stop-color="#fdfdfd"/></linearGradient><path fill="url(#ag)" d="m1606.5 680-193 89.2 867.3 413.9 192.9-89.2z"/><linearGradient id="ah" x1="2280.754" x2="2473.696" y1="1153.751" y2="1153.751" gradientUnits="userSpaceOnUse"><stop class="stopColore2e2e2 svgShape" offset="0" stop-color="#e2e2e2"/><stop class="stopColorfdfdfd svgShape" offset="1" stop-color="#fdfdfd"/></linearGradient><path fill="url(#ah)" d="m2280.8 1183.1 192.9-89.2v30.5l-192.9 89.2z"/><path fill="#fcfcfc" d="m1413.5 799.7 867.3 413.9v-30.5l-867.3-413.9z" class="colorfcfcfc svgShape"/><linearGradient id="ai" x1="1453.755" x2="1605.139" y1="481.576" y2="712.804" gradientUnits="userSpaceOnUse"><stop class="stopColore2e2e2 svgShape" offset="0" stop-color="#e2e2e2"/><stop class="stopColorc1bfc0 svgShape" offset="1" stop-color="#d8b2ff"/></linearGradient><path fill="url(#ai)" d="m1447.3 785.9 186.8-92.1.1-250.9-185.9 42.3z"/><defs><filter id="aj" width="565.5" height="156.8" x="1516.1" y="751.2" filterUnits="userSpaceOnUse"><feFlood flood-color="#fff" flood-opacity="1" result="back"/><feBlend in="SourceGraphic" in2="back"/></filter></defs><mask id="ak" width="565.5" height="156.8" x="1516.1" y="751.2" maskUnits="userSpaceOnUse"><g filter="url(#aj)"><linearGradient id="al" x1="1520.134" x2="2061.869" y1="728.874" y2="922.724" gradientUnits="userSpaceOnUse"><stop class="stopColorffffff svgShape" offset="0" stop-color="#fff"/><stop class="stopColor000000 svgShape" offset="1"/></linearGradient><path fill="url(#al)" d="m1538.5 751.2 194.7 51.8 241.3 16.9 107.1 49.5-261 38.5L1516.1 766z" mask="url(#ak)"/></g></mask><linearGradient id="am" x1="1520.134" x2="2061.869" y1="728.874" y2="922.724" gradientUnits="userSpaceOnUse"><stop class="stopColor0c5c93 svgShape" offset="0" stop-color="#480c93"/><stop class="stopColor0c5c93 svgShape" offset="1" stop-color="#480c93"/></linearGradient><path fill="url(#am)" d="m1538.5 751.2 194.7 51.8 241.3 16.9 107.1 49.5-261 38.5L1516.1 766z" opacity=".3"/><path fill="#e5e5e5" d="m1551.4 599.1 54.6 201-9.1 5.4-58.4-196.9z" class="colore5e5e5 svgShape"/><linearGradient id="an" x1="1615.054" x2="1652.481" y1="508.6" y2="565.767" gradientUnits="userSpaceOnUse"><stop class="stopColor0988c9 svgShape" offset="0" stop-color="#7509c9"/><stop class="stopColor3951a2 svgShape" offset="1" stop-color="#7808d0"/></linearGradient><path fill="url(#an)" d="M1728.8 512.9v.2c0 1.7-.9 3.5-2.8 4.4L1588.7 583c-1.6.8-3.3 1.2-5.1 1.2h-.1c-2.3.1-4.6-.3-6.7-1.4l-36-18c-1.5-.7-2.3-2.1-2.4-3.5-.1-1.7.7-3.4 2.4-4.2l137.8-66c4-1.9 8.7-1.9 12.7.2l34.7 17.6c1.8.8 2.7 2.4 2.8 4z"/><linearGradient id="ao" x1="1505.28" x2="1616.469" y1="583.135" y2="752.968" gradientUnits="userSpaceOnUse"><stop class="stopColor0988c9 svgShape" offset="0" stop-color="#7509c9"/><stop class="stopColor3951a2 svgShape" offset="1" stop-color="#7808d0"/></linearGradient><path fill="url(#ao)" d="M1583.7 584.3v190.1c-2.3.1-4.6-.3-6.7-1.4l-36-18c-1.6-.8-2.4-2.4-2.4-3.9V561.4c.1 1.4.9 2.8 2.4 3.5l36 18c2 1.1 4.3 1.5 6.7 1.4z"/><linearGradient id="ap" x1="1607.179" x2="1706.493" y1="568.878" y2="720.573" gradientUnits="userSpaceOnUse"><stop class="stopColor3060ab svgShape" offset="0" stop-color="#7530ab"/><stop class="stopColor0c5c93 svgShape" offset=".995" stop-color="#480c93"/></linearGradient><path fill="url(#ap)" d="M1728.8 513.2v190.1c0 1.8-.9 3.6-2.8 4.5l-137.3 65.4c-1.6.8-3.3 1.2-5.1 1.3V584.3c1.7-.1 3.5-.5 5.1-1.2l137.3-65.5c1.9-.9 2.8-2.7 2.8-4.4z"/><path fill="#fdfdfd" d="m1691.5 491.3-142.7 66.9 37.8 19.1 139.5-68.4z" class="colorfdfdfd svgShape"/><path fill="#a552fb" d="m1538.6 608.1 45.1 21.3v-13.3l-45.1-21.2zM1538.6 719.9l45.1 21.3v-13.3l-45.1-21.3z" class="color528afb svgShape"/><linearGradient id="aq" x1="1666.543" x2="1703.97" y1="533.379" y2="590.546" gradientUnits="userSpaceOnUse"><stop class="stopColor0988c9 svgShape" offset="0" stop-color="#7509c9"/><stop class="stopColor3951a2 svgShape" offset="1" stop-color="#7808d0"/></linearGradient><path fill="url(#aq)" d="M1780.3 537.7v.2c0 1.7-.9 3.5-2.8 4.4l-137.3 65.5c-1.6.8-3.3 1.2-5.1 1.2h-.1c-2.3.1-4.6-.3-6.7-1.4l-36-18c-1.5-.7-2.3-2.1-2.4-3.5-.1-1.7.7-3.4 2.4-4.2l137.8-66c4-1.9 8.7-1.9 12.7.2l34.7 17.6c1.8.8 2.7 2.4 2.8 4z"/><linearGradient id="ar" x1="1556.769" x2="1667.958" y1="607.914" y2="777.748" gradientUnits="userSpaceOnUse"><stop class="stopColor0988c9 svgShape" offset="0" stop-color="#7509c9"/><stop class="stopColor3951a2 svgShape" offset="1" stop-color="#7808d0"/></linearGradient><path fill="url(#ar)" d="M1635.2 609.1v190.1c-2.3.1-4.6-.3-6.7-1.4l-36-18c-1.6-.8-2.4-2.4-2.4-3.9V586.1c.1 1.4.9 2.8 2.4 3.5l36 18c2 1.1 4.3 1.6 6.7 1.5z"/><linearGradient id="as" x1="1658.668" x2="1757.982" y1="593.657" y2="745.352" gradientUnits="userSpaceOnUse"><stop class="stopColor3060ab svgShape" offset="0" stop-color="#7530ab"/><stop class="stopColor0c5c93 svgShape" offset=".995" stop-color="#480c93"/></linearGradient><path fill="url(#as)" d="M1780.3 538v190c0 1.8-.9 3.6-2.8 4.5l-137.3 65.4c-1.6.8-3.3 1.2-5.1 1.3V609.1c1.7-.1 3.5-.5 5.1-1.2l137.3-65.5c1.9-.9 2.8-2.7 2.8-4.4z"/><path fill="#fdfdfd" d="M1743 516.1 1600.2 583l37.9 19.1 139.5-68.5z" class="colorfdfdfd svgShape"/><path fill="#a552fb" d="m1590 632.9 45.2 21.3v-13.3l-45.2-21.3zM1590 744.7l45.2 21.3v-13.3l-45.2-21.3z" class="color528afb svgShape"/><linearGradient id="at" x1="1718.031" x2="1755.458" y1="558.159" y2="615.326" gradientUnits="userSpaceOnUse"><stop class="stopColor0988c9 svgShape" offset="0" stop-color="#7509c9"/><stop class="stopColor3951a2 svgShape" offset="1" stop-color="#7808d0"/></linearGradient><path fill="url(#at)" d="M1831.8 562.5v.2c0 1.7-.9 3.5-2.8 4.4l-137.3 65.5c-1.6.8-3.3 1.2-5.1 1.2-2.3.1-4.6-.3-6.7-1.4l-36-18c-1.5-.7-2.3-2.1-2.4-3.5-.1-1.7.7-3.4 2.4-4.2l137.8-66c4-1.9 8.7-1.9 12.7.2l34.7 17.6c1.7.8 2.6 2.4 2.7 4z"/><linearGradient id="au" x1="1608.257" x2="1719.446" y1="632.694" y2="802.527" gradientUnits="userSpaceOnUse"><stop class="stopColor0988c9 svgShape" offset="0" stop-color="#7509c9"/><stop class="stopColor3951a2 svgShape" offset="1" stop-color="#7808d0"/></linearGradient><path fill="url(#au)" d="M1686.6 633.9V824c-2.3.1-4.6-.3-6.7-1.4l-36-18c-1.6-.8-2.4-2.4-2.4-3.9V610.9c.1 1.4.9 2.8 2.4 3.5l36 18c2.1 1.1 4.4 1.6 6.7 1.5z"/><linearGradient id="av" x1="1710.157" x2="1809.47" y1="618.437" y2="770.131" gradientUnits="userSpaceOnUse"><stop class="stopColor0988c9 svgShape" offset="0" stop-color="#7509c9"/><stop class="stopColor3951a2 svgShape" offset="1" stop-color="#7808d0"/></linearGradient><path fill="url(#av)" d="M1831.8 562.7v190.1c0 1.8-.9 3.6-2.8 4.5l-137.3 65.4c-1.6.8-3.3 1.2-5.1 1.3V633.8c1.7-.1 3.5-.5 5.1-1.2l137.3-65.5c1.9-.9 2.8-2.6 2.8-4.4z"/><path fill="#fdfdfd" d="m1794.4 540.8-142.7 67 37.9 19 139.5-68.4z" class="colorfdfdfd svgShape"/><path fill="#a552fb" d="m1641.5 657.7 45.1 21.3v-13.3l-45.1-21.3zM1641.5 769.5l45.1 21.3v-13.3l-45.1-21.3z" class="color528afb svgShape"/><linearGradient id="aw" x1="1805.329" x2="1842.756" y1="600.442" y2="657.609" gradientUnits="userSpaceOnUse"><stop class="stopColorf87d0b svgShape" offset="0" stop-color="#f8b80b"/><stop class="stopColorf7cb14 svgShape" offset="1" stop-color="#f7ba14"/></linearGradient><path fill="url(#aw)" d="M1919.1 604.8v.2c0 1.7-.9 3.5-2.8 4.4L1779 674.9c-1.6.8-3.3 1.2-5.1 1.2h-.1c-2.3.1-4.6-.3-6.7-1.4l-36-18c-1.5-.7-2.3-2.1-2.4-3.5-.1-1.7.7-3.4 2.4-4.2l137.8-66c4-1.9 8.7-1.9 12.7.2l34.7 17.6c1.8.8 2.7 2.4 2.8 4z"/><linearGradient id="ax" x1="1695.555" x2="1806.744" y1="674.977" y2="844.81" gradientUnits="userSpaceOnUse"><stop class="stopColorf87d0b svgShape" offset="0" stop-color="#f8b80b"/><stop class="stopColorf7cb14 svgShape" offset="1" stop-color="#f7ba14"/></linearGradient><path fill="url(#ax)" d="M1773.9 676.1v190.1c-2.3.1-4.6-.3-6.7-1.4l-36-18c-1.6-.8-2.4-2.4-2.4-3.9V653.2c.1 1.4.9 2.8 2.4 3.5l36 18c2.1 1.1 4.4 1.6 6.7 1.4z"/><path fill="#d39d09" d="M1919.1 605v190.1c0 1.8-.9 3.6-2.8 4.5L1779 865c-1.6.8-3.3 1.2-5.1 1.3V676.1c1.7-.1 3.5-.5 5.1-1.2l137.3-65.5c1.9-.9 2.8-2.6 2.8-4.4z" class="colord36909 svgShape"/><path fill="#fdfdfd" d="M1881.7 583.1 1739 650l37.9 19.1 139.5-68.4z" class="colorfdfdfd svgShape"/><path fill="#d39d09" d="m1728.8 700 45.1 21.3V708l-45.1-21.3zM1728.8 811.8l45.1 21.3v-13.3l-45.1-21.3z" class="colord36909 svgShape"/><linearGradient id="ay" x1="1860.708" x2="1898.135" y1="625.221" y2="682.388" gradientUnits="userSpaceOnUse"><stop class="stopColorf87d0b svgShape" offset="0" stop-color="#f8b80b"/><stop class="stopColorf7cb14 svgShape" offset="1" stop-color="#f7ba14"/></linearGradient><path fill="url(#ay)" d="M1974.5 629.6v.2c0 1.7-.9 3.5-2.8 4.4l-137.3 65.5c-1.6.8-3.3 1.2-5.1 1.2-2.3.1-4.6-.3-6.7-1.4l-36-18c-1.5-.7-2.3-2.1-2.4-3.5-.1-1.7.7-3.4 2.4-4.2l137.8-66c4-1.9 8.7-1.9 12.7.2l34.7 17.6c1.7.7 2.6 2.3 2.7 4z"/><linearGradient id="az" x1="1750.934" x2="1862.123" y1="699.756" y2="869.59" gradientUnits="userSpaceOnUse"><stop class="stopColorf87d0b svgShape" offset="0" stop-color="#f8b80b"/><stop class="stopColorf7cb14 svgShape" offset="1" stop-color="#f7ba14"/></linearGradient><path fill="url(#az)" d="M1829.3 700.9V891c-2.3.1-4.6-.3-6.7-1.4l-36-18c-1.6-.8-2.4-2.4-2.4-3.9V678c.1 1.4.9 2.8 2.4 3.5l36 18c2.1 1.1 4.4 1.5 6.7 1.4z"/><linearGradient id="aA" x1="1852.833" x2="1952.147" y1="685.499" y2="837.194" gradientUnits="userSpaceOnUse"><stop class="stopColorf87d0b svgShape" offset="0" stop-color="#f8b80b"/><stop class="stopColorf7cb14 svgShape" offset="1" stop-color="#f7ba14"/></linearGradient><path fill="url(#aA)" d="M1974.5 629.8v190.1c0 1.8-.9 3.6-2.8 4.5l-137.3 65.4c-1.6.8-3.3 1.2-5.1 1.3V700.9c1.7-.1 3.5-.5 5.1-1.2l137.3-65.5c1.8-.9 2.8-2.7 2.8-4.4z"/><path fill="#fdfdfd" d="m1937.1 607.9-142.7 66.9 37.8 19.1 139.6-68.4z" class="colorfdfdfd svgShape"/><path fill="#d39d09" d="m1784.2 724.8 45.1 21.3v-13.3l-45.1-21.3zM1784.2 836.5l45.1 21.3v-13.3l-45.1-21.3z" class="colord36909 svgShape"/><defs><filter id="aB" width="628.7" height="241.9" x="1799.1" y="913.9" filterUnits="userSpaceOnUse"><feFlood flood-color="#fff" flood-opacity="1" result="back"/><feBlend in="SourceGraphic" in2="back"/></filter></defs><mask id="aC" width="628.7" height="241.9" x="1799.1" y="913.9" maskUnits="userSpaceOnUse"><g filter="url(#aB)"><linearGradient id="aD" x1="1801.881" x2="2400.012" y1="916.924" y2="1130.954" gradientUnits="userSpaceOnUse"><stop class="stopColorffffff svgShape" offset="0" stop-color="#fff"/><stop class="stopColor000000 svgShape" offset="1"/></linearGradient><path fill="url(#aD)" d="m1820.6 957.4-21.5-4.2 431.5 202.5 197.2-100.2-467.4-141.6z" mask="url(#aC)"/></g></mask><linearGradient id="aE" x1="1801.881" x2="2400.012" y1="916.924" y2="1130.954" gradientUnits="userSpaceOnUse"><stop class="stopColor0c5c93 svgShape" offset="0" stop-color="#480c93"/><stop class="stopColor0c5c93 svgShape" offset="1" stop-color="#480c93"/></linearGradient><path fill="url(#aE)" d="m1820.6 957.4-21.5-4.2 431.5 202.5 197.2-100.2-467.4-141.6z" opacity=".3"/><linearGradient id="aF" x1="1847.753" x2="1947.609" y1="910.414" y2="1033.9" gradientUnits="userSpaceOnUse"><stop class="stopColorf87d0b svgShape" offset="0" stop-color="#f8b80b"/><stop class="stopColorf7cb14 svgShape" offset="1" stop-color="#f7ba14"/></linearGradient><path fill="url(#aF)" d="M1960.4 979.5v30.5c0 1.2-.5 2.2-1.4 2.8-.5.5-1.2.7-1.8.8-.7.1-1.4 0-2-.3L1824 952.6c-3.3-1.5-5.4-4.8-5.4-8.5v-28.2c0-1.7.9-3.1 2.1-3.9.4-.2.8-.4 1.2-.5 1.1-.4 2.2-.3 3.4.2l130.4 60.3c1.3.6 2.4 1.5 3.2 2.7 1 1.4 1.5 3 1.5 4.8z"/><linearGradient id="aG" x1="2019.662" x2="2018.541" y1="820.941" y2="820.514" gradientUnits="userSpaceOnUse"><stop class="stopColore2e2e2 svgShape" offset="0" stop-color="#e2e2e2"/><stop class="stopColorf5f4f3 svgShape" offset="1" stop-color="#f4f4f4"/></linearGradient><path fill="url(#aG)" d="M2017.7 821.4c.7-.7 1.7-1.2 2.8-1.3l-2.8 1.3z"/><linearGradient id="aH" x1="2130.833" x2="1847.943" y1="950.89" y2="843.122" gradientUnits="userSpaceOnUse"><stop class="stopColorf87d0b svgShape" offset="0" stop-color="#f8b80b"/><stop class="stopColorf7cb14 svgShape" offset="1" stop-color="#f7ba14"/></linearGradient><path fill="url(#aH)" d="m2156.5 883.5-43.6 20.1-154 71.1c-.8-1.1-1.9-2.1-3.2-2.7l-130.4-60.3c-1.1-.5-2.3-.6-3.4-.2l195.8-90.1 2.8-1.3c.8-.1 1.6 0 2.5.4l130.4 60.4c1.3.5 2.3 1.4 3.1 2.6z"/><linearGradient id="aI" x1="2135.803" x2="1980.237" y1="977.824" y2="918.561" gradientUnits="userSpaceOnUse"><stop class="stopColorf87d0b svgShape" offset="0" stop-color="#f8b80b"/><stop class="stopColorf7cb14 svgShape" offset="1" stop-color="#f7ba14"/></linearGradient><path fill="url(#aI)" d="M2158.1 888.2v30.5c0 1.2-.6 2.3-1.5 2.9v.8l-197.6 90.3c.8-.6 1.4-1.6 1.4-2.8v-30.5c0-1.7-.5-3.4-1.5-4.7l154-71.1 43.6-20.1c1 1.3 1.6 3 1.6 4.7z"/><path fill="#fefefe" d="M1824 923.2v19.3c0 2.2 1.3 4.1 3.2 5l133.1 61v-28.2L1829.1 920c-2.4-1.1-5.1.6-5.1 3.2z" class="colorfefefe svgShape"/><path fill="#e7e7e7" d="m1960.4 979.5 197.7-91.3v30.5l-197.7 89.8z" class="colordfeeef svgShape"/><linearGradient id="aJ" x1="1847.753" x2="1947.609" y1="861.827" y2="985.313" gradientUnits="userSpaceOnUse"><stop class="stopColor0988c9 svgShape" offset="0" stop-color="#7509c9"/><stop class="stopColor3951a2 svgShape" offset="1" stop-color="#7808d0"/></linearGradient><path fill="url(#aJ)" d="M1960.4 930.9v30.5c0 1.2-.5 2.2-1.4 2.8-.5.5-1.2.7-1.8.8-.7.1-1.4 0-2-.3L1824 904c-3.3-1.5-5.4-4.8-5.4-8.5v-28.2c0-1.7.9-3.1 2.1-3.9.4-.2.8-.4 1.2-.5 1.1-.4 2.2-.3 3.4.2l130.4 60.3c1.3.6 2.4 1.5 3.2 2.7 1 1.4 1.5 3 1.5 4.8z"/><linearGradient id="aK" x1="2019.662" x2="2018.541" y1="772.354" y2="771.927" gradientUnits="userSpaceOnUse"><stop class="stopColore2e2e2 svgShape" offset="0" stop-color="#e2e2e2"/><stop class="stopColorf5f4f3 svgShape" offset="1" stop-color="#f4f4f4"/></linearGradient><path fill="url(#aK)" d="M2017.7 772.8c.7-.7 1.7-1.2 2.8-1.3l-2.8 1.3z"/><linearGradient id="aL" x1="2130.833" x2="1847.943" y1="902.303" y2="794.535" gradientUnits="userSpaceOnUse"><stop class="stopColor0988c9 svgShape" offset="0" stop-color="#7509c9"/><stop class="stopColor3951a2 svgShape" offset="1" stop-color="#7808d0"/></linearGradient><path fill="url(#aL)" d="m2156.5 834.9-43.6 20.1-154 71.1c-.8-1.1-1.9-2.1-3.2-2.7l-130.4-60.3c-1.1-.5-2.3-.6-3.4-.2l195.8-90.1 2.8-1.3c.8-.1 1.6 0 2.5.4l130.4 60.4c1.3.5 2.3 1.4 3.1 2.6z"/><path fill="none" stroke="#fff" stroke-miterlimit="10" stroke-width=".228" d="m1870.2 856.3 143.8-66.2c4.6-2.1 9.8-2.1 14.4 0l80.7 37.4c5.8 2.7 5.8 10.9 0 13.6L1968 906.2c-5 2.3-10.8 2.3-15.8 0l-82.1-38c-5-2.3-5-9.5.1-11.9z" class="colorStrokeffffff svgStroke" opacity=".6"/><linearGradient id="aM" x1="2135.803" x2="1980.237" y1="929.237" y2="869.974" gradientUnits="userSpaceOnUse"><stop class="stopColor0988c9 svgShape" offset="0" stop-color="#7509c9"/><stop class="stopColor3951a2 svgShape" offset="1" stop-color="#7808d0"/></linearGradient><path fill="url(#aM)" d="M2158.1 839.7v30.5c0 1.2-.6 2.3-1.5 2.9v.8L1959 964.1c.8-.6 1.4-1.6 1.4-2.8v-30.5c0-1.7-.5-3.4-1.5-4.7l154-71.1 43.6-20.1c1 1.3 1.6 3 1.6 4.8z"/><linearGradient id="aN" x1="1960.39" x2="2158.061" y1="899.794" y2="899.794" gradientUnits="userSpaceOnUse"><stop class="stopColor0988c9 svgShape" offset="0" stop-color="#7509c9"/><stop class="stopColor3951a2 svgShape" offset="1" stop-color="#7808d0"/></linearGradient><path fill="url(#aN)" d="m1960.4 930.9 197.7-91.2v30.4l-197.7 89.8z"/><path fill="#fff" d="m1818.6 867.4 134.4 63.1v27.2l-134.4-62.1z" class="colorffffff svgShape"/><linearGradient id="aO" x1="1931.061" x2="1948.29" y1="953.244" y2="953.244" gradientUnits="userSpaceOnUse"><stop class="stopColor0988c9 svgShape" offset="0" stop-color="#7509c9"/><stop class="stopColor3951a2 svgShape" offset="1" stop-color="#7808d0"/></linearGradient><path fill="url(#aO)" d="m1937.1 939.1 11.2 5-5.6 23.3-3.6-9.7-8 3z"/><linearGradient id="aP" x1="1820.555" x2="1837.784" y1="949.967" y2="949.967" gradientUnits="userSpaceOnUse"><stop class="stopColor0988c9 svgShape" offset="0" stop-color="#7509c9"/><stop class="stopColor3951a2 svgShape" offset="1" stop-color="#7808d0"/></linearGradient><path fill="url(#aP)" d="m1826.6 935.8 11.2 5-5.6 23.3-3.6-9.7-8 3z"/><linearGradient id="aQ" x1="12572.698" x2="12672.554" y1="1035.833" y2="1159.318" gradientTransform="matrix(-1 0 0 1 14903.81 0)" gradientUnits="userSpaceOnUse"><stop class="stopColorf87d0b svgShape" offset="0" stop-color="#f8b80b"/><stop class="stopColorf7cb14 svgShape" offset="1" stop-color="#f7ba14"/></linearGradient><path fill="url(#aQ)" d="M2218.5 1104.9v30.5c0 1.2.5 2.2 1.4 2.8.5.5 1.2.7 1.8.8.7.1 1.4 0 2-.3l131.1-60.7c3.3-1.5 5.4-4.8 5.4-8.5v-28.2c0-1.7-.9-3.1-2.1-3.9-.4-.2-.8-.4-1.2-.5-1.1-.4-2.2-.3-3.4.2l-130.4 60.3c-1.3.6-2.4 1.5-3.2 2.7-.9 1.4-1.4 3-1.4 4.8z"/><linearGradient id="aR" x1="12744.607" x2="12743.486" y1="946.36" y2="945.933" gradientTransform="matrix(-1 0 0 1 14903.81 0)" gradientUnits="userSpaceOnUse"><stop class="stopColore2e2e2 svgShape" offset="0" stop-color="#e2e2e2"/><stop class="stopColorf5f4f3 svgShape" offset="1" stop-color="#f4f4f4"/></linearGradient><path fill="url(#aR)" d="M2161.2 946.8c-.7-.7-1.7-1.2-2.8-1.3l2.8 1.3z"/><linearGradient id="aS" x1="12855.777" x2="12572.888" y1="1076.309" y2="968.541" gradientTransform="matrix(-1 0 0 1 14903.81 0)" gradientUnits="userSpaceOnUse"><stop class="stopColorf87d0b svgShape" offset="0" stop-color="#f8b80b"/><stop class="stopColorf7cb14 svgShape" offset="1" stop-color="#f7ba14"/></linearGradient><path fill="url(#aS)" d="m2022.3 1008.9 43.6 20.1 154 71.1c.8-1.1 1.9-2.1 3.2-2.7l130.4-60.3c1.1-.5 2.3-.6 3.4-.2l-195.8-90.1-2.8-1.3c-.8-.1-1.6 0-2.5.4l-130.4 60.4c-1.2.5-2.3 1.5-3.1 2.6z"/><linearGradient id="aT" x1="12860.748" x2="12705.182" y1="1103.243" y2="1043.979" gradientTransform="matrix(-1 0 0 1 14903.81 0)" gradientUnits="userSpaceOnUse"><stop class="stopColorf87d0b svgShape" offset="0" stop-color="#f8b80b"/><stop class="stopColorf7cb14 svgShape" offset="1" stop-color="#f7ba14"/></linearGradient><path fill="url(#aT)" d="M2020.8 1013.7v30.5c0 1.2.6 2.3 1.5 2.9v.8l197.6 90.3a3.5 3.5 0 0 1-1.4-2.8v-30.5c0-1.7.5-3.4 1.5-4.7l-154-71.1-43.6-20.1c-1 1.2-1.6 2.9-1.6 4.7z"/><path fill="#fefefe" d="M2354.9 1048.6v19.3c0 2.2-1.3 4.1-3.2 5l-133.1 61v-28.2l131.3-60.4c2.3-1 5 .7 5 3.3z" class="colorfefefe svgShape"/><path fill="#e7e7e7" d="m2218.5 1104.9-197.7-91.2v30.4l197.7 89.8z" class="colordfeeef svgShape"/><linearGradient id="aU" x1="12572.698" x2="12672.554" y1="987.246" y2="1110.731" gradientTransform="matrix(-1 0 0 1 14903.81 0)" gradientUnits="userSpaceOnUse"><stop class="stopColor0988c9 svgShape" offset="0" stop-color="#7509c9"/><stop class="stopColor3951a2 svgShape" offset="1" stop-color="#7808d0"/></linearGradient><path fill="url(#aU)" d="M2218.5 1056.3v30.5c0 1.2.5 2.2 1.4 2.8.5.5 1.2.7 1.8.8.7.1 1.4 0 2-.3l131.1-60.7c3.3-1.5 5.4-4.8 5.4-8.5v-28.2c0-1.7-.9-3.1-2.1-3.9-.4-.2-.8-.4-1.2-.5-1.1-.4-2.2-.3-3.4.2l-130.4 60.3c-1.3.6-2.4 1.5-3.2 2.7-.9 1.4-1.4 3.1-1.4 4.8z"/><linearGradient id="aV" x1="12744.607" x2="12743.486" y1="897.773" y2="897.346" gradientTransform="matrix(-1 0 0 1 14903.81 0)" gradientUnits="userSpaceOnUse"><stop class="stopColore2e2e2 svgShape" offset="0" stop-color="#e2e2e2"/><stop class="stopColorf5f4f3 svgShape" offset="1" stop-color="#f4f4f4"/></linearGradient><path fill="url(#aV)" d="M2161.2 898.2c-.7-.7-1.7-1.2-2.8-1.3l2.8 1.3z"/><linearGradient id="aW" x1="12855.777" x2="12572.888" y1="1027.722" y2="919.954" gradientTransform="matrix(-1 0 0 1 14903.81 0)" gradientUnits="userSpaceOnUse"><stop class="stopColor0988c9 svgShape" offset="0" stop-color="#7509c9"/><stop class="stopColor3951a2 svgShape" offset="1" stop-color="#7808d0"/></linearGradient><path fill="url(#aW)" d="m2022.3 960.3 43.6 20.1 154 71.1c.8-1.1 1.9-2.1 3.2-2.7l130.4-60.3c1.1-.5 2.3-.6 3.4-.2l-195.8-90.1-2.8-1.3c-.8-.1-1.6 0-2.5.4l-130.4 60.4c-1.2.5-2.3 1.5-3.1 2.6z"/><path fill="none" stroke="#fff" stroke-miterlimit="10" stroke-width=".228" d="m2308.6 981.7-143.8-66.2c-4.6-2.1-9.8-2.1-14.4 0l-80.7 37.4c-5.8 2.7-5.8 10.9 0 13.6l141.1 65.2c5 2.3 10.8 2.3 15.8 0l82.1-38c5-2.4 5-9.6-.1-12z" class="colorStrokeffffff svgStroke" opacity=".6"/><linearGradient id="aX" x1="12860.748" x2="12705.182" y1="1054.656" y2="995.393" gradientTransform="matrix(-1 0 0 1 14903.81 0)" gradientUnits="userSpaceOnUse"><stop class="stopColor0988c9 svgShape" offset="0" stop-color="#7509c9"/><stop class="stopColor3951a2 svgShape" offset="1" stop-color="#7808d0"/></linearGradient><path fill="url(#aX)" d="M2020.8 965.1v30.5c0 1.2.6 2.3 1.5 2.9v.8l197.6 90.3a3.5 3.5 0 0 1-1.4-2.8v-30.5c0-1.7.5-3.4 1.5-4.7l-154-71.1-43.6-20.1c-1 1.3-1.6 2.9-1.6 4.7z"/><linearGradient id="aY" x1="12685.335" x2="12883.007" y1="1025.213" y2="1025.213" gradientTransform="matrix(-1 0 0 1 14903.81 0)" gradientUnits="userSpaceOnUse"><stop class="stopColor0988c9 svgShape" offset="0" stop-color="#7509c9"/><stop class="stopColor3951a2 svgShape" offset="1" stop-color="#7808d0"/></linearGradient><path fill="url(#aY)" d="m2218.5 1056.3-197.7-91.2v30.4l197.7 89.9z"/><path fill="#fff" d="m2360.3 992.8-134.5 63.1v27.2l134.5-62.1z" class="colorffffff svgShape"/><linearGradient id="aZ" x1="12656.006" x2="12673.234" y1="1078.663" y2="1078.663" gradientTransform="matrix(-1 0 0 1 14903.81 0)" gradientUnits="userSpaceOnUse"><stop class="stopColor0988c9 svgShape" offset="0" stop-color="#7509c9"/><stop class="stopColor3951a2 svgShape" offset="1" stop-color="#7808d0"/></linearGradient><path fill="url(#aZ)" d="m2241.8 1064.5-11.2 5 5.6 23.3 3.6-9.7 8 3z"/><linearGradient id="ba" x1="12545.5" x2="12562.728" y1="1075.385" y2="1075.385" gradientTransform="matrix(-1 0 0 1 14903.81 0)" gradientUnits="userSpaceOnUse"><stop class="stopColor0988c9 svgShape" offset="0" stop-color="#7509c9"/><stop class="stopColor3951a2 svgShape" offset="1" stop-color="#7808d0"/></linearGradient><path fill="url(#ba)" d="m2352.3 1061.2-11.2 5.1 5.6 23.3 3.6-9.8 8 3z"/><linearGradient id="bb" x1="12572.698" x2="12672.554" y1="937.5" y2="1060.986" gradientTransform="matrix(-1 0 0 1 14903.81 0)" gradientUnits="userSpaceOnUse"><stop class="stopColorf87d0b svgShape" offset="0" stop-color="#f8b80b"/><stop class="stopColorf7cb14 svgShape" offset="1" stop-color="#f7ba14"/></linearGradient><path fill="url(#bb)" d="M2218.5 1006.5v30.5c0 1.2.5 2.2 1.4 2.8.5.5 1.2.7 1.8.8.7.1 1.4 0 2-.3l131.1-60.7c3.3-1.5 5.4-4.8 5.4-8.5V943c0-1.7-.9-3.1-2.1-3.9-.4-.2-.8-.4-1.2-.5-1.1-.4-2.2-.3-3.4.2l-130.4 60.3c-1.3.6-2.4 1.5-3.2 2.7-.9 1.4-1.4 3-1.4 4.7z"/><linearGradient id="bc" x1="12744.607" x2="12743.486" y1="848.027" y2="847.6" gradientTransform="matrix(-1 0 0 1 14903.81 0)" gradientUnits="userSpaceOnUse"><stop class="stopColore2e2e2 svgShape" offset="0" stop-color="#e2e2e2"/><stop class="stopColorf5f4f3 svgShape" offset="1" stop-color="#f4f4f4"/></linearGradient><path fill="url(#bc)" d="M2161.2 848.4c-.7-.7-1.7-1.2-2.8-1.3l2.8 1.3z"/><linearGradient id="bd" x1="12855.777" x2="12572.888" y1="977.977" y2="870.209" gradientTransform="matrix(-1 0 0 1 14903.81 0)" gradientUnits="userSpaceOnUse"><stop class="stopColorf87d0b svgShape" offset="0" stop-color="#f8b80b"/><stop class="stopColorf7cb14 svgShape" offset="1" stop-color="#f7ba14"/></linearGradient><path fill="url(#bd)" d="m2022.3 910.5 43.6 20.1 154 71.1c.8-1.1 1.9-2.1 3.2-2.7l130.4-60.3c1.1-.5 2.3-.6 3.4-.2l-195.8-90.1-2.8-1.3c-.8-.1-1.6 0-2.5.4l-130.4 60.4c-1.2.6-2.3 1.5-3.1 2.6z"/><linearGradient id="be" x1="12860.748" x2="12705.182" y1="1004.911" y2="945.647" gradientTransform="matrix(-1 0 0 1 14903.81 0)" gradientUnits="userSpaceOnUse"><stop class="stopColorf87d0b svgShape" offset="0" stop-color="#f8b80b"/><stop class="stopColorf7cb14 svgShape" offset="1" stop-color="#f7ba14"/></linearGradient><path fill="url(#be)" d="M2020.8 915.3v30.5c0 1.2.6 2.3 1.5 2.9v.8l197.6 90.3a3.5 3.5 0 0 1-1.4-2.8v-30.5c0-1.7.5-3.4 1.5-4.7l-154-71.1-43.6-20.1c-1 1.3-1.6 3-1.6 4.7z"/><path fill="#fefefe" d="M2354.9 950.3v19.3c0 2.2-1.3 4.1-3.2 5l-133.1 61v-28.2l131.3-60.4c2.3-1.1 5 .7 5 3.3z" class="colorfefefe svgShape"/><path fill="#e7e7e7" d="m2218.5 1006.5-197.7-91.2v30.5l197.7 89.8z" class="colordfeeef svgShape"/><linearGradient id="bf" x1="12572.698" x2="12672.554" y1="888.913" y2="1012.399" gradientTransform="matrix(-1 0 0 1 14903.81 0)" gradientUnits="userSpaceOnUse"><stop class="stopColor0988c9 svgShape" offset="0" stop-color="#7509c9"/><stop class="stopColor3951a2 svgShape" offset="1" stop-color="#7808d0"/></linearGradient><path fill="url(#bf)" d="M2218.5 958v30.5c0 1.2.5 2.2 1.4 2.8.5.5 1.2.7 1.8.8.7.1 1.4 0 2-.3l131.1-60.7c3.3-1.5 5.4-4.8 5.4-8.5v-28.2c0-1.7-.9-3.1-2.1-3.9-.4-.2-.8-.4-1.2-.5-1.1-.4-2.2-.3-3.4.2l-130.4 60.3c-1.3.6-2.4 1.5-3.2 2.7-.9 1.4-1.4 3-1.4 4.8z"/><linearGradient id="bg" x1="12744.607" x2="12743.486" y1="799.44" y2="799.013" gradientTransform="matrix(-1 0 0 1 14903.81 0)" gradientUnits="userSpaceOnUse"><stop class="stopColore2e2e2 svgShape" offset="0" stop-color="#e2e2e2"/><stop class="stopColorf5f4f3 svgShape" offset="1" stop-color="#f4f4f4"/></linearGradient><path fill="url(#bg)" d="M2161.2 799.8c-.7-.7-1.7-1.2-2.8-1.3l2.8 1.3z"/><linearGradient id="bh" x1="12855.777" x2="12572.888" y1="929.39" y2="821.622" gradientTransform="matrix(-1 0 0 1 14903.81 0)" gradientUnits="userSpaceOnUse"><stop class="stopColor0988c9 svgShape" offset="0" stop-color="#7509c9"/><stop class="stopColor3951a2 svgShape" offset="1" stop-color="#7808d0"/></linearGradient><path fill="url(#bh)" d="m2022.3 862 43.6 20.1 154 71.1c.8-1.1 1.9-2.1 3.2-2.7l130.4-60.3c1.1-.5 2.3-.6 3.4-.2l-195.8-90.1-2.8-1.3c-.8-.1-1.6 0-2.5.4l-130.4 60.4c-1.2.5-2.3 1.4-3.1 2.6z"/><path fill="none" stroke="#fff" stroke-miterlimit="10" stroke-width=".228" d="m2308.6 883.4-143.8-66.2c-4.6-2.1-9.8-2.1-14.4 0l-80.7 37.4c-5.8 2.7-5.8 10.9 0 13.6l141.1 65.2c5 2.3 10.8 2.3 15.8 0l82.1-38c5-2.4 5-9.7-.1-12z" class="colorStrokeffffff svgStroke" opacity=".6"/><linearGradient id="bi" x1="12860.748" x2="12705.182" y1="956.324" y2="897.06" gradientTransform="matrix(-1 0 0 1 14903.81 0)" gradientUnits="userSpaceOnUse"><stop class="stopColor0988c9 svgShape" offset="0" stop-color="#7509c9"/><stop class="stopColor3951a2 svgShape" offset="1" stop-color="#7808d0"/></linearGradient><path fill="url(#bi)" d="M2020.8 866.7v30.5c0 1.2.6 2.3 1.5 2.9v.8l197.6 90.3a3.5 3.5 0 0 1-1.4-2.8V958c0-1.7.5-3.4 1.5-4.7l-154-71.1-43.6-20.1c-1 1.2-1.6 2.9-1.6 4.6z"/><linearGradient id="bj" x1="12685.335" x2="12883.007" y1="926.881" y2="926.881" gradientTransform="matrix(-1 0 0 1 14903.81 0)" gradientUnits="userSpaceOnUse"><stop class="stopColor0988c9 svgShape" offset="0" stop-color="#7509c9"/><stop class="stopColor3951a2 svgShape" offset="1" stop-color="#7808d0"/></linearGradient><path fill="url(#bj)" d="m2218.5 958-197.7-91.3v30.5l197.7 89.8z"/><path fill="#fff" d="m2360.3 894.4-134.5 63.2v27.2l134.5-62.1z" class="colorffffff svgShape"/><linearGradient id="bk" x1="12656.006" x2="12673.234" y1="980.33" y2="980.33" gradientTransform="matrix(-1 0 0 1 14903.81 0)" gradientUnits="userSpaceOnUse"><stop class="stopColor0988c9 svgShape" offset="0" stop-color="#7509c9"/><stop class="stopColor3951a2 svgShape" offset="1" stop-color="#7808d0"/></linearGradient><path fill="url(#bk)" d="m2241.8 966.2-11.2 5 5.6 23.3 3.6-9.7 8 2.9z"/><linearGradient id="bl" x1="12545.5" x2="12562.728" y1="977.053" y2="977.053" gradientTransform="matrix(-1 0 0 1 14903.81 0)" gradientUnits="userSpaceOnUse"><stop class="stopColor0988c9 svgShape" offset="0" stop-color="#7509c9"/><stop class="stopColor3951a2 svgShape" offset="1" stop-color="#7808d0"/></linearGradient><path fill="url(#bl)" d="m2352.3 962.9-11.2 5 5.6 23.3 3.6-9.7 8 3z"/><linearGradient id="bm" x1="1413.509" x2="2473.696" y1="593.993" y2="593.993" gradientUnits="userSpaceOnUse"><stop class="stopColore2e2e2 svgShape" offset="0" stop-color="#e2e2e2"/><stop class="stopColorfdfdfd svgShape" offset="1" stop-color="#fdfdfd"/></linearGradient><path fill="url(#bm)" d="m1606.5 342.5-193 89.2 867.3 413.8 192.9-89.2z"/><linearGradient id="bn" x1="2280.754" x2="2473.696" y1="819.078" y2="819.078" gradientUnits="userSpaceOnUse"><stop class="stopColore2e2e2 svgShape" offset="0" stop-color="#e2e2e2"/><stop class="stopColorfdfdfd svgShape" offset="1" stop-color="#fdfdfd"/></linearGradient><path fill="url(#bn)" d="m2280.8 845.5 192.9-89.2v36.3l-192.9 89.2z"/><path fill="#fcfcfc" d="m1413.5 468 867.3 413.8v-36.3l-867.3-413.8z" class="colorfcfcfc svgShape"/><linearGradient id="bo" x1="2367.521" x2="2422.795" y1="866.814" y2="1539.857" gradientUnits="userSpaceOnUse"><stop class="stopColore2e2e2 svgShape" offset="0" stop-color="#e2e2e2"/><stop class="stopColorc1bfc0 svgShape" offset="1" stop-color="#d8b2ff"/></linearGradient><path fill="url(#bo)" d="M2280.8 845.5v368.1l192.9-89.2V756.3z"/><path fill="#fcfcfc" d="M2280.8 1213.6V845.5l-30.7-14.6V1199zM1447.3 817.9v-368l-38.2-18.2v368z" class="colorfcfcfc svgShape"/><linearGradient id="bp" x1="946.764" x2="1061.559" y1="1866.984" y2="1866.984" gradientUnits="userSpaceOnUse"><stop class="stopColorffd9d9 svgShape" offset="0" stop-color="#ececec"/><stop class="stopColorefb4b4 svgShape" offset="1" stop-color="#d1b4ef"/></linearGradient><path fill="url(#bp)" d="M1061.6 1838.4s-6.7 43.7-29.6 50.4c-22.9 6.7-81.3 47.1-84.7 20.9s10.1-54.5 27.9-63.9c17.8-9.4 33.3-30.2 33.3-30.2l53.1 22.8z"/><linearGradient id="bq" x1="1028.76" x2="1120.042" y1="1912.743" y2="1912.743" gradientUnits="userSpaceOnUse"><stop class="stopColorffd9d9 svgShape" offset="0" stop-color="#ececec"/><stop class="stopColorefb4b4 svgShape" offset="1" stop-color="#d1b4ef"/></linearGradient><path fill="url(#bq)" d="M1051.5 1887.5s-20.2 34.8-22.5 39.9c-2.3 5.1 17.8 23 40.7 20.5 22.9-2.6 44.8-26.2 47.6-36.9 2.8-10.7 2.8-33.6 2.8-33.6l-68.6 10.1z"/><linearGradient id="br" x1="962.07" x2="1479.649" y1="1537.659" y2="1537.659" gradientUnits="userSpaceOnUse"><stop class="stopColor3060ab svgShape" offset="0" stop-color="#7530ab"/><stop class="stopColor0c5c93 svgShape" offset=".995" stop-color="#480c93"/></linearGradient><path fill="url(#br)" d="M1479.6 1257.8s3.3 79-62.6 116.4c-65.9 37.4-244.5 121.8-244.5 121.8l-47.4 386.5s-17.6 35-48 25.5l-30.4-9.5s24.1-428.5 40.7-442.6c16.6-14.1 211.2-187.7 211.2-187.7s-239.5 155.5-237.3 193.4 27.9 355.5 27.9 355.5-18.9 24.7-44.4 31.8c-25.5 7.1-54.3-21.1-54.3-21.1s-42.8-440.4-23.4-449.2c19.4-8.8 315.1-212.9 315.1-212.9l197.4 92.1z"/><linearGradient id="bs" x1="1315.716" x2="1264.018" y1="829.773" y2="752.119" gradientUnits="userSpaceOnUse"><stop class="stopColor3060ab svgShape" offset="0" stop-color="#7530ab"/><stop class="stopColor0c5c93 svgShape" offset=".995" stop-color="#480c93"/></linearGradient><path fill="url(#bs)" d="M1239.5 746.3s-52.2 67.4 6.5 107.2c58.7 39.9 130.4-71 130.4-71l-136.9-36.2z"/><path fill="#e5e5e5" d="m488.7 1402.5 686.6 332.3c15 7.2 32.4 7.5 47.5.6l547.4-248.8c17.9-8.1 18.2-33.4.5-41.9l-673.8-326.1c-19-9.2-41-9.4-60.2-.7l-547.6 248.9c-15.3 6.9-15.5 28.4-.4 35.7z" class="colore5e5e5 svgShape"/><linearGradient id="bt" x1="519.641" x2="1722.493" y1="1177.446" y2="1607.864" gradientUnits="userSpaceOnUse"><stop class="stopColore2e2e2 svgShape" offset="0" stop-color="#e2e2e2"/><stop class="stopColorfdfdfd svgShape" offset="1" stop-color="#fdfdfd"/></linearGradient><path fill="url(#bt)" d="m488.7 1373.9 686.6 332.3c15 7.2 32.4 7.5 47.5.6l547.4-248.8c17.9-8.1 18.2-33.4.5-41.9L1096.9 1090c-19-9.2-41-9.4-60.2-.7l-547.6 248.9c-15.3 6.8-15.5 28.4-.4 35.7z"/><path fill="#e5e5e5" d="M1206.6 1740v384.9l13.8-6.4 14.7-388.7zM1751.6 1484l70.2 355.5 13.7-6.4-55.4-359.3zM488.7 1402.5l-66.5 359.8 13.7 13.8 83.2-358.8z" class="colore5e5e5 svgShape"/><linearGradient id="bu" x1="1464.036" x2="1267.021" y1="1187.398" y2="891.47" gradientUnits="userSpaceOnUse"><stop class="stopColorf87d0b svgShape" offset="0" stop-color="#f8b80b"/><stop class="stopColorf7cb14 svgShape" offset="1" stop-color="#f7ba14"/></linearGradient><path fill="url(#bu)" d="M1230.7 835s231.9 55.3 262.8 79.8c30.8 24.5 36.1 197.8 36.1 197.8s5.6 10.5-28 14.7c-33.6 4.2-42.8 0-42.8 0l18.8 116.1-238.1-74.5s7.4-102.9-8.8-129.8c-16.1-26.9-24.5-54.9-24.5-54.9l-21 38.6s-26 1.7-43.5-10.7c-17.5-12.4-21-22.9-21-22.9s73.6-154.2 110-154.2z"/><linearGradient id="bv" x1="1341.696" x2="1280.853" y1="953.127" y2="861.738" gradientUnits="userSpaceOnUse"><stop class="stopColorf3f1ee svgShape" offset="0" stop-color="#f0f0f0"/><stop class="stopColorfdfdfd svgShape" offset="1" stop-color="#fdfdfd"/></linearGradient><path fill="url(#bv)" d="M1267 844.9s-12 39.9-4.3 84.9c7.7 45 26.7 78.1 26.7 78.1s44.3-48.3 66.9-81.5c22.5-33.2 24.2-48.1 24.2-48.1L1267 844.9z"/><path fill="#fdfdfd" d="m1159.7 1188 152.4 72.3c5.2 2.5 5.3 9.9.1 12.4L1148 1355c-1.9 1-4.2 1-6.1 0l-160.2-78.2c-5.3-2.6-5.2-10.2.2-12.6l172.1-76.4c1.8-.7 3.9-.7 5.7.2z" class="colorfdfdfd svgShape"/><linearGradient id="bw" x1="1350.991" x2="1272.821" y1="868.584" y2="751.168" gradientUnits="userSpaceOnUse"><stop class="stopColorffd9d9 svgShape" offset="0" stop-color="#ececec"/><stop class="stopColorefb4b4 svgShape" offset="1" stop-color="#d1b4ef"/></linearGradient><path fill="url(#bw)" d="M1275.9 878.6s1.6 17.7 36.9 19.6c35.3 2 56.8-16.5 56.8-16.5l6.8-75s-5.5-41.2-17.7-49.9c-12.2-8.6-72-35.3-87.9-35.3s-21.3 28.3-19.8 47.5c1.6 19.2 5.5 23.2 5.5 23.2s-7.5 16.1-2 33.8 8.5 39.7 17.4 44.8 4 7.8 4 7.8z"/><linearGradient id="bx" x1="1474.778" x2="1322.636" y1="936.106" y2="707.579" gradientUnits="userSpaceOnUse"><stop class="stopColor3060ab svgShape" offset="0" stop-color="#7530ab"/><stop class="stopColor0c5c93 svgShape" offset=".995" stop-color="#480c93"/></linearGradient><path fill="url(#bx)" d="M1245.6 711.7c-13.8 32.1-5.3 69.4 36.7 79.3 42 9.8 77.5-1.2 77.5-1.2s-22.3 74.6 16.5 87.3c38.8 12.7 99.8 21 110.1 36.4 10.4 15.4 20.5 51.4 20.5 51.4s31.5-54.8 12.7-94.1c-18.9-39.3-46.7-55.8-70.3-67.2-23.6-11.4-24-28.7-18.5-52.2 5.5-23.6 6.7-67.9-34.2-92.7-40.6-24.7-125.8-5.5-151 53z"/><linearGradient id="by" x1="1070.184" x2="1178.545" y1="1116.825" y2="1116.825" gradientUnits="userSpaceOnUse"><stop class="stopColorffd9d9 svgShape" offset="0" stop-color="#ececec"/><stop class="stopColorefb4b4 svgShape" offset="1" stop-color="#d1b4ef"/></linearGradient><path fill="url(#by)" d="M1124.4 991.6s-41 80.8-45.4 96.7c-4.3 15.8.5 76.2-3.9 87-4.3 10.8-10.5 19.8 4.6 34.2 15.1 14.4 23.4 39.1 31.4 31.2 8.1-7.9-11.7-41.8 0-47.5 11.7-5.8 2.5 6.1 11.6 15 9 8.9 12.8 5.1 12.8 5.1s-2.6-26.8-12.7-36.2c-10.1-9.4.7-60.1-1.3-70.9s57-89.8 57-89.8-33.6.7-54.1-24.8z"/><linearGradient id="bz" x1="1185.173" x2="1530.518" y1="1202.421" y2="1202.421" gradientUnits="userSpaceOnUse"><stop class="stopColorffd9d9 svgShape" offset="0" stop-color="#ececec"/><stop class="stopColorefb4b4 svgShape" offset="1" stop-color="#d1b4ef"/></linearGradient><path fill="url(#bz)" d="m1458.9 1127.3 4.8 102.2s-154.9-40.5-164.6-44.4c-9.6-3.9-23.9-20.3-49.6-21.2-25.7-1-66.2 9.6-64.3 19.3 1.9 9.6 46.3 6.8 56 20.3 9.6 13.5 37.6 21.3 72.4 28 34.7 6.7 111.5 43.6 153.1 51.1 35.4 6.3 61.4 7.8 63.3-29.9 1.9-37.7-2.3-133.8-2.3-133.8s-39.3 16.3-68.8 8.4z"/><path fill="#ccad58" d="m1107.8 1253.1 11.5 24.1 9.9-24.1z" class="colorcc9758 svgShape"/><linearGradient id="bA" x1="1107.782" x2="1129.172" y1="1208.545" y2="1208.545" gradientUnits="userSpaceOnUse"><stop class="stopColor0988c9 svgShape" offset="0" stop-color="#7509c9"/><stop class="stopColor3951a2 svgShape" offset="1" stop-color="#7808d0"/></linearGradient><path fill="url(#bA)" d="M1129.2 1159.9v93.2c0 2.3-4.8 4.1-10.7 4.1-5.9 0-10.7-1.9-10.7-4.1v-93.2h21.4z"/><linearGradient id="bB" x1="1087.378" x2="1121.866" y1="1190.503" y2="1168.415" gradientUnits="userSpaceOnUse"><stop class="stopColorf87d0b svgShape" offset="0" stop-color="#f8b80b"/><stop class="stopColorf7cb14 svgShape" offset="1" stop-color="#f7ba14"/></linearGradient><path fill="url(#bB)" d="M1129.2 1159.9v21.2s-3.7 3.8-11.7 3.9c-7.9.1-9.7-4.6-9.7-4.6v-20.5h21.4z"/><linearGradient id="bC" x1="1107.758" x2="1129.186" y1="1159.881" y2="1159.881" gradientUnits="userSpaceOnUse"><stop class="stopColorf87d0b svgShape" offset="0" stop-color="#f8b80b"/><stop class="stopColorf7cb14 svgShape" offset="1" stop-color="#f7ba14"/></linearGradient><ellipse cx="1118.5" cy="1159.9" fill="url(#bC)" rx="10.7" ry="4.1"/><path fill="#4b3c5e" d="M1116.6 1271.6h5l-2.3 5.6z" class="color3c495e svgShape"/><linearGradient id="bD" x1="967.188" x2="1130.719" y1="1949.221" y2="1949.221" gradientUnits="userSpaceOnUse"><stop class="stopColor3060ab svgShape" offset="0" stop-color="#7530ab"/><stop class="stopColor0c5c93 svgShape" offset=".995" stop-color="#480c93"/></linearGradient><path fill="url(#bD)" d="M1036.7 1903.6s25 22.5 30.2 23.8c5.1 1.3 35.3-5.9 47.6-14.6s17-4.6 16.2 0-1.4 16.4-8 20c-6.7 3.6-102.2 57.1-108 59.4-15.8 6.2-55.4 2.9-46.1-21.5 7.5-19.6 28.6-37.6 43.8-49.6 15.2-12 24.3-17.5 24.3-17.5z"/><linearGradient id="bE" x1="881.318" x2="1044.823" y1="1897.337" y2="1897.337" gradientUnits="userSpaceOnUse"><stop class="stopColor3060ab svgShape" offset="0" stop-color="#7530ab"/><stop class="stopColor0c5c93 svgShape" offset=".995" stop-color="#480c93"/></linearGradient><path fill="url(#bE)" d="M985.2 1839.2s-30.3 21.4-12.9 40.8c17.4 19.3 65.2-7.6 70.4-4.8 5.2 2.8 2 8.7-24.6 26.1s-81.6 58-90.3 55.1c-8.7-2.9-80.2-15.3-27.1-56 53.2-40.7 71-67.9 84.5-61.2z"/><path fill="#6b4799" d="M1458.9 1127.3s-12.6-61.7-16.4-88.1c-3.8-26.4 3-47.7 3-47.7s-25.6 20.5-18 56.6c7.5 36.1 10.5 97.4 10.5 117.5 0 20.1-1.4 58.2-1.4 58.2l27.1 5.7-4.8-102.2zM1206.2 984.3s-3.9-33.9 0-54.2 6.1-25.6 6.1-25.6-16.5 37.3-23.3 60.4c-6.8 23.1-22.1 50.4-22.1 50.4l18.3 7.6 21-38.6z" class="color994760 svgShape" opacity=".4"/><path fill="#360672" d="m1052.8 1675.6-3 171.6s-11.2 6.1-26.3 0c-15.1-6.1-19.7-9-19.7-9s22.8-4.6 25.1-13.8c2.3-9.2 5.2-157.8 5.2-157.8l18.7 9z" class="color065172 svgShape"/><linearGradient id="bF" x1="1478.077" x2="1365.744" y1="2075.296" y2="2075.296" gradientUnits="userSpaceOnUse"><stop class="stopColore2e2e2 svgShape" offset="0" stop-color="#e2e2e2"/><stop class="stopColorc1bfc0 svgShape" offset="1" stop-color="#d8b2ff"/></linearGradient><path fill="url(#bF)" d="m1347.2 1994.5 23.9 141.6c0 11 24.9 20 55.6 20 30.7 0 55.6-8.9 55.6-20l23.9-140.6-159-1z"/><linearGradient id="bG" x1="1347.186" x2="1506.277" y1="1989.885" y2="1989.885" gradientUnits="userSpaceOnUse"><stop class="stopColore2e2e2 svgShape" offset="0" stop-color="#e2e2e2"/><stop class="stopColorc1bfc0 svgShape" offset="1" stop-color="#d8b2ff"/></linearGradient><ellipse cx="1426.7" cy="1989.9" fill="url(#bG)" rx="79.5" ry="28.6"/><linearGradient id="bH" x1="1384.634" x2="1468.828" y1="1994.841" y2="1994.841" gradientUnits="userSpaceOnUse"><stop class="stopColor3060ab svgShape" offset="0" stop-color="#7530ab"/><stop class="stopColor0c5c93 svgShape" offset=".995" stop-color="#480c93"/></linearGradient><ellipse cx="1426.7" cy="1994.8" fill="url(#bH)" rx="42.1" ry="15.1"/><linearGradient id="bI" x1="1435.852" x2="1657.816" y1="1941.656" y2="1941.656" gradientUnits="userSpaceOnUse"><stop class="stopColor0988c9 svgShape" offset="0" stop-color="#7509c9"/><stop class="stopColor5acaff svgShape" offset="1" stop-color="#ab5aff"/></linearGradient><path fill="url(#bI)" d="M1437.8 1997.6s-9.1-36.1 11.8-37.1 25.5-43.6 49.9-44c24.4-.4 37.7-5.7 46.1-16.7s17.5-18.3 30.5-12.2c12.9 6.1 26.6 14.8 37.7 6.1s13.3-12.1 26.6-3.9 17.5 18.1 17.5 18.1-19.4-6.5-25.1 4.1c-5.7 10.7-14.1 27-30.1 20.7-16-6.3-27-4.9-31.6 6-4.6 10.9-31.6 19.7-44.9 17-13.3-2.7-28.6 9.5-29.7 21.3-1.1 11.8-12.2 9.9-33.5 17.4-16.3 5.8-25.2 3.2-25.2 3.2z"/><linearGradient id="bJ" x1="1397.819" x2="1627.791" y1="1888.982" y2="1888.982" gradientUnits="userSpaceOnUse"><stop class="stopColor0988c9 svgShape" offset="0" stop-color="#7509c9"/><stop class="stopColor5acaff svgShape" offset="1" stop-color="#ab5aff"/></linearGradient><path fill="url(#bJ)" d="M1426.8 1986.2s-50.1-42.1-18.5-62.4c31.6-20.3 41.4-54.8 51.6-70.8 10.3-16 35.8-13.3 45.7-27.4s24.4-28.6 44.2-27.4 33.9 3 44.2-11.4c10.3-14.5 33.9 0 33.9 0s-27.8 2.7-26.3 16-6.5 43.7-31.2 46c-24.7 2.3-47.6 8.8-48.5 23.3-1 14.5-2.1 36.5-22.3 38.1-20.2 1.5-30.7 15-28.1 31.3 2.6 16.3-24.4 33.4-24.4 33.4l-9.1 22.8-11.2-11.5z"/><linearGradient id="bK" x1="1178.644" x2="1422.117" y1="1879.169" y2="1879.169" gradientUnits="userSpaceOnUse"><stop class="stopColor0988c9 svgShape" offset="0" stop-color="#7509c9"/><stop class="stopColor5acaff svgShape" offset="1" stop-color="#ab5aff"/></linearGradient><path fill="url(#bK)" d="M1404.7 1978.8s-38.7-3.2-44.2-34.1-3.2-43.7-39.7-41.3c-36.5 2.4-15.9-44.3-37.3-51.1-21.4-6.8-27.7-4.3-40.1-35.3-12.3-31.1-64.8-28.9-64.8-28.9s48-19.4 70.1 0c22.1 19.3 37-11.2 54.9 12 18 23.2 12.3 31.5 30.7 32.5s34.9 18.1 32.6 33.8c-2.4 15.7 16.7-7.7 26.2 33.4 9.5 41 52.7 59.9 11.6 79z"/><linearGradient id="bL" x1="1181.216" x2="1408.27" y1="1940.372" y2="1940.372" gradientUnits="userSpaceOnUse"><stop class="stopColor0988c9 svgShape" offset="0" stop-color="#7509c9"/><stop class="stopColor5acaff svgShape" offset="1" stop-color="#ab5aff"/></linearGradient><path fill="url(#bL)" d="M1408.3 1980.8s-7.1 21.1-26.9 12.9c-19.9-8.3-19.3-28.7-35.3-30.3-16-1.7-13.9-2.2-27.4-2.7-13.4-.6-19.5-27.6-36-27.9-16.5-.3-5.2 8.3-23 12-17.8 3.7-15.6-11.5-27.2-3.4s-9.4 15.4-28.1 19.2c-18.7 3.8-7.2 29.2-7.2 29.2s-19.3-17.9-15.4-39.8c3.9-22 31.4-34.6 38-48.4 6.6-13.8 24.8-24.5 36.9-7.9 12.1 16.7 27-11.4 50.2 2.3 23.2 13.8 33-8.5 45.7 16.1 12.7 24.7 8.9 24.9 28.7 29.2 19.9 4.4 27 39.5 27 39.5z"/><linearGradient id="bM" x1="1351.941" x2="1471.021" y1="1823.323" y2="1823.323" gradientUnits="userSpaceOnUse"><stop class="stopColor0988c9 svgShape" offset="0" stop-color="#7509c9"/><stop class="stopColor5acaff svgShape" offset="1" stop-color="#ab5aff"/></linearGradient><path fill="url(#bM)" d="M1414.7 1995.6s-46.9-22.9-35.2-56.4c11.7-33.5-9.8-53-20.4-57.8-10.6-4.8-12-37.5 14.6-61.9 26.6-24.5 14.9-45.2 4.8-52.7-10.1-7.4 0-30.3 19.7-39.9s5.9-39.9 28.2-59.1c22.3-19.2 44.7-16.5 44.7-16.5s-26.6 28.2-11.2 43.6 3.7 39.9-9.6 50c-13.3 10.1-13.3 22.9 4.3 35.7 17.6 12.8-.5 38.2-12.2 42.8-11.7 4.6-3.2 31.7 12.2 42.3 15.4 10.6 0 26.9-12.2 34.2-12.3 7.3-27.7 64.1-10.5 79 17.1 14.8-17.2 16.7-17.2 16.7z"/><path fill="none" stroke="#f2f2f2" stroke-miterlimit="10" stroke-width=".228" d="M1412.7 1994.5s-35.1-46.1-12.5-80.2-6.2-55.7-4.5-70.2c4.6-38.9 34.6-44.1 29.1-58.7s-16-31.6.5-49.1c16.5-17.6 12.5-38.1 6.5-44.6s3.3-33.1 39.3-40.4M1431.8 1971.1s-4.7-56.7 36.3-72.9c41-16.2 20.3-54.3 59.2-61.7s49.1-11.9 59.2-32.3 29.4-23.4 41.2-17.5M1457.1 1967.1s21.4 14 33-12.1 31.5-28.6 46.8-24c15.3 4.6 20.7-36 41.8-26.5 21.1 9.5 34 10.8 42.7-7s36.4 10.4 36.4 10.4M1378.8 1941.4s-8.4-44.1-24.6-49.8c-16.2-5.7-7.5-35.1-26.1-41.3-18.6-6.2-34.4-16.6-40.6-33.5s-14.9-11.6-32.7-16.6c-17.8-5-33.1-24-76.2-12M1192.4 1984.4s-23.7-41.4 13.2-51 25.3-26.9 42.7-20.7c17.4 6.2 35.2-16.7 52.2-1.3 17 15.4 29.8 20.8 36.9 17.5 7-3.3 38.4 10.4 42.8 33.1" class="colorStrokef2f2f2 svgStroke"/><linearGradient id="bN" x1="1510.929" x2="1406.076" y1="1336.624" y2="1424.089" gradientUnits="userSpaceOnUse"><stop class="stopColore2e2e2 svgShape" offset="0" stop-color="#e2e2e2"/><stop class="stopColorafa7a3 svgShape" offset="1" stop-color="#a9a3af"/></linearGradient><path fill="url(#bN)" d="m1447.2 1321.5 145.7 68.2c4.5 2.1 4.5 8.4.1 10.6l-141.7 69.2c-6 2.9-12.9 3-18.9.1l-144.6-68c-4.6-2.2-4.6-8.7 0-10.9l145.5-69.1c4.4-2.1 9.5-2.2 13.9-.1z"/><path fill="#fff" d="m1447.2 1319.7 145.7 68.2c4.5 2.1 4.5 8.4.1 10.6l-141.7 69.2c-6 2.9-12.9 3-18.9.1l-144.6-68c-4.6-2.2-4.6-8.7 0-10.9l145.5-69.1c4.4-2.2 9.5-2.2 13.9-.1z" class="colorffffff svgShape"/><path fill="#b3a7bf" d="m1534.3 1394.5-51.7-24.2c-1.8-.9-1.8-2.3 0-3.3 1.9-.9 4.9-1 6.8-.1l51.7 24.2c1.8.9 1.8 2.3 0 3.3-1.9.9-4.9 1-6.8.1zM1526.2 1403.2l-111.1-52c-1.8-.9-1.8-2.3 0-3.3 1.9-.9 4.9-1 6.8-.1l111.1 52c1.8.9 1.8 2.3 0 3.3-1.9.9-5 1-6.8.1zM1512.7 1410l-111.1-52c-1.8-.9-1.8-2.3 0-3.3 1.9-.9 4.9-1 6.8-.1l111.1 52c1.8.9 1.8 2.3 0 3.3-1.9.9-5 1-6.8.1zM1499.2 1416.8l-111.1-52c-1.8-.9-1.8-2.3 0-3.3 1.9-.9 4.9-1 6.8-.1l111.1 52c1.8.9 1.8 2.3 0 3.3-1.9.9-5 .9-6.8.1zM1485.7 1423.6l-111.1-52c-1.8-.9-1.8-2.3 0-3.3 1.9-.9 4.9-1 6.8-.1l111.1 52c1.8.9 1.8 2.3 0 3.3-1.9.9-4.9.9-6.8.1zM1472.2 1430.3l-111.1-52c-1.8-.9-1.8-2.3 0-3.3 1.9-.9 4.9-1 6.8-.1l111.1 52c1.8.9 1.8 2.3 0 3.3-1.9.9-4.9 1-6.8.1zM1453.4 1435.2l-51.7-24.2c-1.8-.9-1.8-2.3 0-3.3 1.9-.9 4.9-1 6.8-.1l51.7 24.2c1.8.9 1.8 2.3 0 3.3-1.9.9-5 1-6.8.1z" class="colorbfb0a7 svgShape" opacity=".3"/><linearGradient id="bO" x1="1354.013" x2="1333.883" y1="3062.645" y2="3090.825" gradientTransform="matrix(-.0565 .7505 -.7506 -.0564 3999.249 592.565)" gradientUnits="userSpaceOnUse"><stop class="stopColorf87d0b svgShape" offset="0" stop-color="#f8b80b"/><stop class="stopColorf7cb14 svgShape" offset="1" stop-color="#f7ba14"/></linearGradient><path fill="url(#bO)" d="M1610.2 1442.4c1.8-1.2 6.6-5.3 3.5-13.6-1.7-4.4-6.8-7.7-12.2-6.5l12.9-6.3c5.5-1.3 10.8 2 12.4 6.5 3.8 10.1-4.1 14-4.1 14l-12.5 5.9z"/><linearGradient id="bP" x1="1408.494" x2="1372.442" y1="3100.46" y2="3150.933" gradientTransform="matrix(-.0565 .7505 -.7506 -.0564 3999.249 592.565)" gradientUnits="userSpaceOnUse"><stop class="stopColor0988c9 svgShape" offset="0" stop-color="#7509c9"/><stop class="stopColor3951a2 svgShape" offset="1" stop-color="#7808d0"/></linearGradient><path fill="url(#bP)" d="m1531 1482 1.3-6.6-8.8-2.2 3.7-8.7-7.7-2.5 76.6-37.4c5.4-1.1 10.5 2.1 12.2 6.5 3.8 10.1-4.1 14-4.1 14L1531 1482z"/><path fill="#fff" d="m1611.1 1435.5-78.8 39.9-8.8-2.2 3.8-8.6 80.4-39.5z" class="colorffffff svgShape" opacity=".4"/><path fill="#fff" d="M1604.5 1445.1c1.2-.7 7.3-4.8 3.9-13.9-1.7-4.4-6.8-7.7-12.2-6.5l17.7-8.6c.2 0 .3-.1.5-.1l-12.9 6.3c5.4-1.1 10.5 2.1 12.2 6.5 3.2 8.4-1.7 12.5-3.5 13.6l-5.7 2.7z" class="colorffffff svgShape"/><path fill="#ccad58" d="m1519.6 1462.1 7.7 2.5-3.8 8.6 8.8 2.2-1.3 6.6-27.9 3.9z" class="colorcc9758 svgShape"/><path fill="#290f49" d="M1513 1484.5s-1.8-1-2.6-2.5-1.2-5-1.2-5l-6.1 8.8 9.9-1.3z" class="color0f2649 svgShape"/><linearGradient id="bQ" x1="1084.844" x2="1184.7" y1="1562.031" y2="1685.517" gradientUnits="userSpaceOnUse"><stop class="stopColorf87d0b svgShape" offset="0" stop-color="#f8b80b"/><stop class="stopColorf7cb14 svgShape" offset="1" stop-color="#f7ba14"/></linearGradient><path fill="url(#bQ)" d="M1197.5 1631.1v30.5c0 1.2-.5 2.2-1.4 2.8-.5.5-1.2.7-1.8.8-.7.1-1.4 0-2-.3l-131.1-60.7c-3.3-1.5-5.4-4.8-5.4-8.5v-28.2c0-1.7.9-3.1 2.1-3.9.4-.2.8-.4 1.2-.5 1.1-.4 2.2-.3 3.4.2l130.4 60.3c1.3.6 2.4 1.5 3.2 2.7.8 1.4 1.4 3 1.4 4.8z"/><linearGradient id="bR" x1="1256.753" x2="1255.632" y1="1472.558" y2="1472.131" gradientUnits="userSpaceOnUse"><stop class="stopColore2e2e2 svgShape" offset="0" stop-color="#e2e2e2"/><stop class="stopColorf5f4f3 svgShape" offset="1" stop-color="#f4f4f4"/></linearGradient><path fill="url(#bR)" d="M1254.8 1473c.7-.7 1.7-1.2 2.8-1.3l-2.8 1.3z"/><linearGradient id="bS" x1="1367.924" x2="1085.034" y1="1602.508" y2="1494.74" gradientUnits="userSpaceOnUse"><stop class="stopColorf87d0b svgShape" offset="0" stop-color="#f8b80b"/><stop class="stopColorf7cb14 svgShape" offset="1" stop-color="#f7ba14"/></linearGradient><path fill="url(#bS)" d="m1393.6 1535.1-43.6 20.1-154 71.1c-.8-1.1-1.9-2.1-3.2-2.7l-130.4-60.3c-1.1-.5-2.3-.6-3.4-.2l195.8-90.1 2.8-1.3c.8-.1 1.6 0 2.5.4l130.4 60.4c1.2.5 2.3 1.5 3.1 2.6z"/><linearGradient id="bT" x1="1372.894" x2="1217.328" y1="1629.441" y2="1570.178" gradientUnits="userSpaceOnUse"><stop class="stopColorf87d0b svgShape" offset="0" stop-color="#f8b80b"/><stop class="stopColorf7cb14 svgShape" offset="1" stop-color="#f7ba14"/></linearGradient><path fill="url(#bT)" d="M1395.2 1539.9v30.5c0 1.2-.6 2.3-1.5 2.9v.8l-197.6 90.3c.8-.6 1.4-1.6 1.4-2.8v-30.5c0-1.7-.5-3.4-1.5-4.7l154-71.1 43.6-20.1c1 1.2 1.6 2.9 1.6 4.7z"/><path fill="#fefefe" d="M1061.1 1574.8v19.3c0 2.2 1.3 4.1 3.2 5l133.1 61V1632l-131.3-60.4c-2.3-1.1-5 .6-5 3.2z" class="colorfefefe svgShape"/><path fill="#e7e7e7" d="m1197.5 1631.1 197.7-91.2v30.4l-197.7 89.8z" class="colordfeeef svgShape"/><linearGradient id="bU" x1="1084.844" x2="1184.7" y1="1513.444" y2="1636.93" gradientUnits="userSpaceOnUse"><stop class="stopColor0988c9 svgShape" offset="0" stop-color="#7509c9"/><stop class="stopColor3951a2 svgShape" offset="1" stop-color="#7808d0"/></linearGradient><path fill="url(#bU)" d="M1197.5 1582.5v30.5c0 1.2-.5 2.2-1.4 2.8-.5.5-1.2.7-1.8.8-.7.1-1.4 0-2-.3l-131.1-60.7c-3.3-1.5-5.4-4.8-5.4-8.5V1519c0-1.7.9-3.1 2.1-3.9.4-.2.8-.4 1.2-.5 1.1-.4 2.2-.3 3.4.2l130.4 60.3c1.3.6 2.4 1.5 3.2 2.7.8 1.3 1.4 3 1.4 4.7z"/><linearGradient id="bV" x1="1256.753" x2="1255.632" y1="1423.971" y2="1423.544" gradientUnits="userSpaceOnUse"><stop class="stopColore2e2e2 svgShape" offset="0" stop-color="#e2e2e2"/><stop class="stopColorf5f4f3 svgShape" offset="1" stop-color="#f4f4f4"/></linearGradient><path fill="url(#bV)" d="M1254.8 1424.4c.7-.7 1.7-1.2 2.8-1.3l-2.8 1.3z"/><linearGradient id="bW" x1="1367.924" x2="1085.034" y1="1553.92" y2="1446.153" gradientUnits="userSpaceOnUse"><stop class="stopColor0988c9 svgShape" offset="0" stop-color="#7509c9"/><stop class="stopColor3951a2 svgShape" offset="1" stop-color="#7808d0"/></linearGradient><path fill="url(#bW)" d="m1393.6 1486.5-43.6 20.1-154 71.1c-.8-1.1-1.9-2.1-3.2-2.7l-130.4-60.3c-1.1-.5-2.3-.6-3.4-.2l195.8-90.1 2.8-1.3c.8-.1 1.6 0 2.5.4l130.4 60.4c1.2.5 2.3 1.5 3.1 2.6z"/><path fill="none" stroke="#fff" stroke-miterlimit="10" stroke-width=".228" d="m1107.3 1507.9 143.8-66.2c4.6-2.1 9.8-2.1 14.4 0l80.7 37.4c5.8 2.7 5.8 10.9 0 13.6l-141.1 65.2c-5 2.3-10.8 2.3-15.8 0l-82.1-38c-5-2.4-5-9.6.1-12z" class="colorStrokeffffff svgStroke" opacity=".6"/><linearGradient id="bX" x1="1372.894" x2="1217.328" y1="1580.854" y2="1521.591" gradientUnits="userSpaceOnUse"><stop class="stopColor0988c9 svgShape" offset="0" stop-color="#7509c9"/><stop class="stopColor3951a2 svgShape" offset="1" stop-color="#7808d0"/></linearGradient><path fill="url(#bX)" d="M1395.2 1491.3v30.5c0 1.2-.6 2.3-1.5 2.9v.8l-197.6 90.3c.8-.6 1.4-1.6 1.4-2.8v-30.5c0-1.7-.5-3.4-1.5-4.7l154-71.1 43.6-20.1c1 1.3 1.6 2.9 1.6 4.7z"/><linearGradient id="bY" x1="1197.481" x2="1395.152" y1="1551.411" y2="1551.411" gradientUnits="userSpaceOnUse"><stop class="stopColor0988c9 svgShape" offset="0" stop-color="#7509c9"/><stop class="stopColor3951a2 svgShape" offset="1" stop-color="#7808d0"/></linearGradient><path fill="url(#bY)" d="m1197.5 1582.5 197.7-91.2v30.4l-197.7 89.9z"/><path fill="#fff" d="m1055.7 1519 134.4 63.1v27.2l-134.4-62.1z" class="colorffffff svgShape"/><linearGradient id="bZ" x1="1168.152" x2="1185.381" y1="1604.861" y2="1604.861" gradientUnits="userSpaceOnUse"><stop class="stopColor0988c9 svgShape" offset="0" stop-color="#7509c9"/><stop class="stopColor3951a2 svgShape" offset="1" stop-color="#7808d0"/></linearGradient><path fill="url(#bZ)" d="m1174.2 1590.7 11.2 5-5.6 23.3-3.6-9.7-8 3z"/><linearGradient id="ca" x1="1057.646" x2="1074.874" y1="1601.584" y2="1601.584" gradientUnits="userSpaceOnUse"><stop class="stopColor0988c9 svgShape" offset="0" stop-color="#7509c9"/><stop class="stopColor3951a2 svgShape" offset="1" stop-color="#7808d0"/></linearGradient><path fill="url(#ca)" d="m1063.7 1587.4 11.2 5.1-5.6 23.3-3.6-9.8-8.1 3z"/><g class="color000000 svgShape" opacity=".58"><linearGradient id="cb" x1="1001.164" x2="761.709" y1="1253.313" y2="893.638" gradientUnits="userSpaceOnUse"><stop class="stopColor0988c9 svgShape" offset="0" stop-color="#7509c9"/><stop class="stopColor3951a2 svgShape" offset="1" stop-color="#7808d0"/></linearGradient><path fill="url(#cb)" d="M696.5 842.7c68 30.7 246.6 116.8 297 141.2 8.5 4.1 14.7 11.8 16.9 21l64.9 268c2.5 10.5-8.2 19.3-18 14.6-66-31.9-246.5-118.8-298.5-141.4-8.9-3.9-15.5-11.6-17.8-21.1l-64.4-265.8c-2.7-11.6 9-21.4 19.9-16.5z"/><path fill="#ffdc7c" d="m817.2 1055.5 7.6 26.7s8.9 12.6 43.1 33c34.2 20.5 43.4 8.5 43.4 8.5l-7.4-26-86.7-42.2z" class="colorffa97c svgShape"/><linearGradient id="cc" x1="1141.885" x2="1228.971" y1="4358.638" y2="4417.782" gradientTransform="matrix(1.1062 .5392 .265 .9264 -1625.673 -3666.526)" gradientUnits="userSpaceOnUse"><stop class="stopColorffd9d9 svgShape" offset="0" stop-color="#ececec"/><stop class="stopColorefb4b4 svgShape" offset="1" stop-color="#d1b4ef"/></linearGradient><path fill="url(#cc)" d="M899.4 1035.3s8.2 26.2 7.1 30.9c-1.1 4.7 4 31.5-.3 35.2-4.2 3.7-20.2 11.2-30.7 6.8-10.5-4.4-53.6-45.9-64.5-60.2-10.8-14.3-30.8-54-37.8-69-6.9-15 17.6-26 17.6-26l108.6 82.3z"/><linearGradient id="cd" x1="1196.14" x2="1154.413" y1="4368.377" y2="4305.7" gradientTransform="matrix(1.1062 .5392 .265 .9264 -1625.673 -3666.526)" gradientUnits="userSpaceOnUse"><stop class="stopColor3060ab svgShape" offset="0" stop-color="#7530ab"/><stop class="stopColor0c5c93 svgShape" offset=".995" stop-color="#480c93"/></linearGradient><path fill="url(#cd)" d="M785.8 968.5s1.1 5 34.4 31.6c33.3 26.5 77.3 44.8 81.5 29.8 4.2-15-35.9-70.6-92.3-92.9s-51.9 9.1-44.6 23.9c7.3 14.8 19 42.4 19 42.4s-9-20.7-1-15.6c8 5.2 17 19.2 17 19.2s1.3-2.2-8.7-19.7c-10-17.4-5.3-18.7-5.3-18.7z"/><linearGradient id="ce" x1="1039.515" x2="1334.71" y1="4515.867" y2="4515.867" gradientTransform="matrix(1.1062 .5392 .265 .9264 -1625.673 -3666.526)" gradientUnits="userSpaceOnUse"><stop class="stopColor0988c9 svgShape" offset="0" stop-color="#7509c9"/><stop class="stopColor3951a2 svgShape" offset="1" stop-color="#7808d0"/></linearGradient><path fill="url(#ce)" d="M825.5 1084.5s-68.4-16-84.9-12.3c-16.4 3.7-4.2 59.4-4.2 59.4l326.5 159.2s-7.6-32.9-39.4-69.4c-31.8-36.5-112.2-97.7-112.2-97.7s-28.9 10.4-85.8-39.2z"/><path fill="#fff" d="m824.9 1082.2 43.1 33-23.1 7.8-36.4-42.2s5.3-7.1 16.4 1.4zM910.6 1121.2l-29.7-1.3 23.9 32.3 36-5.3s-14.5-21.1-30.2-25.7z" class="colorffffff svgShape"/><linearGradient id="cf" x1="1167.252" x2="1206.74" y1="4522.94" y2="4522.94" gradientTransform="matrix(1.1062 .5392 .265 .9264 -1625.673 -3666.526)" gradientUnits="userSpaceOnUse"><stop class="stopColor3060ab svgShape" offset="0" stop-color="#7530ab"/><stop class="stopColor0c5c93 svgShape" offset=".995" stop-color="#480c93"/></linearGradient><path fill="url(#cf)" d="m863.9 1112.1-5.6 6.4 4.9 4.1 14.6 78.1 43.7 21.3-37.4-91 6.9 2.6-10.1-13.6z"/></g><path fill="#fefefe" d="m942.2 1516.5 228.6-107.1c8.8-4.1 8.8-16.7-.1-20.7l-332.4-152.5c-10.6-4.9-22.8-4.8-33.4.1l-234.3 109.8 371.6 170.4z" class="colorfefefe svgShape"/><linearGradient id="cg" x1="958.941" x2="800.666" y1="1484.088" y2="1246.35" gradientUnits="userSpaceOnUse"><stop class="stopColorf3f1ee svgShape" offset="0" stop-color="#f0f0f0"/><stop class="stopColorfdfdfd svgShape" offset="1" stop-color="#fdfdfd"/></linearGradient><path fill="url(#cg)" d="m942.2 1502.2 228.6-107.1c8.8-4.1 8.8-16.7-.1-20.7l-332.4-152.5c-10.6-4.9-22.8-4.8-33.4.1l-234.3 109.8 371.6 170.4z"/><path fill="#d2d2d2" d="M570.7 1346.1v-14.3l371.5 170.4v14.3z" class="colord6d3ce svgShape"/><path fill="#b0afb2" d="m865.1 1302-10.1-4.7-9.3 4.2 10.1 4.7zM870.5 1313.5l9.2-4.1-10.1-4.7-9.3 4.1zM885.1 1320.9l9.2-4.2-10.1-4.7-9.2 4.2zM899.7 1328.3l9.2-4.2-10.1-4.7-9.2 4.2zM914.3 1335.6l9.2-4.2-10.1-4.7-9.2 4.2zM928.9 1343l9.3-4.2-10.2-4.7-9.2 4.2zM943.5 1350.3l9.3-4.1-10.1-4.7-9.3 4.1zM958.2 1357.7l9.2-4.2-10.1-4.7-9.3 4.2zM972.8 1365l9.2-4.1-10.1-4.7-9.2 4.1zM987.4 1372.4l9.2-4.2-10.1-4.7-9.2 4.2zM1002 1379.8l9.2-4.2-10.1-4.7-9.2 4.2zM1016.6 1387.1l9.3-4.2-10.2-4.7-9.2 4.2zM1031.2 1394.5l9.3-4.2-10.1-4.7-9.3 4.2zM1045 1393l-9.3 4.1 10.2 4.7 9.2-4.1zM850.7 1308.6l-10.2-4.7-9.2 4.2 10.1 4.7zM845.9 1315.4l10.1 4.7 9.3-4.1-10.1-4.7zM860.5 1322.8l10.2 4.7 9.2-4.2-10.1-4.7zM875.2 1330.2l10.1 4.7 9.2-4.2-10.1-4.7zM889.8 1337.5l10.1 4.7 9.2-4.2-10.1-4.7zM904.4 1344.9l10.1 4.7 9.2-4.2-10.1-4.7zM919 1352.2l10.1 4.7 9.3-4.1-10.2-4.7zM933.6 1359.6l10.2 4.7 9.2-4.2-10.1-4.7zM948.3 1366.9l10.1 4.7 9.2-4.1-10.1-4.7zM962.9 1374.3l10.1 4.7 9.2-4.2-10.1-4.7zM977.5 1381.7l10.1 4.7 9.2-4.2-10.1-4.7zM1011.4 1389.5l-10.1-4.7-9.2 4.2 10.1 4.7zM1026.1 1396.9l-10.2-4.7-9.2 4.2 10.1 4.7zM1021.3 1403.7l10.1 4.7 9.3-4.1-10.1-4.7zM831.5 1322l10.1 4.7 9.3-4.1-4.8-2.2.3-.2-20.3-9.7-9.2 4.2 15 7.2zM856.3 1334.1l9.2-4.2-10.1-4.7-9.3 4.2zM860.8 1336.8l10.1 4.7 9.2-4.2-10.1-4.7zM875.4 1344.1l10.1 4.7 9.2-4.2-10.1-4.7zM890 1351.5l10.1 4.7 9.2-4.2-10.1-4.7zM904.6 1358.8l10.1 4.7 9.2-4.1-10.1-4.7zM919.2 1366.2l10.1 4.7 9.3-4.2-10.2-4.7zM933.8 1373.5l10.2 4.7 9.2-4.1-10.1-4.7zM967.8 1381.4l-10.1-4.7-9.2 4.2 10.1 4.7zM972.3 1384.1l-9.2 4.2 15 7.1-.4.2 10.1 4.7 9.2-4.2h-.1l.2-.1zM1011.6 1403.5l-10.1-4.7-9.2 4.2 10.1 4.7zM1006.9 1410.3l10.1 4.7 9.3-4.1-10.2-4.7zM821.8 1321.8l-10.1-4.7-9.2 4.2 10.1 4.7zM817.1 1328.6l10.1 4.7 9.2-4.1-10.1-4.7zM831.7 1336l10.1 4.7 9.3-4.2-10.2-4.7zM846.3 1343.4l10.2 4.7 9.2-4.2-10.1-4.7zM880.3 1351.2l-10.1-4.7-9.2 4.2 10.1 4.7zM894.9 1358.6l-10.1-4.7-9.2 4.2 10.1 4.7zM909.5 1366l-10.1-4.7-9.2 4.1 10.1 4.7zM924.1 1373.3l-10.1-4.7-9.2 4.2 10.1 4.7zM938.8 1380.7l-10.2-4.7-9.2 4.1 10.1 4.7zM953.4 1388l-10.1-4.7-9.3 4.2 10.2 4.7zM968 1395.4l-10.1-4.7-9.2 4.2 10.1 4.7zM982.6 1402.7l-10.1-4.7-9.2 4.2 10.1 4.7zM997.2 1410.1l-10.1-4.7-9.2 4.2 10.1 4.7zM992.5 1416.9l10.1 4.7 9.2-4.1-10.1-4.7zM807.4 1328.4l-10.1-4.7-9.2 4.2 10.1 4.7zM802.7 1335.2l10.1 4.7 9.2-4.1-10.1-4.7zM836.7 1343.1l-10.2-4.7-9.2 4.2 10.1 4.7zM851.3 1350.5l-10.1-4.7-9.3 4.2 10.1 4.7zM865.9 1357.8l-10.1-4.7-9.3 4.2 10.2 4.7zM880.5 1365.2l-10.1-4.7-9.2 4.2 10.1 4.7zM895.1 1372.6l-10.1-4.7-9.2 4.1 10.1 4.7zM909.7 1379.9l-10.1-4.7-9.2 4.2 10.1 4.7zM924.4 1387.3l-10.2-4.7-9.2 4.1 10.1 4.7zM939 1394.6l-10.1-4.7-9.3 4.2 10.1 4.7zM953.6 1402l-10.1-4.7-9.3 4.2 10.2 4.7zM968.2 1409.3l-10.1-4.7-9.2 4.2 10.1 4.7zM982.8 1416.7l-10.1-4.7-9.2 4.2 10.1 4.7zM978.1 1423.5l10.1 4.7 9.2-4.1-10.1-4.7zM782.9 1330.3l-9.2 4.2 10.1 4.7 9.2-4.2zM797.5 1337.7l-9.2 4.1 10.1 4.7 9.2-4.1zM879.3 1378.5l-13.3-6.6.1-.1-3.6-1.7-11.2-5.6.2-.1-5.8-2.6-9.1-4.6.3-.1-8-3.7-16.8-8.4-9.2 4.2 14.7 7.3-.1.1 2.2 1 12.6 6.2-.2.1 4.4 2 10.5 5.3-.3.1 6.6 3 8.4 4.2-.3.1 8.7 4.1 1.3.6h.1l9.2-4.1zM885.2 1381.8l-9.2 4.2 10.1 4.7 9.2-4.2zM899.8 1389.2l-9.2 4.1 10.1 4.7 9.2-4.1zM914.4 1396.5l-9.2 4.2 10.1 4.7 9.3-4.2zM929.1 1403.9l-9.3 4.2 10.1 4.7 9.3-4.2zM943.7 1411.2l-9.3 4.2 10.2 4.7 9.2-4.2zM958.3 1418.6l-9.2 4.2 10.1 4.7 9.2-4.2zM963.7 1430.1l10.1 4.7 9.2-4.1-10.1-4.7z" class="colorb2b1af svgShape"/><path fill="#fefefe" d="M524.3 975.7c78.9 35.6 286 135.5 344.5 163.7 9.9 4.8 17.1 13.7 19.7 24.4l75.3 310.8c3 12.2-9.6 22.4-20.9 16.9-76.5-36.9-285.9-137.8-346.2-164-10.3-4.5-17.9-13.5-20.6-24.4l-74.7-308.3c-3.3-13.5 10.3-24.8 22.9-19.1z" class="colorfefefe svgShape"/><linearGradient id="ch" x1="862.521" x2="584.815" y1="1461.106" y2="1043.976" gradientUnits="userSpaceOnUse"><stop class="stopColorf3f1ee svgShape" offset="0" stop-color="#f0f0f0"/><stop class="stopColorfdfdfd svgShape" offset="1" stop-color="#fdfdfd"/></linearGradient><path fill="url(#ch)" d="M509.1 984.9c78.9 35.6 286 135.5 344.5 163.7 9.9 4.8 17.1 13.7 19.7 24.4l75.3 310.8c3 12.2-9.6 22.4-20.9 16.9-76.5-36.9-285.9-137.8-346.2-164-10.3-4.5-17.9-13.5-20.6-24.4L486.2 1004c-3.3-13.4 10.3-24.7 22.9-19.1z"/><ellipse cx="1278.7" cy="542.8" fill="#360672" class="color065172 svgShape" rx="26.7" ry="13.1"/><linearGradient id="ci" x1="1244.916" x2="1312.498" y1="525.481" y2="525.481" gradientUnits="userSpaceOnUse"><stop class="stopColor3060ab svgShape" offset="0" stop-color="#7530ab"/><stop class="stopColor0c5c93 svgShape" offset=".995" stop-color="#480c93"/></linearGradient><path fill="url(#ci)" d="m1312.5 506.9-2 26.7c-.2 3.3-2.2 6.4-5.3 7.8-4.4 2-11.9 4.4-23.4 4.4-13.6 0-23.8-3.7-29-6.2-2.5-1.2-4.2-3.6-4.5-6.3l-3.4-28.1.4.9s11.7 8.8 35.8 8c22.7-.7 30.5-6.4 31.4-7.2z"/><defs><filter id="cj" width="150.3" height="189.9" x="1203.6" y="324.2" filterUnits="userSpaceOnUse"><feFlood flood-color="#fff" flood-opacity="1" result="back"/><feBlend in="SourceGraphic" in2="back"/></filter></defs><mask id="ck" width="150.3" height="189.9" x="1203.6" y="324.2" maskUnits="userSpaceOnUse"><g filter="url(#cj)"><linearGradient id="cl" x1="1203.565" x2="1353.848" y1="419.196" y2="419.196" gradientUnits="userSpaceOnUse"><stop class="stopColorffffff svgShape" offset="0" stop-color="#fff"/><stop class="stopColor333333 svgShape" offset="1" stop-color="#2e1a47"/></linearGradient><path fill="url(#cl)" d="m1349.6 425.9-.2.7c-1.5 4.3-3.4 8.3-5.6 12.2l-31.2 68.1-.1.1c-.9.7-8.7 6.5-31.3 7.2-24.1.8-35.8-8-35.8-8l-.4-.9-33.7-72.5h.1c-4.9-10.1-7.7-21.5-7.7-33.5 0-41.9 33.7-75.5 75.2-75s75.1 34.9 75.1 76.9c-.2 8.6-1.7 17-4.4 24.7z" mask="url(#ck)"/></g></mask><linearGradient id="cm" x1="1203.565" x2="1353.848" y1="419.196" y2="419.196" gradientUnits="userSpaceOnUse"><stop class="stopColorffa52e svgShape" offset="0" stop-color="#ffc72e"/><stop class="stopColorffd671 svgShape" offset="1" stop-color="#ffd666"/></linearGradient><path fill="url(#cm)" d="m1349.6 425.9-.2.7c-1.5 4.3-3.4 8.3-5.6 12.2l-31.2 68.1-.1.1c-.9.7-8.7 6.5-31.3 7.2-24.1.8-35.8-8-35.8-8l-.4-.9-33.7-72.5h.1c-4.9-10.1-7.7-21.5-7.7-33.5 0-41.9 33.7-75.5 75.2-75s75.1 34.9 75.1 76.9c-.2 8.6-1.7 17-4.4 24.7z"/><path fill="#ab5aff" d="M1281.3 536.8c15.7-.5 24.6-3.2 29.1-5.1 1.7-.7 2.8-2.3 2.9-4.1l.4-5.4c.2-1.9-1.9-3.3-3.7-2.5-4.6 1.9-13.4 4.5-28.7 5-18.3.6-30-4.4-35.1-7.1-1.2-.7-2.7.3-2.5 1.6l.9 7.4c.2 1.9 1.5 3.6 3.3 4.5 5.6 2.5 16.6 6.2 33.4 5.7z" class="color5acaff svgShape"/><ellipse cx="1278.7" cy="500.7" fill="#ab5aff" class="color5acaff svgShape" opacity=".5" rx="36.9" ry="13.4"/><linearGradient id="cn" x1="1240.154" x2="1329.502" y1="459.93" y2="402.707" gradientUnits="userSpaceOnUse"><stop class="stopColorea3f85 svgShape" offset="0" stop-color="#9f3fea"/><stop class="stopColorff9494 svgShape" offset="1" stop-color="#ffe294"/></linearGradient><path fill="url(#cn)" d="m1291.5 500.8-3.3-.1c0-.5 1.8-52.5 4.6-84.4l.3-3c-9.2 2.1-19.8 2.7-30.2 1.2 1.1 7.9 2.3 17.9 3.3 30.6 2.4 27.9 3.3 55.4 3.3 55.7l-3.3.1c0-.3-.9-27.7-3.3-55.5-1.1-13.2-2.3-23.4-3.5-31.4-.8-.1-1.5-.3-2.2-.5-15.9-3.6-19.9-10.8-20.8-14.8-1.1-4.7.7-9.8 4.7-13 3.6-2.9 8-3.6 11.9-1.8 1.7.8 5.5 2.6 9.4 27.3 10.8 1.7 21.8 1 31.1-1.1 1.7-14 5.3-28.7 12.8-30.9 3.9-1.1 8.1 1.2 12.4 7 3.1 4.1 3.3 8.8.5 13.1-3.5 5.5-12 10.3-22.8 13.2-.1 1.3-.3 2.7-.4 4.2-2.7 31.6-4.5 83.6-4.5 84.1zm-42.8-114.7c-1.8 0-3.7.7-5.4 2-3 2.4-4.4 6.2-3.6 9.7 1.3 5.6 7.8 10 18.3 12.4.3.1.7.1 1 .2-3.1-19.2-6-23-7.4-23.7-.9-.4-1.9-.6-2.9-.6zm59.5-4c-.3 0-.7 0-1 .1-4.5 1.3-8.3 11.1-10.3 26.8 9.3-2.7 16.5-6.9 19.6-11.6 2-3.2 1.9-6.3-.4-9.4-2-2.8-5-5.9-7.9-5.9z"/><linearGradient id="co" x1="1378.089" x2="1416.871" y1="440.583" y2="440.583" gradientUnits="userSpaceOnUse"><stop class="stopColorea3f85 svgShape" offset="0" stop-color="#9f3fea"/><stop class="stopColorff9494 svgShape" offset="1" stop-color="#ffe294"/></linearGradient><path fill="url(#co)" d="M1378.1 439h38.8v3.3h-38.8z"/><linearGradient id="cp" x1="1384.959" x2="1422.341" y1="377.415" y2="377.415" gradientUnits="userSpaceOnUse"><stop class="stopColorea3f85 svgShape" offset="0" stop-color="#9f3fea"/><stop class="stopColorff9494 svgShape" offset="1" stop-color="#ffe294"/></linearGradient><path fill="url(#cp)" d="m1385.5 382-.5-3.2 36.8-6 .5 3.2z"/><linearGradient id="cq" x1="1369.707" x2="1402.353" y1="320.632" y2="320.632" gradientUnits="userSpaceOnUse"><stop class="stopColorea3f85 svgShape" offset="0" stop-color="#9f3fea"/><stop class="stopColorff9494 svgShape" offset="1" stop-color="#ffe294"/></linearGradient><path fill="url(#cq)" d="M1370.4 337v-3.3c-.4 0-.7.2-.7.2 1.8-1.1 19.6-18.8 30.3-29.7l2.3 2.3c-.1.1-7.5 7.6-15 15-15.5 15.5-16 15.5-16.9 15.5z"/><linearGradient id="cr" x1="1338.364" x2="1355.394" y1="283.672" y2="283.672" gradientUnits="userSpaceOnUse"><stop class="stopColorea3f85 svgShape" offset="0" stop-color="#9f3fea"/><stop class="stopColorff9494 svgShape" offset="1" stop-color="#ffe294"/></linearGradient><path fill="url(#cr)" d="m1339.5 303.2-.5-3.2c-.4.1-.6.3-.6.3 1.7-1.7 8.4-19.6 13.9-36.1l3.1 1c0 .1-3.1 9.3-6.5 18.3-7.1 19.3-8.2 19.5-9.4 19.7z"/><linearGradient id="cs" x1="1277.102" x2="1280.368" y1="273.623" y2="273.623" gradientUnits="userSpaceOnUse"><stop class="stopColorea3f85 svgShape" offset="0" stop-color="#9f3fea"/><stop class="stopColorff9494 svgShape" offset="1" stop-color="#ffe294"/></linearGradient><path fill="url(#cs)" d="M1277.1 253.7h3.3v39.9h-3.3z"/><linearGradient id="ct" x1="12708.371" x2="12747.152" y1="440.583" y2="440.583" gradientTransform="matrix(-1 0 0 1 13887.724 0)" gradientUnits="userSpaceOnUse"><stop class="stopColorea3f85 svgShape" offset="0" stop-color="#9f3fea"/><stop class="stopColorff9494 svgShape" offset="1" stop-color="#ffe294"/></linearGradient><path fill="url(#ct)" d="M1140.6 439h38.8v3.3h-38.8z"/><linearGradient id="cu" x1="12715.24" x2="12752.623" y1="377.415" y2="377.415" gradientTransform="matrix(-1 0 0 1 13887.724 0)" gradientUnits="userSpaceOnUse"><stop class="stopColorea3f85 svgShape" offset="0" stop-color="#9f3fea"/><stop class="stopColorff9494 svgShape" offset="1" stop-color="#ffe294"/></linearGradient><path fill="url(#cu)" d="m1172 382-36.9-6 .5-3.2 36.9 6z"/><linearGradient id="cv" x1="12699.989" x2="12732.635" y1="320.632" y2="320.632" gradientTransform="matrix(-1 0 0 1 13887.724 0)" gradientUnits="userSpaceOnUse"><stop class="stopColorea3f85 svgShape" offset="0" stop-color="#9f3fea"/><stop class="stopColorff9494 svgShape" offset="1" stop-color="#ffe294"/></linearGradient><path fill="url(#cv)" d="M1187 337c-.9 0-1.4 0-17-15.5-7.5-7.4-14.9-15-15-15l2.3-2.3c10.7 10.9 28.5 28.6 30.3 29.7 0 0-.3-.2-.7-.2v3.3z"/><linearGradient id="cw" x1="12668.646" x2="12685.676" y1="283.672" y2="283.672" gradientTransform="matrix(-1 0 0 1 13887.724 0)" gradientUnits="userSpaceOnUse"><stop class="stopColorea3f85 svgShape" offset="0" stop-color="#9f3fea"/><stop class="stopColorff9494 svgShape" offset="1" stop-color="#ffe294"/></linearGradient><path fill="url(#cw)" d="M1218 303.2c-1.2-.2-2.4-.4-9.4-19.6-3.3-9.1-6.4-18.2-6.5-18.3l3.1-1c5.6 16.4 12.3 34.4 13.9 36.1 0 0-.2-.2-.6-.3l-.5 3.1z"/><linearGradient id="cx" x1="12607.385" x2="12610.65" y1="273.623" y2="273.623" gradientTransform="matrix(-1 0 0 1 13887.724 0)" gradientUnits="userSpaceOnUse"><stop class="stopColorea3f85 svgShape" offset="0" stop-color="#9f3fea"/><stop class="stopColorff9494 svgShape" offset="1" stop-color="#ffe294"/></linearGradient><path fill="url(#cx)" d="M1277.1 253.7h3.3v39.9h-3.3z"/><path fill="#e0e0e0" d="M826 466.4c2.1 9.9 6 20 11.5 29.6l-13.8 7.2c6 10.1 13.2 19.8 21.4 28.5l14.3-7.5c6.8 6.5 14.2 12.1 22 16.4v19.5c1.7.9 3.3 1.8 5 2.6 8 3.8 15.8 6.3 23.1 7.6v-20.5c5.5.4 10.5-.1 15.1-1.5l13.8 20.4c7.3-2.5 13.5-6.9 18.3-12.7l-14.4-21.2c2-3.1 3.5-6.7 4.6-10.8l19.8 9.4c.8-4.2 1.2-8.7 1.2-13.5 0-4.8-.4-9.7-1.2-14.6l-19.8-9.4c-1-5-2.6-10.1-4.6-15.1l14.4-7.5c-4.8-10.5-11-20.6-18.3-30.1l-13.8 7.3c-4.6-5.8-9.6-11.1-15.1-15.9V414c-7.3-5.7-15.1-10.5-23.1-14.3-1.7-.8-3.4-1.5-5-2.2V417c-7.8-3.2-15.3-4.6-22-4.5l-14.3-21.1c-8.2.9-15.5 3.7-21.4 8.1l13.8 20.3c-5.5 4.4-9.5 10.7-11.5 18.7l-19.8-9.4c-.8 4.2-1.2 8.6-1.2 13.4 0 4.8.4 9.7 1.2 14.7l19.8 9.2zm27.2-1.1c0-18.4 14.9-26.2 33.3-17.5s33.3 30.7 33.3 49.1c0 18.4-14.9 26.2-33.3 17.5-18.4-8.8-33.3-30.8-33.3-49.1zM776.1 694.8c3.2 15.5 9.5 31.3 18 46.4l-21.6 11.3c9.4 15.8 20.7 31 33.6 44.6l22.4-11.8c10.6 10.2 22.2 19 34.5 25.7v30.5c2.6 1.4 5.2 2.8 7.8 4 12.6 6 24.7 9.9 36.2 11.9v-32.2c8.6.7 16.5-.2 23.6-2.4l21.6 31.9c11.4-4 21.1-10.7 28.6-20l-22.5-33.2c3.1-4.9 5.5-10.6 7.1-16.9l31 14.7c1.3-6.5 1.9-13.6 1.9-21.1 0-7.5-.7-15.2-1.9-22.9l-31-14.7c-1.6-7.9-4-15.9-7.1-23.7l22.5-11.8c-7.6-16.4-17.3-32.3-28.6-47.2l-21.6 11.4c-7.1-9-15.1-17.4-23.6-24.8v-32.2c-11.5-8.9-23.6-16.4-36.2-22.4-2.6-1.3-5.2-2.4-7.8-3.4V617c-12.3-4.9-23.9-7.2-34.5-7.1l-22.4-33.1c-12.8 1.5-24.2 5.8-33.6 12.7l21.6 31.9c-8.6 6.9-14.8 16.8-18 29.3L745 636c-1.3 6.5-1.9 13.5-1.9 21.1 0 7.5.7 15.2 1.9 22.9l31.1 14.8zm42.6-1.8c0-28.8 23.3-41.1 52.1-27.4 28.8 13.7 52.1 48.1 52.1 76.9 0 28.8-23.3 41.1-52.1 27.4-28.8-13.7-52.1-48.1-52.1-76.9z" class="colore0e0e0 svgShape"/><linearGradient id="cy" x1="4422.463" x2="4232.484" y1="734.87" y2="969.845" gradientTransform="matrix(-1 0 0 1 4968.88 0)" gradientUnits="userSpaceOnUse"><stop class="stopColorbfbfbf svgShape" offset="0" stop-color="#bfbfbf"/><stop class="stopColorf9f9f9 svgShape" offset="1" stop-color="#f9f9f9"/></linearGradient><path fill="url(#cy)" d="M793.4 991.1 465.2 827.6c-6.3-2.9-10.3-9.1-10.3-16l-14.1-85.9c0-9.8 18.2-20.8 33.1-14.6L802.2 861c12.1 5.6 19.8 17.6 19.8 30.9v76.5c0 17-19.1 27.1-28.6 22.7z"/><linearGradient id="cz" x1="4162.399" x2="4529.462" y1="854.71" y2="854.71" gradientTransform="matrix(-1 0 0 1 4968.88 0)" gradientUnits="userSpaceOnUse"><stop class="stopColorf9f9f9 svgShape" offset="0" stop-color="#f9f9f9"/><stop class="stopColore2e2e2 svgShape" offset="1" stop-color="#e2e2e2"/></linearGradient><path fill="url(#cz)" stroke="#ba9adb" stroke-miterlimit="10" stroke-width=".152" d="M786.2 989.8 449.7 836.1c-6.3-2.9-10.3-9.1-10.3-16v-88.3c0-9.8 10.1-16.3 19-12.2l328.3 149.9c12.1 5.6 19.8 17.6 19.8 30.9v76.5c0 10.3-10.8 17.2-20.3 12.9z" class="colorStroke9ab4db svgStroke"/><path fill="#5c5c5c" d="m722.1 878.3-7.3 11.5-16.2-4.8 11.7 16.7-2.8 14.9 14.6-1.2 14.5 14.1-2.8-17.4 11.8-6.3-16.3-9.5zM669.9 855.5l-7.3 11.5-16.2-4.8 11.7 16.7-2.8 14.9 14.6-1.2 14.5 14.1-2.8-17.4 11.8-6.3-16.3-9.5zM617.7 832.7l-7.3 11.5-16.2-4.8 11.7 16.7-2.8 14.9 14.6-1.2 14.5 14.1-2.8-17.4 11.8-6.3-16.3-9.5zM565.4 809.9l-7.2 11.5-16.3-4.8 11.8 16.7-2.8 14.9 14.5-1.2 14.6 14.1-2.8-17.4 11.7-6.3-16.2-9.5zM513.2 787.1l-7.2 11.5-16.3-4.8 11.8 16.7-2.8 14.9 14.5-1.2 14.6 14.1-2.8-17.4 11.7-6.3-16.2-9.5z" class="color5c5c5c svgShape"/></svg>