<svg xmlns="http://www.w3.org/2000/svg" enable-background="new 0 0 850 850" viewBox="0 0 850 850"><polygon fill="#7808d0" points="468.35 230.78 299.62 230.78 299.62 552.92 550.81 552.92 550.81 313.24" class="color4f12b5 svgShape"/><polygon fill="#bd82f9" points="475.23 223.44 306.5 223.44 306.5 545.59 557.69 545.59 557.69 305.9" class="colorf982ba svgShape"/><polygon fill="#f2f2f2" points="486.56 215.87 317.82 215.87 317.82 538.02 569.02 538.02 569.02 298.33" class="colorffffff svgShape"/><polygon fill="#bd82f9" points="486.56 298.33 569.02 298.33 486.56 215.87" class="colorf982ba svgShape"/><path fill="#9720f5" d="M467.1,383.98c-1.94-2.2-3.95-4.35-5.97-6.49c2.05-2.17,4.09-4.35,6.06-6.58
						c6.8-6.89,13.58-13.81,20.28-20.8c3.22-3.36,4.43-8.45,3.25-12.89c-0.35-2.18-1.31-4.26-2.91-5.87c-1.85-1.85-4.25-2.81-6.7-3
						c-4.22-0.99-8.81-0.05-12.05,3.33c-7.01,6.72-13.95,13.52-20.86,20.34c-2.14,1.88-4.22,3.83-6.29,5.79
						c-8.61-8.7-17.28-17.34-26.11-25.84c-5.05-5.24-14.63-5.46-19.64,0c-5.17,5.63-5.39,14.05,0,19.64
						c8.43,8.75,16.99,17.33,25.6,25.87c-8.6,8.53-17.15,17.1-25.57,25.84c-5.24,5.05-5.46,14.63,0,19.64
						c5.63,5.17,14.05,5.39,19.64,0c8.82-8.49,17.47-17.12,26.07-25.81c2.08,1.96,4.17,3.92,6.31,5.81
						c6.89,6.8,13.81,13.58,20.8,20.28c3.36,3.22,8.45,4.43,12.89,3.25c2.18-0.35,4.26-1.31,5.87-2.91c1.85-1.85,2.81-4.25,3-6.7
						c0.99-4.22,0.05-8.81-3.33-12.05C480.71,397.82,473.92,390.89,467.1,383.98z" class="colorf52083 svgShape"/><g class="color000000 svgShape"><path fill="#7808d0" d="M535.14,634.13H336.71c-13.03,0-23.59-10.56-23.59-23.59v-7.86c0-13.03,10.56-23.59,23.59-23.59h198.42
				c13.03,0,23.59,10.56,23.59,23.59v7.86C558.72,623.57,548.16,634.13,535.14,634.13z" class="color4f12b5 svgShape"/></g><g class="color000000 svgShape"><path fill="#d8b2ff" d="M347.65,622.75v-29.42h4.15l9.43,14.88c2.18,3.45,3.89,6.55,5.28,9.56l0.09-0.04
					c-0.35-3.93-0.44-7.51-0.44-12.09v-12.31h3.58v29.42h-3.84l-9.34-14.93c-2.05-3.27-4.02-6.63-5.5-9.82l-0.13,0.04
					c0.22,3.71,0.3,7.25,0.3,12.14v12.57H347.65z" class="colorae91dd svgShape"/><path fill="#d8b2ff" d="M401.52,607.73c0,10.13-6.16,15.5-13.66,15.5c-7.77,0-13.23-6.02-13.23-14.93
					c0-9.34,5.81-15.45,13.66-15.45C396.32,592.84,401.52,599,401.52,607.73z M378.69,608.21c0,6.29,3.4,11.92,9.39,11.92
					c6.02,0,9.43-5.54,9.43-12.22c0-5.85-3.06-11.96-9.39-11.96C381.83,595.94,378.69,601.75,378.69,608.21z" class="colorae91dd svgShape"/><path fill="#d8b2ff" d="M415.7,593.72c2.31-0.35,5.06-0.61,8.08-0.61c5.46,0,9.34,1.27,11.92,3.67c2.62,2.4,4.15,5.81,4.15,10.56
					c0,4.8-1.48,8.73-4.23,11.44c-2.75,2.75-7.29,4.23-13.01,4.23c-2.71,0-4.98-0.13-6.9-0.35V593.72z M419.5,619.74
					c0.96,0.17,2.36,0.22,3.84,0.22c8.12,0,12.53-4.54,12.53-12.49c0.04-6.94-3.88-11.35-11.92-11.35c-1.96,0-3.45,0.17-4.45,0.39
					V619.74z" class="colorae91dd svgShape"/><path fill="#d8b2ff" d="M448.92,613.49l-3.06,9.25h-3.93l10-29.42h4.58l10.04,29.42h-4.06l-3.14-9.25H448.92z M458.56,610.53
					l-2.88-8.47c-0.65-1.92-1.09-3.67-1.53-5.37h-0.09c-0.44,1.75-0.92,3.54-1.48,5.33l-2.88,8.51H458.56z" class="colorae91dd svgShape"/><path fill="#d8b2ff" d="M473.1,596.56h-8.95v-3.23h21.78v3.23h-8.99v26.19h-3.84V596.56z" class="colorae91dd svgShape"/><path fill="#d8b2ff" d="M490.69,613.49l-3.06,9.25h-3.93l10-29.42h4.58l10.04,29.42h-4.06l-3.14-9.25H490.69z M500.34,610.53
					l-2.88-8.47c-0.65-1.92-1.09-3.67-1.53-5.37h-0.09c-0.44,1.75-0.92,3.54-1.48,5.33l-2.88,8.51H500.34z" class="colorae91dd svgShape"/></g><g class="color000000 svgShape"><path fill="#ffd666" d="M343.02,351.28c4.14-1.68,6.82-5.27,3.55-17.27c-3.27-11.99-13.07-36.69-13.07-36.69l-6.71,1.01
				c0,0-0.27,25.52,1.22,32.13C329.5,337.08,332.19,355.69,343.02,351.28z" class="colorffbd95 svgShape"/><path fill="#ffd666" d="M286.9,380.41c2.2,4.14,6.44,7.04,14.93,0.57c8.49-6.47,32.96-21.98,36.35-25.07
				c3.39-3.09,11.96-8.31,7.22-16.39c-4.66-7.95-12.85-2.74-19.29,1.22C297.55,358.29,280.98,369.28,286.9,380.41z" class="colorffbd95 svgShape"/><path fill="#8016d3" d="M290.39,387.48c2.23,1.79,13.1-4.28,19.91-9.24c8.27-6.02,28.5-21.94,28.5-21.94s-1.52-7.03-6.97-12.37
				c-4.79-4.7-6.76-4.47-6.76-4.47l-26.29,16.77C298.77,356.24,284.08,382.42,290.39,387.48z" class="colord31679 svgShape"/><path fill="#ffd666" d="M222.35,424.61c-4.47,0.03-8.29,2.37-9.71,14.72c-1.42,12.35-1.48,38.92-1.48,38.92l6.61,1.55
				c0,0,9.72-23.59,10.79-30.28C229.63,442.82,234.04,424.54,222.35,424.61z" class="colorffbd95 svgShape"/><path fill="#191919" d="M296.11,613.68c0,0,6.64-2.51,10.03-2.4c2.43,0.07,5.47,2.07,5.63,4.15c0.06,0.81-0.88,1.79-1.71,2.78
				c-0.75,0.89-11.06,8.1-13.27,8.34c-3.81,0.42-7.86,0.4-9.92-0.34c-2.13-0.77-2.15-8.13-2.15-8.13L296.11,613.68z" class="color191919 svgShape"/><path fill="#ffd666" d="M245.17,408.19c-4.62-14.18-16.58-38.48-9.59-42.72c9.11-5.52,35.33-8.91,35.33-8.91l0,0.45
				c0,0,22.41,2.88,31.53,8.39c7,4.23-1.13,29.03-5.73,43.21c-1.11,3.4-0.98,18.66-0.55,32.19c0.11,3.34,2.82,18.68,2.36,25.02
				c-0.14,1.89-21.55,13.62-27.55,13.93l0-0.45c-6-0.3-27.43-12.01-27.57-13.9c-0.47-6.34,2.24-21.69,2.34-25.03
				C246.16,426.85,246.28,411.6,245.17,408.19z" class="colorffbd95 svgShape"/><path fill="#ffd666" d="M240.06,364.47c-4.27-1.95-10.7,1.41-13.51,11.7c-2.8,10.29-9.08,37.39-9.89,41.9
				c-0.81,4.52-4.44,13.87,4.24,17.4c8.54,3.47,11.87-5.65,14.57-12.7C247.47,391.47,251.53,369.72,240.06,364.47z" class="colorffbd95 svgShape"/><path fill="#ffdc7c" d="M259.96,352.36c0.6-2.7,2.09-16.06,2.09-16.06l8.85,0v0.45l8.85,0c0,0,1.51,13.35,2.11,16.06
				c0.6,2.7,7.89,6.77,7.89,6.77l-18.84,0.01l0-0.45l-18.84,0.01C252.08,359.15,259.36,355.07,259.96,352.36z" class="colorffa47c svgShape"/><path fill="#ffd666" d="M285.07,450.94c10.8-0.04,15.01,7.49,14.72,30.6c-0.29,23.11,0.18,48.17-1.31,51.77
				c-1.5,3.6-16.81,3.69-18.31,1.59s-9.18-50.04-9.19-57.54C270.97,469.85,273.3,450.98,285.07,450.94z" class="colorffbd95 svgShape"/><path fill="#ffd666" d="M289.64,551.77L289.64,551.77c5.07-0.12,9.12-4.38,9-9.45l-0.17-6.75c-0.12-5.07-4.38-9.12-9.45-9h0
				c-5.07,0.12-9.12,4.38-9,9.45l0.17,6.75C280.31,547.85,284.56,551.9,289.64,551.77z" class="colorffbd95 svgShape"/><path fill="#ffd666" d="M289.77,537.66c3.3,0,11.41,1.09,10.97,22.63c-0.44,21.54-5.67,51.05-5.67,51.05l-7.8,0
				c0,0-7.73-39.88-7.76-47.54C279.45,546.41,279.34,537.67,289.77,537.66z" class="colorffbd95 svgShape"/><path fill="#ffd666" d="M256.57,451.1c-10.74-1.17-15.71,5.88-17.85,28.89c-2.14,23.01-1.35,48.29-0.24,52.03
				c1.11,3.74,16.33,5.43,18.04,3.5c1.71-1.93,10.5-49.21,11.29-56.67C268.6,471.39,268.27,452.38,256.57,451.1z" class="colorffbd95 svgShape"/><path fill="#ffd666" d="M246.74,551.5l-2.83-0.37c-4.26-0.56-7.28-4.49-6.73-8.75l1.24-9.52c0.55-4.26,4.49-7.28,8.75-6.73
				l2.83,0.37c4.26,0.55,7.28,4.49,6.73,8.75l-1.24,9.52C254.93,549.02,251,552.05,246.74,551.5z" class="colorffbd95 svgShape"/><path fill="#ffd666" d="M246.68,537.27c-3.28-0.35-11.46-0.12-13.28,21.36c-1.82,21.47,4.17,51.78,4.17,51.78l7.76,0.82
				c0,0,7.99-39.26,8.82-46.87C256.02,547.05,257.05,538.36,246.68,537.27z" class="colorffbd95 svgShape"/><path fill="#211b28" d="M296.79,446.3c0,0,3.89,19.03,4.5,29.39c0.61,10.35-0.53,55.61-0.55,60.6c-0.02,4.98,0.33,20.29,0.02,35.29
				c-0.31,15.01-0.26,44.55-0.26,44.55l-19.21-0.47c0,0-3.97-63.44-3.97-73.41c0-9.97-6.34-62.49-6.34-62.49l-0.02-32.64
				L296.79,446.3z" class="color281b22 svgShape"/><path fill="#211b28" d="M245.41,445.72c0,0-5.87,18.52-7.56,28.75c-1.69,10.23-1.42,55.77-1.93,60.73
				c-0.51,4.96-2.46,20.14-3.72,35.1c-1.27,14.96-0.47,44.74-0.47,44.74l19.15,1.55c0,0,6.66-63.09,7.71-73
				c1.05-9.92,12.46-62.19,12.46-62.19l-0.09-34.28L245.41,445.72z" class="color281b22 svgShape"/><path fill="#191919" d="M299.12,616.09c0,0,0.4,6.87,0.05,8.9c-0.2,1.15-3.14,2.41-8.17,2.71c-3.82,0.23-7.39-1.1-8.28-1.49
				c-2.23-0.99,0.71-10.5,0.71-10.5L299.12,616.09z" class="color191919 svgShape"/><path fill="#191919" d="M238.03,612.06c0,0-6.64-2.52-10.02-2.42c-2.43,0.07-5.48,2.06-5.64,4.14c-0.06,0.81,0.88,1.79,1.71,2.78
				c0.75,0.89,11.05,8.12,13.25,8.37c3.81,0.43,7.86,0.42,9.92-0.32c2.13-0.76,2.16-8.13,2.16-8.13L238.03,612.06z" class="color191919 svgShape"/><path fill="#ffdc7c" d="M285.95,323.5c0.16,1.15,1.07,2.29,1.27,3.9c0.08,0.63-0.52,1.61-0.45,2.27
				c0.59,5.5,0.69,11.69-2.38,12.24c-5.53,0.99-8.72,2.24-12.42,3.04c-5.57,1.2-14.09-3.61-17.8-14.62
				c-3.58-10.62,5.48-21.68,15.73-23.71c9.88-1.96,14.01,4.95,15.76,15.06C285.76,322.27,285.86,322.88,285.95,323.5z" class="colorffa47c svgShape"/><path fill="#2e1a47" d="M263.89,304.46c7.85-3.2,22.05,1.32,18.19,6.8c-1.15,1.63,1.24,14.3,1.24,14.3s-1.93-0.54-2.42,0.33
				c-0.49,0.86-0.05,5.34-0.38,7.45c-0.34,2.12-3.55,10.67-4.93,10.96c-1.37,0.29-11.46,1.53-12.85,0.57
				c-1.39-0.97-5.29-6.14-7.28-9.68C253.48,331.64,243.78,312.65,263.89,304.46z" class="color472639 svgShape"/><path fill="#ffdc7c" d="M281.2,320.98c-0.13-0.43-2.72-1.34-3.18,1.88c-0.23,1.62,3.13,7.75,3.49,7.67
				C282.42,330.34,281.88,323.18,281.2,320.98z" class="colorffa47c svgShape"/><path fill="#8016d3" d="M233.32,365.53c1.19-1.98,7.58-3.62,13.47-5.46c5.19-1.62,9.37-3.8,9.37-3.8l29.31,0.09
				c0,0,6.44-2.1,11.84-1.45c6.61,0.8,9.78,4.16,10.79,6.24c1.03,2.11-1.23,25.21-9.95,50.32c-1.19,3.44,1.89,27.54-1.1,34.75
				l-25.86,2.38l-25.87-2.3c-2.37-8.26,0.02-31.76-1.18-35.2C242.96,407.66,231.33,368.83,233.32,365.53z" class="colord31679 svgShape"/><polygon fill="#8016d3" points="253.11 357.85 288.87 357.88 283.86 351.98 258.12 351.95" class="colord31679 svgShape"/><path fill="#8016d3" d="M235.4,363.95c-5.71-1.07-10.89,11.41-12.29,19.71c-1.4,8.3-7.18,34.48-7.18,34.48s5.48,4.66,13.06,5.58
				c6.66,0.81,8.09-0.56,8.09-0.56l10.67-29.31C247.74,393.85,243.35,365.44,235.4,363.95z" class="colord31679 svgShape"/><path fill="#ffd666" d="M219.67,478.1c0,0,0.48,3.18,0.43,3.68c-0.04,0.51-1,4.67-0.66,5.97c0.34,1.3,0.94,1.97,0.9,2.26
				c-0.04,0.28-1.97,2.03-3.03-0.04c-1.07-2.07-1.06-4.59-1.65-5.02c-0.59-0.43-4.27,2.87-4.72,3.84c-0.45,0.97-2.49,7.76-2.62,8.08
				s-0.67,1.15-1.04,1.13c-0.37-0.01-1.4-1.52-1.46-1.94c-0.05-0.42-0.88,0-1.13-0.32c-0.25-0.33-0.96-1.59-0.96-1.59
				s-1.18-1.23-1.32-1.91c-0.14-0.68-0.51-3.76-0.41-4.1c0.1-0.35,1.7-6.52,2.64-7.68c0.94-1.16,6.9-7.29,10.51-7.5
				C216.86,472.86,219.67,478.1,219.67,478.1z" class="colorffbd95 svgShape"/><path fill="#191919" d="M297.04,451.53l-53.03-0.08c-0.7,0-1.26-0.57-1.26-1.26l1.1-3.74c0-0.7,0.56-1.26,1.26-1.26h51.93
				c0.7,0,1.26,0.56,1.26,1.26v3.83C298.3,450.97,297.74,451.53,297.04,451.53z" class="color191919 svgShape"/><path fill="#ffd666" d="M330.38,281.28L330.38,281.28c-0.8,0.11-1.37,0.85-1.27,1.64l0.8,6.22c0.1,0.8,0.85,1.37,1.65,1.27
					l0.01,0c0.8-0.11,1.36-0.84,1.26-1.64l-0.8-6.22C331.93,281.75,331.18,281.18,330.38,281.28z" class="colorffbd95 svgShape"/><path fill="#ffd666" d="M327.62,281.38L327.62,281.38c-0.8,0.11-1.37,0.84-1.27,1.64l0.8,6.22c0.1,0.8,0.84,1.37,1.65,1.27
					l0.01,0c0.8-0.11,1.36-0.84,1.26-1.64l-0.8-6.22C329.17,281.84,328.43,281.27,327.62,281.38z" class="colorffbd95 svgShape"/><path fill="#ffd666" d="M324.95,281.63L324.95,281.63c-0.8,0.11-1.37,0.85-1.27,1.64l0.8,6.22c0.1,0.8,0.84,1.37,1.65,1.27
					l0.01,0c0.8-0.11,1.36-0.84,1.26-1.64l-0.8-6.22C326.49,282.09,325.75,281.52,324.95,281.63z" class="colorffbd95 svgShape"/><path fill="#ffd666" d="M322.39,282.12L322.39,282.12c-0.8,0.11-1.37,0.85-1.27,1.64l0.8,6.22c0.1,0.8,0.85,1.37,1.65,1.27
					l0.01,0c0.8-0.11,1.36-0.84,1.26-1.64l-0.8-6.22C323.93,282.58,323.19,282.01,322.39,282.12z" class="colorffbd95 svgShape"/><path fill="#ffd666" d="M327.1,303.82c0,0-5.39-8.87-5.89-10.84c-0.5-1.96-0.01-9.87-0.01-9.87s2.93,2.04,4.68,1.56
					c1.75-0.48,6.16-2.14,6.16-2.14s2.61,6.37,2.82,9.56c0.21,3.19-0.63,8.87-0.63,8.87L327.1,303.82z" class="colorffbd95 svgShape"/></g><g class="color000000 svgShape"><path fill="#2e1a47" d="M606.09,310.54c0,0,0.51-5.42,5.38-5.31c11.26,0.25,16,6.73,16.3,13.35c0.4,8.69-6.17,16.27-7.77,27.17
				c-0.66,4.49,3.33,7.77,2.92,7.94c-1.35,0.57-22.16,3.3-11-25.92C613.71,323.11,606.09,310.54,606.09,310.54z" class="color472639 svgShape"/><path fill="#ffdc7c" d="M600.33,343.56c3.88,2.33,3.15,8.75-1.28,14.71c-4.43,5.97-25.34,27.38-27.73,27.47
				c-2.39,0.1-7.87-2.76-7.01-6.1c0.86-3.34,13.74-24.38,18.23-28.65C587.04,346.72,595.28,340.52,600.33,343.56z" class="colorffa47c svgShape"/><path fill="#ffdc7c" d="M600.74,583.91c0.39,3.25,1.86,5.21,2.78,6.77c1.11,1.88,1.07,5.15,0.19,6.09
				c-2.42,2.59-5.45,1.9-8.44,4.04c-2.99,2.14-7.24,9.43-9.83,10.24c-2.59,0.81-8.61,0.94-9.06-0.29c-0.46-1.23,5.54-6.23,5.54-6.23
				c8.69-12.22,9.36-17.75,9.36-17.75S600.69,583.43,600.74,583.91z" class="colorffa47c svgShape"/><path fill="#ffdc7c" d="M600.53,509.41c7.11,6.97,8.65,25.12,8.27,32.09c-0.39,6.97-8.66,43.6-8.27,46.12
				c0.39,2.52-9.31,0.6-9.24-0.82c0.75-14.07-3.15-51.25-3.73-54.93c-0.58-3.68-2.52-20.45-2.54-22.11
				C584.91,501.23,596.46,505.42,600.53,509.41z" class="colorffa47c svgShape"/><path fill="#ffd666" d="M614.37,314.24c0,0-1.26,20.37,0,21.42c3.93,3.28,15.53,6.3,18.2,12c3.24,6.92-13.99,28.76-17.03,50.26
				c-1.48,10.42,7.55,25.24,9.1,35.3c1.55,10.07-30.11,22.24-31.27,22.24c-1.16,0-14.8-9.27-16.74-12.56
				c-1.94-3.29,4.32-33.19,4.32-39.78s-1.68-19.83-2.69-20.99c-1.01-1.16-5.18-5.06-5.18-9.32c0-6.19,9.29-14.93,9.67-17.06
				c0.39-2.13-0.41-5.19,0.66-6.55c2.13-2.71,13.16-8.32,13.35-9.68c0.19-1.35-0.19-18.78-0.19-18.78L614.37,314.24z" class="colorffbd95 svgShape"/><path fill="#30184f" d="M581.93,604.54c0,0-1.7,1.63-1.39,2.08c0.45,0.65,3.15,0.22,3.84-0.19c6.17-3.64,14.24-11.2,15.87-13.47
				c1.69-2.37,1.77-4.85,1.77-4.85c0.55,0,3.01,3.47,2.64,6.24c-0.1,0.61-0.68,2.16-0.94,2.44c-1.36,1.46-6.14,4.14-7.45,5.07
				c-2.99,2.14-6.86,9.43-9.45,10.24c-2.59,0.81-11.51,1.23-11.96,0C574.5,611.13,579.11,606.77,581.93,604.54z" class="color4f2718 svgShape"/><path fill="#ffd666" d="M621.01,428.12c4.48,0.57,9.88,24.98,10.5,41.92c0.84,22.83,3.57,42.78,2.47,44.18
				c-1.1,1.4-13.99,3.85-16.05,3.08c-2.06-0.78-16.55-56.86-17.38-60.05C599.71,454.06,601.57,425.66,621.01,428.12z" class="colorffbd95 svgShape"/><path fill="#30184f" d="M604.69,593.84c0,0-1.54,5.14-1.98,6.86c-0.67,2.6-0.88,8.1-0.88,8.1h-1.16c0,0,0.84-10.39-4.4-6.94
				C594.63,602.93,604.69,593.84,604.69,593.84z" class="color4f2718 svgShape"/><path fill="#ffdc7c" d="M604.81,427.62c4.29,1.43,5.31,26.51,2.13,43.16c-3.02,15.8-5.05,37.47-6.41,38.63
				c-1.35,1.16-13.15,2.78-15.02,1.62c-1.87-1.16-9.05-66.05-9.24-69.34C576.08,438.4,586.22,421.42,604.81,427.62z" class="colorffa47c svgShape"/><path fill="#ffd666" d="M624.34,508.4c-6.38,1.23-8.01,5.69-4.87,24.42c2.38,14.22,11.28,46.36,15.51,61.15
				c1.34,4.7,0.86,7.85,1.3,7.85c1.81-0.02,7.25-0.14,7.79-4.34c0.12-0.92-1.95-4.03-1.96-6.56c-0.05-14.64-0.15-51.69-1.02-56.88
				C640.07,527.95,634.55,506.42,624.34,508.4z" class="colorffbd95 svgShape"/><path fill="#211b28" d="M578.38,418.29c0,0-2.52,6.75-2.11,23.4c0.41,16.65,14.09,142.18,14.09,142.18s5.38,0.9,9.28,0.19
				c3.9-0.71,5.84-2.15,5.84-2.15s4.21-38.43,3.88-46.62c-0.57-14.2-6.62-24.02-6.34-25.22s6.98-48.43,6.98-48.43l-14.6-42.38
				L578.38,418.29z" class="color281b22 svgShape"/><path fill="#211b28" d="M590.16,419.72c0,0,1.09,8.9,1.76,14.48c0.68,5.58,22.22,80.65,23.62,84.72
				c1.4,4.07,16.93,73.38,17.43,74.17c0.5,0.79,9.49,0.07,11.1-0.89c1.61-0.96-1.33-52.49-2.61-61.21
				c-1.29-8.72-6.14-17.1-6.14-17.1s-3.03-47.07-4.32-60.11c-2.72-27.57-10.47-39.06-10.47-39.06L590.16,419.72z" class="color281b22 svgShape"/><path fill="#ffdc7c" d="M596.71,328.27l0.03,1.85l11.85,5.99c1.99,1.01,4.31,1.13,6.4,0.34l0.43-0.16c0,0-0.75-4.49-1.11-8.67
				c-0.4-4.61,0.25-9.04,0.25-9.04L596.71,328.27z" class="colorffa47c svgShape"/><path fill="#30184f" d="M644.39,598.08c0,0,3.67,8.79,3.63,11.16c-0.05,2.37-1.16,7.98-2.98,8.23c-1.82,0.25-6.34-3.97-6.86-4.6
				c-3.2-3.95-3.27-11.89-3.27-11.89L644.39,598.08z" class="color4f2718 svgShape"/><path fill="#ffd666" d="M642.5,593.09c0,0,2.88,6.64,3.51,11.98c0.15,1.23-0.75,6.19-2.49,6.24c-4.86,0.12-8.84-8.31-8.68-11.26
				c0.16-2.95,0.28-6.15,0.28-6.15L642.5,593.09z" class="colorffbd95 svgShape"/><path fill="#5f00d6" d="M620.62,414.68c-2.92-7.38-5.37-14.08-4.9-17.93c0.86-7.06,8.04-21.03,8.04-21.03l-1.39-35.74
				l-23.75,7.16l-8.45-2.28l-11.77,17.08c0,0-5.45,6.25-5.59,10.7c-0.14,4.45,3.12,6.92,5.02,9.03c1.89,2.12,3.29,16.76,2.96,23.81
				c-0.14,3.02-1.21,7.94-2.39,12.81C593.2,420.86,607.86,420.83,620.62,414.68z" class="colord60000 svgShape"/><polygon fill="#191919" points="582.75 355.77 582.75 347.75 594.42 341.55" class="color191919 svgShape"/><path fill="#5f00d6" d="M615.82,398.95c0.28-4.21,12.8-32.8,12.8-32.8l3.28-22.92l-9.54-3.25l-11.91,21.95
				c0,0-4.55,22.59-10.06,23.83c-5.52,1.24-19.76,3.17-20.22,6.29c-0.46,3.13,25.09,16.26,27.58,19.96
				c0.63,0.93,1.65,3.16,2.85,6.21c3.42-0.82,6.73-1.98,9.94-3.51C617.82,408.1,615.6,402.36,615.82,398.95z" class="colord60000 svgShape"/><path fill="#ffd666" d="M619.92,313.25c-2.51,11.65-14.55,18.95-20.5,17.66c-5.79-1.25-11.58-12.47-10.15-24.48
				c1.41-11.84,10.07-17.88,18.88-15.98C616.95,292.36,622.43,301.6,619.92,313.25z" class="colorffbd95 svgShape"/><path fill="#2e1a47" d="M598.81,298.12c1.11,3.36,4.26,5.54,11.38,6.5c5.1,0.69,8.02,7.97,7.81,10.79
				c-0.08,1.08-1.59,6.19-1.59,6.19s11.58-10,2.45-24.08c-9.13-14.08-21.6-7.05-21.76-6.01
				C596.95,292.56,598.28,296.5,598.81,298.12z" class="color472639 svgShape"/><path fill="#2e1a47" d="M601.89,295.54c0,0-0.26,4.93-4.51,5.69c-4.25,0.76-8.49,4.04-8.49,4.04s-0.18-11.73,8.21-13.75
				C605.5,289.5,601.89,295.54,601.89,295.54z" class="color472639 svgShape"/><path fill="#ffdc7c" d="M563.47,383.02c0.66,4.61,10.96,10.62,18.94,12.75c7.98,2.13,32.52,5.98,32.52,5.98l2.01-7.32
				c0,0-40.22-15.81-42.45-16.52C572.26,377.2,562.33,375.08,563.47,383.02z" class="colorffa47c svgShape"/><path fill="#ffd666" d="M630.7,344.9c4.49,0.56,6.42,6.72,4.79,13.97c-1.63,7.25-18.11,42.85-20.27,43.91
				c-2.15,1.06-8.31,0.66-8.88-2.75c-0.57-3.41,8.72-35.42,11.1-41.15C619.82,353.17,624.84,344.17,630.7,344.9z" class="colorffbd95 svgShape"/><path fill="#5f00d6" d="M620.9,348.25c0,0,3.4-6.7,10.29-5.31c3.53,0.71,7.53,4.09,5.84,12.84c-1.7,8.74-7.65,18.86-7.65,18.86
				l-17.44-8.95C611.93,365.69,616.15,354.36,620.9,348.25z" class="colord60000 svgShape"/><path fill="#ffd666" d="M610.18,403.84c-4.41-0.42-10.56-9.92-12.93-17.4c-2.37-7.48-7.09-30.61-7.09-30.61l6.87-2.24
				c0,0,16.75,37.47,17.52,39.55C615.33,395.23,617.77,404.56,610.18,403.84z" class="colorffbd95 svgShape"/><path fill="#ffd666" d="M597.12,356.09c0,0-0.99-2.44,1.45-5.52c2.44-3.07,1.76-6.71,1.67-7.33c-0.1-0.62-0.6-4.91-0.87-5.21
				c-0.81-0.89-1.23,0.52-1.46,0.24c-0.22-0.28-1.04-1.26-1.77-0.33c-0.75,0.96-0.87,0.59-1.29,0.5c-0.42-0.09-1.11,0.63-1.19,1.18
				c-0.07,0.49-0.76,0.38-1.09,0.93c-0.16,0.26-0.44,1.12-0.25,2.09c0.31,1.62,0.07,3.15-1.21,5.22c-1.28,2.06-3.18,5.47-0.47,8.33
				C593.35,359.06,597.12,356.09,597.12,356.09z" class="colorffbd95 svgShape"/><path fill="#9a90a4" d="M598.37,328.33l0.84-1.65c0.19-0.37,0.65-0.52,1.03-0.33l0,0c0.37,0.19,0.52,0.65,0.33,1.03l-0.84,1.65
					c-0.19,0.37-0.65,0.52-1.03,0.33l0,0C598.33,329.17,598.18,328.71,598.37,328.33z" class="color90a4a2 svgShape"/><path fill="#544b60" d="M587,353.68L587,353.68c-0.66-0.32,0.28-3.62,0.6-4.28l10.15-20.87c0.32-0.66,1.13-0.94,1.79-0.62l0,0
					c0.66,0.32,0.94,1.13,0.62,1.79l-10.15,20.87C589.68,351.23,587.66,354,587,353.68z" class="color4b5b60 svgShape"/><rect width="2.9" height="1.36" x="596.6" y="330.2" fill="#9a90a4" class="color90a4a2 svgShape" transform="rotate(24.499 598.044 330.881)"/><path fill="#d1d1d1" d="M595.11,337.47L595.11,337.47c-0.21-0.1-0.31-0.36-0.21-0.57l3.28-6.99c0.1-0.21,0.36-0.31,0.57-0.21
					l0,0c0.21,0.1,0.31,0.36,0.21,0.57l-3.28,6.99C595.58,337.48,595.32,337.57,595.11,337.47z" class="colorc9dad8 svgShape"/><g class="color000000 svgShape"><path fill="#ffd666" d="M595.03,353.99c0,0,1.61-2.31,2.9-5.67c0.14-0.36,0.55-0.82,0.69-1.18c0.11-0.29,0.13-0.89,0.23-1.18
				c0.1-0.26,0.34-0.44,0.43-0.69c0.13-0.34-0.02-0.9,0.09-1.22c0.1-0.28,0.42-0.76,0.54-1.01c0.46-0.98-0.23-1.25-0.12-1.57
				c0.34-0.98,0.43-1.27,0.43-1.47c0.04-0.95-2.16-4.55-2.68-5c-0.52-0.45-2.83-3.65-3.21-3.49c-0.37,0.17-1.05,1.55-0.01,3.44
				c1.04,1.89,2.18,4.25,1.84,3.91c-0.34-0.34-2.68-1.7-3.73-2.05c-0.68-0.23-1.06,0.44-1.14,1.03c-0.05,0.34,1.16,1.95,1.16,1.95
				s-1.4,0.34-1.47,0.64c-0.22,1.04,1.04,1.94,1.35,2.36c0.26,0.35-1.4,0.15-1.44,0.62c-0.18,1.72,3.74,3.26,2.84,4.75
				C593.28,348.92,592.92,352.64,595.03,353.99z" class="colorffbd95 svgShape"/></g></g></svg>